<svg xmlns="http://www.w3.org/2000/svg" width="850" height="180" viewBox="0 0 850 180"><defs><style>.metric-icon{animation:count-glow 4s ease-in-out infinite}@keyframes count-glow{0%,100%{fill-opacity:0.7}50%{fill-opacity:1}}.star-bg{animation:twinkle-slow 7s ease-in-out infinite}.star-mid{animation:twinkle-mid 5s ease-in-out infinite}.star-fg{animation:twinkle-fast 3s ease-in-out infinite}@keyframes twinkle-slow{0%,100%{opacity:0.07}50%{opacity:0.30}}@keyframes twinkle-mid{0%,100%{opacity:0.12}50%{opacity:0.45}}@keyframes twinkle-fast{0%,100%{opacity:0.25}50%{opacity:0.65}}.shooting-star{opacity:0;animation:shoot linear infinite}@keyframes shoot{0%{opacity:0;transform:translate(0,0)}5%{opacity:0.9}15%{opacity:0.6;transform:translate(var(--shoot-tx),var(--shoot-ty))}20%{opacity:0;transform:translate(var(--shoot-tx),var(--shoot-ty))}100%{opacity:0}}</style><filter id="xdf01081" x="-30%" y="-30%" width="160%" height="160%"><feGaussianBlur stdDeviation="3"/></filter><radialGradient id="xe7d3b8d" cx="50%" cy="50%" r="80%"><stop offset="0%" stop-color="#0f1623" stop-opacity="0.85"/><stop offset="100%" stop-color="#080c14" stop-opacity="0"/></radialGradient><linearGradient id="x743a279" x1="0" y1="0" x2="1" y2="0"><stop offset="0%" stop-color="#fff" stop-opacity="0.85"/><stop offset="100%" stop-color="#fff" stop-opacity="0"/></linearGradient></defs><rect x="0" y="0" width="850" height="180" rx="14" ry="14" fill="#080c14"/><rect x="0" y="0" width="850" height="180" rx="14" ry="14" fill="url(#xe7d3b8d)"/><circle cx="117.1" cy="141.1" r="0.72" fill="#00d4ff" opacity="0.09" class="star-bg" style="animation-duration:5.057s;animation-delay:3.084s"/><circle cx="142.2" cy="148.9" r="0.88" fill="#fff" opacity="0.16" class="star-bg" style="animation-duration:6.928s;animation-delay:4.995s"/><circle cx="262.7" cy="47.3" r="0.89" fill="#fff" opacity="0.14" class="star-bg" style="animation-duration:5.205s;animation-delay:1.748s"/><circle cx="314.0" cy="138.9" r="0.19" fill="#fff" opacity="0.17" class="star-bg" style="animation-duration:5.351s;animation-delay:1.021s"/><circle cx="762.3" cy="118.7" r="0.82" fill="#fff" opacity="0.10" class="star-bg" style="animation-duration:5.428s;animation-delay:1.255s"/><circle cx="549.5" cy="47.9" r="0.32" fill="#ffb020" opacity="0.18" class="star-bg" style="animation-duration:8.087s;animation-delay:0.542s"/><circle cx="155.6" cy="45.5" r="0.86" fill="#a78bfa" opacity="0.08" class="star-bg" style="animation-duration:6.405s;animation-delay:0.864s"/><circle cx="209.1" cy="95.1" r="0.30" fill="#fff" opacity="0.12" class="star-bg" style="animation-duration:7.919s;animation-delay:0.188s"/><circle cx="93.8" cy="58.0" r="0.20" fill="#a78bfa" opacity="0.23" class="star-bg" style="animation-duration:6.664s;animation-delay:5.499s"/><circle cx="59.7" cy="14.7" r="0.75" fill="#fff" opacity="0.21" class="star-bg" style="animation-duration:6.800s;animation-delay:1.956s"/><circle cx="592.9" cy="126.4" r="0.40" fill="#fff" opacity="0.10" class="star-bg" style="animation-duration:5.941s;animation-delay:1.483s"/><circle cx="633.6" cy="27.5" r="0.24" fill="#a78bfa" opacity="0.30" class="star-bg" style="animation-duration:6.661s;animation-delay:5.011s"/><circle cx="105.6" cy="119.5" r="0.40" fill="#fff" opacity="0.14" class="star-bg" style="animation-duration:6.140s;animation-delay:0.345s"/><circle cx="65.6" cy="80.6" r="0.75" fill="#fff" opacity="0.25" class="star-bg" style="animation-duration:5.004s;animation-delay:3.888s"/><circle cx="437.2" cy="14.2" r="0.24" fill="#a78bfa" opacity="0.28" class="star-bg" style="animation-duration:5.497s;animation-delay:0.007s"/><circle cx="308.8" cy="39.5" r="0.31" fill="#00d4ff" opacity="0.23" class="star-bg" style="animation-duration:8.849s;animation-delay:0.432s"/><circle cx="569.3" cy="101.9" r="0.26" fill="#fff" opacity="0.12" class="star-bg" style="animation-duration:8.283s;animation-delay:3.372s"/><circle cx="68.0" cy="64.8" r="0.57" fill="#fff" opacity="0.09" class="star-bg" style="animation-duration:5.535s;animation-delay:4.411s"/><circle cx="351.7" cy="53.8" r="0.20" fill="#fff" opacity="0.13" class="star-bg" style="animation-duration:8.422s;animation-delay:0.732s"/><circle cx="43.4" cy="142.5" r="0.52" fill="#fff" opacity="0.14" class="star-bg" style="animation-duration:6.820s;animation-delay:1.572s"/><circle cx="415.6" cy="63.6" r="0.85" fill="#a78bfa" opacity="0.28" class="star-bg" style="animation-duration:8.270s;animation-delay:3.849s"/><circle cx="416.0" cy="167.8" r="0.46" fill="#fff" opacity="0.10" class="star-bg" style="animation-duration:7.705s;animation-delay:4.968s"/><circle cx="802.9" cy="65.4" r="0.57" fill="#fff" opacity="0.26" class="star-bg" style="animation-duration:7.563s;animation-delay:4.761s"/><circle cx="24.6" cy="117.3" r="0.79" fill="#fff" opacity="0.28" class="star-bg" style="animation-duration:5.202s;animation-delay:3.498s"/><circle cx="455.5" cy="165.4" r="0.89" fill="#00d4ff" opacity="0.24" class="star-bg" style="animation-duration:6.318s;animation-delay:5.907s"/><circle cx="703.3" cy="121.8" r="0.64" fill="#a78bfa" opacity="0.24" class="star-bg" style="animation-duration:6.818s;animation-delay:2.605s"/><circle cx="734.9" cy="107.4" r="0.52" fill="#a78bfa" opacity="0.30" class="star-bg" style="animation-duration:6.060s;animation-delay:2.598s"/><circle cx="78.7" cy="154.6" r="0.64" fill="#ffb020" opacity="0.24" class="star-bg" style="animation-duration:5.499s;animation-delay:4.533s"/><circle cx="101.6" cy="86.4" r="0.33" fill="#ffb020" opacity="0.19" class="star-bg" style="animation-duration:5.789s;animation-delay:1.042s"/><circle cx="167.0" cy="166.0" r="0.88" fill="#fff" opacity="0.09" class="star-bg" style="animation-duration:7.987s;animation-delay:1.421s"/><circle cx="353.2" cy="27.2" r="0.40" fill="#fff" opacity="0.16" class="star-bg" style="animation-duration:5.242s;animation-delay:1.520s"/><circle cx="499.2" cy="91.8" r="0.79" fill="#ffb020" opacity="0.09" class="star-bg" style="animation-duration:6.381s;animation-delay:1.179s"/><circle cx="754.3" cy="53.3" r="0.76" fill="#00d4ff" opacity="0.10" class="star-bg" style="animation-duration:5.464s;animation-delay:0.013s"/><circle cx="422.5" cy="81.4" r="0.24" fill="#fff" opacity="0.19" class="star-bg" style="animation-duration:6.823s;animation-delay:4.338s"/><circle cx="685.5" cy="88.7" r="0.73" fill="#ffb020" opacity="0.15" class="star-bg" style="animation-duration:8.443s;animation-delay:6.706s"/><circle cx="531.4" cy="13.5" r="0.79" fill="#fff" opacity="0.28" class="star-bg" style="animation-duration:6.396s;animation-delay:4.171s"/><circle cx="57.7" cy="154.2" r="0.62" fill="#fff" opacity="0.13" class="star-bg" style="animation-duration:8.951s;animation-delay:3.981s"/><circle cx="57.6" cy="14.7" r="0.80" fill="#a78bfa" opacity="0.10" class="star-bg" style="animation-duration:8.387s;animation-delay:4.758s"/><circle cx="590.2" cy="80.5" r="0.66" fill="#fff" opacity="0.15" class="star-bg" style="animation-duration:8.344s;animation-delay:4.692s"/><circle cx="303.6" cy="143.4" r="0.66" fill="#fff" opacity="0.12" class="star-bg" style="animation-duration:6.970s;animation-delay:2.760s"/><circle cx="102.4" cy="15.7" r="0.97" fill="#fff" opacity="0.19" class="star-mid" style="animation-duration:3.567s;animation-delay:0.131s"/><circle cx="545.3" cy="43.2" r="0.70" fill="#ffb020" opacity="0.30" class="star-mid" style="animation-duration:5.333s;animation-delay:4.945s"/><circle cx="477.0" cy="97.6" r="1.10" fill="#fff" opacity="0.27" class="star-mid" style="animation-duration:4.102s;animation-delay:0.007s"/><circle cx="695.6" cy="12.5" r="0.94" fill="#a78bfa" opacity="0.14" class="star-mid" style="animation-duration:5.526s;animation-delay:4.674s"/><circle cx="788.5" cy="58.0" r="0.81" fill="#a78bfa" opacity="0.18" class="star-mid" style="animation-duration:5.983s;animation-delay:0.404s"/><circle cx="376.7" cy="98.6" r="0.80" fill="#fff" opacity="0.22" class="star-mid" style="animation-duration:6.995s;animation-delay:4.232s"/><circle cx="790.8" cy="136.0" r="0.53" fill="#a78bfa" opacity="0.13" class="star-mid" style="animation-duration:4.619s;animation-delay:0.484s"/><circle cx="796.8" cy="131.6" r="0.50" fill="#fff" opacity="0.37" class="star-mid" style="animation-duration:5.977s;animation-delay:1.993s"/><circle cx="127.5" cy="70.1" r="1.17" fill="#00d4ff" opacity="0.19" class="star-mid" style="animation-duration:5.470s;animation-delay:5.176s"/><circle cx="409.2" cy="143.0" r="0.74" fill="#ffb020" opacity="0.17" class="star-mid" style="animation-duration:5.269s;animation-delay:5.188s"/><circle cx="249.3" cy="153.4" r="0.73" fill="#ffb020" opacity="0.26" class="star-mid" style="animation-duration:4.391s;animation-delay:1.218s"/><circle cx="212.4" cy="22.0" r="1.17" fill="#fff" opacity="0.21" class="star-mid" style="animation-duration:4.777s;animation-delay:2.330s"/><circle cx="505.3" cy="148.1" r="0.97" fill="#ffb020" opacity="0.33" class="star-mid" style="animation-duration:6.976s;animation-delay:3.625s"/><circle cx="395.3" cy="135.9" r="0.57" fill="#a78bfa" opacity="0.31" class="star-mid" style="animation-duration:6.733s;animation-delay:2.310s"/><circle cx="288.7" cy="143.6" r="0.52" fill="#00d4ff" opacity="0.44" class="star-mid" style="animation-duration:4.438s;animation-delay:2.243s"/><circle cx="332.7" cy="82.3" r="0.42" fill="#fff" opacity="0.36" class="star-mid" style="animation-duration:6.008s;animation-delay:3.627s"/><circle cx="164.7" cy="50.0" r="0.69" fill="#00d4ff" opacity="0.15" class="star-mid" style="animation-duration:5.944s;animation-delay:1.375s"/><circle cx="191.3" cy="116.7" r="0.69" fill="#ffb020" opacity="0.29" class="star-mid" style="animation-duration:5.167s;animation-delay:4.063s"/><circle cx="141.1" cy="21.3" r="0.63" fill="#fff" opacity="0.28" class="star-mid" style="animation-duration:6.656s;animation-delay:0.698s"/><circle cx="26.9" cy="144.7" r="0.70" fill="#00d4ff" opacity="0.16" class="star-mid" style="animation-duration:5.862s;animation-delay:0.866s"/><circle cx="577.7" cy="163.0" r="0.79" fill="#fff" opacity="0.16" class="star-mid" style="animation-duration:6.675s;animation-delay:1.303s"/><circle cx="661.1" cy="109.6" r="0.70" fill="#00d4ff" opacity="0.13" class="star-mid" style="animation-duration:4.860s;animation-delay:2.174s"/><circle cx="84.7" cy="125.3" r="0.71" fill="#fff" opacity="0.36" class="star-mid" style="animation-duration:5.651s;animation-delay:2.665s"/><circle cx="392.4" cy="51.1" r="0.67" fill="#ffb020" opacity="0.36" class="star-mid" style="animation-duration:6.575s;animation-delay:3.518s"/><circle cx="252.0" cy="149.9" r="1.16" fill="#00d4ff" opacity="0.37" class="star-mid" style="animation-duration:5.780s;animation-delay:2.280s"/><circle cx="297.0" cy="115.0" r="1.30" fill="#ffb020" opacity="0.51" class="star-fg" style="animation-duration:3.795s;animation-delay:3.687s"/><circle cx="524.0" cy="28.9" r="0.77" fill="#00d4ff" opacity="0.47" class="star-fg" style="animation-duration:4.040s;animation-delay:3.703s"/><circle cx="191.5" cy="108.1" r="1.43" fill="#fff" opacity="0.41" class="star-fg" style="animation-duration:3.849s;animation-delay:3.317s"/><circle cx="168.8" cy="66.0" r="1.35" fill="#ffb020" opacity="0.42" class="star-fg" style="animation-duration:2.122s;animation-delay:1.810s"/><circle cx="347.0" cy="108.9" r="1.36" fill="#a78bfa" opacity="0.37" class="star-fg" style="animation-duration:3.396s;animation-delay:2.200s"/><circle cx="416.6" cy="112.4" r="0.84" fill="#fff" opacity="0.45" class="star-fg" style="animation-duration:3.126s;animation-delay:1.234s"/><circle cx="735.3" cy="107.2" r="0.88" fill="#a78bfa" opacity="0.45" class="star-fg" style="animation-duration:2.015s;animation-delay:0.625s"/><circle cx="311.7" cy="167.1" r="1.01" fill="#ffb020" opacity="0.58" class="star-fg" style="animation-duration:2.398s;animation-delay:0.390s"/><circle cx="379.7" cy="55.3" r="1.19" fill="#fff" opacity="0.37" class="star-fg" style="animation-duration:4.015s;animation-delay:1.527s"/><circle cx="503.7" cy="140.7" r="1.31" fill="#00d4ff" opacity="0.47" class="star-fg" style="animation-duration:2.935s;animation-delay:2.714s"/><line x1="425" y1="13" x2="443" y2="18" stroke="url(#x743a279)" stroke-width="1.1" stroke-linecap="round" class="shooting-star" style="animation-delay:23.65s;--shoot-tx:87px;--shoot-ty:46px;animation-duration:2.87s"/><line x1="613" y1="59" x2="631" y2="64" stroke="url(#x743a279)" stroke-width="1.1" stroke-linecap="round" class="shooting-star" style="animation-delay:1.2s;--shoot-tx:81px;--shoot-ty:28px;animation-duration:2.34s"/><line x1="517" y1="44" x2="535" y2="49" stroke="url(#x743a279)" stroke-width="1.1" stroke-linecap="round" class="shooting-star" style="animation-delay:32.96s;--shoot-tx:109px;--shoot-ty:34px;animation-duration:2.76s"/><line x1="170.0" y1="55" x2="170.0" y2="155" stroke="#1a2332" stroke-width="1" opacity="0.5"/><line x1="340.0" y1="55" x2="340.0" y2="155" stroke="#1a2332" stroke-width="1" opacity="0.5"/><line x1="510.0" y1="55" x2="510.0" y2="155" stroke="#1a2332" stroke-width="1" opacity="0.5"/><line x1="680.0" y1="55" x2="680.0" y2="155" stroke="#1a2332" stroke-width="1" opacity="0.5"/><g class="metric-cell" transform="translate(85.0,95)"><g transform="translate(-8,-30)"><svg viewBox="0 0 16 16" width="16" height="16" fill="#00d4ff" class="metric-icon" style="animation-delay:0.0s"><path d="M8 1a7 7 0 1 0 0 14A7 7 0 0 0 8 1zm0 2.5a4.5 4.5 0 0 1 4.473 4H14.5a.5.5 0 0 1 0 1h-2.027A4.5 4.5 0 0 1 8 12.5a4.5 4.5 0 0 1-4.473-4H1.5a.5.5 0 0 1 0-1h2.027A4.5 4.5 0 0 1 8 3.5zm0 1.5a3 3 0 1 0 0 6 3 3 0 0 0 0-6z"/></svg></g><text x="0" y="2" text-anchor="middle" fill="#00d4ff" font-size="28" font-weight="bold" font-family="sans-serif" opacity="0.35" filter="url(#xdf01081)">638</text><text x="0" y="2" text-anchor="middle" fill="#f1f5f9" font-size="28" font-weight="bold" font-family="sans-serif">638</text><text x="0" y="20" text-anchor="middle" fill="#64748b" font-size="11" font-family="monospace" letter-spacing="1">Commits</text></g><g class="metric-cell" transform="translate(255.0,95)"><g transform="translate(-8,-30)"><svg viewBox="0 0 16 16" width="16" height="16" fill="#ffb020" class="metric-icon" style="animation-delay:0.3s"><path d="M8 .25a.75.75 0 0 1 .673.418l1.882 3.815 4.21.612a.75.75 0 0 1 .416 1.279l-3.046 2.97.719 4.192a.75.75 0 0 1-1.088.791L8 12.347l-3.766 1.98a.75.75 0 0 1-1.088-.79l.72-4.194L.818 6.374a.75.75 0 0 1 .416-1.28l4.21-.611L7.327.668A.75.75 0 0 1 8 .25z"/></svg></g><text x="0" y="2" text-anchor="middle" fill="#ffb020" font-size="28" font-weight="bold" font-family="sans-serif" opacity="0.35" filter="url(#xdf01081)">193</text><text x="0" y="2" text-anchor="middle" fill="#f1f5f9" font-size="28" font-weight="bold" font-family="sans-serif">193</text><text x="0" y="20" text-anchor="middle" fill="#64748b" font-size="11" font-family="monospace" letter-spacing="1">Stars</text></g><g class="metric-cell" transform="translate(425.0,95)"><g transform="translate(-8,-30)"><svg viewBox="0 0 16 16" width="16" height="16" fill="#a78bfa" class="metric-icon" style="animation-delay:0.6s"><path d="M5 3.254V3.25v.005a.75.75 0 1 1 0-.005zm6.5 8a.75.75 0 1 1 0 1.5.75.75 0 0 1 0-1.5zM5 12.75a.75.75 0 1 1 0 1.5.75.75 0 0 1 0-1.5zm-1.5.75a1.5 1.5 0 1 0 1.5 1.5v-8.5a1.5 1.5 0 1 0-1.5-1.5v8.5a1.5 1.5 0 0 0 0 0zm8.5-2.5a1.5 1.5 0 0 0-1.5 1.5 1.5 1.5 0 1 0 3 0v-3.133l.025-.05A3.252 3.252 0 0 0 11 5.25V3.5h1.25a.75.75 0 0 0 .53-1.28l-2-2a.75.75 0 0 0-1.06 0l-2 2A.75.75 0 0 0 8.25 3.5H9.5v1.75a1.75 1.75 0 0 0 1.75 1.75h.244a1.75 1.75 0 0 1 1.006.319V11a1.5 1.5 0 0 0-1.5-1.5z"/></svg></g><text x="0" y="2" text-anchor="middle" fill="#a78bfa" font-size="28" font-weight="bold" font-family="sans-serif" opacity="0.35" filter="url(#xdf01081)">1</text><text x="0" y="2" text-anchor="middle" fill="#f1f5f9" font-size="28" font-weight="bold" font-family="sans-serif">1</text><text x="0" y="20" text-anchor="middle" fill="#64748b" font-size="11" font-family="monospace" letter-spacing="1">PRs</text></g><g class="metric-cell" transform="translate(595.0,95)"><g transform="translate(-8,-30)"><svg viewBox="0 0 16 16" width="16" height="16" fill="#00d4ff" class="metric-icon" style="animation-delay:0.8999999999999999s"><path d="M8 9.5a1.5 1.5 0 1 0 0-3 1.5 1.5 0 0 0 0 3z"/><path d="M8 0a8 8 0 1 1 0 16A8 8 0 0 1 8 0zm0 1.5a6.5 6.5 0 1 0 0 13 6.5 6.5 0 0 0 0-13z"/></svg></g><text x="0" y="2" text-anchor="middle" fill="#00d4ff" font-size="28" font-weight="bold" font-family="sans-serif" opacity="0.35" filter="url(#xdf01081)">5</text><text x="0" y="2" text-anchor="middle" fill="#f1f5f9" font-size="28" font-weight="bold" font-family="sans-serif">5</text><text x="0" y="20" text-anchor="middle" fill="#64748b" font-size="11" font-family="monospace" letter-spacing="1">Issues</text></g><g class="metric-cell" transform="translate(765.0,95)"><g transform="translate(-8,-30)"><svg viewBox="0 0 16 16" width="16" height="16" fill="#a78bfa" class="metric-icon" style="animation-delay:1.2s"><path d="M2 2.5A2.5 2.5 0 0 1 4.5 0h8.75a.75.75 0 0 1 .75.75v12.5a.75.75 0 0 1-.75.75h-2.5a.75.75 0 0 1 0-1.5h1.75v-2h-8a1 1 0 0 0-.714 1.7.75.75 0 0 1-1.072 1.05A2.495 2.495 0 0 1 2 11.5zm10.5-1h-8a1 1 0 0 0-1 1v6.708A2.486 2.486 0 0 1 4.5 9h8zM5 12.25a.25.25 0 0 1 .25-.25h3.5a.25.25 0 0 1 .25.25v3.25a.25.25 0 0 1-.4.2l-1.45-1.087a.25.25 0 0 0-.3 0L5.4 15.7a.25.25 0 0 1-.4-.2z"/></svg></g><text x="0" y="2" text-anchor="middle" fill="#a78bfa" font-size="28" font-weight="bold" font-family="sans-serif" opacity="0.35" filter="url(#xdf01081)">24</text><text x="0" y="2" text-anchor="middle" fill="#f1f5f9" font-size="28" font-weight="bold" font-family="sans-serif">24</text><text x="0" y="20" text-anchor="middle" fill="#64748b" font-size="11" font-family="monospace" letter-spacing="1">Repos</text></g></svg>