<svg xmlns="http://www.w3.org/2000/svg" width="850" height="180" viewBox="0 0 850 180"><defs><style>.metric-icon{animation:count-glow 4s ease-in-out infinite}@keyframes count-glow{0%,100%{fill-opacity:0.7}50%{fill-opacity:1}}.star-bg{animation:twinkle-slow 7s ease-in-out infinite}.star-mid{animation:twinkle-mid 5s ease-in-out infinite}.star-fg{animation:twinkle-fast 3s ease-in-out infinite}@keyframes twinkle-slow{0%,100%{opacity:0.07}50%{opacity:0.30}}@keyframes twinkle-mid{0%,100%{opacity:0.12}50%{opacity:0.45}}@keyframes twinkle-fast{0%,100%{opacity:0.25}50%{opacity:0.65}}.shooting-star{opacity:0;animation:shoot linear infinite}@keyframes shoot{0%{opacity:0;transform:translate(0,0)}5%{opacity:0.9}15%{opacity:0.6;transform:translate(var(--shoot-tx),var(--shoot-ty))}20%{opacity:0;transform:translate(var(--shoot-tx),var(--shoot-ty))}100%{opacity:0}}</style><filter id="xdf01081" x="-30%" y="-30%" width="160%" height="160%"><feGaussianBlur stdDeviation="3"/></filter><radialGradient id="xe7d3b8d" cx="50%" cy="50%" r="80%"><stop offset="0%" stop-color="#0f1623" stop-opacity="0.85"/><stop offset="100%" stop-color="#080c14" stop-opacity="0"/></radialGradient><linearGradient id="x743a279" x1="0" y1="0" x2="1" y2="0"><stop offset="0%" stop-color="#fff" stop-opacity="0.85"/><stop offset="100%" stop-color="#fff" stop-opacity="0"/></linearGradient></defs><rect x="0" y="0" width="850" height="180" rx="14" ry="14" fill="#080c14"/><rect x="0" y="0" width="850" height="180" rx="14" ry="14" fill="url(#xe7d3b8d)"/><circle cx="595.7" cy="158.2" r="0.32" fill="#00d4ff" opacity="0.22" class="star-bg" style="animation-duration:8.783s;animation-delay:4.308s"/><circle cx="129.5" cy="104.4" r="0.35" fill="#00d4ff" opacity="0.14" class="star-bg" style="animation-duration:7.350s;animation-delay:5.483s"/><circle cx="354.4" cy="160.2" r="0.19" fill="#00d4ff" opacity="0.21" class="star-bg" style="animation-duration:8.960s;animation-delay:4.392s"/><circle cx="808.1" cy="37.8" r="0.38" fill="#fff" opacity="0.18" class="star-bg" style="animation-duration:7.834s;animation-delay:2.863s"/><circle cx="203.1" cy="84.2" r="0.38" fill="#fff" opacity="0.16" class="star-bg" style="animation-duration:5.334s;animation-delay:4.663s"/><circle cx="192.9" cy="104.2" r="0.46" fill="#00d4ff" opacity="0.21" class="star-bg" style="animation-duration:8.581s;animation-delay:1.968s"/><circle cx="715.9" cy="105.3" r="0.77" fill="#fff" opacity="0.18" class="star-bg" style="animation-duration:6.733s;animation-delay:1.450s"/><circle cx="802.2" cy="94.1" r="0.39" fill="#ffb020" opacity="0.20" class="star-bg" style="animation-duration:8.901s;animation-delay:1.907s"/><circle cx="344.7" cy="136.6" r="0.64" fill="#fff" opacity="0.27" class="star-bg" style="animation-duration:6.629s;animation-delay:2.293s"/><circle cx="216.7" cy="105.9" r="0.53" fill="#ffb020" opacity="0.13" class="star-bg" style="animation-duration:8.754s;animation-delay:3.294s"/><circle cx="342.1" cy="78.1" r="0.77" fill="#ffb020" opacity="0.11" class="star-bg" style="animation-duration:7.441s;animation-delay:3.557s"/><circle cx="82.6" cy="116.4" r="0.21" fill="#fff" opacity="0.22" class="star-bg" style="animation-duration:6.822s;animation-delay:2.384s"/><circle cx="805.2" cy="119.1" r="0.28" fill="#fff" opacity="0.14" class="star-bg" style="animation-duration:7.572s;animation-delay:3.271s"/><circle cx="131.9" cy="140.7" r="0.48" fill="#fff" opacity="0.30" class="star-bg" style="animation-duration:6.052s;animation-delay:4.020s"/><circle cx="718.7" cy="18.4" r="0.79" fill="#fff" opacity="0.25" class="star-bg" style="animation-duration:5.668s;animation-delay:0.642s"/><circle cx="775.6" cy="153.1" r="0.56" fill="#fff" opacity="0.07" class="star-bg" style="animation-duration:5.578s;animation-delay:1.562s"/><circle cx="756.1" cy="52.5" r="0.84" fill="#a78bfa" opacity="0.16" class="star-bg" style="animation-duration:5.005s;animation-delay:0.354s"/><circle cx="313.5" cy="158.4" r="0.63" fill="#ffb020" opacity="0.21" class="star-bg" style="animation-duration:6.081s;animation-delay:3.267s"/><circle cx="438.7" cy="49.5" r="0.46" fill="#a78bfa" opacity="0.27" class="star-bg" style="animation-duration:8.933s;animation-delay:4.436s"/><circle cx="577.4" cy="44.5" r="0.63" fill="#ffb020" opacity="0.28" class="star-bg" style="animation-duration:8.352s;animation-delay:3.540s"/><circle cx="747.5" cy="167.2" r="0.62" fill="#fff" opacity="0.08" class="star-bg" style="animation-duration:8.652s;animation-delay:6.950s"/><circle cx="445.1" cy="154.9" r="0.49" fill="#00d4ff" opacity="0.13" class="star-bg" style="animation-duration:5.168s;animation-delay:1.353s"/><circle cx="498.2" cy="42.4" r="0.53" fill="#fff" opacity="0.17" class="star-bg" style="animation-duration:8.875s;animation-delay:5.223s"/><circle cx="100.6" cy="126.2" r="0.83" fill="#fff" opacity="0.27" class="star-bg" style="animation-duration:6.604s;animation-delay:6.514s"/><circle cx="270.1" cy="156.3" r="0.77" fill="#00d4ff" opacity="0.17" class="star-bg" style="animation-duration:6.189s;animation-delay:2.633s"/><circle cx="341.2" cy="142.7" r="0.59" fill="#ffb020" opacity="0.10" class="star-bg" style="animation-duration:5.910s;animation-delay:5.316s"/><circle cx="567.0" cy="85.0" r="0.41" fill="#ffb020" opacity="0.18" class="star-bg" style="animation-duration:6.456s;animation-delay:0.295s"/><circle cx="507.2" cy="78.7" r="0.65" fill="#ffb020" opacity="0.07" class="star-bg" style="animation-duration:5.842s;animation-delay:5.277s"/><circle cx="401.2" cy="82.2" r="0.65" fill="#a78bfa" opacity="0.08" class="star-bg" style="animation-duration:6.470s;animation-delay:6.014s"/><circle cx="91.4" cy="166.1" r="0.28" fill="#fff" opacity="0.07" class="star-bg" style="animation-duration:5.869s;animation-delay:1.150s"/><circle cx="34.6" cy="23.3" r="0.65" fill="#a78bfa" opacity="0.10" class="star-bg" style="animation-duration:6.189s;animation-delay:1.941s"/><circle cx="129.8" cy="96.6" r="0.25" fill="#fff" opacity="0.27" class="star-bg" style="animation-duration:7.411s;animation-delay:5.511s"/><circle cx="248.7" cy="112.1" r="0.48" fill="#fff" opacity="0.17" class="star-bg" style="animation-duration:7.224s;animation-delay:5.239s"/><circle cx="563.5" cy="66.0" r="0.30" fill="#a78bfa" opacity="0.19" class="star-bg" style="animation-duration:7.319s;animation-delay:1.712s"/><circle cx="619.5" cy="128.3" r="0.77" fill="#fff" opacity="0.17" class="star-bg" style="animation-duration:5.291s;animation-delay:0.077s"/><circle cx="47.4" cy="87.8" r="0.23" fill="#fff" opacity="0.24" class="star-bg" style="animation-duration:5.670s;animation-delay:4.767s"/><circle cx="740.0" cy="121.1" r="0.57" fill="#a78bfa" opacity="0.21" class="star-bg" style="animation-duration:8.313s;animation-delay:5.610s"/><circle cx="583.9" cy="70.7" r="0.33" fill="#a78bfa" opacity="0.21" class="star-bg" style="animation-duration:5.072s;animation-delay:1.064s"/><circle cx="627.5" cy="167.5" r="0.46" fill="#fff" opacity="0.11" class="star-bg" style="animation-duration:6.669s;animation-delay:0.435s"/><circle cx="157.3" cy="24.4" r="0.38" fill="#00d4ff" opacity="0.13" class="star-bg" style="animation-duration:8.425s;animation-delay:4.604s"/><circle cx="381.7" cy="160.3" r="0.72" fill="#00d4ff" opacity="0.23" class="star-mid" style="animation-duration:4.764s;animation-delay:1.662s"/><circle cx="478.2" cy="54.8" r="0.82" fill="#ffb020" opacity="0.14" class="star-mid" style="animation-duration:4.654s;animation-delay:2.139s"/><circle cx="541.5" cy="49.5" r="1.13" fill="#fff" opacity="0.15" class="star-mid" style="animation-duration:3.960s;animation-delay:2.634s"/><circle cx="11.3" cy="130.4" r="0.40" fill="#fff" opacity="0.32" class="star-mid" style="animation-duration:5.666s;animation-delay:3.670s"/><circle cx="248.4" cy="17.2" r="0.55" fill="#fff" opacity="0.37" class="star-mid" style="animation-duration:5.958s;animation-delay:2.966s"/><circle cx="424.5" cy="56.2" r="0.60" fill="#a78bfa" opacity="0.30" class="star-mid" style="animation-duration:4.222s;animation-delay:3.162s"/><circle cx="736.1" cy="10.7" r="0.79" fill="#00d4ff" opacity="0.19" class="star-mid" style="animation-duration:6.972s;animation-delay:4.707s"/><circle cx="326.0" cy="48.9" r="0.78" fill="#fff" opacity="0.32" class="star-mid" style="animation-duration:5.683s;animation-delay:2.517s"/><circle cx="95.9" cy="65.6" r="0.76" fill="#fff" opacity="0.15" class="star-mid" style="animation-duration:4.132s;animation-delay:3.651s"/><circle cx="513.9" cy="73.8" r="0.82" fill="#fff" opacity="0.21" class="star-mid" style="animation-duration:4.044s;animation-delay:2.808s"/><circle cx="378.4" cy="41.4" r="1.05" fill="#ffb020" opacity="0.25" class="star-mid" style="animation-duration:5.609s;animation-delay:1.383s"/><circle cx="468.0" cy="80.4" r="0.46" fill="#fff" opacity="0.38" class="star-mid" style="animation-duration:4.060s;animation-delay:1.739s"/><circle cx="207.5" cy="108.1" r="0.94" fill="#ffb020" opacity="0.27" class="star-mid" style="animation-duration:6.097s;animation-delay:5.251s"/><circle cx="803.1" cy="169.6" r="1.06" fill="#fff" opacity="0.43" class="star-mid" style="animation-duration:4.068s;animation-delay:0.238s"/><circle cx="701.2" cy="34.8" r="1.19" fill="#a78bfa" opacity="0.15" class="star-mid" style="animation-duration:4.978s;animation-delay:1.107s"/><circle cx="764.9" cy="68.6" r="1.13" fill="#fff" opacity="0.24" class="star-mid" style="animation-duration:5.999s;animation-delay:2.843s"/><circle cx="321.7" cy="109.3" r="0.70" fill="#fff" opacity="0.39" class="star-mid" style="animation-duration:4.112s;animation-delay:2.819s"/><circle cx="443.5" cy="160.6" r="0.88" fill="#fff" opacity="0.41" class="star-mid" style="animation-duration:4.683s;animation-delay:2.987s"/><circle cx="715.1" cy="122.9" r="0.79" fill="#00d4ff" opacity="0.32" class="star-mid" style="animation-duration:5.803s;animation-delay:3.432s"/><circle cx="116.2" cy="134.0" r="0.58" fill="#fff" opacity="0.31" class="star-mid" style="animation-duration:4.080s;animation-delay:0.966s"/><circle cx="57.4" cy="164.9" r="0.85" fill="#fff" opacity="0.13" class="star-mid" style="animation-duration:6.079s;animation-delay:5.898s"/><circle cx="10.2" cy="43.7" r="1.15" fill="#ffb020" opacity="0.31" class="star-mid" style="animation-duration:6.980s;animation-delay:1.522s"/><circle cx="353.4" cy="12.4" r="1.02" fill="#fff" opacity="0.15" class="star-mid" style="animation-duration:4.267s;animation-delay:0.221s"/><circle cx="190.0" cy="40.4" r="0.93" fill="#fff" opacity="0.29" class="star-mid" style="animation-duration:5.581s;animation-delay:0.770s"/><circle cx="796.9" cy="146.4" r="1.11" fill="#a78bfa" opacity="0.36" class="star-mid" style="animation-duration:4.513s;animation-delay:2.342s"/><circle cx="787.4" cy="96.8" r="1.18" fill="#ffb020" opacity="0.64" class="star-fg" style="animation-duration:3.204s;animation-delay:0.719s"/><circle cx="11.4" cy="118.1" r="1.02" fill="#fff" opacity="0.59" class="star-fg" style="animation-duration:2.493s;animation-delay:2.437s"/><circle cx="761.5" cy="138.8" r="0.74" fill="#fff" opacity="0.46" class="star-fg" style="animation-duration:3.977s;animation-delay:1.635s"/><circle cx="829.2" cy="160.2" r="1.20" fill="#fff" opacity="0.64" class="star-fg" style="animation-duration:4.010s;animation-delay:2.474s"/><circle cx="373.5" cy="32.2" r="1.07" fill="#ffb020" opacity="0.27" class="star-fg" style="animation-duration:3.826s;animation-delay:1.278s"/><circle cx="730.3" cy="17.9" r="1.48" fill="#fff" opacity="0.47" class="star-fg" style="animation-duration:4.118s;animation-delay:0.375s"/><circle cx="518.9" cy="48.6" r="1.44" fill="#fff" opacity="0.43" class="star-fg" style="animation-duration:3.381s;animation-delay:1.612s"/><circle cx="366.5" cy="104.7" r="0.92" fill="#a78bfa" opacity="0.29" class="star-fg" style="animation-duration:2.791s;animation-delay:0.435s"/><circle cx="419.9" cy="55.9" r="1.32" fill="#fff" opacity="0.37" class="star-fg" style="animation-duration:3.881s;animation-delay:2.057s"/><circle cx="212.1" cy="126.6" r="0.74" fill="#ffb020" opacity="0.32" class="star-fg" style="animation-duration:2.922s;animation-delay:0.681s"/><line x1="83" y1="78" x2="101" y2="83" stroke="url(#x743a279)" stroke-width="1.1" stroke-linecap="round" class="shooting-star" style="animation-delay:27.4s;--shoot-tx:98px;--shoot-ty:37px;animation-duration:3.47s"/><line x1="105" y1="73" x2="123" y2="78" stroke="url(#x743a279)" stroke-width="1.1" stroke-linecap="round" class="shooting-star" style="animation-delay:20.79s;--shoot-tx:92px;--shoot-ty:38px;animation-duration:4.32s"/><line x1="171" y1="30" x2="189" y2="35" stroke="url(#x743a279)" stroke-width="1.1" stroke-linecap="round" class="shooting-star" style="animation-delay:2.17s;--shoot-tx:118px;--shoot-ty:50px;animation-duration:5.16s"/><line x1="170.0" y1="55" x2="170.0" y2="155" stroke="#1a2332" stroke-width="1" opacity="0.5"/><line x1="340.0" y1="55" x2="340.0" y2="155" stroke="#1a2332" stroke-width="1" opacity="0.5"/><line x1="510.0" y1="55" x2="510.0" y2="155" stroke="#1a2332" stroke-width="1" opacity="0.5"/><line x1="680.0" y1="55" x2="680.0" y2="155" stroke="#1a2332" stroke-width="1" opacity="0.5"/><g class="metric-cell" transform="translate(85.0,95)"><g transform="translate(-8,-30)"><svg viewBox="0 0 16 16" width="16" height="16" fill="#00d4ff" class="metric-icon" style="animation-delay:0.0s"><path d="M8 1a7 7 0 1 0 0 14A7 7 0 0 0 8 1zm0 2.5a4.5 4.5 0 0 1 4.473 4H14.5a.5.5 0 0 1 0 1h-2.027A4.5 4.5 0 0 1 8 12.5a4.5 4.5 0 0 1-4.473-4H1.5a.5.5 0 0 1 0-1h2.027A4.5 4.5 0 0 1 8 3.5zm0 1.5a3 3 0 1 0 0 6 3 3 0 0 0 0-6z"/></svg></g><text x="0" y="2" text-anchor="middle" fill="#00d4ff" font-size="28" font-weight="bold" font-family="sans-serif" opacity="0.35" filter="url(#xdf01081)">606</text><text x="0" y="2" text-anchor="middle" fill="#f1f5f9" font-size="28" font-weight="bold" font-family="sans-serif">606</text><text x="0" y="20" text-anchor="middle" fill="#64748b" font-size="11" font-family="monospace" letter-spacing="1">Commits</text></g><g class="metric-cell" transform="translate(255.0,95)"><g transform="translate(-8,-30)"><svg viewBox="0 0 16 16" width="16" height="16" fill="#ffb020" class="metric-icon" style="animation-delay:0.3s"><path d="M8 .25a.75.75 0 0 1 .673.418l1.882 3.815 4.21.612a.75.75 0 0 1 .416 1.279l-3.046 2.97.719 4.192a.75.75 0 0 1-1.088.791L8 12.347l-3.766 1.98a.75.75 0 0 1-1.088-.79l.72-4.194L.818 6.374a.75.75 0 0 1 .416-1.28l4.21-.611L7.327.668A.75.75 0 0 1 8 .25z"/></svg></g><text x="0" y="2" text-anchor="middle" fill="#ffb020" font-size="28" font-weight="bold" font-family="sans-serif" opacity="0.35" filter="url(#xdf01081)">194</text><text x="0" y="2" text-anchor="middle" fill="#f1f5f9" font-size="28" font-weight="bold" font-family="sans-serif">194</text><text x="0" y="20" text-anchor="middle" fill="#64748b" font-size="11" font-family="monospace" letter-spacing="1">Stars</text></g><g class="metric-cell" transform="translate(425.0,95)"><g transform="translate(-8,-30)"><svg viewBox="0 0 16 16" width="16" height="16" fill="#a78bfa" class="metric-icon" style="animation-delay:0.6s"><path d="M5 3.254V3.25v.005a.75.75 0 1 1 0-.005zm6.5 8a.75.75 0 1 1 0 1.5.75.75 0 0 1 0-1.5zM5 12.75a.75.75 0 1 1 0 1.5.75.75 0 0 1 0-1.5zm-1.5.75a1.5 1.5 0 1 0 1.5 1.5v-8.5a1.5 1.5 0 1 0-1.5-1.5v8.5a1.5 1.5 0 0 0 0 0zm8.5-2.5a1.5 1.5 0 0 0-1.5 1.5 1.5 1.5 0 1 0 3 0v-3.133l.025-.05A3.252 3.252 0 0 0 11 5.25V3.5h1.25a.75.75 0 0 0 .53-1.28l-2-2a.75.75 0 0 0-1.06 0l-2 2A.75.75 0 0 0 8.25 3.5H9.5v1.75a1.75 1.75 0 0 0 1.75 1.75h.244a1.75 1.75 0 0 1 1.006.319V11a1.5 1.5 0 0 0-1.5-1.5z"/></svg></g><text x="0" y="2" text-anchor="middle" fill="#a78bfa" font-size="28" font-weight="bold" font-family="sans-serif" opacity="0.35" filter="url(#xdf01081)">1</text><text x="0" y="2" text-anchor="middle" fill="#f1f5f9" font-size="28" font-weight="bold" font-family="sans-serif">1</text><text x="0" y="20" text-anchor="middle" fill="#64748b" font-size="11" font-family="monospace" letter-spacing="1">PRs</text></g><g class="metric-cell" transform="translate(595.0,95)"><g transform="translate(-8,-30)"><svg viewBox="0 0 16 16" width="16" height="16" fill="#00d4ff" class="metric-icon" style="animation-delay:0.8999999999999999s"><path d="M8 9.5a1.5 1.5 0 1 0 0-3 1.5 1.5 0 0 0 0 3z"/><path d="M8 0a8 8 0 1 1 0 16A8 8 0 0 1 8 0zm0 1.5a6.5 6.5 0 1 0 0 13 6.5 6.5 0 0 0 0-13z"/></svg></g><text x="0" y="2" text-anchor="middle" fill="#00d4ff" font-size="28" font-weight="bold" font-family="sans-serif" opacity="0.35" filter="url(#xdf01081)">4</text><text x="0" y="2" text-anchor="middle" fill="#f1f5f9" font-size="28" font-weight="bold" font-family="sans-serif">4</text><text x="0" y="20" text-anchor="middle" fill="#64748b" font-size="11" font-family="monospace" letter-spacing="1">Issues</text></g><g class="metric-cell" transform="translate(765.0,95)"><g transform="translate(-8,-30)"><svg viewBox="0 0 16 16" width="16" height="16" fill="#a78bfa" class="metric-icon" style="animation-delay:1.2s"><path d="M2 2.5A2.5 2.5 0 0 1 4.5 0h8.75a.75.75 0 0 1 .75.75v12.5a.75.75 0 0 1-.75.75h-2.5a.75.75 0 0 1 0-1.5h1.75v-2h-8a1 1 0 0 0-.714 1.7.75.75 0 0 1-1.072 1.05A2.495 2.495 0 0 1 2 11.5zm10.5-1h-8a1 1 0 0 0-1 1v6.708A2.486 2.486 0 0 1 4.5 9h8zM5 12.25a.25.25 0 0 1 .25-.25h3.5a.25.25 0 0 1 .25.25v3.25a.25.25 0 0 1-.4.2l-1.45-1.087a.25.25 0 0 0-.3 0L5.4 15.7a.25.25 0 0 1-.4-.2z"/></svg></g><text x="0" y="2" text-anchor="middle" fill="#a78bfa" font-size="28" font-weight="bold" font-family="sans-serif" opacity="0.35" filter="url(#xdf01081)">24</text><text x="0" y="2" text-anchor="middle" fill="#f1f5f9" font-size="28" font-weight="bold" font-family="sans-serif">24</text><text x="0" y="20" text-anchor="middle" fill="#64748b" font-size="11" font-family="monospace" letter-spacing="1">Repos</text></g></svg>