<svg xmlns="http://www.w3.org/2000/svg" width="850" height="180" viewBox="0 0 850 180"><defs><style>.metric-icon{animation:count-glow 4s ease-in-out infinite}@keyframes count-glow{0%,100%{fill-opacity:0.7}50%{fill-opacity:1}}.star-bg{animation:twinkle-slow 7s ease-in-out infinite}.star-mid{animation:twinkle-mid 5s ease-in-out infinite}.star-fg{animation:twinkle-fast 3s ease-in-out infinite}@keyframes twinkle-slow{0%,100%{opacity:0.07}50%{opacity:0.30}}@keyframes twinkle-mid{0%,100%{opacity:0.12}50%{opacity:0.45}}@keyframes twinkle-fast{0%,100%{opacity:0.25}50%{opacity:0.65}}.shooting-star{opacity:0;animation:shoot linear infinite}@keyframes shoot{0%{opacity:0;transform:translate(0,0)}5%{opacity:0.9}15%{opacity:0.6;transform:translate(var(--shoot-tx),var(--shoot-ty))}20%{opacity:0;transform:translate(var(--shoot-tx),var(--shoot-ty))}100%{opacity:0}}</style><filter id="xdf01081" x="-30%" y="-30%" width="160%" height="160%"><feGaussianBlur stdDeviation="3"/></filter><radialGradient id="xe7d3b8d" cx="50%" cy="50%" r="80%"><stop offset="0%" stop-color="#0f1623" stop-opacity="0.85"/><stop offset="100%" stop-color="#080c14" stop-opacity="0"/></radialGradient><linearGradient id="x743a279" x1="0" y1="0" x2="1" y2="0"><stop offset="0%" stop-color="#fff" stop-opacity="0.85"/><stop offset="100%" stop-color="#fff" stop-opacity="0"/></linearGradient></defs><rect x="0" y="0" width="850" height="180" rx="14" ry="14" fill="#080c14"/><rect x="0" y="0" width="850" height="180" rx="14" ry="14" fill="url(#xe7d3b8d)"/><circle cx="319.1" cy="37.5" r="0.21" fill="#a78bfa" opacity="0.25" class="star-bg" style="animation-duration:6.894s;animation-delay:3.059s"/><circle cx="82.1" cy="55.2" r="0.64" fill="#ffb020" opacity="0.21" class="star-bg" style="animation-duration:5.287s;animation-delay:4.019s"/><circle cx="414.8" cy="92.3" r="0.32" fill="#fff" opacity="0.08" class="star-bg" style="animation-duration:7.377s;animation-delay:4.936s"/><circle cx="375.3" cy="46.5" r="0.80" fill="#fff" opacity="0.21" class="star-bg" style="animation-duration:5.195s;animation-delay:4.684s"/><circle cx="610.8" cy="135.7" r="0.43" fill="#fff" opacity="0.21" class="star-bg" style="animation-duration:8.366s;animation-delay:7.557s"/><circle cx="721.9" cy="144.3" r="0.33" fill="#00d4ff" opacity="0.12" class="star-bg" style="animation-duration:5.783s;animation-delay:3.556s"/><circle cx="720.5" cy="22.1" r="0.49" fill="#a78bfa" opacity="0.20" class="star-bg" style="animation-duration:6.299s;animation-delay:3.483s"/><circle cx="137.5" cy="53.8" r="0.45" fill="#fff" opacity="0.20" class="star-bg" style="animation-duration:6.864s;animation-delay:0.819s"/><circle cx="548.1" cy="79.4" r="0.62" fill="#fff" opacity="0.08" class="star-bg" style="animation-duration:6.013s;animation-delay:0.182s"/><circle cx="409.0" cy="123.4" r="0.28" fill="#fff" opacity="0.26" class="star-bg" style="animation-duration:7.872s;animation-delay:7.806s"/><circle cx="555.5" cy="64.4" r="0.74" fill="#ffb020" opacity="0.25" class="star-bg" style="animation-duration:8.199s;animation-delay:4.148s"/><circle cx="79.8" cy="52.0" r="0.78" fill="#00d4ff" opacity="0.23" class="star-bg" style="animation-duration:8.680s;animation-delay:4.885s"/><circle cx="169.0" cy="113.9" r="0.63" fill="#fff" opacity="0.24" class="star-bg" style="animation-duration:5.872s;animation-delay:4.631s"/><circle cx="312.6" cy="49.7" r="0.77" fill="#00d4ff" opacity="0.13" class="star-bg" style="animation-duration:7.566s;animation-delay:6.529s"/><circle cx="75.6" cy="79.6" r="0.89" fill="#fff" opacity="0.21" class="star-bg" style="animation-duration:6.017s;animation-delay:2.238s"/><circle cx="514.7" cy="145.5" r="0.68" fill="#00d4ff" opacity="0.14" class="star-bg" style="animation-duration:5.414s;animation-delay:5.297s"/><circle cx="99.9" cy="75.9" r="0.33" fill="#00d4ff" opacity="0.16" class="star-bg" style="animation-duration:7.413s;animation-delay:0.566s"/><circle cx="464.9" cy="56.4" r="0.66" fill="#a78bfa" opacity="0.23" class="star-bg" style="animation-duration:7.014s;animation-delay:0.212s"/><circle cx="25.9" cy="42.1" r="0.90" fill="#a78bfa" opacity="0.07" class="star-bg" style="animation-duration:7.136s;animation-delay:3.981s"/><circle cx="666.9" cy="76.7" r="0.69" fill="#a78bfa" opacity="0.09" class="star-bg" style="animation-duration:5.511s;animation-delay:2.198s"/><circle cx="626.9" cy="94.1" r="0.61" fill="#ffb020" opacity="0.17" class="star-bg" style="animation-duration:5.526s;animation-delay:2.464s"/><circle cx="778.0" cy="39.6" r="0.26" fill="#fff" opacity="0.30" class="star-bg" style="animation-duration:6.682s;animation-delay:1.020s"/><circle cx="577.5" cy="147.8" r="0.59" fill="#fff" opacity="0.12" class="star-bg" style="animation-duration:8.736s;animation-delay:3.877s"/><circle cx="173.8" cy="20.0" r="0.40" fill="#00d4ff" opacity="0.19" class="star-bg" style="animation-duration:8.040s;animation-delay:6.086s"/><circle cx="162.6" cy="32.6" r="0.34" fill="#ffb020" opacity="0.21" class="star-bg" style="animation-duration:8.681s;animation-delay:4.840s"/><circle cx="802.6" cy="113.4" r="0.72" fill="#fff" opacity="0.21" class="star-bg" style="animation-duration:6.496s;animation-delay:0.223s"/><circle cx="367.7" cy="63.9" r="0.53" fill="#fff" opacity="0.08" class="star-bg" style="animation-duration:8.389s;animation-delay:7.706s"/><circle cx="224.5" cy="98.5" r="0.76" fill="#ffb020" opacity="0.10" class="star-bg" style="animation-duration:7.096s;animation-delay:2.435s"/><circle cx="572.0" cy="94.6" r="0.41" fill="#a78bfa" opacity="0.24" class="star-bg" style="animation-duration:7.385s;animation-delay:0.211s"/><circle cx="81.6" cy="64.9" r="0.71" fill="#00d4ff" opacity="0.23" class="star-bg" style="animation-duration:5.217s;animation-delay:4.367s"/><circle cx="141.8" cy="144.5" r="0.36" fill="#a78bfa" opacity="0.22" class="star-bg" style="animation-duration:6.077s;animation-delay:0.998s"/><circle cx="747.6" cy="30.1" r="0.22" fill="#00d4ff" opacity="0.21" class="star-bg" style="animation-duration:7.125s;animation-delay:3.046s"/><circle cx="439.7" cy="23.6" r="0.28" fill="#fff" opacity="0.11" class="star-bg" style="animation-duration:6.823s;animation-delay:1.433s"/><circle cx="714.0" cy="149.0" r="0.80" fill="#00d4ff" opacity="0.15" class="star-bg" style="animation-duration:7.155s;animation-delay:6.089s"/><circle cx="438.8" cy="111.5" r="0.42" fill="#fff" opacity="0.07" class="star-bg" style="animation-duration:6.378s;animation-delay:4.420s"/><circle cx="735.7" cy="11.5" r="0.86" fill="#ffb020" opacity="0.23" class="star-bg" style="animation-duration:6.654s;animation-delay:5.221s"/><circle cx="690.9" cy="16.6" r="0.51" fill="#fff" opacity="0.13" class="star-bg" style="animation-duration:5.695s;animation-delay:4.071s"/><circle cx="467.8" cy="155.6" r="0.28" fill="#fff" opacity="0.18" class="star-bg" style="animation-duration:7.450s;animation-delay:0.441s"/><circle cx="17.8" cy="166.9" r="0.67" fill="#00d4ff" opacity="0.19" class="star-bg" style="animation-duration:6.409s;animation-delay:0.993s"/><circle cx="413.7" cy="134.7" r="0.64" fill="#fff" opacity="0.10" class="star-bg" style="animation-duration:5.275s;animation-delay:4.840s"/><circle cx="91.9" cy="122.5" r="1.06" fill="#ffb020" opacity="0.23" class="star-mid" style="animation-duration:4.779s;animation-delay:0.340s"/><circle cx="398.9" cy="26.5" r="1.18" fill="#a78bfa" opacity="0.25" class="star-mid" style="animation-duration:3.624s;animation-delay:1.102s"/><circle cx="790.7" cy="70.6" r="0.73" fill="#a78bfa" opacity="0.18" class="star-mid" style="animation-duration:3.897s;animation-delay:1.766s"/><circle cx="194.4" cy="15.2" r="0.99" fill="#fff" opacity="0.33" class="star-mid" style="animation-duration:4.204s;animation-delay:1.941s"/><circle cx="834.9" cy="60.0" r="0.67" fill="#00d4ff" opacity="0.23" class="star-mid" style="animation-duration:5.146s;animation-delay:4.447s"/><circle cx="72.3" cy="82.7" r="0.97" fill="#00d4ff" opacity="0.31" class="star-mid" style="animation-duration:4.902s;animation-delay:1.100s"/><circle cx="36.6" cy="28.1" r="0.45" fill="#a78bfa" opacity="0.28" class="star-mid" style="animation-duration:3.941s;animation-delay:0.022s"/><circle cx="335.9" cy="66.3" r="0.98" fill="#ffb020" opacity="0.16" class="star-mid" style="animation-duration:4.653s;animation-delay:2.557s"/><circle cx="362.1" cy="116.5" r="0.68" fill="#fff" opacity="0.45" class="star-mid" style="animation-duration:3.842s;animation-delay:3.333s"/><circle cx="281.9" cy="78.3" r="0.79" fill="#fff" opacity="0.27" class="star-mid" style="animation-duration:6.126s;animation-delay:3.233s"/><circle cx="97.9" cy="35.1" r="0.68" fill="#ffb020" opacity="0.36" class="star-mid" style="animation-duration:3.861s;animation-delay:1.038s"/><circle cx="245.9" cy="92.3" r="0.60" fill="#fff" opacity="0.15" class="star-mid" style="animation-duration:4.104s;animation-delay:1.433s"/><circle cx="190.9" cy="118.5" r="0.84" fill="#fff" opacity="0.36" class="star-mid" style="animation-duration:5.477s;animation-delay:5.235s"/><circle cx="625.3" cy="11.0" r="1.10" fill="#00d4ff" opacity="0.28" class="star-mid" style="animation-duration:4.830s;animation-delay:3.147s"/><circle cx="77.6" cy="44.7" r="0.84" fill="#ffb020" opacity="0.29" class="star-mid" style="animation-duration:5.233s;animation-delay:1.565s"/><circle cx="171.3" cy="154.9" r="0.89" fill="#fff" opacity="0.16" class="star-mid" style="animation-duration:4.822s;animation-delay:1.068s"/><circle cx="302.9" cy="77.5" r="0.55" fill="#a78bfa" opacity="0.29" class="star-mid" style="animation-duration:6.763s;animation-delay:2.098s"/><circle cx="39.4" cy="67.9" r="0.55" fill="#fff" opacity="0.15" class="star-mid" style="animation-duration:4.267s;animation-delay:4.131s"/><circle cx="809.4" cy="24.7" r="1.05" fill="#ffb020" opacity="0.30" class="star-mid" style="animation-duration:3.918s;animation-delay:0.797s"/><circle cx="258.3" cy="113.7" r="0.83" fill="#fff" opacity="0.20" class="star-mid" style="animation-duration:4.940s;animation-delay:0.097s"/><circle cx="677.9" cy="14.7" r="0.99" fill="#00d4ff" opacity="0.42" class="star-mid" style="animation-duration:4.065s;animation-delay:1.477s"/><circle cx="381.1" cy="79.9" r="0.43" fill="#00d4ff" opacity="0.37" class="star-mid" style="animation-duration:4.499s;animation-delay:2.677s"/><circle cx="363.2" cy="165.2" r="0.85" fill="#fff" opacity="0.39" class="star-mid" style="animation-duration:6.614s;animation-delay:0.895s"/><circle cx="589.3" cy="24.7" r="0.71" fill="#fff" opacity="0.41" class="star-mid" style="animation-duration:4.921s;animation-delay:1.959s"/><circle cx="262.4" cy="124.1" r="0.53" fill="#fff" opacity="0.19" class="star-mid" style="animation-duration:4.039s;animation-delay:1.494s"/><circle cx="477.6" cy="26.1" r="1.17" fill="#fff" opacity="0.59" class="star-fg" style="animation-duration:4.250s;animation-delay:0.261s"/><circle cx="256.5" cy="39.2" r="0.98" fill="#00d4ff" opacity="0.59" class="star-fg" style="animation-duration:4.435s;animation-delay:2.648s"/><circle cx="112.3" cy="39.7" r="0.94" fill="#ffb020" opacity="0.59" class="star-fg" style="animation-duration:4.307s;animation-delay:1.577s"/><circle cx="261.4" cy="38.6" r="0.83" fill="#a78bfa" opacity="0.37" class="star-fg" style="animation-duration:2.550s;animation-delay:2.388s"/><circle cx="61.0" cy="51.2" r="1.15" fill="#ffb020" opacity="0.36" class="star-fg" style="animation-duration:4.309s;animation-delay:2.988s"/><circle cx="546.8" cy="157.6" r="1.50" fill="#fff" opacity="0.58" class="star-fg" style="animation-duration:2.537s;animation-delay:2.080s"/><circle cx="400.8" cy="52.9" r="1.16" fill="#00d4ff" opacity="0.48" class="star-fg" style="animation-duration:2.927s;animation-delay:0.019s"/><circle cx="222.3" cy="36.5" r="1.35" fill="#fff" opacity="0.30" class="star-fg" style="animation-duration:4.241s;animation-delay:1.593s"/><circle cx="501.7" cy="67.1" r="1.39" fill="#fff" opacity="0.40" class="star-fg" style="animation-duration:3.927s;animation-delay:2.776s"/><circle cx="665.1" cy="64.7" r="1.24" fill="#a78bfa" opacity="0.32" class="star-fg" style="animation-duration:2.212s;animation-delay:1.056s"/><line x1="374" y1="79" x2="392" y2="84" stroke="url(#x743a279)" stroke-width="1.1" stroke-linecap="round" class="shooting-star" style="animation-delay:25.21s;--shoot-tx:113px;--shoot-ty:43px;animation-duration:2.7s"/><line x1="419" y1="66" x2="437" y2="71" stroke="url(#x743a279)" stroke-width="1.1" stroke-linecap="round" class="shooting-star" style="animation-delay:3.97s;--shoot-tx:89px;--shoot-ty:47px;animation-duration:2.12s"/><line x1="258" y1="64" x2="276" y2="69" stroke="url(#x743a279)" stroke-width="1.1" stroke-linecap="round" class="shooting-star" style="animation-delay:59.24s;--shoot-tx:82px;--shoot-ty:34px;animation-duration:2.6s"/><line x1="170.0" y1="55" x2="170.0" y2="155" stroke="#1a2332" stroke-width="1" opacity="0.5"/><line x1="340.0" y1="55" x2="340.0" y2="155" stroke="#1a2332" stroke-width="1" opacity="0.5"/><line x1="510.0" y1="55" x2="510.0" y2="155" stroke="#1a2332" stroke-width="1" opacity="0.5"/><line x1="680.0" y1="55" x2="680.0" y2="155" stroke="#1a2332" stroke-width="1" opacity="0.5"/><g class="metric-cell" transform="translate(85.0,95)"><g transform="translate(-8,-30)"><svg viewBox="0 0 16 16" width="16" height="16" fill="#00d4ff" class="metric-icon" style="animation-delay:0.0s"><path d="M8 1a7 7 0 1 0 0 14A7 7 0 0 0 8 1zm0 2.5a4.5 4.5 0 0 1 4.473 4H14.5a.5.5 0 0 1 0 1h-2.027A4.5 4.5 0 0 1 8 12.5a4.5 4.5 0 0 1-4.473-4H1.5a.5.5 0 0 1 0-1h2.027A4.5 4.5 0 0 1 8 3.5zm0 1.5a3 3 0 1 0 0 6 3 3 0 0 0 0-6z"/></svg></g><text x="0" y="2" text-anchor="middle" fill="#00d4ff" font-size="28" font-weight="bold" font-family="sans-serif" opacity="0.35" filter="url(#xdf01081)">632</text><text x="0" y="2" text-anchor="middle" fill="#f1f5f9" font-size="28" font-weight="bold" font-family="sans-serif">632</text><text x="0" y="20" text-anchor="middle" fill="#64748b" font-size="11" font-family="monospace" letter-spacing="1">Commits</text></g><g class="metric-cell" transform="translate(255.0,95)"><g transform="translate(-8,-30)"><svg viewBox="0 0 16 16" width="16" height="16" fill="#ffb020" class="metric-icon" style="animation-delay:0.3s"><path d="M8 .25a.75.75 0 0 1 .673.418l1.882 3.815 4.21.612a.75.75 0 0 1 .416 1.279l-3.046 2.97.719 4.192a.75.75 0 0 1-1.088.791L8 12.347l-3.766 1.98a.75.75 0 0 1-1.088-.79l.72-4.194L.818 6.374a.75.75 0 0 1 .416-1.28l4.21-.611L7.327.668A.75.75 0 0 1 8 .25z"/></svg></g><text x="0" y="2" text-anchor="middle" fill="#ffb020" font-size="28" font-weight="bold" font-family="sans-serif" opacity="0.35" filter="url(#xdf01081)">194</text><text x="0" y="2" text-anchor="middle" fill="#f1f5f9" font-size="28" font-weight="bold" font-family="sans-serif">194</text><text x="0" y="20" text-anchor="middle" fill="#64748b" font-size="11" font-family="monospace" letter-spacing="1">Stars</text></g><g class="metric-cell" transform="translate(425.0,95)"><g transform="translate(-8,-30)"><svg viewBox="0 0 16 16" width="16" height="16" fill="#a78bfa" class="metric-icon" style="animation-delay:0.6s"><path d="M5 3.254V3.25v.005a.75.75 0 1 1 0-.005zm6.5 8a.75.75 0 1 1 0 1.5.75.75 0 0 1 0-1.5zM5 12.75a.75.75 0 1 1 0 1.5.75.75 0 0 1 0-1.5zm-1.5.75a1.5 1.5 0 1 0 1.5 1.5v-8.5a1.5 1.5 0 1 0-1.5-1.5v8.5a1.5 1.5 0 0 0 0 0zm8.5-2.5a1.5 1.5 0 0 0-1.5 1.5 1.5 1.5 0 1 0 3 0v-3.133l.025-.05A3.252 3.252 0 0 0 11 5.25V3.5h1.25a.75.75 0 0 0 .53-1.28l-2-2a.75.75 0 0 0-1.06 0l-2 2A.75.75 0 0 0 8.25 3.5H9.5v1.75a1.75 1.75 0 0 0 1.75 1.75h.244a1.75 1.75 0 0 1 1.006.319V11a1.5 1.5 0 0 0-1.5-1.5z"/></svg></g><text x="0" y="2" text-anchor="middle" fill="#a78bfa" font-size="28" font-weight="bold" font-family="sans-serif" opacity="0.35" filter="url(#xdf01081)">1</text><text x="0" y="2" text-anchor="middle" fill="#f1f5f9" font-size="28" font-weight="bold" font-family="sans-serif">1</text><text x="0" y="20" text-anchor="middle" fill="#64748b" font-size="11" font-family="monospace" letter-spacing="1">PRs</text></g><g class="metric-cell" transform="translate(595.0,95)"><g transform="translate(-8,-30)"><svg viewBox="0 0 16 16" width="16" height="16" fill="#00d4ff" class="metric-icon" style="animation-delay:0.8999999999999999s"><path d="M8 9.5a1.5 1.5 0 1 0 0-3 1.5 1.5 0 0 0 0 3z"/><path d="M8 0a8 8 0 1 1 0 16A8 8 0 0 1 8 0zm0 1.5a6.5 6.5 0 1 0 0 13 6.5 6.5 0 0 0 0-13z"/></svg></g><text x="0" y="2" text-anchor="middle" fill="#00d4ff" font-size="28" font-weight="bold" font-family="sans-serif" opacity="0.35" filter="url(#xdf01081)">5</text><text x="0" y="2" text-anchor="middle" fill="#f1f5f9" font-size="28" font-weight="bold" font-family="sans-serif">5</text><text x="0" y="20" text-anchor="middle" fill="#64748b" font-size="11" font-family="monospace" letter-spacing="1">Issues</text></g><g class="metric-cell" transform="translate(765.0,95)"><g transform="translate(-8,-30)"><svg viewBox="0 0 16 16" width="16" height="16" fill="#a78bfa" class="metric-icon" style="animation-delay:1.2s"><path d="M2 2.5A2.5 2.5 0 0 1 4.5 0h8.75a.75.75 0 0 1 .75.75v12.5a.75.75 0 0 1-.75.75h-2.5a.75.75 0 0 1 0-1.5h1.75v-2h-8a1 1 0 0 0-.714 1.7.75.75 0 0 1-1.072 1.05A2.495 2.495 0 0 1 2 11.5zm10.5-1h-8a1 1 0 0 0-1 1v6.708A2.486 2.486 0 0 1 4.5 9h8zM5 12.25a.25.25 0 0 1 .25-.25h3.5a.25.25 0 0 1 .25.25v3.25a.25.25 0 0 1-.4.2l-1.45-1.087a.25.25 0 0 0-.3 0L5.4 15.7a.25.25 0 0 1-.4-.2z"/></svg></g><text x="0" y="2" text-anchor="middle" fill="#a78bfa" font-size="28" font-weight="bold" font-family="sans-serif" opacity="0.35" filter="url(#xdf01081)">24</text><text x="0" y="2" text-anchor="middle" fill="#f1f5f9" font-size="28" font-weight="bold" font-family="sans-serif">24</text><text x="0" y="20" text-anchor="middle" fill="#64748b" font-size="11" font-family="monospace" letter-spacing="1">Repos</text></g></svg>