<svg xmlns="http://www.w3.org/2000/svg" width="850" height="180" viewBox="0 0 850 180"><defs><style>.metric-icon{animation:count-glow 4s ease-in-out infinite}@keyframes count-glow{0%,100%{fill-opacity:0.7}50%{fill-opacity:1}}.star-bg{animation:twinkle-slow 7s ease-in-out infinite}.star-mid{animation:twinkle-mid 5s ease-in-out infinite}.star-fg{animation:twinkle-fast 3s ease-in-out infinite}@keyframes twinkle-slow{0%,100%{opacity:0.07}50%{opacity:0.30}}@keyframes twinkle-mid{0%,100%{opacity:0.12}50%{opacity:0.45}}@keyframes twinkle-fast{0%,100%{opacity:0.25}50%{opacity:0.65}}.shooting-star{opacity:0;animation:shoot linear infinite}@keyframes shoot{0%{opacity:0;transform:translate(0,0)}5%{opacity:0.9}15%{opacity:0.6;transform:translate(var(--shoot-tx),var(--shoot-ty))}20%{opacity:0;transform:translate(var(--shoot-tx),var(--shoot-ty))}100%{opacity:0}}</style><filter id="xdf01081" x="-30%" y="-30%" width="160%" height="160%"><feGaussianBlur stdDeviation="3"/></filter><radialGradient id="xe7d3b8d" cx="50%" cy="50%" r="80%"><stop offset="0%" stop-color="#0f1623" stop-opacity="0.85"/><stop offset="100%" stop-color="#080c14" stop-opacity="0"/></radialGradient><linearGradient id="x743a279" x1="0" y1="0" x2="1" y2="0"><stop offset="0%" stop-color="#fff" stop-opacity="0.85"/><stop offset="100%" stop-color="#fff" stop-opacity="0"/></linearGradient></defs><rect x="0" y="0" width="850" height="180" rx="14" ry="14" fill="#080c14"/><rect x="0" y="0" width="850" height="180" rx="14" ry="14" fill="url(#xe7d3b8d)"/><circle cx="806.4" cy="84.1" r="0.77" fill="#fff" opacity="0.26" class="star-bg" style="animation-duration:6.045s;animation-delay:2.660s"/><circle cx="507.1" cy="128.6" r="0.55" fill="#00d4ff" opacity="0.28" class="star-bg" style="animation-duration:6.538s;animation-delay:5.929s"/><circle cx="264.3" cy="14.0" r="0.19" fill="#00d4ff" opacity="0.28" class="star-bg" style="animation-duration:6.408s;animation-delay:4.329s"/><circle cx="455.8" cy="108.0" r="0.63" fill="#fff" opacity="0.10" class="star-bg" style="animation-duration:8.175s;animation-delay:3.631s"/><circle cx="789.9" cy="97.2" r="0.61" fill="#ffb020" opacity="0.10" class="star-bg" style="animation-duration:5.539s;animation-delay:4.766s"/><circle cx="614.4" cy="90.0" r="0.20" fill="#a78bfa" opacity="0.26" class="star-bg" style="animation-duration:6.915s;animation-delay:6.857s"/><circle cx="339.5" cy="35.6" r="0.85" fill="#ffb020" opacity="0.17" class="star-bg" style="animation-duration:6.627s;animation-delay:5.878s"/><circle cx="563.3" cy="35.7" r="0.46" fill="#ffb020" opacity="0.13" class="star-bg" style="animation-duration:7.981s;animation-delay:6.125s"/><circle cx="782.8" cy="127.1" r="0.68" fill="#fff" opacity="0.27" class="star-bg" style="animation-duration:6.374s;animation-delay:5.336s"/><circle cx="338.4" cy="127.0" r="0.23" fill="#ffb020" opacity="0.14" class="star-bg" style="animation-duration:7.477s;animation-delay:4.836s"/><circle cx="55.6" cy="104.0" r="0.33" fill="#fff" opacity="0.15" class="star-bg" style="animation-duration:6.486s;animation-delay:2.930s"/><circle cx="16.9" cy="25.1" r="0.51" fill="#fff" opacity="0.09" class="star-bg" style="animation-duration:7.504s;animation-delay:5.618s"/><circle cx="492.5" cy="117.1" r="0.67" fill="#fff" opacity="0.29" class="star-bg" style="animation-duration:5.815s;animation-delay:1.178s"/><circle cx="630.7" cy="147.6" r="0.24" fill="#fff" opacity="0.17" class="star-bg" style="animation-duration:8.722s;animation-delay:2.917s"/><circle cx="64.8" cy="142.6" r="0.33" fill="#00d4ff" opacity="0.28" class="star-bg" style="animation-duration:5.278s;animation-delay:1.700s"/><circle cx="766.2" cy="16.5" r="0.44" fill="#00d4ff" opacity="0.08" class="star-bg" style="animation-duration:5.696s;animation-delay:2.652s"/><circle cx="320.1" cy="54.5" r="0.83" fill="#ffb020" opacity="0.13" class="star-bg" style="animation-duration:6.860s;animation-delay:1.925s"/><circle cx="306.4" cy="103.3" r="0.77" fill="#ffb020" opacity="0.29" class="star-bg" style="animation-duration:7.662s;animation-delay:2.123s"/><circle cx="627.5" cy="48.4" r="0.20" fill="#a78bfa" opacity="0.18" class="star-bg" style="animation-duration:8.715s;animation-delay:2.773s"/><circle cx="369.2" cy="93.6" r="0.47" fill="#fff" opacity="0.09" class="star-bg" style="animation-duration:7.247s;animation-delay:5.546s"/><circle cx="425.8" cy="169.2" r="0.72" fill="#fff" opacity="0.08" class="star-bg" style="animation-duration:6.995s;animation-delay:3.454s"/><circle cx="276.2" cy="99.9" r="0.73" fill="#ffb020" opacity="0.08" class="star-bg" style="animation-duration:6.615s;animation-delay:4.392s"/><circle cx="226.8" cy="55.5" r="0.32" fill="#fff" opacity="0.16" class="star-bg" style="animation-duration:5.358s;animation-delay:1.223s"/><circle cx="771.6" cy="46.2" r="0.50" fill="#ffb020" opacity="0.19" class="star-bg" style="animation-duration:6.602s;animation-delay:3.884s"/><circle cx="60.6" cy="121.8" r="0.32" fill="#00d4ff" opacity="0.14" class="star-bg" style="animation-duration:6.536s;animation-delay:2.930s"/><circle cx="226.8" cy="164.3" r="0.56" fill="#00d4ff" opacity="0.09" class="star-bg" style="animation-duration:8.070s;animation-delay:1.477s"/><circle cx="839.7" cy="159.6" r="0.71" fill="#fff" opacity="0.09" class="star-bg" style="animation-duration:6.467s;animation-delay:1.390s"/><circle cx="248.1" cy="18.8" r="0.39" fill="#a78bfa" opacity="0.08" class="star-bg" style="animation-duration:8.465s;animation-delay:0.800s"/><circle cx="67.1" cy="148.6" r="0.39" fill="#fff" opacity="0.10" class="star-bg" style="animation-duration:5.295s;animation-delay:2.952s"/><circle cx="796.4" cy="52.5" r="0.60" fill="#a78bfa" opacity="0.27" class="star-bg" style="animation-duration:7.692s;animation-delay:6.754s"/><circle cx="801.5" cy="102.3" r="0.27" fill="#ffb020" opacity="0.16" class="star-bg" style="animation-duration:5.424s;animation-delay:0.113s"/><circle cx="177.6" cy="106.7" r="0.67" fill="#fff" opacity="0.20" class="star-bg" style="animation-duration:8.040s;animation-delay:3.667s"/><circle cx="743.9" cy="118.7" r="0.36" fill="#a78bfa" opacity="0.11" class="star-bg" style="animation-duration:8.694s;animation-delay:2.736s"/><circle cx="214.6" cy="18.1" r="0.38" fill="#ffb020" opacity="0.18" class="star-bg" style="animation-duration:7.740s;animation-delay:3.666s"/><circle cx="451.2" cy="114.8" r="0.87" fill="#fff" opacity="0.29" class="star-bg" style="animation-duration:8.284s;animation-delay:8.151s"/><circle cx="331.1" cy="11.3" r="0.55" fill="#ffb020" opacity="0.17" class="star-bg" style="animation-duration:6.522s;animation-delay:1.423s"/><circle cx="104.6" cy="19.1" r="0.33" fill="#fff" opacity="0.14" class="star-bg" style="animation-duration:6.607s;animation-delay:5.238s"/><circle cx="215.1" cy="105.5" r="0.21" fill="#fff" opacity="0.18" class="star-bg" style="animation-duration:6.159s;animation-delay:5.428s"/><circle cx="720.5" cy="39.3" r="0.56" fill="#fff" opacity="0.15" class="star-bg" style="animation-duration:6.783s;animation-delay:1.356s"/><circle cx="81.3" cy="118.1" r="0.79" fill="#fff" opacity="0.17" class="star-bg" style="animation-duration:6.198s;animation-delay:0.932s"/><circle cx="230.4" cy="142.0" r="0.69" fill="#fff" opacity="0.44" class="star-mid" style="animation-duration:6.909s;animation-delay:3.513s"/><circle cx="276.8" cy="31.4" r="0.74" fill="#a78bfa" opacity="0.44" class="star-mid" style="animation-duration:3.578s;animation-delay:1.319s"/><circle cx="497.5" cy="62.1" r="1.14" fill="#ffb020" opacity="0.21" class="star-mid" style="animation-duration:4.976s;animation-delay:0.800s"/><circle cx="613.7" cy="154.3" r="0.72" fill="#ffb020" opacity="0.19" class="star-mid" style="animation-duration:6.950s;animation-delay:6.905s"/><circle cx="393.6" cy="76.4" r="0.65" fill="#fff" opacity="0.13" class="star-mid" style="animation-duration:5.930s;animation-delay:1.806s"/><circle cx="336.2" cy="153.1" r="0.56" fill="#a78bfa" opacity="0.25" class="star-mid" style="animation-duration:5.536s;animation-delay:4.637s"/><circle cx="348.6" cy="68.4" r="1.17" fill="#ffb020" opacity="0.33" class="star-mid" style="animation-duration:5.237s;animation-delay:0.010s"/><circle cx="429.9" cy="134.9" r="0.82" fill="#fff" opacity="0.38" class="star-mid" style="animation-duration:6.654s;animation-delay:6.065s"/><circle cx="739.9" cy="68.0" r="0.93" fill="#fff" opacity="0.26" class="star-mid" style="animation-duration:4.330s;animation-delay:1.107s"/><circle cx="684.8" cy="124.5" r="0.79" fill="#fff" opacity="0.39" class="star-mid" style="animation-duration:5.930s;animation-delay:3.101s"/><circle cx="447.0" cy="128.8" r="0.43" fill="#fff" opacity="0.18" class="star-mid" style="animation-duration:6.587s;animation-delay:0.382s"/><circle cx="540.5" cy="91.8" r="0.50" fill="#fff" opacity="0.40" class="star-mid" style="animation-duration:4.222s;animation-delay:2.322s"/><circle cx="280.3" cy="123.4" r="0.99" fill="#00d4ff" opacity="0.33" class="star-mid" style="animation-duration:3.774s;animation-delay:0.866s"/><circle cx="756.3" cy="57.7" r="0.43" fill="#ffb020" opacity="0.23" class="star-mid" style="animation-duration:4.246s;animation-delay:0.589s"/><circle cx="38.4" cy="47.8" r="0.78" fill="#00d4ff" opacity="0.44" class="star-mid" style="animation-duration:3.915s;animation-delay:2.453s"/><circle cx="456.7" cy="168.4" r="0.46" fill="#ffb020" opacity="0.24" class="star-mid" style="animation-duration:5.413s;animation-delay:1.970s"/><circle cx="300.0" cy="144.2" r="0.88" fill="#fff" opacity="0.33" class="star-mid" style="animation-duration:6.660s;animation-delay:2.054s"/><circle cx="777.9" cy="146.4" r="0.86" fill="#fff" opacity="0.15" class="star-mid" style="animation-duration:5.222s;animation-delay:1.011s"/><circle cx="656.9" cy="56.8" r="0.66" fill="#ffb020" opacity="0.16" class="star-mid" style="animation-duration:6.662s;animation-delay:1.353s"/><circle cx="620.7" cy="168.4" r="0.53" fill="#fff" opacity="0.32" class="star-mid" style="animation-duration:5.993s;animation-delay:5.137s"/><circle cx="720.4" cy="93.8" r="1.17" fill="#fff" opacity="0.35" class="star-mid" style="animation-duration:3.745s;animation-delay:3.223s"/><circle cx="576.3" cy="137.3" r="0.73" fill="#fff" opacity="0.42" class="star-mid" style="animation-duration:4.983s;animation-delay:4.128s"/><circle cx="684.7" cy="14.0" r="1.11" fill="#fff" opacity="0.26" class="star-mid" style="animation-duration:5.030s;animation-delay:3.977s"/><circle cx="643.3" cy="160.8" r="0.54" fill="#fff" opacity="0.21" class="star-mid" style="animation-duration:6.653s;animation-delay:3.270s"/><circle cx="685.1" cy="149.1" r="1.18" fill="#fff" opacity="0.38" class="star-mid" style="animation-duration:4.219s;animation-delay:2.895s"/><circle cx="352.4" cy="35.1" r="1.07" fill="#fff" opacity="0.47" class="star-fg" style="animation-duration:3.232s;animation-delay:1.459s"/><circle cx="462.0" cy="60.6" r="1.26" fill="#fff" opacity="0.32" class="star-fg" style="animation-duration:2.988s;animation-delay:0.134s"/><circle cx="233.9" cy="107.0" r="1.39" fill="#fff" opacity="0.61" class="star-fg" style="animation-duration:3.805s;animation-delay:2.652s"/><circle cx="180.0" cy="107.6" r="1.03" fill="#00d4ff" opacity="0.44" class="star-fg" style="animation-duration:4.190s;animation-delay:1.545s"/><circle cx="369.9" cy="27.6" r="1.42" fill="#a78bfa" opacity="0.44" class="star-fg" style="animation-duration:2.387s;animation-delay:2.376s"/><circle cx="624.4" cy="143.1" r="1.02" fill="#fff" opacity="0.33" class="star-fg" style="animation-duration:2.025s;animation-delay:1.958s"/><circle cx="411.8" cy="55.7" r="0.87" fill="#a78bfa" opacity="0.42" class="star-fg" style="animation-duration:4.364s;animation-delay:3.819s"/><circle cx="499.3" cy="52.9" r="1.08" fill="#a78bfa" opacity="0.35" class="star-fg" style="animation-duration:3.425s;animation-delay:3.247s"/><circle cx="328.5" cy="59.0" r="1.31" fill="#00d4ff" opacity="0.64" class="star-fg" style="animation-duration:2.193s;animation-delay:0.491s"/><circle cx="322.9" cy="70.7" r="1.36" fill="#fff" opacity="0.58" class="star-fg" style="animation-duration:4.040s;animation-delay:3.034s"/><line x1="180" y1="87" x2="198" y2="92" stroke="url(#x743a279)" stroke-width="1.1" stroke-linecap="round" class="shooting-star" style="animation-delay:49.55s;--shoot-tx:97px;--shoot-ty:28px;animation-duration:2.35s"/><line x1="383" y1="63" x2="401" y2="68" stroke="url(#x743a279)" stroke-width="1.1" stroke-linecap="round" class="shooting-star" style="animation-delay:10.8s;--shoot-tx:84px;--shoot-ty:44px;animation-duration:2.57s"/><line x1="566" y1="86" x2="584" y2="91" stroke="url(#x743a279)" stroke-width="1.1" stroke-linecap="round" class="shooting-star" style="animation-delay:59.36s;--shoot-tx:113px;--shoot-ty:41px;animation-duration:2.91s"/><line x1="170.0" y1="55" x2="170.0" y2="155" stroke="#1a2332" stroke-width="1" opacity="0.5"/><line x1="340.0" y1="55" x2="340.0" y2="155" stroke="#1a2332" stroke-width="1" opacity="0.5"/><line x1="510.0" y1="55" x2="510.0" y2="155" stroke="#1a2332" stroke-width="1" opacity="0.5"/><line x1="680.0" y1="55" x2="680.0" y2="155" stroke="#1a2332" stroke-width="1" opacity="0.5"/><g class="metric-cell" transform="translate(85.0,95)"><g transform="translate(-8,-30)"><svg viewBox="0 0 16 16" width="16" height="16" fill="#00d4ff" class="metric-icon" style="animation-delay:0.0s"><path d="M8 1a7 7 0 1 0 0 14A7 7 0 0 0 8 1zm0 2.5a4.5 4.5 0 0 1 4.473 4H14.5a.5.5 0 0 1 0 1h-2.027A4.5 4.5 0 0 1 8 12.5a4.5 4.5 0 0 1-4.473-4H1.5a.5.5 0 0 1 0-1h2.027A4.5 4.5 0 0 1 8 3.5zm0 1.5a3 3 0 1 0 0 6 3 3 0 0 0 0-6z"/></svg></g><text x="0" y="2" text-anchor="middle" fill="#00d4ff" font-size="28" font-weight="bold" font-family="sans-serif" opacity="0.35" filter="url(#xdf01081)">627</text><text x="0" y="2" text-anchor="middle" fill="#f1f5f9" font-size="28" font-weight="bold" font-family="sans-serif">627</text><text x="0" y="20" text-anchor="middle" fill="#64748b" font-size="11" font-family="monospace" letter-spacing="1">Commits</text></g><g class="metric-cell" transform="translate(255.0,95)"><g transform="translate(-8,-30)"><svg viewBox="0 0 16 16" width="16" height="16" fill="#ffb020" class="metric-icon" style="animation-delay:0.3s"><path d="M8 .25a.75.75 0 0 1 .673.418l1.882 3.815 4.21.612a.75.75 0 0 1 .416 1.279l-3.046 2.97.719 4.192a.75.75 0 0 1-1.088.791L8 12.347l-3.766 1.98a.75.75 0 0 1-1.088-.79l.72-4.194L.818 6.374a.75.75 0 0 1 .416-1.28l4.21-.611L7.327.668A.75.75 0 0 1 8 .25z"/></svg></g><text x="0" y="2" text-anchor="middle" fill="#ffb020" font-size="28" font-weight="bold" font-family="sans-serif" opacity="0.35" filter="url(#xdf01081)">193</text><text x="0" y="2" text-anchor="middle" fill="#f1f5f9" font-size="28" font-weight="bold" font-family="sans-serif">193</text><text x="0" y="20" text-anchor="middle" fill="#64748b" font-size="11" font-family="monospace" letter-spacing="1">Stars</text></g><g class="metric-cell" transform="translate(425.0,95)"><g transform="translate(-8,-30)"><svg viewBox="0 0 16 16" width="16" height="16" fill="#a78bfa" class="metric-icon" style="animation-delay:0.6s"><path d="M5 3.254V3.25v.005a.75.75 0 1 1 0-.005zm6.5 8a.75.75 0 1 1 0 1.5.75.75 0 0 1 0-1.5zM5 12.75a.75.75 0 1 1 0 1.5.75.75 0 0 1 0-1.5zm-1.5.75a1.5 1.5 0 1 0 1.5 1.5v-8.5a1.5 1.5 0 1 0-1.5-1.5v8.5a1.5 1.5 0 0 0 0 0zm8.5-2.5a1.5 1.5 0 0 0-1.5 1.5 1.5 1.5 0 1 0 3 0v-3.133l.025-.05A3.252 3.252 0 0 0 11 5.25V3.5h1.25a.75.75 0 0 0 .53-1.28l-2-2a.75.75 0 0 0-1.06 0l-2 2A.75.75 0 0 0 8.25 3.5H9.5v1.75a1.75 1.75 0 0 0 1.75 1.75h.244a1.75 1.75 0 0 1 1.006.319V11a1.5 1.5 0 0 0-1.5-1.5z"/></svg></g><text x="0" y="2" text-anchor="middle" fill="#a78bfa" font-size="28" font-weight="bold" font-family="sans-serif" opacity="0.35" filter="url(#xdf01081)">1</text><text x="0" y="2" text-anchor="middle" fill="#f1f5f9" font-size="28" font-weight="bold" font-family="sans-serif">1</text><text x="0" y="20" text-anchor="middle" fill="#64748b" font-size="11" font-family="monospace" letter-spacing="1">PRs</text></g><g class="metric-cell" transform="translate(595.0,95)"><g transform="translate(-8,-30)"><svg viewBox="0 0 16 16" width="16" height="16" fill="#00d4ff" class="metric-icon" style="animation-delay:0.8999999999999999s"><path d="M8 9.5a1.5 1.5 0 1 0 0-3 1.5 1.5 0 0 0 0 3z"/><path d="M8 0a8 8 0 1 1 0 16A8 8 0 0 1 8 0zm0 1.5a6.5 6.5 0 1 0 0 13 6.5 6.5 0 0 0 0-13z"/></svg></g><text x="0" y="2" text-anchor="middle" fill="#00d4ff" font-size="28" font-weight="bold" font-family="sans-serif" opacity="0.35" filter="url(#xdf01081)">5</text><text x="0" y="2" text-anchor="middle" fill="#f1f5f9" font-size="28" font-weight="bold" font-family="sans-serif">5</text><text x="0" y="20" text-anchor="middle" fill="#64748b" font-size="11" font-family="monospace" letter-spacing="1">Issues</text></g><g class="metric-cell" transform="translate(765.0,95)"><g transform="translate(-8,-30)"><svg viewBox="0 0 16 16" width="16" height="16" fill="#a78bfa" class="metric-icon" style="animation-delay:1.2s"><path d="M2 2.5A2.5 2.5 0 0 1 4.5 0h8.75a.75.75 0 0 1 .75.75v12.5a.75.75 0 0 1-.75.75h-2.5a.75.75 0 0 1 0-1.5h1.75v-2h-8a1 1 0 0 0-.714 1.7.75.75 0 0 1-1.072 1.05A2.495 2.495 0 0 1 2 11.5zm10.5-1h-8a1 1 0 0 0-1 1v6.708A2.486 2.486 0 0 1 4.5 9h8zM5 12.25a.25.25 0 0 1 .25-.25h3.5a.25.25 0 0 1 .25.25v3.25a.25.25 0 0 1-.4.2l-1.45-1.087a.25.25 0 0 0-.3 0L5.4 15.7a.25.25 0 0 1-.4-.2z"/></svg></g><text x="0" y="2" text-anchor="middle" fill="#a78bfa" font-size="28" font-weight="bold" font-family="sans-serif" opacity="0.35" filter="url(#xdf01081)">24</text><text x="0" y="2" text-anchor="middle" fill="#f1f5f9" font-size="28" font-weight="bold" font-family="sans-serif">24</text><text x="0" y="20" text-anchor="middle" fill="#64748b" font-size="11" font-family="monospace" letter-spacing="1">Repos</text></g></svg>