<svg xmlns="http://www.w3.org/2000/svg" width="850" height="180" viewBox="0 0 850 180"><defs><style>.metric-icon{animation:count-glow 4s ease-in-out infinite}@keyframes count-glow{0%,100%{fill-opacity:0.7}50%{fill-opacity:1}}.star-bg{animation:twinkle-slow 7s ease-in-out infinite}.star-mid{animation:twinkle-mid 5s ease-in-out infinite}.star-fg{animation:twinkle-fast 3s ease-in-out infinite}@keyframes twinkle-slow{0%,100%{opacity:0.07}50%{opacity:0.30}}@keyframes twinkle-mid{0%,100%{opacity:0.12}50%{opacity:0.45}}@keyframes twinkle-fast{0%,100%{opacity:0.25}50%{opacity:0.65}}.shooting-star{opacity:0;animation:shoot linear infinite}@keyframes shoot{0%{opacity:0;transform:translate(0,0)}5%{opacity:0.9}15%{opacity:0.6;transform:translate(var(--shoot-tx),var(--shoot-ty))}20%{opacity:0;transform:translate(var(--shoot-tx),var(--shoot-ty))}100%{opacity:0}}</style><filter id="xdf01081" x="-30%" y="-30%" width="160%" height="160%"><feGaussianBlur stdDeviation="3"/></filter><radialGradient id="xe7d3b8d" cx="50%" cy="50%" r="80%"><stop offset="0%" stop-color="#0f1623" stop-opacity="0.85"/><stop offset="100%" stop-color="#080c14" stop-opacity="0"/></radialGradient><linearGradient id="x743a279" x1="0" y1="0" x2="1" y2="0"><stop offset="0%" stop-color="#fff" stop-opacity="0.85"/><stop offset="100%" stop-color="#fff" stop-opacity="0"/></linearGradient></defs><rect x="0" y="0" width="850" height="180" rx="14" ry="14" fill="#080c14"/><rect x="0" y="0" width="850" height="180" rx="14" ry="14" fill="url(#xe7d3b8d)"/><circle cx="296.4" cy="79.7" r="0.40" fill="#00d4ff" opacity="0.08" class="star-bg" style="animation-duration:5.320s;animation-delay:4.520s"/><circle cx="621.9" cy="93.9" r="0.34" fill="#fff" opacity="0.08" class="star-bg" style="animation-duration:5.648s;animation-delay:3.772s"/><circle cx="157.7" cy="95.2" r="0.82" fill="#fff" opacity="0.22" class="star-bg" style="animation-duration:6.764s;animation-delay:3.799s"/><circle cx="568.8" cy="42.0" r="0.65" fill="#fff" opacity="0.18" class="star-bg" style="animation-duration:8.074s;animation-delay:1.951s"/><circle cx="33.8" cy="71.2" r="0.65" fill="#fff" opacity="0.24" class="star-bg" style="animation-duration:8.505s;animation-delay:6.683s"/><circle cx="593.3" cy="129.0" r="0.70" fill="#fff" opacity="0.23" class="star-bg" style="animation-duration:7.855s;animation-delay:2.385s"/><circle cx="233.1" cy="118.3" r="0.73" fill="#a78bfa" opacity="0.08" class="star-bg" style="animation-duration:7.315s;animation-delay:2.528s"/><circle cx="146.2" cy="72.0" r="0.65" fill="#fff" opacity="0.28" class="star-bg" style="animation-duration:7.661s;animation-delay:1.166s"/><circle cx="307.7" cy="72.0" r="0.29" fill="#a78bfa" opacity="0.16" class="star-bg" style="animation-duration:5.624s;animation-delay:0.260s"/><circle cx="808.3" cy="18.9" r="0.66" fill="#fff" opacity="0.07" class="star-bg" style="animation-duration:8.730s;animation-delay:4.421s"/><circle cx="562.9" cy="132.7" r="0.68" fill="#fff" opacity="0.10" class="star-bg" style="animation-duration:7.034s;animation-delay:1.784s"/><circle cx="513.9" cy="82.0" r="0.34" fill="#fff" opacity="0.08" class="star-bg" style="animation-duration:8.520s;animation-delay:3.032s"/><circle cx="728.2" cy="10.2" r="0.31" fill="#00d4ff" opacity="0.16" class="star-bg" style="animation-duration:6.484s;animation-delay:0.810s"/><circle cx="793.3" cy="30.5" r="0.78" fill="#ffb020" opacity="0.19" class="star-bg" style="animation-duration:7.664s;animation-delay:7.028s"/><circle cx="760.7" cy="151.4" r="0.62" fill="#fff" opacity="0.12" class="star-bg" style="animation-duration:6.850s;animation-delay:1.289s"/><circle cx="666.6" cy="22.8" r="0.60" fill="#00d4ff" opacity="0.20" class="star-bg" style="animation-duration:8.237s;animation-delay:7.015s"/><circle cx="446.2" cy="72.0" r="0.72" fill="#fff" opacity="0.26" class="star-bg" style="animation-duration:5.218s;animation-delay:2.918s"/><circle cx="677.5" cy="33.6" r="0.23" fill="#ffb020" opacity="0.22" class="star-bg" style="animation-duration:8.383s;animation-delay:0.555s"/><circle cx="368.1" cy="103.6" r="0.48" fill="#fff" opacity="0.11" class="star-bg" style="animation-duration:8.136s;animation-delay:0.280s"/><circle cx="707.7" cy="98.0" r="0.78" fill="#fff" opacity="0.14" class="star-bg" style="animation-duration:5.661s;animation-delay:2.635s"/><circle cx="836.1" cy="158.0" r="0.84" fill="#fff" opacity="0.17" class="star-bg" style="animation-duration:5.757s;animation-delay:3.825s"/><circle cx="836.6" cy="30.1" r="0.43" fill="#00d4ff" opacity="0.18" class="star-bg" style="animation-duration:8.211s;animation-delay:6.706s"/><circle cx="77.1" cy="94.0" r="0.32" fill="#fff" opacity="0.16" class="star-bg" style="animation-duration:8.763s;animation-delay:5.641s"/><circle cx="366.4" cy="56.9" r="0.33" fill="#a78bfa" opacity="0.29" class="star-bg" style="animation-duration:8.155s;animation-delay:6.878s"/><circle cx="478.9" cy="94.0" r="0.61" fill="#ffb020" opacity="0.26" class="star-bg" style="animation-duration:7.612s;animation-delay:2.808s"/><circle cx="49.0" cy="38.5" r="0.28" fill="#ffb020" opacity="0.10" class="star-bg" style="animation-duration:8.346s;animation-delay:3.372s"/><circle cx="629.7" cy="111.5" r="0.43" fill="#ffb020" opacity="0.23" class="star-bg" style="animation-duration:8.599s;animation-delay:1.015s"/><circle cx="17.0" cy="17.5" r="0.82" fill="#fff" opacity="0.14" class="star-bg" style="animation-duration:8.247s;animation-delay:4.755s"/><circle cx="202.5" cy="49.0" r="0.32" fill="#fff" opacity="0.25" class="star-bg" style="animation-duration:7.686s;animation-delay:1.937s"/><circle cx="388.5" cy="110.6" r="0.31" fill="#ffb020" opacity="0.24" class="star-bg" style="animation-duration:5.447s;animation-delay:2.094s"/><circle cx="365.1" cy="167.4" r="0.26" fill="#fff" opacity="0.24" class="star-bg" style="animation-duration:5.527s;animation-delay:5.450s"/><circle cx="674.0" cy="29.9" r="0.72" fill="#00d4ff" opacity="0.08" class="star-bg" style="animation-duration:6.955s;animation-delay:4.232s"/><circle cx="123.0" cy="28.1" r="0.63" fill="#fff" opacity="0.19" class="star-bg" style="animation-duration:5.268s;animation-delay:3.262s"/><circle cx="341.7" cy="77.9" r="0.38" fill="#ffb020" opacity="0.16" class="star-bg" style="animation-duration:7.984s;animation-delay:3.132s"/><circle cx="722.1" cy="61.7" r="0.50" fill="#fff" opacity="0.10" class="star-bg" style="animation-duration:8.156s;animation-delay:3.895s"/><circle cx="680.5" cy="158.8" r="0.38" fill="#fff" opacity="0.14" class="star-bg" style="animation-duration:8.342s;animation-delay:8.083s"/><circle cx="752.2" cy="136.1" r="0.71" fill="#fff" opacity="0.25" class="star-bg" style="animation-duration:5.755s;animation-delay:3.238s"/><circle cx="561.5" cy="45.8" r="0.61" fill="#fff" opacity="0.23" class="star-bg" style="animation-duration:5.109s;animation-delay:3.294s"/><circle cx="309.4" cy="78.0" r="0.49" fill="#00d4ff" opacity="0.27" class="star-bg" style="animation-duration:5.129s;animation-delay:1.057s"/><circle cx="34.6" cy="63.6" r="0.25" fill="#fff" opacity="0.26" class="star-bg" style="animation-duration:5.174s;animation-delay:1.202s"/><circle cx="658.1" cy="164.6" r="0.77" fill="#ffb020" opacity="0.18" class="star-mid" style="animation-duration:4.039s;animation-delay:1.032s"/><circle cx="315.5" cy="163.8" r="0.86" fill="#00d4ff" opacity="0.22" class="star-mid" style="animation-duration:5.069s;animation-delay:2.287s"/><circle cx="406.8" cy="57.8" r="1.14" fill="#00d4ff" opacity="0.33" class="star-mid" style="animation-duration:6.734s;animation-delay:4.793s"/><circle cx="355.6" cy="118.3" r="0.45" fill="#00d4ff" opacity="0.29" class="star-mid" style="animation-duration:4.634s;animation-delay:0.870s"/><circle cx="549.7" cy="36.9" r="0.65" fill="#a78bfa" opacity="0.44" class="star-mid" style="animation-duration:6.744s;animation-delay:0.877s"/><circle cx="42.0" cy="72.5" r="1.01" fill="#fff" opacity="0.23" class="star-mid" style="animation-duration:3.680s;animation-delay:3.594s"/><circle cx="241.4" cy="105.5" r="0.66" fill="#fff" opacity="0.34" class="star-mid" style="animation-duration:5.382s;animation-delay:3.490s"/><circle cx="26.2" cy="140.9" r="0.88" fill="#fff" opacity="0.22" class="star-mid" style="animation-duration:6.989s;animation-delay:6.743s"/><circle cx="292.8" cy="25.4" r="0.59" fill="#fff" opacity="0.30" class="star-mid" style="animation-duration:4.636s;animation-delay:0.155s"/><circle cx="138.8" cy="109.1" r="0.82" fill="#a78bfa" opacity="0.41" class="star-mid" style="animation-duration:5.524s;animation-delay:3.668s"/><circle cx="325.8" cy="40.9" r="0.61" fill="#fff" opacity="0.19" class="star-mid" style="animation-duration:4.232s;animation-delay:4.111s"/><circle cx="659.8" cy="135.5" r="0.64" fill="#00d4ff" opacity="0.43" class="star-mid" style="animation-duration:4.307s;animation-delay:2.865s"/><circle cx="490.9" cy="151.1" r="0.50" fill="#ffb020" opacity="0.20" class="star-mid" style="animation-duration:6.324s;animation-delay:0.094s"/><circle cx="316.0" cy="78.5" r="1.17" fill="#00d4ff" opacity="0.30" class="star-mid" style="animation-duration:5.868s;animation-delay:4.436s"/><circle cx="202.2" cy="43.6" r="1.03" fill="#00d4ff" opacity="0.27" class="star-mid" style="animation-duration:5.711s;animation-delay:3.407s"/><circle cx="370.6" cy="76.8" r="0.68" fill="#ffb020" opacity="0.22" class="star-mid" style="animation-duration:5.071s;animation-delay:0.649s"/><circle cx="668.4" cy="18.5" r="0.66" fill="#00d4ff" opacity="0.22" class="star-mid" style="animation-duration:4.187s;animation-delay:3.400s"/><circle cx="168.1" cy="137.0" r="1.18" fill="#00d4ff" opacity="0.23" class="star-mid" style="animation-duration:4.388s;animation-delay:0.236s"/><circle cx="726.4" cy="48.3" r="0.40" fill="#fff" opacity="0.44" class="star-mid" style="animation-duration:4.442s;animation-delay:1.792s"/><circle cx="429.3" cy="143.1" r="0.48" fill="#00d4ff" opacity="0.27" class="star-mid" style="animation-duration:4.114s;animation-delay:3.221s"/><circle cx="826.5" cy="135.0" r="0.44" fill="#fff" opacity="0.27" class="star-mid" style="animation-duration:4.790s;animation-delay:2.058s"/><circle cx="449.2" cy="140.6" r="0.96" fill="#ffb020" opacity="0.17" class="star-mid" style="animation-duration:5.774s;animation-delay:3.102s"/><circle cx="459.7" cy="97.0" r="1.01" fill="#fff" opacity="0.33" class="star-mid" style="animation-duration:6.055s;animation-delay:5.606s"/><circle cx="786.4" cy="100.6" r="0.80" fill="#00d4ff" opacity="0.33" class="star-mid" style="animation-duration:4.994s;animation-delay:2.006s"/><circle cx="476.9" cy="122.4" r="0.45" fill="#fff" opacity="0.26" class="star-mid" style="animation-duration:4.530s;animation-delay:1.683s"/><circle cx="298.1" cy="84.6" r="1.37" fill="#a78bfa" opacity="0.25" class="star-fg" style="animation-duration:3.096s;animation-delay:2.997s"/><circle cx="756.5" cy="104.7" r="1.24" fill="#ffb020" opacity="0.37" class="star-fg" style="animation-duration:3.297s;animation-delay:0.749s"/><circle cx="255.3" cy="38.5" r="1.40" fill="#fff" opacity="0.56" class="star-fg" style="animation-duration:3.492s;animation-delay:3.077s"/><circle cx="688.6" cy="52.0" r="1.48" fill="#00d4ff" opacity="0.34" class="star-fg" style="animation-duration:3.146s;animation-delay:1.671s"/><circle cx="132.7" cy="20.0" r="1.03" fill="#00d4ff" opacity="0.53" class="star-fg" style="animation-duration:2.514s;animation-delay:1.291s"/><circle cx="703.5" cy="29.0" r="1.03" fill="#ffb020" opacity="0.46" class="star-fg" style="animation-duration:3.233s;animation-delay:1.524s"/><circle cx="313.5" cy="127.5" r="1.27" fill="#fff" opacity="0.64" class="star-fg" style="animation-duration:3.723s;animation-delay:2.392s"/><circle cx="821.2" cy="17.8" r="1.12" fill="#fff" opacity="0.27" class="star-fg" style="animation-duration:3.326s;animation-delay:2.568s"/><circle cx="520.5" cy="23.0" r="1.06" fill="#a78bfa" opacity="0.40" class="star-fg" style="animation-duration:3.180s;animation-delay:2.334s"/><circle cx="172.5" cy="156.0" r="0.82" fill="#00d4ff" opacity="0.26" class="star-fg" style="animation-duration:3.802s;animation-delay:0.988s"/><line x1="350" y1="21" x2="368" y2="26" stroke="url(#x743a279)" stroke-width="1.1" stroke-linecap="round" class="shooting-star" style="animation-delay:3.02s;--shoot-tx:92px;--shoot-ty:45px;animation-duration:2.45s"/><line x1="672" y1="86" x2="690" y2="91" stroke="url(#x743a279)" stroke-width="1.1" stroke-linecap="round" class="shooting-star" style="animation-delay:3.77s;--shoot-tx:94px;--shoot-ty:41px;animation-duration:2.29s"/><line x1="554" y1="35" x2="572" y2="40" stroke="url(#x743a279)" stroke-width="1.1" stroke-linecap="round" class="shooting-star" style="animation-delay:4.69s;--shoot-tx:117px;--shoot-ty:45px;animation-duration:2.45s"/><line x1="170.0" y1="55" x2="170.0" y2="155" stroke="#1a2332" stroke-width="1" opacity="0.5"/><line x1="340.0" y1="55" x2="340.0" y2="155" stroke="#1a2332" stroke-width="1" opacity="0.5"/><line x1="510.0" y1="55" x2="510.0" y2="155" stroke="#1a2332" stroke-width="1" opacity="0.5"/><line x1="680.0" y1="55" x2="680.0" y2="155" stroke="#1a2332" stroke-width="1" opacity="0.5"/><g class="metric-cell" transform="translate(85.0,95)"><g transform="translate(-8,-30)"><svg viewBox="0 0 16 16" width="16" height="16" fill="#00d4ff" class="metric-icon" style="animation-delay:0.0s"><path d="M8 1a7 7 0 1 0 0 14A7 7 0 0 0 8 1zm0 2.5a4.5 4.5 0 0 1 4.473 4H14.5a.5.5 0 0 1 0 1h-2.027A4.5 4.5 0 0 1 8 12.5a4.5 4.5 0 0 1-4.473-4H1.5a.5.5 0 0 1 0-1h2.027A4.5 4.5 0 0 1 8 3.5zm0 1.5a3 3 0 1 0 0 6 3 3 0 0 0 0-6z"/></svg></g><text x="0" y="2" text-anchor="middle" fill="#00d4ff" font-size="28" font-weight="bold" font-family="sans-serif" opacity="0.35" filter="url(#xdf01081)">622</text><text x="0" y="2" text-anchor="middle" fill="#f1f5f9" font-size="28" font-weight="bold" font-family="sans-serif">622</text><text x="0" y="20" text-anchor="middle" fill="#64748b" font-size="11" font-family="monospace" letter-spacing="1">Commits</text></g><g class="metric-cell" transform="translate(255.0,95)"><g transform="translate(-8,-30)"><svg viewBox="0 0 16 16" width="16" height="16" fill="#ffb020" class="metric-icon" style="animation-delay:0.3s"><path d="M8 .25a.75.75 0 0 1 .673.418l1.882 3.815 4.21.612a.75.75 0 0 1 .416 1.279l-3.046 2.97.719 4.192a.75.75 0 0 1-1.088.791L8 12.347l-3.766 1.98a.75.75 0 0 1-1.088-.79l.72-4.194L.818 6.374a.75.75 0 0 1 .416-1.28l4.21-.611L7.327.668A.75.75 0 0 1 8 .25z"/></svg></g><text x="0" y="2" text-anchor="middle" fill="#ffb020" font-size="28" font-weight="bold" font-family="sans-serif" opacity="0.35" filter="url(#xdf01081)">193</text><text x="0" y="2" text-anchor="middle" fill="#f1f5f9" font-size="28" font-weight="bold" font-family="sans-serif">193</text><text x="0" y="20" text-anchor="middle" fill="#64748b" font-size="11" font-family="monospace" letter-spacing="1">Stars</text></g><g class="metric-cell" transform="translate(425.0,95)"><g transform="translate(-8,-30)"><svg viewBox="0 0 16 16" width="16" height="16" fill="#a78bfa" class="metric-icon" style="animation-delay:0.6s"><path d="M5 3.254V3.25v.005a.75.75 0 1 1 0-.005zm6.5 8a.75.75 0 1 1 0 1.5.75.75 0 0 1 0-1.5zM5 12.75a.75.75 0 1 1 0 1.5.75.75 0 0 1 0-1.5zm-1.5.75a1.5 1.5 0 1 0 1.5 1.5v-8.5a1.5 1.5 0 1 0-1.5-1.5v8.5a1.5 1.5 0 0 0 0 0zm8.5-2.5a1.5 1.5 0 0 0-1.5 1.5 1.5 1.5 0 1 0 3 0v-3.133l.025-.05A3.252 3.252 0 0 0 11 5.25V3.5h1.25a.75.75 0 0 0 .53-1.28l-2-2a.75.75 0 0 0-1.06 0l-2 2A.75.75 0 0 0 8.25 3.5H9.5v1.75a1.75 1.75 0 0 0 1.75 1.75h.244a1.75 1.75 0 0 1 1.006.319V11a1.5 1.5 0 0 0-1.5-1.5z"/></svg></g><text x="0" y="2" text-anchor="middle" fill="#a78bfa" font-size="28" font-weight="bold" font-family="sans-serif" opacity="0.35" filter="url(#xdf01081)">1</text><text x="0" y="2" text-anchor="middle" fill="#f1f5f9" font-size="28" font-weight="bold" font-family="sans-serif">1</text><text x="0" y="20" text-anchor="middle" fill="#64748b" font-size="11" font-family="monospace" letter-spacing="1">PRs</text></g><g class="metric-cell" transform="translate(595.0,95)"><g transform="translate(-8,-30)"><svg viewBox="0 0 16 16" width="16" height="16" fill="#00d4ff" class="metric-icon" style="animation-delay:0.8999999999999999s"><path d="M8 9.5a1.5 1.5 0 1 0 0-3 1.5 1.5 0 0 0 0 3z"/><path d="M8 0a8 8 0 1 1 0 16A8 8 0 0 1 8 0zm0 1.5a6.5 6.5 0 1 0 0 13 6.5 6.5 0 0 0 0-13z"/></svg></g><text x="0" y="2" text-anchor="middle" fill="#00d4ff" font-size="28" font-weight="bold" font-family="sans-serif" opacity="0.35" filter="url(#xdf01081)">4</text><text x="0" y="2" text-anchor="middle" fill="#f1f5f9" font-size="28" font-weight="bold" font-family="sans-serif">4</text><text x="0" y="20" text-anchor="middle" fill="#64748b" font-size="11" font-family="monospace" letter-spacing="1">Issues</text></g><g class="metric-cell" transform="translate(765.0,95)"><g transform="translate(-8,-30)"><svg viewBox="0 0 16 16" width="16" height="16" fill="#a78bfa" class="metric-icon" style="animation-delay:1.2s"><path d="M2 2.5A2.5 2.5 0 0 1 4.5 0h8.75a.75.75 0 0 1 .75.75v12.5a.75.75 0 0 1-.75.75h-2.5a.75.75 0 0 1 0-1.5h1.75v-2h-8a1 1 0 0 0-.714 1.7.75.75 0 0 1-1.072 1.05A2.495 2.495 0 0 1 2 11.5zm10.5-1h-8a1 1 0 0 0-1 1v6.708A2.486 2.486 0 0 1 4.5 9h8zM5 12.25a.25.25 0 0 1 .25-.25h3.5a.25.25 0 0 1 .25.25v3.25a.25.25 0 0 1-.4.2l-1.45-1.087a.25.25 0 0 0-.3 0L5.4 15.7a.25.25 0 0 1-.4-.2z"/></svg></g><text x="0" y="2" text-anchor="middle" fill="#a78bfa" font-size="28" font-weight="bold" font-family="sans-serif" opacity="0.35" filter="url(#xdf01081)">24</text><text x="0" y="2" text-anchor="middle" fill="#f1f5f9" font-size="28" font-weight="bold" font-family="sans-serif">24</text><text x="0" y="20" text-anchor="middle" fill="#64748b" font-size="11" font-family="monospace" letter-spacing="1">Repos</text></g></svg>