<svg xmlns="http://www.w3.org/2000/svg" width="850" height="180" viewBox="0 0 850 180"><defs><style>.metric-icon{animation:count-glow 4s ease-in-out infinite}@keyframes count-glow{0%,100%{fill-opacity:0.7}50%{fill-opacity:1}}.star-bg{animation:twinkle-slow 7s ease-in-out infinite}.star-mid{animation:twinkle-mid 5s ease-in-out infinite}.star-fg{animation:twinkle-fast 3s ease-in-out infinite}@keyframes twinkle-slow{0%,100%{opacity:0.07}50%{opacity:0.30}}@keyframes twinkle-mid{0%,100%{opacity:0.12}50%{opacity:0.45}}@keyframes twinkle-fast{0%,100%{opacity:0.25}50%{opacity:0.65}}.shooting-star{opacity:0;animation:shoot linear infinite}@keyframes shoot{0%{opacity:0;transform:translate(0,0)}5%{opacity:0.9}15%{opacity:0.6;transform:translate(var(--shoot-tx),var(--shoot-ty))}20%{opacity:0;transform:translate(var(--shoot-tx),var(--shoot-ty))}100%{opacity:0}}</style><filter id="xdf01081" x="-30%" y="-30%" width="160%" height="160%"><feGaussianBlur stdDeviation="3"/></filter><radialGradient id="xe7d3b8d" cx="50%" cy="50%" r="80%"><stop offset="0%" stop-color="#0f1623" stop-opacity="0.85"/><stop offset="100%" stop-color="#080c14" stop-opacity="0"/></radialGradient><linearGradient id="x743a279" x1="0" y1="0" x2="1" y2="0"><stop offset="0%" stop-color="#fff" stop-opacity="0.85"/><stop offset="100%" stop-color="#fff" stop-opacity="0"/></linearGradient></defs><rect x="0" y="0" width="850" height="180" rx="14" ry="14" fill="#080c14"/><rect x="0" y="0" width="850" height="180" rx="14" ry="14" fill="url(#xe7d3b8d)"/><circle cx="667.4" cy="137.2" r="0.69" fill="#00d4ff" opacity="0.30" class="star-bg" style="animation-duration:6.109s;animation-delay:2.833s"/><circle cx="815.3" cy="104.3" r="0.66" fill="#fff" opacity="0.07" class="star-bg" style="animation-duration:7.971s;animation-delay:3.375s"/><circle cx="191.8" cy="43.1" r="0.24" fill="#ffb020" opacity="0.22" class="star-bg" style="animation-duration:5.440s;animation-delay:0.392s"/><circle cx="34.7" cy="83.2" r="0.68" fill="#fff" opacity="0.22" class="star-bg" style="animation-duration:7.513s;animation-delay:1.751s"/><circle cx="35.6" cy="55.3" r="0.55" fill="#fff" opacity="0.28" class="star-bg" style="animation-duration:5.584s;animation-delay:4.313s"/><circle cx="202.7" cy="123.7" r="0.62" fill="#fff" opacity="0.17" class="star-bg" style="animation-duration:6.154s;animation-delay:2.414s"/><circle cx="60.8" cy="41.1" r="0.70" fill="#00d4ff" opacity="0.26" class="star-bg" style="animation-duration:5.951s;animation-delay:2.277s"/><circle cx="767.3" cy="133.6" r="0.49" fill="#fff" opacity="0.08" class="star-bg" style="animation-duration:6.398s;animation-delay:2.496s"/><circle cx="332.1" cy="140.9" r="0.47" fill="#fff" opacity="0.21" class="star-bg" style="animation-duration:7.106s;animation-delay:3.153s"/><circle cx="197.2" cy="81.9" r="0.75" fill="#fff" opacity="0.20" class="star-bg" style="animation-duration:6.730s;animation-delay:2.961s"/><circle cx="228.3" cy="93.1" r="0.73" fill="#fff" opacity="0.29" class="star-bg" style="animation-duration:7.275s;animation-delay:6.252s"/><circle cx="634.6" cy="90.0" r="0.41" fill="#a78bfa" opacity="0.27" class="star-bg" style="animation-duration:7.924s;animation-delay:1.501s"/><circle cx="116.9" cy="59.1" r="0.18" fill="#fff" opacity="0.13" class="star-bg" style="animation-duration:8.462s;animation-delay:3.362s"/><circle cx="633.7" cy="61.5" r="0.84" fill="#a78bfa" opacity="0.29" class="star-bg" style="animation-duration:7.163s;animation-delay:5.740s"/><circle cx="465.4" cy="56.7" r="0.69" fill="#ffb020" opacity="0.15" class="star-bg" style="animation-duration:7.023s;animation-delay:1.905s"/><circle cx="394.4" cy="57.1" r="0.30" fill="#fff" opacity="0.16" class="star-bg" style="animation-duration:6.828s;animation-delay:3.707s"/><circle cx="285.5" cy="54.6" r="0.46" fill="#a78bfa" opacity="0.29" class="star-bg" style="animation-duration:5.493s;animation-delay:0.794s"/><circle cx="713.2" cy="53.2" r="0.68" fill="#a78bfa" opacity="0.09" class="star-bg" style="animation-duration:6.589s;animation-delay:0.711s"/><circle cx="112.7" cy="65.1" r="0.20" fill="#fff" opacity="0.27" class="star-bg" style="animation-duration:5.477s;animation-delay:3.045s"/><circle cx="518.7" cy="57.1" r="0.60" fill="#ffb020" opacity="0.24" class="star-bg" style="animation-duration:7.741s;animation-delay:7.509s"/><circle cx="492.7" cy="94.8" r="0.49" fill="#ffb020" opacity="0.30" class="star-bg" style="animation-duration:5.984s;animation-delay:1.138s"/><circle cx="275.6" cy="21.5" r="0.33" fill="#00d4ff" opacity="0.08" class="star-bg" style="animation-duration:5.138s;animation-delay:5.098s"/><circle cx="663.0" cy="107.5" r="0.73" fill="#ffb020" opacity="0.09" class="star-bg" style="animation-duration:7.086s;animation-delay:6.882s"/><circle cx="251.6" cy="129.7" r="0.46" fill="#fff" opacity="0.11" class="star-bg" style="animation-duration:5.074s;animation-delay:1.893s"/><circle cx="658.4" cy="166.7" r="0.44" fill="#ffb020" opacity="0.29" class="star-bg" style="animation-duration:5.606s;animation-delay:0.783s"/><circle cx="568.0" cy="82.7" r="0.77" fill="#fff" opacity="0.10" class="star-bg" style="animation-duration:6.505s;animation-delay:1.274s"/><circle cx="126.9" cy="126.3" r="0.81" fill="#fff" opacity="0.30" class="star-bg" style="animation-duration:7.212s;animation-delay:6.348s"/><circle cx="375.2" cy="74.3" r="0.89" fill="#a78bfa" opacity="0.19" class="star-bg" style="animation-duration:6.365s;animation-delay:4.192s"/><circle cx="216.5" cy="24.0" r="0.40" fill="#fff" opacity="0.26" class="star-bg" style="animation-duration:8.438s;animation-delay:1.803s"/><circle cx="422.0" cy="30.2" r="0.35" fill="#fff" opacity="0.16" class="star-bg" style="animation-duration:5.947s;animation-delay:4.518s"/><circle cx="405.6" cy="153.7" r="0.86" fill="#a78bfa" opacity="0.15" class="star-bg" style="animation-duration:6.467s;animation-delay:3.728s"/><circle cx="195.6" cy="57.7" r="0.20" fill="#fff" opacity="0.27" class="star-bg" style="animation-duration:8.710s;animation-delay:3.172s"/><circle cx="251.8" cy="127.2" r="0.30" fill="#fff" opacity="0.30" class="star-bg" style="animation-duration:5.351s;animation-delay:1.793s"/><circle cx="123.9" cy="113.4" r="0.45" fill="#fff" opacity="0.24" class="star-bg" style="animation-duration:8.830s;animation-delay:1.188s"/><circle cx="70.2" cy="149.6" r="0.55" fill="#ffb020" opacity="0.17" class="star-bg" style="animation-duration:8.754s;animation-delay:0.314s"/><circle cx="348.9" cy="127.5" r="0.59" fill="#00d4ff" opacity="0.19" class="star-bg" style="animation-duration:7.073s;animation-delay:4.102s"/><circle cx="116.8" cy="95.6" r="0.72" fill="#ffb020" opacity="0.16" class="star-bg" style="animation-duration:6.003s;animation-delay:5.823s"/><circle cx="171.9" cy="73.8" r="0.33" fill="#fff" opacity="0.14" class="star-bg" style="animation-duration:7.011s;animation-delay:5.011s"/><circle cx="724.8" cy="84.0" r="0.58" fill="#ffb020" opacity="0.18" class="star-bg" style="animation-duration:7.533s;animation-delay:6.793s"/><circle cx="579.2" cy="57.4" r="0.63" fill="#00d4ff" opacity="0.27" class="star-bg" style="animation-duration:5.423s;animation-delay:0.286s"/><circle cx="836.0" cy="25.0" r="0.77" fill="#00d4ff" opacity="0.43" class="star-mid" style="animation-duration:5.822s;animation-delay:4.521s"/><circle cx="599.3" cy="140.1" r="1.14" fill="#ffb020" opacity="0.20" class="star-mid" style="animation-duration:6.887s;animation-delay:0.550s"/><circle cx="581.2" cy="87.2" r="0.71" fill="#a78bfa" opacity="0.21" class="star-mid" style="animation-duration:6.837s;animation-delay:0.793s"/><circle cx="54.2" cy="77.6" r="0.84" fill="#fff" opacity="0.37" class="star-mid" style="animation-duration:6.480s;animation-delay:5.209s"/><circle cx="320.5" cy="16.6" r="0.88" fill="#ffb020" opacity="0.32" class="star-mid" style="animation-duration:6.279s;animation-delay:5.168s"/><circle cx="437.6" cy="137.2" r="0.46" fill="#00d4ff" opacity="0.42" class="star-mid" style="animation-duration:6.492s;animation-delay:4.021s"/><circle cx="678.9" cy="127.0" r="1.15" fill="#00d4ff" opacity="0.13" class="star-mid" style="animation-duration:5.566s;animation-delay:1.761s"/><circle cx="133.2" cy="112.5" r="0.78" fill="#a78bfa" opacity="0.21" class="star-mid" style="animation-duration:3.906s;animation-delay:0.988s"/><circle cx="202.0" cy="11.2" r="1.04" fill="#ffb020" opacity="0.44" class="star-mid" style="animation-duration:5.317s;animation-delay:0.486s"/><circle cx="774.2" cy="140.8" r="0.49" fill="#fff" opacity="0.44" class="star-mid" style="animation-duration:4.152s;animation-delay:3.541s"/><circle cx="206.8" cy="25.4" r="0.66" fill="#00d4ff" opacity="0.43" class="star-mid" style="animation-duration:6.976s;animation-delay:1.738s"/><circle cx="679.9" cy="17.2" r="1.19" fill="#00d4ff" opacity="0.26" class="star-mid" style="animation-duration:5.386s;animation-delay:0.013s"/><circle cx="66.7" cy="113.3" r="1.13" fill="#ffb020" opacity="0.33" class="star-mid" style="animation-duration:6.433s;animation-delay:5.370s"/><circle cx="263.0" cy="99.5" r="0.50" fill="#fff" opacity="0.28" class="star-mid" style="animation-duration:3.663s;animation-delay:1.371s"/><circle cx="206.0" cy="162.4" r="0.83" fill="#fff" opacity="0.34" class="star-mid" style="animation-duration:5.609s;animation-delay:3.181s"/><circle cx="835.7" cy="42.5" r="0.76" fill="#fff" opacity="0.39" class="star-mid" style="animation-duration:6.124s;animation-delay:4.969s"/><circle cx="764.9" cy="135.5" r="0.70" fill="#00d4ff" opacity="0.30" class="star-mid" style="animation-duration:5.479s;animation-delay:0.503s"/><circle cx="222.4" cy="92.9" r="1.01" fill="#ffb020" opacity="0.34" class="star-mid" style="animation-duration:3.558s;animation-delay:0.570s"/><circle cx="95.8" cy="102.8" r="0.54" fill="#ffb020" opacity="0.32" class="star-mid" style="animation-duration:4.188s;animation-delay:3.196s"/><circle cx="121.5" cy="22.3" r="0.40" fill="#fff" opacity="0.17" class="star-mid" style="animation-duration:5.643s;animation-delay:0.944s"/><circle cx="98.2" cy="144.1" r="0.47" fill="#fff" opacity="0.36" class="star-mid" style="animation-duration:4.177s;animation-delay:1.988s"/><circle cx="118.8" cy="42.5" r="0.50" fill="#00d4ff" opacity="0.32" class="star-mid" style="animation-duration:6.594s;animation-delay:2.305s"/><circle cx="778.3" cy="113.7" r="0.54" fill="#fff" opacity="0.31" class="star-mid" style="animation-duration:4.009s;animation-delay:2.085s"/><circle cx="333.1" cy="163.2" r="0.82" fill="#a78bfa" opacity="0.44" class="star-mid" style="animation-duration:4.991s;animation-delay:0.423s"/><circle cx="795.4" cy="142.6" r="0.95" fill="#fff" opacity="0.22" class="star-mid" style="animation-duration:6.907s;animation-delay:6.874s"/><circle cx="505.4" cy="137.5" r="1.47" fill="#00d4ff" opacity="0.49" class="star-fg" style="animation-duration:3.162s;animation-delay:1.906s"/><circle cx="303.2" cy="75.7" r="1.00" fill="#fff" opacity="0.28" class="star-fg" style="animation-duration:2.240s;animation-delay:1.840s"/><circle cx="145.0" cy="108.3" r="1.03" fill="#fff" opacity="0.33" class="star-fg" style="animation-duration:2.771s;animation-delay:1.208s"/><circle cx="536.6" cy="141.0" r="1.34" fill="#fff" opacity="0.61" class="star-fg" style="animation-duration:2.261s;animation-delay:1.254s"/><circle cx="701.9" cy="76.9" r="0.98" fill="#ffb020" opacity="0.56" class="star-fg" style="animation-duration:3.426s;animation-delay:2.224s"/><circle cx="43.8" cy="69.4" r="0.73" fill="#fff" opacity="0.38" class="star-fg" style="animation-duration:2.718s;animation-delay:0.750s"/><circle cx="66.9" cy="123.6" r="0.96" fill="#fff" opacity="0.43" class="star-fg" style="animation-duration:4.118s;animation-delay:2.010s"/><circle cx="498.8" cy="169.0" r="0.87" fill="#a78bfa" opacity="0.39" class="star-fg" style="animation-duration:2.301s;animation-delay:1.952s"/><circle cx="266.8" cy="142.5" r="0.99" fill="#fff" opacity="0.62" class="star-fg" style="animation-duration:3.982s;animation-delay:2.830s"/><circle cx="112.9" cy="114.4" r="0.89" fill="#fff" opacity="0.55" class="star-fg" style="animation-duration:2.173s;animation-delay:1.840s"/><line x1="607" y1="36" x2="625" y2="41" stroke="url(#x743a279)" stroke-width="1.1" stroke-linecap="round" class="shooting-star" style="animation-delay:21.75s;--shoot-tx:86px;--shoot-ty:38px;animation-duration:2.15s"/><line x1="465" y1="29" x2="483" y2="34" stroke="url(#x743a279)" stroke-width="1.1" stroke-linecap="round" class="shooting-star" style="animation-delay:7.68s;--shoot-tx:83px;--shoot-ty:43px;animation-duration:2.62s"/><line x1="349" y1="36" x2="367" y2="41" stroke="url(#x743a279)" stroke-width="1.1" stroke-linecap="round" class="shooting-star" style="animation-delay:42.1s;--shoot-tx:99px;--shoot-ty:41px;animation-duration:2.25s"/><line x1="170.0" y1="55" x2="170.0" y2="155" stroke="#1a2332" stroke-width="1" opacity="0.5"/><line x1="340.0" y1="55" x2="340.0" y2="155" stroke="#1a2332" stroke-width="1" opacity="0.5"/><line x1="510.0" y1="55" x2="510.0" y2="155" stroke="#1a2332" stroke-width="1" opacity="0.5"/><line x1="680.0" y1="55" x2="680.0" y2="155" stroke="#1a2332" stroke-width="1" opacity="0.5"/><g class="metric-cell" transform="translate(85.0,95)"><g transform="translate(-8,-30)"><svg viewBox="0 0 16 16" width="16" height="16" fill="#00d4ff" class="metric-icon" style="animation-delay:0.0s"><path d="M8 1a7 7 0 1 0 0 14A7 7 0 0 0 8 1zm0 2.5a4.5 4.5 0 0 1 4.473 4H14.5a.5.5 0 0 1 0 1h-2.027A4.5 4.5 0 0 1 8 12.5a4.5 4.5 0 0 1-4.473-4H1.5a.5.5 0 0 1 0-1h2.027A4.5 4.5 0 0 1 8 3.5zm0 1.5a3 3 0 1 0 0 6 3 3 0 0 0 0-6z"/></svg></g><text x="0" y="2" text-anchor="middle" fill="#00d4ff" font-size="28" font-weight="bold" font-family="sans-serif" opacity="0.35" filter="url(#xdf01081)">583</text><text x="0" y="2" text-anchor="middle" fill="#f1f5f9" font-size="28" font-weight="bold" font-family="sans-serif">583</text><text x="0" y="20" text-anchor="middle" fill="#64748b" font-size="11" font-family="monospace" letter-spacing="1">Commits</text></g><g class="metric-cell" transform="translate(255.0,95)"><g transform="translate(-8,-30)"><svg viewBox="0 0 16 16" width="16" height="16" fill="#ffb020" class="metric-icon" style="animation-delay:0.3s"><path d="M8 .25a.75.75 0 0 1 .673.418l1.882 3.815 4.21.612a.75.75 0 0 1 .416 1.279l-3.046 2.97.719 4.192a.75.75 0 0 1-1.088.791L8 12.347l-3.766 1.98a.75.75 0 0 1-1.088-.79l.72-4.194L.818 6.374a.75.75 0 0 1 .416-1.28l4.21-.611L7.327.668A.75.75 0 0 1 8 .25z"/></svg></g><text x="0" y="2" text-anchor="middle" fill="#ffb020" font-size="28" font-weight="bold" font-family="sans-serif" opacity="0.35" filter="url(#xdf01081)">209</text><text x="0" y="2" text-anchor="middle" fill="#f1f5f9" font-size="28" font-weight="bold" font-family="sans-serif">209</text><text x="0" y="20" text-anchor="middle" fill="#64748b" font-size="11" font-family="monospace" letter-spacing="1">Stars</text></g><g class="metric-cell" transform="translate(425.0,95)"><g transform="translate(-8,-30)"><svg viewBox="0 0 16 16" width="16" height="16" fill="#a78bfa" class="metric-icon" style="animation-delay:0.6s"><path d="M5 3.254V3.25v.005a.75.75 0 1 1 0-.005zm6.5 8a.75.75 0 1 1 0 1.5.75.75 0 0 1 0-1.5zM5 12.75a.75.75 0 1 1 0 1.5.75.75 0 0 1 0-1.5zm-1.5.75a1.5 1.5 0 1 0 1.5 1.5v-8.5a1.5 1.5 0 1 0-1.5-1.5v8.5a1.5 1.5 0 0 0 0 0zm8.5-2.5a1.5 1.5 0 0 0-1.5 1.5 1.5 1.5 0 1 0 3 0v-3.133l.025-.05A3.252 3.252 0 0 0 11 5.25V3.5h1.25a.75.75 0 0 0 .53-1.28l-2-2a.75.75 0 0 0-1.06 0l-2 2A.75.75 0 0 0 8.25 3.5H9.5v1.75a1.75 1.75 0 0 0 1.75 1.75h.244a1.75 1.75 0 0 1 1.006.319V11a1.5 1.5 0 0 0-1.5-1.5z"/></svg></g><text x="0" y="2" text-anchor="middle" fill="#a78bfa" font-size="28" font-weight="bold" font-family="sans-serif" opacity="0.35" filter="url(#xdf01081)">3</text><text x="0" y="2" text-anchor="middle" fill="#f1f5f9" font-size="28" font-weight="bold" font-family="sans-serif">3</text><text x="0" y="20" text-anchor="middle" fill="#64748b" font-size="11" font-family="monospace" letter-spacing="1">PRs</text></g><g class="metric-cell" transform="translate(595.0,95)"><g transform="translate(-8,-30)"><svg viewBox="0 0 16 16" width="16" height="16" fill="#00d4ff" class="metric-icon" style="animation-delay:0.8999999999999999s"><path d="M8 9.5a1.5 1.5 0 1 0 0-3 1.5 1.5 0 0 0 0 3z"/><path d="M8 0a8 8 0 1 1 0 16A8 8 0 0 1 8 0zm0 1.5a6.5 6.5 0 1 0 0 13 6.5 6.5 0 0 0 0-13z"/></svg></g><text x="0" y="2" text-anchor="middle" fill="#00d4ff" font-size="28" font-weight="bold" font-family="sans-serif" opacity="0.35" filter="url(#xdf01081)">5</text><text x="0" y="2" text-anchor="middle" fill="#f1f5f9" font-size="28" font-weight="bold" font-family="sans-serif">5</text><text x="0" y="20" text-anchor="middle" fill="#64748b" font-size="11" font-family="monospace" letter-spacing="1">Issues</text></g><g class="metric-cell" transform="translate(765.0,95)"><g transform="translate(-8,-30)"><svg viewBox="0 0 16 16" width="16" height="16" fill="#a78bfa" class="metric-icon" style="animation-delay:1.2s"><path d="M2 2.5A2.5 2.5 0 0 1 4.5 0h8.75a.75.75 0 0 1 .75.75v12.5a.75.75 0 0 1-.75.75h-2.5a.75.75 0 0 1 0-1.5h1.75v-2h-8a1 1 0 0 0-.714 1.7.75.75 0 0 1-1.072 1.05A2.495 2.495 0 0 1 2 11.5zm10.5-1h-8a1 1 0 0 0-1 1v6.708A2.486 2.486 0 0 1 4.5 9h8zM5 12.25a.25.25 0 0 1 .25-.25h3.5a.25.25 0 0 1 .25.25v3.25a.25.25 0 0 1-.4.2l-1.45-1.087a.25.25 0 0 0-.3 0L5.4 15.7a.25.25 0 0 1-.4-.2z"/></svg></g><text x="0" y="2" text-anchor="middle" fill="#a78bfa" font-size="28" font-weight="bold" font-family="sans-serif" opacity="0.35" filter="url(#xdf01081)">29</text><text x="0" y="2" text-anchor="middle" fill="#f1f5f9" font-size="28" font-weight="bold" font-family="sans-serif">29</text><text x="0" y="20" text-anchor="middle" fill="#64748b" font-size="11" font-family="monospace" letter-spacing="1">Repos</text></g></svg>