<svg xmlns="http://www.w3.org/2000/svg" width="850" height="180" viewBox="0 0 850 180">
<defs>
<style>
.metric-icon{animation:count-glow 4s ease-in-out infinite}@keyframes count-glow{0%,100%{fill-opacity:0.7}50%{fill-opacity:1}}
.star-bg{animation:twinkle-slow 7s ease-in-out infinite}.star-mid{animation:twinkle-mid 5s ease-in-out infinite}.star-fg{animation:twinkle-fast 3s ease-in-out infinite}
@keyframes twinkle-slow{0%,100%{opacity:0.07}50%{opacity:0.30}}@keyframes twinkle-mid{0%,100%{opacity:0.12}50%{opacity:0.45}}@keyframes twinkle-fast{0%,100%{opacity:0.25}50%{opacity:0.65}}
.shooting-star{opacity:0;animation:shoot linear infinite}
@keyframes shoot{0%{opacity:0;transform:translate(0,0)}5%{opacity:0.9}15%{opacity:0.6;transform:translate(var(--shoot-tx),var(--shoot-ty))}20%{opacity:0;transform:translate(var(--shoot-tx),var(--shoot-ty))}100%{opacity:0}}
</style>
<filter id="num-glow" x="-30%" y="-30%" width="160%" height="160%"><feGaussianBlur stdDeviation="3"/></filter>
<radialGradient id="bg-glow" cx="50%" cy="50%" r="80%"><stop offset="0%" stop-color="#0f1623" stop-opacity="0.85"/><stop offset="100%" stop-color="#080c14" stop-opacity="0"/></radialGradient>
<linearGradient id="shoot-grad" x1="0" y1="0" x2="1" y2="0"><stop offset="0%" stop-color="#fff" stop-opacity="0.85"/><stop offset="100%" stop-color="#fff" stop-opacity="0"/></linearGradient>
</defs>
<rect x="0" y="0" width="850" height="180" rx="14" ry="14" fill="#080c14"/>
<rect x="0" y="0" width="850" height="180" rx="14" ry="14" fill="url(#bg-glow)"/>
<circle cx="18.0" cy="44.3" r="0.18" fill="#00d4ff" opacity="0.29" class="star-bg" style="animation-duration:5.611s;animation-delay:3.022s"/>
<circle cx="505.3" cy="20.6" r="0.32" fill="#fff" opacity="0.21" class="star-bg" style="animation-duration:5.385s;animation-delay:3.278s"/>
<circle cx="481.6" cy="114.5" r="0.71" fill="#fff" opacity="0.29" class="star-bg" style="animation-duration:7.281s;animation-delay:6.431s"/>
<circle cx="14.7" cy="23.7" r="0.54" fill="#ffb020" opacity="0.10" class="star-bg" style="animation-duration:5.389s;animation-delay:2.061s"/>
<circle cx="351.3" cy="54.0" r="0.25" fill="#ffb020" opacity="0.11" class="star-bg" style="animation-duration:8.962s;animation-delay:3.405s"/>
<circle cx="763.9" cy="40.7" r="0.32" fill="#ffb020" opacity="0.10" class="star-bg" style="animation-duration:5.638s;animation-delay:1.407s"/>
<circle cx="235.2" cy="138.7" r="0.52" fill="#fff" opacity="0.14" class="star-bg" style="animation-duration:5.851s;animation-delay:2.424s"/>
<circle cx="807.3" cy="76.3" r="0.85" fill="#00d4ff" opacity="0.20" class="star-bg" style="animation-duration:7.787s;animation-delay:7.714s"/>
<circle cx="179.1" cy="39.3" r="0.87" fill="#fff" opacity="0.12" class="star-bg" style="animation-duration:8.559s;animation-delay:2.086s"/>
<circle cx="92.2" cy="161.8" r="0.44" fill="#a78bfa" opacity="0.25" class="star-bg" style="animation-duration:7.000s;animation-delay:3.979s"/>
<circle cx="739.4" cy="81.2" r="0.27" fill="#fff" opacity="0.28" class="star-bg" style="animation-duration:7.104s;animation-delay:1.770s"/>
<circle cx="574.5" cy="93.7" r="0.75" fill="#00d4ff" opacity="0.22" class="star-bg" style="animation-duration:5.596s;animation-delay:1.321s"/>
<circle cx="657.5" cy="114.4" r="0.78" fill="#ffb020" opacity="0.14" class="star-bg" style="animation-duration:7.484s;animation-delay:2.420s"/>
<circle cx="620.2" cy="86.5" r="0.62" fill="#fff" opacity="0.29" class="star-bg" style="animation-duration:8.443s;animation-delay:0.629s"/>
<circle cx="505.7" cy="10.9" r="0.61" fill="#fff" opacity="0.20" class="star-bg" style="animation-duration:7.845s;animation-delay:0.391s"/>
<circle cx="123.0" cy="101.5" r="0.46" fill="#a78bfa" opacity="0.25" class="star-bg" style="animation-duration:5.725s;animation-delay:5.147s"/>
<circle cx="434.6" cy="12.2" r="0.42" fill="#fff" opacity="0.17" class="star-bg" style="animation-duration:6.927s;animation-delay:0.368s"/>
<circle cx="563.3" cy="126.0" r="0.31" fill="#00d4ff" opacity="0.24" class="star-bg" style="animation-duration:5.398s;animation-delay:0.046s"/>
<circle cx="519.0" cy="145.3" r="0.43" fill="#ffb020" opacity="0.26" class="star-bg" style="animation-duration:5.927s;animation-delay:0.854s"/>
<circle cx="347.1" cy="80.8" r="0.39" fill="#fff" opacity="0.25" class="star-bg" style="animation-duration:5.322s;animation-delay:0.444s"/>
<circle cx="534.0" cy="73.6" r="0.78" fill="#fff" opacity="0.20" class="star-bg" style="animation-duration:5.197s;animation-delay:2.626s"/>
<circle cx="536.2" cy="149.2" r="0.63" fill="#fff" opacity="0.24" class="star-bg" style="animation-duration:5.837s;animation-delay:3.084s"/>
<circle cx="476.4" cy="88.5" r="0.22" fill="#ffb020" opacity="0.25" class="star-bg" style="animation-duration:7.080s;animation-delay:2.431s"/>
<circle cx="455.5" cy="162.5" r="0.28" fill="#00d4ff" opacity="0.28" class="star-bg" style="animation-duration:7.499s;animation-delay:2.254s"/>
<circle cx="503.2" cy="97.6" r="0.20" fill="#00d4ff" opacity="0.17" class="star-bg" style="animation-duration:7.284s;animation-delay:1.755s"/>
<circle cx="80.3" cy="104.0" r="0.80" fill="#00d4ff" opacity="0.12" class="star-bg" style="animation-duration:5.350s;animation-delay:4.649s"/>
<circle cx="369.1" cy="111.6" r="0.56" fill="#ffb020" opacity="0.29" class="star-bg" style="animation-duration:8.543s;animation-delay:3.928s"/>
<circle cx="450.6" cy="84.4" r="0.62" fill="#fff" opacity="0.16" class="star-bg" style="animation-duration:6.185s;animation-delay:5.205s"/>
<circle cx="742.5" cy="87.5" r="0.63" fill="#fff" opacity="0.23" class="star-bg" style="animation-duration:5.336s;animation-delay:2.619s"/>
<circle cx="36.3" cy="136.4" r="0.51" fill="#ffb020" opacity="0.25" class="star-bg" style="animation-duration:8.214s;animation-delay:4.384s"/>
<circle cx="259.7" cy="96.3" r="0.86" fill="#00d4ff" opacity="0.29" class="star-bg" style="animation-duration:6.175s;animation-delay:3.666s"/>
<circle cx="34.7" cy="129.6" r="0.82" fill="#ffb020" opacity="0.19" class="star-bg" style="animation-duration:7.567s;animation-delay:0.229s"/>
<circle cx="118.9" cy="29.8" r="0.43" fill="#a78bfa" opacity="0.07" class="star-bg" style="animation-duration:8.552s;animation-delay:7.418s"/>
<circle cx="302.4" cy="43.1" r="0.19" fill="#ffb020" opacity="0.17" class="star-bg" style="animation-duration:6.540s;animation-delay:5.473s"/>
<circle cx="587.1" cy="50.0" r="0.44" fill="#ffb020" opacity="0.29" class="star-bg" style="animation-duration:7.165s;animation-delay:6.408s"/>
<circle cx="159.9" cy="19.8" r="0.67" fill="#a78bfa" opacity="0.27" class="star-bg" style="animation-duration:5.554s;animation-delay:3.455s"/>
<circle cx="640.7" cy="138.7" r="0.44" fill="#fff" opacity="0.16" class="star-bg" style="animation-duration:6.384s;animation-delay:1.596s"/>
<circle cx="354.0" cy="154.3" r="0.48" fill="#a78bfa" opacity="0.10" class="star-bg" style="animation-duration:8.116s;animation-delay:6.116s"/>
<circle cx="224.7" cy="113.4" r="0.28" fill="#fff" opacity="0.19" class="star-bg" style="animation-duration:6.284s;animation-delay:4.839s"/>
<circle cx="647.7" cy="96.0" r="0.69" fill="#a78bfa" opacity="0.18" class="star-bg" style="animation-duration:7.810s;animation-delay:2.166s"/>
<circle cx="522.0" cy="133.2" r="1.17" fill="#fff" opacity="0.22" class="star-mid" style="animation-duration:4.712s;animation-delay:3.423s"/>
<circle cx="811.7" cy="50.4" r="0.47" fill="#00d4ff" opacity="0.22" class="star-mid" style="animation-duration:6.817s;animation-delay:1.612s"/>
<circle cx="640.0" cy="67.2" r="0.51" fill="#fff" opacity="0.20" class="star-mid" style="animation-duration:6.106s;animation-delay:2.185s"/>
<circle cx="612.6" cy="73.3" r="0.65" fill="#fff" opacity="0.15" class="star-mid" style="animation-duration:5.531s;animation-delay:5.189s"/>
<circle cx="479.7" cy="169.3" r="0.60" fill="#00d4ff" opacity="0.30" class="star-mid" style="animation-duration:6.397s;animation-delay:0.585s"/>
<circle cx="759.7" cy="117.9" r="0.76" fill="#fff" opacity="0.33" class="star-mid" style="animation-duration:4.466s;animation-delay:1.343s"/>
<circle cx="584.4" cy="82.1" r="1.08" fill="#ffb020" opacity="0.31" class="star-mid" style="animation-duration:3.500s;animation-delay:1.524s"/>
<circle cx="813.8" cy="29.5" r="0.90" fill="#fff" opacity="0.37" class="star-mid" style="animation-duration:4.074s;animation-delay:0.595s"/>
<circle cx="617.8" cy="49.3" r="0.89" fill="#00d4ff" opacity="0.25" class="star-mid" style="animation-duration:4.045s;animation-delay:0.497s"/>
<circle cx="248.4" cy="72.5" r="1.17" fill="#fff" opacity="0.27" class="star-mid" style="animation-duration:6.805s;animation-delay:0.839s"/>
<circle cx="87.2" cy="67.4" r="0.71" fill="#a78bfa" opacity="0.22" class="star-mid" style="animation-duration:5.098s;animation-delay:2.632s"/>
<circle cx="414.7" cy="148.0" r="0.99" fill="#fff" opacity="0.12" class="star-mid" style="animation-duration:5.621s;animation-delay:4.739s"/>
<circle cx="825.0" cy="50.9" r="1.16" fill="#fff" opacity="0.39" class="star-mid" style="animation-duration:6.562s;animation-delay:2.048s"/>
<circle cx="64.3" cy="159.2" r="0.89" fill="#fff" opacity="0.21" class="star-mid" style="animation-duration:5.659s;animation-delay:4.200s"/>
<circle cx="128.6" cy="96.5" r="0.80" fill="#00d4ff" opacity="0.31" class="star-mid" style="animation-duration:6.009s;animation-delay:5.498s"/>
<circle cx="357.5" cy="23.1" r="0.64" fill="#fff" opacity="0.29" class="star-mid" style="animation-duration:4.411s;animation-delay:0.742s"/>
<circle cx="661.9" cy="67.0" r="0.42" fill="#a78bfa" opacity="0.41" class="star-mid" style="animation-duration:6.397s;animation-delay:2.285s"/>
<circle cx="805.9" cy="86.8" r="1.18" fill="#a78bfa" opacity="0.39" class="star-mid" style="animation-duration:5.186s;animation-delay:0.064s"/>
<circle cx="401.5" cy="38.2" r="0.76" fill="#ffb020" opacity="0.25" class="star-mid" style="animation-duration:6.180s;animation-delay:0.739s"/>
<circle cx="115.7" cy="135.1" r="0.73" fill="#fff" opacity="0.16" class="star-mid" style="animation-duration:6.451s;animation-delay:4.800s"/>
<circle cx="479.0" cy="39.8" r="0.54" fill="#fff" opacity="0.38" class="star-mid" style="animation-duration:5.950s;animation-delay:4.625s"/>
<circle cx="18.5" cy="33.3" r="0.67" fill="#00d4ff" opacity="0.17" class="star-mid" style="animation-duration:5.408s;animation-delay:4.751s"/>
<circle cx="48.0" cy="91.6" r="0.45" fill="#fff" opacity="0.17" class="star-mid" style="animation-duration:5.331s;animation-delay:2.924s"/>
<circle cx="821.5" cy="86.3" r="1.13" fill="#fff" opacity="0.23" class="star-mid" style="animation-duration:6.897s;animation-delay:1.880s"/>
<circle cx="409.1" cy="123.7" r="1.03" fill="#ffb020" opacity="0.18" class="star-mid" style="animation-duration:6.589s;animation-delay:5.717s"/>
<circle cx="594.3" cy="20.9" r="0.98" fill="#fff" opacity="0.43" class="star-fg" style="animation-duration:3.691s;animation-delay:3.526s"/>
<circle cx="183.9" cy="168.6" r="1.42" fill="#ffb020" opacity="0.62" class="star-fg" style="animation-duration:3.368s;animation-delay:0.907s"/>
<circle cx="418.5" cy="87.9" r="1.46" fill="#fff" opacity="0.54" class="star-fg" style="animation-duration:2.020s;animation-delay:1.092s"/>
<circle cx="810.8" cy="138.3" r="1.23" fill="#00d4ff" opacity="0.33" class="star-fg" style="animation-duration:3.075s;animation-delay:1.616s"/>
<circle cx="167.9" cy="24.1" r="1.26" fill="#fff" opacity="0.50" class="star-fg" style="animation-duration:2.905s;animation-delay:1.224s"/>
<circle cx="783.1" cy="43.2" r="0.82" fill="#a78bfa" opacity="0.63" class="star-fg" style="animation-duration:4.203s;animation-delay:2.748s"/>
<circle cx="394.7" cy="47.2" r="0.82" fill="#fff" opacity="0.29" class="star-fg" style="animation-duration:2.871s;animation-delay:0.722s"/>
<circle cx="411.0" cy="115.2" r="1.07" fill="#fff" opacity="0.30" class="star-fg" style="animation-duration:2.610s;animation-delay:1.538s"/>
<circle cx="98.7" cy="132.1" r="0.78" fill="#00d4ff" opacity="0.62" class="star-fg" style="animation-duration:3.779s;animation-delay:3.252s"/>
<circle cx="675.4" cy="127.7" r="0.95" fill="#fff" opacity="0.65" class="star-fg" style="animation-duration:3.919s;animation-delay:0.824s"/>
<line x1="368" y1="32" x2="386" y2="37" stroke="url(#shoot-grad)" stroke-width="1.1" stroke-linecap="round" class="shooting-star" style="animation-delay:4.87s;--shoot-tx:104px;--shoot-ty:55px;animation-duration:4.94s"/>
<line x1="558" y1="15" x2="576" y2="20" stroke="url(#shoot-grad)" stroke-width="1.1" stroke-linecap="round" class="shooting-star" style="animation-delay:2.68s;--shoot-tx:92px;--shoot-ty:38px;animation-duration:4.9s"/>
<line x1="98" y1="59" x2="116" y2="64" stroke="url(#shoot-grad)" stroke-width="1.1" stroke-linecap="round" class="shooting-star" style="animation-delay:31.11s;--shoot-tx:94px;--shoot-ty:54px;animation-duration:5.54s"/>
<line x1="170.0" y1="55" x2="170.0" y2="155" stroke="#1a2332" stroke-width="1" opacity="0.5"/>
<line x1="340.0" y1="55" x2="340.0" y2="155" stroke="#1a2332" stroke-width="1" opacity="0.5"/>
<line x1="510.0" y1="55" x2="510.0" y2="155" stroke="#1a2332" stroke-width="1" opacity="0.5"/>
<line x1="680.0" y1="55" x2="680.0" y2="155" stroke="#1a2332" stroke-width="1" opacity="0.5"/>
<g class="metric-cell" transform="translate(85.0,95)"><g transform="translate(-8,-30)"><svg viewBox="0 0 16 16" width="16" height="16" fill="#00d4ff" class="metric-icon" style="animation-delay:0.0s"><path d="M8 1a7 7 0 1 0 0 14A7 7 0 0 0 8 1zm0 2.5a4.5 4.5 0 0 1 4.473 4H14.5a.5.5 0 0 1 0 1h-2.027A4.5 4.5 0 0 1 8 12.5a4.5 4.5 0 0 1-4.473-4H1.5a.5.5 0 0 1 0-1h2.027A4.5 4.5 0 0 1 8 3.5zm0 1.5a3 3 0 1 0 0 6 3 3 0 0 0 0-6z"/></svg></g><text x="0" y="2" text-anchor="middle" fill="#00d4ff" font-size="28" font-weight="bold" font-family="sans-serif" opacity="0.35" filter="url(#num-glow)">604</text><text x="0" y="2" text-anchor="middle" fill="#f1f5f9" font-size="28" font-weight="bold" font-family="sans-serif">604</text><text x="0" y="20" text-anchor="middle" fill="#64748b" font-size="11" font-family="monospace" letter-spacing="1">Commits</text></g>
<g class="metric-cell" transform="translate(255.0,95)"><g transform="translate(-8,-30)"><svg viewBox="0 0 16 16" width="16" height="16" fill="#ffb020" class="metric-icon" style="animation-delay:0.3s"><path d="M8 .25a.75.75 0 0 1 .673.418l1.882 3.815 4.21.612a.75.75 0 0 1 .416 1.279l-3.046 2.97.719 4.192a.75.75 0 0 1-1.088.791L8 12.347l-3.766 1.98a.75.75 0 0 1-1.088-.79l.72-4.194L.818 6.374a.75.75 0 0 1 .416-1.28l4.21-.611L7.327.668A.75.75 0 0 1 8 .25z"/></svg></g><text x="0" y="2" text-anchor="middle" fill="#ffb020" font-size="28" font-weight="bold" font-family="sans-serif" opacity="0.35" filter="url(#num-glow)">194</text><text x="0" y="2" text-anchor="middle" fill="#f1f5f9" font-size="28" font-weight="bold" font-family="sans-serif">194</text><text x="0" y="20" text-anchor="middle" fill="#64748b" font-size="11" font-family="monospace" letter-spacing="1">Stars</text></g>
<g class="metric-cell" transform="translate(425.0,95)"><g transform="translate(-8,-30)"><svg viewBox="0 0 16 16" width="16" height="16" fill="#a78bfa" class="metric-icon" style="animation-delay:0.6s"><path d="M5 3.254V3.25v.005a.75.75 0 1 1 0-.005zm6.5 8a.75.75 0 1 1 0 1.5.75.75 0 0 1 0-1.5zM5 12.75a.75.75 0 1 1 0 1.5.75.75 0 0 1 0-1.5zm-1.5.75a1.5 1.5 0 1 0 1.5 1.5v-8.5a1.5 1.5 0 1 0-1.5-1.5v8.5a1.5 1.5 0 0 0 0 0zm8.5-2.5a1.5 1.5 0 0 0-1.5 1.5 1.5 1.5 0 1 0 3 0v-3.133l.025-.05A3.252 3.252 0 0 0 11 5.25V3.5h1.25a.75.75 0 0 0 .53-1.28l-2-2a.75.75 0 0 0-1.06 0l-2 2A.75.75 0 0 0 8.25 3.5H9.5v1.75a1.75 1.75 0 0 0 1.75 1.75h.244a1.75 1.75 0 0 1 1.006.319V11a1.5 1.5 0 0 0-1.5-1.5z"/></svg></g><text x="0" y="2" text-anchor="middle" fill="#a78bfa" font-size="28" font-weight="bold" font-family="sans-serif" opacity="0.35" filter="url(#num-glow)">1</text><text x="0" y="2" text-anchor="middle" fill="#f1f5f9" font-size="28" font-weight="bold" font-family="sans-serif">1</text><text x="0" y="20" text-anchor="middle" fill="#64748b" font-size="11" font-family="monospace" letter-spacing="1">PRs</text></g>
<g class="metric-cell" transform="translate(595.0,95)"><g transform="translate(-8,-30)"><svg viewBox="0 0 16 16" width="16" height="16" fill="#00d4ff" class="metric-icon" style="animation-delay:0.8999999999999999s"><path d="M8 9.5a1.5 1.5 0 1 0 0-3 1.5 1.5 0 0 0 0 3z"/><path d="M8 0a8 8 0 1 1 0 16A8 8 0 0 1 8 0zm0 1.5a6.5 6.5 0 1 0 0 13 6.5 6.5 0 0 0 0-13z"/></svg></g><text x="0" y="2" text-anchor="middle" fill="#00d4ff" font-size="28" font-weight="bold" font-family="sans-serif" opacity="0.35" filter="url(#num-glow)">4</text><text x="0" y="2" text-anchor="middle" fill="#f1f5f9" font-size="28" font-weight="bold" font-family="sans-serif">4</text><text x="0" y="20" text-anchor="middle" fill="#64748b" font-size="11" font-family="monospace" letter-spacing="1">Issues</text></g>
<g class="metric-cell" transform="translate(765.0,95)"><g transform="translate(-8,-30)"><svg viewBox="0 0 16 16" width="16" height="16" fill="#a78bfa" class="metric-icon" style="animation-delay:1.2s"><path d="M2 2.5A2.5 2.5 0 0 1 4.5 0h8.75a.75.75 0 0 1 .75.75v12.5a.75.75 0 0 1-.75.75h-2.5a.75.75 0 0 1 0-1.5h1.75v-2h-8a1 1 0 0 0-.714 1.7.75.75 0 0 1-1.072 1.05A2.495 2.495 0 0 1 2 11.5zm10.5-1h-8a1 1 0 0 0-1 1v6.708A2.486 2.486 0 0 1 4.5 9h8zM5 12.25a.25.25 0 0 1 .25-.25h3.5a.25.25 0 0 1 .25.25v3.25a.25.25 0 0 1-.4.2l-1.45-1.087a.25.25 0 0 0-.3 0L5.4 15.7a.25.25 0 0 1-.4-.2z"/></svg></g><text x="0" y="2" text-anchor="middle" fill="#a78bfa" font-size="28" font-weight="bold" font-family="sans-serif" opacity="0.35" filter="url(#num-glow)">24</text><text x="0" y="2" text-anchor="middle" fill="#f1f5f9" font-size="28" font-weight="bold" font-family="sans-serif">24</text><text x="0" y="20" text-anchor="middle" fill="#64748b" font-size="11" font-family="monospace" letter-spacing="1">Repos</text></g>
</svg>