<svg xmlns="http://www.w3.org/2000/svg" width="850" height="180" viewBox="0 0 850 180"><defs><style>.metric-icon{animation:count-glow 4s ease-in-out infinite}@keyframes count-glow{0%,100%{fill-opacity:0.7}50%{fill-opacity:1}}.star-bg{animation:twinkle-slow 7s ease-in-out infinite}.star-mid{animation:twinkle-mid 5s ease-in-out infinite}.star-fg{animation:twinkle-fast 3s ease-in-out infinite}@keyframes twinkle-slow{0%,100%{opacity:0.07}50%{opacity:0.30}}@keyframes twinkle-mid{0%,100%{opacity:0.12}50%{opacity:0.45}}@keyframes twinkle-fast{0%,100%{opacity:0.25}50%{opacity:0.65}}.shooting-star{opacity:0;animation:shoot linear infinite}@keyframes shoot{0%{opacity:0;transform:translate(0,0)}5%{opacity:0.9}15%{opacity:0.6;transform:translate(var(--shoot-tx),var(--shoot-ty))}20%{opacity:0;transform:translate(var(--shoot-tx),var(--shoot-ty))}100%{opacity:0}}</style><filter id="xdf01081" x="-30%" y="-30%" width="160%" height="160%"><feGaussianBlur stdDeviation="3"/></filter><radialGradient id="xe7d3b8d" cx="50%" cy="50%" r="80%"><stop offset="0%" stop-color="#0f1623" stop-opacity="0.85"/><stop offset="100%" stop-color="#080c14" stop-opacity="0"/></radialGradient><linearGradient id="x743a279" x1="0" y1="0" x2="1" y2="0"><stop offset="0%" stop-color="#fff" stop-opacity="0.85"/><stop offset="100%" stop-color="#fff" stop-opacity="0"/></linearGradient></defs><rect x="0" y="0" width="850" height="180" rx="14" ry="14" fill="#080c14"/><rect x="0" y="0" width="850" height="180" rx="14" ry="14" fill="url(#xe7d3b8d)"/><circle cx="598.5" cy="70.8" r="0.31" fill="#ffb020" opacity="0.08" class="star-bg" style="animation-duration:6.188s;animation-delay:5.596s"/><circle cx="210.8" cy="19.1" r="0.33" fill="#fff" opacity="0.20" class="star-bg" style="animation-duration:8.830s;animation-delay:2.754s"/><circle cx="462.3" cy="154.4" r="0.28" fill="#fff" opacity="0.19" class="star-bg" style="animation-duration:6.809s;animation-delay:2.781s"/><circle cx="147.1" cy="153.6" r="0.84" fill="#00d4ff" opacity="0.22" class="star-bg" style="animation-duration:8.677s;animation-delay:1.595s"/><circle cx="303.5" cy="164.0" r="0.63" fill="#fff" opacity="0.27" class="star-bg" style="animation-duration:8.103s;animation-delay:7.606s"/><circle cx="677.0" cy="94.1" r="0.83" fill="#a78bfa" opacity="0.20" class="star-bg" style="animation-duration:6.550s;animation-delay:1.028s"/><circle cx="550.2" cy="136.1" r="0.43" fill="#fff" opacity="0.26" class="star-bg" style="animation-duration:7.244s;animation-delay:3.547s"/><circle cx="359.6" cy="28.1" r="0.66" fill="#ffb020" opacity="0.26" class="star-bg" style="animation-duration:8.823s;animation-delay:0.287s"/><circle cx="24.8" cy="57.5" r="0.70" fill="#00d4ff" opacity="0.21" class="star-bg" style="animation-duration:8.476s;animation-delay:0.049s"/><circle cx="12.4" cy="59.9" r="0.76" fill="#a78bfa" opacity="0.10" class="star-bg" style="animation-duration:5.800s;animation-delay:4.701s"/><circle cx="509.9" cy="56.7" r="0.30" fill="#a78bfa" opacity="0.17" class="star-bg" style="animation-duration:8.508s;animation-delay:4.778s"/><circle cx="838.8" cy="58.4" r="0.34" fill="#a78bfa" opacity="0.12" class="star-bg" style="animation-duration:7.039s;animation-delay:1.920s"/><circle cx="405.5" cy="57.2" r="0.74" fill="#fff" opacity="0.13" class="star-bg" style="animation-duration:6.536s;animation-delay:4.999s"/><circle cx="809.2" cy="155.5" r="0.60" fill="#a78bfa" opacity="0.14" class="star-bg" style="animation-duration:6.450s;animation-delay:4.463s"/><circle cx="370.5" cy="22.1" r="0.41" fill="#fff" opacity="0.26" class="star-bg" style="animation-duration:5.714s;animation-delay:0.963s"/><circle cx="254.3" cy="59.8" r="0.50" fill="#00d4ff" opacity="0.21" class="star-bg" style="animation-duration:5.416s;animation-delay:1.556s"/><circle cx="204.7" cy="134.1" r="0.20" fill="#fff" opacity="0.23" class="star-bg" style="animation-duration:5.851s;animation-delay:0.872s"/><circle cx="290.5" cy="147.6" r="0.56" fill="#00d4ff" opacity="0.18" class="star-bg" style="animation-duration:7.867s;animation-delay:0.911s"/><circle cx="333.4" cy="143.9" r="0.66" fill="#a78bfa" opacity="0.10" class="star-bg" style="animation-duration:8.070s;animation-delay:5.974s"/><circle cx="384.8" cy="121.1" r="0.81" fill="#fff" opacity="0.22" class="star-bg" style="animation-duration:6.449s;animation-delay:1.495s"/><circle cx="696.5" cy="15.6" r="0.21" fill="#fff" opacity="0.21" class="star-bg" style="animation-duration:6.076s;animation-delay:2.509s"/><circle cx="751.7" cy="160.3" r="0.55" fill="#00d4ff" opacity="0.20" class="star-bg" style="animation-duration:7.318s;animation-delay:7.030s"/><circle cx="206.8" cy="16.3" r="0.80" fill="#a78bfa" opacity="0.25" class="star-bg" style="animation-duration:7.784s;animation-delay:0.570s"/><circle cx="114.7" cy="143.2" r="0.30" fill="#ffb020" opacity="0.26" class="star-bg" style="animation-duration:6.638s;animation-delay:2.826s"/><circle cx="170.0" cy="36.0" r="0.89" fill="#fff" opacity="0.12" class="star-bg" style="animation-duration:6.381s;animation-delay:3.682s"/><circle cx="275.9" cy="31.7" r="0.62" fill="#00d4ff" opacity="0.07" class="star-bg" style="animation-duration:6.032s;animation-delay:3.958s"/><circle cx="247.4" cy="85.4" r="0.21" fill="#fff" opacity="0.17" class="star-bg" style="animation-duration:7.039s;animation-delay:3.039s"/><circle cx="205.0" cy="26.5" r="0.44" fill="#fff" opacity="0.10" class="star-bg" style="animation-duration:7.334s;animation-delay:5.400s"/><circle cx="279.7" cy="128.7" r="0.80" fill="#fff" opacity="0.23" class="star-bg" style="animation-duration:6.096s;animation-delay:3.997s"/><circle cx="341.1" cy="124.1" r="0.86" fill="#ffb020" opacity="0.19" class="star-bg" style="animation-duration:7.466s;animation-delay:3.998s"/><circle cx="767.0" cy="44.4" r="0.41" fill="#ffb020" opacity="0.21" class="star-bg" style="animation-duration:8.534s;animation-delay:2.638s"/><circle cx="128.7" cy="110.5" r="0.66" fill="#a78bfa" opacity="0.18" class="star-bg" style="animation-duration:6.964s;animation-delay:2.197s"/><circle cx="775.4" cy="143.7" r="0.65" fill="#fff" opacity="0.13" class="star-bg" style="animation-duration:8.602s;animation-delay:3.164s"/><circle cx="823.2" cy="96.4" r="0.49" fill="#fff" opacity="0.16" class="star-bg" style="animation-duration:6.745s;animation-delay:2.600s"/><circle cx="88.8" cy="104.1" r="0.89" fill="#00d4ff" opacity="0.28" class="star-bg" style="animation-duration:6.694s;animation-delay:3.030s"/><circle cx="571.9" cy="44.7" r="0.48" fill="#ffb020" opacity="0.13" class="star-bg" style="animation-duration:8.515s;animation-delay:5.603s"/><circle cx="585.6" cy="53.7" r="0.77" fill="#ffb020" opacity="0.18" class="star-bg" style="animation-duration:7.978s;animation-delay:0.215s"/><circle cx="513.6" cy="114.8" r="0.54" fill="#00d4ff" opacity="0.28" class="star-bg" style="animation-duration:6.713s;animation-delay:4.635s"/><circle cx="424.3" cy="71.2" r="0.88" fill="#fff" opacity="0.22" class="star-bg" style="animation-duration:7.270s;animation-delay:4.351s"/><circle cx="545.7" cy="70.7" r="0.84" fill="#fff" opacity="0.16" class="star-bg" style="animation-duration:8.723s;animation-delay:6.560s"/><circle cx="295.8" cy="53.6" r="0.59" fill="#ffb020" opacity="0.15" class="star-mid" style="animation-duration:4.833s;animation-delay:2.539s"/><circle cx="822.3" cy="131.9" r="0.94" fill="#fff" opacity="0.23" class="star-mid" style="animation-duration:5.961s;animation-delay:0.360s"/><circle cx="740.8" cy="29.0" r="0.57" fill="#fff" opacity="0.36" class="star-mid" style="animation-duration:4.381s;animation-delay:1.858s"/><circle cx="659.6" cy="111.7" r="0.94" fill="#a78bfa" opacity="0.12" class="star-mid" style="animation-duration:4.685s;animation-delay:0.487s"/><circle cx="537.0" cy="153.4" r="0.97" fill="#fff" opacity="0.14" class="star-mid" style="animation-duration:3.879s;animation-delay:0.642s"/><circle cx="808.3" cy="104.4" r="0.56" fill="#fff" opacity="0.44" class="star-mid" style="animation-duration:4.220s;animation-delay:1.853s"/><circle cx="122.0" cy="25.9" r="0.48" fill="#a78bfa" opacity="0.41" class="star-mid" style="animation-duration:4.713s;animation-delay:2.125s"/><circle cx="388.9" cy="30.7" r="0.58" fill="#00d4ff" opacity="0.37" class="star-mid" style="animation-duration:5.173s;animation-delay:0.175s"/><circle cx="569.3" cy="58.7" r="0.41" fill="#fff" opacity="0.12" class="star-mid" style="animation-duration:6.153s;animation-delay:2.878s"/><circle cx="827.1" cy="112.4" r="0.79" fill="#fff" opacity="0.22" class="star-mid" style="animation-duration:4.484s;animation-delay:1.670s"/><circle cx="596.1" cy="122.6" r="0.57" fill="#fff" opacity="0.24" class="star-mid" style="animation-duration:5.060s;animation-delay:2.775s"/><circle cx="605.3" cy="157.4" r="1.08" fill="#ffb020" opacity="0.36" class="star-mid" style="animation-duration:4.598s;animation-delay:0.155s"/><circle cx="815.4" cy="27.4" r="1.07" fill="#fff" opacity="0.17" class="star-mid" style="animation-duration:6.522s;animation-delay:4.317s"/><circle cx="636.5" cy="86.0" r="0.98" fill="#ffb020" opacity="0.33" class="star-mid" style="animation-duration:6.494s;animation-delay:5.201s"/><circle cx="275.6" cy="138.9" r="0.45" fill="#00d4ff" opacity="0.18" class="star-mid" style="animation-duration:6.907s;animation-delay:1.792s"/><circle cx="778.9" cy="55.7" r="0.66" fill="#fff" opacity="0.32" class="star-mid" style="animation-duration:6.395s;animation-delay:3.108s"/><circle cx="87.6" cy="117.7" r="0.49" fill="#00d4ff" opacity="0.30" class="star-mid" style="animation-duration:4.837s;animation-delay:0.058s"/><circle cx="126.5" cy="80.1" r="1.06" fill="#ffb020" opacity="0.43" class="star-mid" style="animation-duration:3.726s;animation-delay:3.630s"/><circle cx="486.1" cy="82.1" r="0.60" fill="#ffb020" opacity="0.35" class="star-mid" style="animation-duration:4.549s;animation-delay:2.614s"/><circle cx="619.3" cy="14.6" r="0.95" fill="#fff" opacity="0.13" class="star-mid" style="animation-duration:5.266s;animation-delay:1.326s"/><circle cx="774.0" cy="81.0" r="0.78" fill="#fff" opacity="0.12" class="star-mid" style="animation-duration:5.201s;animation-delay:0.806s"/><circle cx="212.4" cy="152.7" r="1.13" fill="#a78bfa" opacity="0.26" class="star-mid" style="animation-duration:5.693s;animation-delay:3.124s"/><circle cx="544.2" cy="155.9" r="0.45" fill="#fff" opacity="0.20" class="star-mid" style="animation-duration:3.836s;animation-delay:1.298s"/><circle cx="475.5" cy="42.5" r="0.68" fill="#fff" opacity="0.14" class="star-mid" style="animation-duration:6.261s;animation-delay:2.856s"/><circle cx="611.5" cy="100.4" r="0.45" fill="#ffb020" opacity="0.32" class="star-mid" style="animation-duration:5.184s;animation-delay:4.248s"/><circle cx="357.5" cy="26.8" r="0.71" fill="#fff" opacity="0.60" class="star-fg" style="animation-duration:3.759s;animation-delay:3.293s"/><circle cx="564.2" cy="164.0" r="0.98" fill="#fff" opacity="0.58" class="star-fg" style="animation-duration:3.506s;animation-delay:1.251s"/><circle cx="37.1" cy="35.2" r="1.46" fill="#ffb020" opacity="0.31" class="star-fg" style="animation-duration:3.487s;animation-delay:0.360s"/><circle cx="507.7" cy="59.7" r="1.07" fill="#00d4ff" opacity="0.59" class="star-fg" style="animation-duration:4.396s;animation-delay:2.518s"/><circle cx="139.6" cy="134.1" r="0.99" fill="#fff" opacity="0.39" class="star-fg" style="animation-duration:2.520s;animation-delay:1.790s"/><circle cx="249.9" cy="26.4" r="1.43" fill="#ffb020" opacity="0.54" class="star-fg" style="animation-duration:2.025s;animation-delay:1.355s"/><circle cx="233.5" cy="74.5" r="1.16" fill="#fff" opacity="0.43" class="star-fg" style="animation-duration:2.520s;animation-delay:0.699s"/><circle cx="223.3" cy="10.6" r="1.49" fill="#fff" opacity="0.52" class="star-fg" style="animation-duration:2.546s;animation-delay:0.646s"/><circle cx="127.5" cy="115.5" r="1.46" fill="#fff" opacity="0.60" class="star-fg" style="animation-duration:3.176s;animation-delay:3.062s"/><circle cx="729.3" cy="153.6" r="1.13" fill="#fff" opacity="0.41" class="star-fg" style="animation-duration:3.394s;animation-delay:1.616s"/><line x1="261" y1="68" x2="279" y2="73" stroke="url(#x743a279)" stroke-width="1.1" stroke-linecap="round" class="shooting-star" style="animation-delay:49.74s;--shoot-tx:116px;--shoot-ty:39px;animation-duration:2.02s"/><line x1="444" y1="15" x2="462" y2="20" stroke="url(#x743a279)" stroke-width="1.1" stroke-linecap="round" class="shooting-star" style="animation-delay:4.82s;--shoot-tx:85px;--shoot-ty:51px;animation-duration:2.95s"/><line x1="505" y1="71" x2="523" y2="76" stroke="url(#x743a279)" stroke-width="1.1" stroke-linecap="round" class="shooting-star" style="animation-delay:25.28s;--shoot-tx:118px;--shoot-ty:38px;animation-duration:2.51s"/><line x1="170.0" y1="55" x2="170.0" y2="155" stroke="#1a2332" stroke-width="1" opacity="0.5"/><line x1="340.0" y1="55" x2="340.0" y2="155" stroke="#1a2332" stroke-width="1" opacity="0.5"/><line x1="510.0" y1="55" x2="510.0" y2="155" stroke="#1a2332" stroke-width="1" opacity="0.5"/><line x1="680.0" y1="55" x2="680.0" y2="155" stroke="#1a2332" stroke-width="1" opacity="0.5"/><g class="metric-cell" transform="translate(85.0,95)"><g transform="translate(-8,-30)"><svg viewBox="0 0 16 16" width="16" height="16" fill="#00d4ff" class="metric-icon" style="animation-delay:0.0s"><path d="M8 1a7 7 0 1 0 0 14A7 7 0 0 0 8 1zm0 2.5a4.5 4.5 0 0 1 4.473 4H14.5a.5.5 0 0 1 0 1h-2.027A4.5 4.5 0 0 1 8 12.5a4.5 4.5 0 0 1-4.473-4H1.5a.5.5 0 0 1 0-1h2.027A4.5 4.5 0 0 1 8 3.5zm0 1.5a3 3 0 1 0 0 6 3 3 0 0 0 0-6z"/></svg></g><text x="0" y="2" text-anchor="middle" fill="#00d4ff" font-size="28" font-weight="bold" font-family="sans-serif" opacity="0.35" filter="url(#xdf01081)">615</text><text x="0" y="2" text-anchor="middle" fill="#f1f5f9" font-size="28" font-weight="bold" font-family="sans-serif">615</text><text x="0" y="20" text-anchor="middle" fill="#64748b" font-size="11" font-family="monospace" letter-spacing="1">Commits</text></g><g class="metric-cell" transform="translate(255.0,95)"><g transform="translate(-8,-30)"><svg viewBox="0 0 16 16" width="16" height="16" fill="#ffb020" class="metric-icon" style="animation-delay:0.3s"><path d="M8 .25a.75.75 0 0 1 .673.418l1.882 3.815 4.21.612a.75.75 0 0 1 .416 1.279l-3.046 2.97.719 4.192a.75.75 0 0 1-1.088.791L8 12.347l-3.766 1.98a.75.75 0 0 1-1.088-.79l.72-4.194L.818 6.374a.75.75 0 0 1 .416-1.28l4.21-.611L7.327.668A.75.75 0 0 1 8 .25z"/></svg></g><text x="0" y="2" text-anchor="middle" fill="#ffb020" font-size="28" font-weight="bold" font-family="sans-serif" opacity="0.35" filter="url(#xdf01081)">196</text><text x="0" y="2" text-anchor="middle" fill="#f1f5f9" font-size="28" font-weight="bold" font-family="sans-serif">196</text><text x="0" y="20" text-anchor="middle" fill="#64748b" font-size="11" font-family="monospace" letter-spacing="1">Stars</text></g><g class="metric-cell" transform="translate(425.0,95)"><g transform="translate(-8,-30)"><svg viewBox="0 0 16 16" width="16" height="16" fill="#a78bfa" class="metric-icon" style="animation-delay:0.6s"><path d="M5 3.254V3.25v.005a.75.75 0 1 1 0-.005zm6.5 8a.75.75 0 1 1 0 1.5.75.75 0 0 1 0-1.5zM5 12.75a.75.75 0 1 1 0 1.5.75.75 0 0 1 0-1.5zm-1.5.75a1.5 1.5 0 1 0 1.5 1.5v-8.5a1.5 1.5 0 1 0-1.5-1.5v8.5a1.5 1.5 0 0 0 0 0zm8.5-2.5a1.5 1.5 0 0 0-1.5 1.5 1.5 1.5 0 1 0 3 0v-3.133l.025-.05A3.252 3.252 0 0 0 11 5.25V3.5h1.25a.75.75 0 0 0 .53-1.28l-2-2a.75.75 0 0 0-1.06 0l-2 2A.75.75 0 0 0 8.25 3.5H9.5v1.75a1.75 1.75 0 0 0 1.75 1.75h.244a1.75 1.75 0 0 1 1.006.319V11a1.5 1.5 0 0 0-1.5-1.5z"/></svg></g><text x="0" y="2" text-anchor="middle" fill="#a78bfa" font-size="28" font-weight="bold" font-family="sans-serif" opacity="0.35" filter="url(#xdf01081)">1</text><text x="0" y="2" text-anchor="middle" fill="#f1f5f9" font-size="28" font-weight="bold" font-family="sans-serif">1</text><text x="0" y="20" text-anchor="middle" fill="#64748b" font-size="11" font-family="monospace" letter-spacing="1">PRs</text></g><g class="metric-cell" transform="translate(595.0,95)"><g transform="translate(-8,-30)"><svg viewBox="0 0 16 16" width="16" height="16" fill="#00d4ff" class="metric-icon" style="animation-delay:0.8999999999999999s"><path d="M8 9.5a1.5 1.5 0 1 0 0-3 1.5 1.5 0 0 0 0 3z"/><path d="M8 0a8 8 0 1 1 0 16A8 8 0 0 1 8 0zm0 1.5a6.5 6.5 0 1 0 0 13 6.5 6.5 0 0 0 0-13z"/></svg></g><text x="0" y="2" text-anchor="middle" fill="#00d4ff" font-size="28" font-weight="bold" font-family="sans-serif" opacity="0.35" filter="url(#xdf01081)">5</text><text x="0" y="2" text-anchor="middle" fill="#f1f5f9" font-size="28" font-weight="bold" font-family="sans-serif">5</text><text x="0" y="20" text-anchor="middle" fill="#64748b" font-size="11" font-family="monospace" letter-spacing="1">Issues</text></g><g class="metric-cell" transform="translate(765.0,95)"><g transform="translate(-8,-30)"><svg viewBox="0 0 16 16" width="16" height="16" fill="#a78bfa" class="metric-icon" style="animation-delay:1.2s"><path d="M2 2.5A2.5 2.5 0 0 1 4.5 0h8.75a.75.75 0 0 1 .75.75v12.5a.75.75 0 0 1-.75.75h-2.5a.75.75 0 0 1 0-1.5h1.75v-2h-8a1 1 0 0 0-.714 1.7.75.75 0 0 1-1.072 1.05A2.495 2.495 0 0 1 2 11.5zm10.5-1h-8a1 1 0 0 0-1 1v6.708A2.486 2.486 0 0 1 4.5 9h8zM5 12.25a.25.25 0 0 1 .25-.25h3.5a.25.25 0 0 1 .25.25v3.25a.25.25 0 0 1-.4.2l-1.45-1.087a.25.25 0 0 0-.3 0L5.4 15.7a.25.25 0 0 1-.4-.2z"/></svg></g><text x="0" y="2" text-anchor="middle" fill="#a78bfa" font-size="28" font-weight="bold" font-family="sans-serif" opacity="0.35" filter="url(#xdf01081)">25</text><text x="0" y="2" text-anchor="middle" fill="#f1f5f9" font-size="28" font-weight="bold" font-family="sans-serif">25</text><text x="0" y="20" text-anchor="middle" fill="#64748b" font-size="11" font-family="monospace" letter-spacing="1">Repos</text></g></svg>