<svg xmlns="http://www.w3.org/2000/svg" width="850" height="180" viewBox="0 0 850 180"><defs><style>.metric-icon{animation:count-glow 4s ease-in-out infinite}@keyframes count-glow{0%,100%{fill-opacity:0.7}50%{fill-opacity:1}}.star-bg{animation:twinkle-slow 7s ease-in-out infinite}.star-mid{animation:twinkle-mid 5s ease-in-out infinite}.star-fg{animation:twinkle-fast 3s ease-in-out infinite}@keyframes twinkle-slow{0%,100%{opacity:0.07}50%{opacity:0.30}}@keyframes twinkle-mid{0%,100%{opacity:0.12}50%{opacity:0.45}}@keyframes twinkle-fast{0%,100%{opacity:0.25}50%{opacity:0.65}}.shooting-star{opacity:0;animation:shoot linear infinite}@keyframes shoot{0%{opacity:0;transform:translate(0,0)}5%{opacity:0.9}15%{opacity:0.6;transform:translate(var(--shoot-tx),var(--shoot-ty))}20%{opacity:0;transform:translate(var(--shoot-tx),var(--shoot-ty))}100%{opacity:0}}</style><filter id="xdf01081" x="-30%" y="-30%" width="160%" height="160%"><feGaussianBlur stdDeviation="3"/></filter><radialGradient id="xe7d3b8d" cx="50%" cy="50%" r="80%"><stop offset="0%" stop-color="#0f1623" stop-opacity="0.85"/><stop offset="100%" stop-color="#080c14" stop-opacity="0"/></radialGradient><linearGradient id="x743a279" x1="0" y1="0" x2="1" y2="0"><stop offset="0%" stop-color="#fff" stop-opacity="0.85"/><stop offset="100%" stop-color="#fff" stop-opacity="0"/></linearGradient></defs><rect x="0" y="0" width="850" height="180" rx="14" ry="14" fill="#080c14"/><rect x="0" y="0" width="850" height="180" rx="14" ry="14" fill="url(#xe7d3b8d)"/><circle cx="37.8" cy="65.6" r="0.61" fill="#ffb020" opacity="0.20" class="star-bg" style="animation-duration:5.096s;animation-delay:1.922s"/><circle cx="479.9" cy="126.7" r="0.29" fill="#fff" opacity="0.26" class="star-bg" style="animation-duration:8.812s;animation-delay:4.159s"/><circle cx="720.9" cy="62.4" r="0.26" fill="#00d4ff" opacity="0.14" class="star-bg" style="animation-duration:7.022s;animation-delay:2.652s"/><circle cx="455.9" cy="113.6" r="0.81" fill="#00d4ff" opacity="0.12" class="star-bg" style="animation-duration:7.307s;animation-delay:2.850s"/><circle cx="818.2" cy="61.4" r="0.29" fill="#ffb020" opacity="0.11" class="star-bg" style="animation-duration:8.903s;animation-delay:7.037s"/><circle cx="77.2" cy="146.0" r="0.84" fill="#00d4ff" opacity="0.10" class="star-bg" style="animation-duration:8.192s;animation-delay:5.624s"/><circle cx="565.3" cy="67.6" r="0.49" fill="#fff" opacity="0.07" class="star-bg" style="animation-duration:5.746s;animation-delay:1.910s"/><circle cx="228.8" cy="65.3" r="0.62" fill="#ffb020" opacity="0.09" class="star-bg" style="animation-duration:8.256s;animation-delay:2.500s"/><circle cx="546.5" cy="64.5" r="0.42" fill="#00d4ff" opacity="0.29" class="star-bg" style="animation-duration:8.592s;animation-delay:2.400s"/><circle cx="45.9" cy="20.3" r="0.50" fill="#fff" opacity="0.24" class="star-bg" style="animation-duration:8.859s;animation-delay:2.793s"/><circle cx="426.6" cy="152.4" r="0.30" fill="#fff" opacity="0.08" class="star-bg" style="animation-duration:7.572s;animation-delay:1.576s"/><circle cx="622.3" cy="119.9" r="0.54" fill="#fff" opacity="0.09" class="star-bg" style="animation-duration:7.172s;animation-delay:3.546s"/><circle cx="268.9" cy="136.4" r="0.63" fill="#00d4ff" opacity="0.23" class="star-bg" style="animation-duration:5.386s;animation-delay:1.806s"/><circle cx="72.0" cy="113.0" r="0.55" fill="#fff" opacity="0.18" class="star-bg" style="animation-duration:5.789s;animation-delay:3.765s"/><circle cx="397.0" cy="15.9" r="0.44" fill="#fff" opacity="0.25" class="star-bg" style="animation-duration:8.360s;animation-delay:0.410s"/><circle cx="654.3" cy="65.5" r="0.29" fill="#00d4ff" opacity="0.23" class="star-bg" style="animation-duration:8.714s;animation-delay:7.589s"/><circle cx="44.6" cy="153.5" r="0.34" fill="#00d4ff" opacity="0.25" class="star-bg" style="animation-duration:5.426s;animation-delay:1.252s"/><circle cx="164.3" cy="38.6" r="0.63" fill="#fff" opacity="0.14" class="star-bg" style="animation-duration:5.550s;animation-delay:2.853s"/><circle cx="436.5" cy="136.5" r="0.86" fill="#fff" opacity="0.10" class="star-bg" style="animation-duration:8.813s;animation-delay:3.234s"/><circle cx="411.6" cy="161.5" r="0.40" fill="#fff" opacity="0.29" class="star-bg" style="animation-duration:5.055s;animation-delay:3.937s"/><circle cx="202.5" cy="122.5" r="0.55" fill="#ffb020" opacity="0.16" class="star-bg" style="animation-duration:5.970s;animation-delay:2.654s"/><circle cx="666.0" cy="163.3" r="0.52" fill="#ffb020" opacity="0.26" class="star-bg" style="animation-duration:6.770s;animation-delay:6.071s"/><circle cx="806.4" cy="45.2" r="0.48" fill="#fff" opacity="0.14" class="star-bg" style="animation-duration:5.945s;animation-delay:2.373s"/><circle cx="539.6" cy="25.8" r="0.52" fill="#ffb020" opacity="0.23" class="star-bg" style="animation-duration:7.326s;animation-delay:5.048s"/><circle cx="312.3" cy="102.8" r="0.65" fill="#00d4ff" opacity="0.08" class="star-bg" style="animation-duration:6.022s;animation-delay:4.291s"/><circle cx="430.0" cy="41.5" r="0.22" fill="#ffb020" opacity="0.21" class="star-bg" style="animation-duration:7.190s;animation-delay:3.045s"/><circle cx="449.7" cy="22.6" r="0.26" fill="#a78bfa" opacity="0.30" class="star-bg" style="animation-duration:6.217s;animation-delay:4.035s"/><circle cx="161.4" cy="142.2" r="0.34" fill="#a78bfa" opacity="0.16" class="star-bg" style="animation-duration:5.317s;animation-delay:2.715s"/><circle cx="680.2" cy="78.2" r="0.24" fill="#a78bfa" opacity="0.27" class="star-bg" style="animation-duration:6.966s;animation-delay:2.799s"/><circle cx="833.2" cy="117.0" r="0.41" fill="#fff" opacity="0.27" class="star-bg" style="animation-duration:7.626s;animation-delay:1.338s"/><circle cx="639.7" cy="58.6" r="0.33" fill="#ffb020" opacity="0.29" class="star-bg" style="animation-duration:7.475s;animation-delay:6.134s"/><circle cx="602.6" cy="128.8" r="0.38" fill="#fff" opacity="0.25" class="star-bg" style="animation-duration:6.240s;animation-delay:2.741s"/><circle cx="660.4" cy="95.7" r="0.75" fill="#00d4ff" opacity="0.11" class="star-bg" style="animation-duration:6.786s;animation-delay:3.873s"/><circle cx="316.5" cy="148.5" r="0.75" fill="#fff" opacity="0.16" class="star-bg" style="animation-duration:6.943s;animation-delay:2.808s"/><circle cx="238.9" cy="160.7" r="0.70" fill="#ffb020" opacity="0.07" class="star-bg" style="animation-duration:8.689s;animation-delay:6.933s"/><circle cx="673.1" cy="34.9" r="0.90" fill="#fff" opacity="0.23" class="star-bg" style="animation-duration:5.447s;animation-delay:3.404s"/><circle cx="798.4" cy="111.2" r="0.24" fill="#ffb020" opacity="0.25" class="star-bg" style="animation-duration:6.261s;animation-delay:5.601s"/><circle cx="837.0" cy="28.5" r="0.29" fill="#fff" opacity="0.24" class="star-bg" style="animation-duration:7.895s;animation-delay:2.917s"/><circle cx="438.9" cy="44.9" r="0.56" fill="#fff" opacity="0.17" class="star-bg" style="animation-duration:7.571s;animation-delay:5.609s"/><circle cx="722.9" cy="58.1" r="0.59" fill="#fff" opacity="0.22" class="star-bg" style="animation-duration:8.639s;animation-delay:1.452s"/><circle cx="744.2" cy="132.1" r="0.92" fill="#00d4ff" opacity="0.28" class="star-mid" style="animation-duration:4.224s;animation-delay:3.413s"/><circle cx="732.1" cy="93.1" r="0.68" fill="#fff" opacity="0.26" class="star-mid" style="animation-duration:4.024s;animation-delay:2.802s"/><circle cx="746.7" cy="42.9" r="0.42" fill="#fff" opacity="0.23" class="star-mid" style="animation-duration:5.276s;animation-delay:3.042s"/><circle cx="663.5" cy="162.5" r="0.73" fill="#fff" opacity="0.39" class="star-mid" style="animation-duration:4.424s;animation-delay:1.560s"/><circle cx="74.1" cy="18.9" r="0.82" fill="#a78bfa" opacity="0.15" class="star-mid" style="animation-duration:6.452s;animation-delay:3.472s"/><circle cx="532.4" cy="47.4" r="0.50" fill="#00d4ff" opacity="0.35" class="star-mid" style="animation-duration:3.535s;animation-delay:1.712s"/><circle cx="615.6" cy="128.6" r="0.92" fill="#ffb020" opacity="0.41" class="star-mid" style="animation-duration:4.030s;animation-delay:0.000s"/><circle cx="661.8" cy="75.8" r="1.11" fill="#fff" opacity="0.19" class="star-mid" style="animation-duration:4.613s;animation-delay:3.096s"/><circle cx="38.1" cy="159.5" r="0.47" fill="#00d4ff" opacity="0.36" class="star-mid" style="animation-duration:3.816s;animation-delay:1.806s"/><circle cx="345.6" cy="36.6" r="0.98" fill="#fff" opacity="0.21" class="star-mid" style="animation-duration:3.992s;animation-delay:3.731s"/><circle cx="686.1" cy="99.6" r="0.70" fill="#00d4ff" opacity="0.39" class="star-mid" style="animation-duration:6.255s;animation-delay:2.577s"/><circle cx="16.2" cy="162.0" r="1.06" fill="#a78bfa" opacity="0.29" class="star-mid" style="animation-duration:6.138s;animation-delay:2.969s"/><circle cx="86.4" cy="146.0" r="1.09" fill="#00d4ff" opacity="0.14" class="star-mid" style="animation-duration:4.169s;animation-delay:3.753s"/><circle cx="562.6" cy="148.4" r="1.17" fill="#fff" opacity="0.27" class="star-mid" style="animation-duration:5.413s;animation-delay:3.320s"/><circle cx="603.4" cy="70.4" r="0.80" fill="#fff" opacity="0.40" class="star-mid" style="animation-duration:6.432s;animation-delay:4.639s"/><circle cx="279.8" cy="61.0" r="0.62" fill="#ffb020" opacity="0.21" class="star-mid" style="animation-duration:6.150s;animation-delay:1.033s"/><circle cx="564.7" cy="104.9" r="0.73" fill="#fff" opacity="0.37" class="star-mid" style="animation-duration:4.351s;animation-delay:2.997s"/><circle cx="54.5" cy="58.6" r="0.77" fill="#a78bfa" opacity="0.21" class="star-mid" style="animation-duration:6.067s;animation-delay:3.821s"/><circle cx="653.2" cy="126.7" r="0.65" fill="#fff" opacity="0.22" class="star-mid" style="animation-duration:5.369s;animation-delay:3.610s"/><circle cx="526.9" cy="160.8" r="0.94" fill="#fff" opacity="0.25" class="star-mid" style="animation-duration:6.804s;animation-delay:3.983s"/><circle cx="190.2" cy="169.3" r="1.17" fill="#fff" opacity="0.28" class="star-mid" style="animation-duration:6.171s;animation-delay:4.262s"/><circle cx="337.6" cy="127.2" r="0.48" fill="#a78bfa" opacity="0.36" class="star-mid" style="animation-duration:4.828s;animation-delay:0.978s"/><circle cx="214.9" cy="53.3" r="0.43" fill="#ffb020" opacity="0.29" class="star-mid" style="animation-duration:5.530s;animation-delay:3.202s"/><circle cx="279.2" cy="139.7" r="0.48" fill="#fff" opacity="0.32" class="star-mid" style="animation-duration:5.185s;animation-delay:2.728s"/><circle cx="299.4" cy="87.2" r="0.99" fill="#00d4ff" opacity="0.26" class="star-mid" style="animation-duration:5.057s;animation-delay:4.192s"/><circle cx="127.0" cy="105.6" r="0.94" fill="#ffb020" opacity="0.27" class="star-fg" style="animation-duration:3.042s;animation-delay:0.517s"/><circle cx="706.6" cy="114.8" r="0.76" fill="#00d4ff" opacity="0.35" class="star-fg" style="animation-duration:2.241s;animation-delay:1.923s"/><circle cx="167.0" cy="15.8" r="1.01" fill="#fff" opacity="0.46" class="star-fg" style="animation-duration:3.561s;animation-delay:2.789s"/><circle cx="468.3" cy="152.6" r="1.30" fill="#ffb020" opacity="0.41" class="star-fg" style="animation-duration:3.960s;animation-delay:0.725s"/><circle cx="605.6" cy="34.3" r="0.98" fill="#fff" opacity="0.31" class="star-fg" style="animation-duration:4.081s;animation-delay:3.670s"/><circle cx="50.9" cy="69.8" r="1.26" fill="#a78bfa" opacity="0.63" class="star-fg" style="animation-duration:2.967s;animation-delay:1.747s"/><circle cx="489.2" cy="40.7" r="1.09" fill="#fff" opacity="0.27" class="star-fg" style="animation-duration:3.543s;animation-delay:2.669s"/><circle cx="156.4" cy="58.7" r="1.48" fill="#00d4ff" opacity="0.53" class="star-fg" style="animation-duration:2.083s;animation-delay:0.946s"/><circle cx="13.2" cy="20.6" r="0.96" fill="#fff" opacity="0.60" class="star-fg" style="animation-duration:3.577s;animation-delay:3.261s"/><circle cx="690.0" cy="37.8" r="1.39" fill="#00d4ff" opacity="0.32" class="star-fg" style="animation-duration:3.308s;animation-delay:2.158s"/><line x1="196" y1="67" x2="214" y2="72" stroke="url(#x743a279)" stroke-width="1.1" stroke-linecap="round" class="shooting-star" style="animation-delay:42.4s;--shoot-tx:112px;--shoot-ty:43px;animation-duration:2.4s"/><line x1="317" y1="7" x2="335" y2="12" stroke="url(#x743a279)" stroke-width="1.1" stroke-linecap="round" class="shooting-star" style="animation-delay:36.08s;--shoot-tx:107px;--shoot-ty:31px;animation-duration:2.44s"/><line x1="166" y1="64" x2="184" y2="69" stroke="url(#x743a279)" stroke-width="1.1" stroke-linecap="round" class="shooting-star" style="animation-delay:25.2s;--shoot-tx:92px;--shoot-ty:39px;animation-duration:2.92s"/><line x1="170.0" y1="55" x2="170.0" y2="155" stroke="#1a2332" stroke-width="1" opacity="0.5"/><line x1="340.0" y1="55" x2="340.0" y2="155" stroke="#1a2332" stroke-width="1" opacity="0.5"/><line x1="510.0" y1="55" x2="510.0" y2="155" stroke="#1a2332" stroke-width="1" opacity="0.5"/><line x1="680.0" y1="55" x2="680.0" y2="155" stroke="#1a2332" stroke-width="1" opacity="0.5"/><g class="metric-cell" transform="translate(85.0,95)"><g transform="translate(-8,-30)"><svg viewBox="0 0 16 16" width="16" height="16" fill="#00d4ff" class="metric-icon" style="animation-delay:0.0s"><path d="M8 1a7 7 0 1 0 0 14A7 7 0 0 0 8 1zm0 2.5a4.5 4.5 0 0 1 4.473 4H14.5a.5.5 0 0 1 0 1h-2.027A4.5 4.5 0 0 1 8 12.5a4.5 4.5 0 0 1-4.473-4H1.5a.5.5 0 0 1 0-1h2.027A4.5 4.5 0 0 1 8 3.5zm0 1.5a3 3 0 1 0 0 6 3 3 0 0 0 0-6z"/></svg></g><text x="0" y="2" text-anchor="middle" fill="#00d4ff" font-size="28" font-weight="bold" font-family="sans-serif" opacity="0.35" filter="url(#xdf01081)">575</text><text x="0" y="2" text-anchor="middle" fill="#f1f5f9" font-size="28" font-weight="bold" font-family="sans-serif">575</text><text x="0" y="20" text-anchor="middle" fill="#64748b" font-size="11" font-family="monospace" letter-spacing="1">Commits</text></g><g class="metric-cell" transform="translate(255.0,95)"><g transform="translate(-8,-30)"><svg viewBox="0 0 16 16" width="16" height="16" fill="#ffb020" class="metric-icon" style="animation-delay:0.3s"><path d="M8 .25a.75.75 0 0 1 .673.418l1.882 3.815 4.21.612a.75.75 0 0 1 .416 1.279l-3.046 2.97.719 4.192a.75.75 0 0 1-1.088.791L8 12.347l-3.766 1.98a.75.75 0 0 1-1.088-.79l.72-4.194L.818 6.374a.75.75 0 0 1 .416-1.28l4.21-.611L7.327.668A.75.75 0 0 1 8 .25z"/></svg></g><text x="0" y="2" text-anchor="middle" fill="#ffb020" font-size="28" font-weight="bold" font-family="sans-serif" opacity="0.35" filter="url(#xdf01081)">209</text><text x="0" y="2" text-anchor="middle" fill="#f1f5f9" font-size="28" font-weight="bold" font-family="sans-serif">209</text><text x="0" y="20" text-anchor="middle" fill="#64748b" font-size="11" font-family="monospace" letter-spacing="1">Stars</text></g><g class="metric-cell" transform="translate(425.0,95)"><g transform="translate(-8,-30)"><svg viewBox="0 0 16 16" width="16" height="16" fill="#a78bfa" class="metric-icon" style="animation-delay:0.6s"><path d="M5 3.254V3.25v.005a.75.75 0 1 1 0-.005zm6.5 8a.75.75 0 1 1 0 1.5.75.75 0 0 1 0-1.5zM5 12.75a.75.75 0 1 1 0 1.5.75.75 0 0 1 0-1.5zm-1.5.75a1.5 1.5 0 1 0 1.5 1.5v-8.5a1.5 1.5 0 1 0-1.5-1.5v8.5a1.5 1.5 0 0 0 0 0zm8.5-2.5a1.5 1.5 0 0 0-1.5 1.5 1.5 1.5 0 1 0 3 0v-3.133l.025-.05A3.252 3.252 0 0 0 11 5.25V3.5h1.25a.75.75 0 0 0 .53-1.28l-2-2a.75.75 0 0 0-1.06 0l-2 2A.75.75 0 0 0 8.25 3.5H9.5v1.75a1.75 1.75 0 0 0 1.75 1.75h.244a1.75 1.75 0 0 1 1.006.319V11a1.5 1.5 0 0 0-1.5-1.5z"/></svg></g><text x="0" y="2" text-anchor="middle" fill="#a78bfa" font-size="28" font-weight="bold" font-family="sans-serif" opacity="0.35" filter="url(#xdf01081)">3</text><text x="0" y="2" text-anchor="middle" fill="#f1f5f9" font-size="28" font-weight="bold" font-family="sans-serif">3</text><text x="0" y="20" text-anchor="middle" fill="#64748b" font-size="11" font-family="monospace" letter-spacing="1">PRs</text></g><g class="metric-cell" transform="translate(595.0,95)"><g transform="translate(-8,-30)"><svg viewBox="0 0 16 16" width="16" height="16" fill="#00d4ff" class="metric-icon" style="animation-delay:0.8999999999999999s"><path d="M8 9.5a1.5 1.5 0 1 0 0-3 1.5 1.5 0 0 0 0 3z"/><path d="M8 0a8 8 0 1 1 0 16A8 8 0 0 1 8 0zm0 1.5a6.5 6.5 0 1 0 0 13 6.5 6.5 0 0 0 0-13z"/></svg></g><text x="0" y="2" text-anchor="middle" fill="#00d4ff" font-size="28" font-weight="bold" font-family="sans-serif" opacity="0.35" filter="url(#xdf01081)">5</text><text x="0" y="2" text-anchor="middle" fill="#f1f5f9" font-size="28" font-weight="bold" font-family="sans-serif">5</text><text x="0" y="20" text-anchor="middle" fill="#64748b" font-size="11" font-family="monospace" letter-spacing="1">Issues</text></g><g class="metric-cell" transform="translate(765.0,95)"><g transform="translate(-8,-30)"><svg viewBox="0 0 16 16" width="16" height="16" fill="#a78bfa" class="metric-icon" style="animation-delay:1.2s"><path d="M2 2.5A2.5 2.5 0 0 1 4.5 0h8.75a.75.75 0 0 1 .75.75v12.5a.75.75 0 0 1-.75.75h-2.5a.75.75 0 0 1 0-1.5h1.75v-2h-8a1 1 0 0 0-.714 1.7.75.75 0 0 1-1.072 1.05A2.495 2.495 0 0 1 2 11.5zm10.5-1h-8a1 1 0 0 0-1 1v6.708A2.486 2.486 0 0 1 4.5 9h8zM5 12.25a.25.25 0 0 1 .25-.25h3.5a.25.25 0 0 1 .25.25v3.25a.25.25 0 0 1-.4.2l-1.45-1.087a.25.25 0 0 0-.3 0L5.4 15.7a.25.25 0 0 1-.4-.2z"/></svg></g><text x="0" y="2" text-anchor="middle" fill="#a78bfa" font-size="28" font-weight="bold" font-family="sans-serif" opacity="0.35" filter="url(#xdf01081)">29</text><text x="0" y="2" text-anchor="middle" fill="#f1f5f9" font-size="28" font-weight="bold" font-family="sans-serif">29</text><text x="0" y="20" text-anchor="middle" fill="#64748b" font-size="11" font-family="monospace" letter-spacing="1">Repos</text></g></svg>