<svg xmlns="http://www.w3.org/2000/svg" width="850" height="180" viewBox="0 0 850 180"><defs><style>.metric-icon{animation:count-glow 4s ease-in-out infinite}@keyframes count-glow{0%,100%{fill-opacity:0.7}50%{fill-opacity:1}}.star-bg{animation:twinkle-slow 7s ease-in-out infinite}.star-mid{animation:twinkle-mid 5s ease-in-out infinite}.star-fg{animation:twinkle-fast 3s ease-in-out infinite}@keyframes twinkle-slow{0%,100%{opacity:0.07}50%{opacity:0.30}}@keyframes twinkle-mid{0%,100%{opacity:0.12}50%{opacity:0.45}}@keyframes twinkle-fast{0%,100%{opacity:0.25}50%{opacity:0.65}}.shooting-star{opacity:0;animation:shoot linear infinite}@keyframes shoot{0%{opacity:0;transform:translate(0,0)}5%{opacity:0.9}15%{opacity:0.6;transform:translate(var(--shoot-tx),var(--shoot-ty))}20%{opacity:0;transform:translate(var(--shoot-tx),var(--shoot-ty))}100%{opacity:0}}</style><filter id="xdf01081" x="-30%" y="-30%" width="160%" height="160%"><feGaussianBlur stdDeviation="3"/></filter><radialGradient id="xe7d3b8d" cx="50%" cy="50%" r="80%"><stop offset="0%" stop-color="#0f1623" stop-opacity="0.85"/><stop offset="100%" stop-color="#080c14" stop-opacity="0"/></radialGradient><linearGradient id="x743a279" x1="0" y1="0" x2="1" y2="0"><stop offset="0%" stop-color="#fff" stop-opacity="0.85"/><stop offset="100%" stop-color="#fff" stop-opacity="0"/></linearGradient></defs><rect x="0" y="0" width="850" height="180" rx="14" ry="14" fill="#080c14"/><rect x="0" y="0" width="850" height="180" rx="14" ry="14" fill="url(#xe7d3b8d)"/><circle cx="828.5" cy="40.0" r="0.38" fill="#fff" opacity="0.30" class="star-bg" style="animation-duration:8.324s;animation-delay:7.901s"/><circle cx="696.8" cy="146.2" r="0.29" fill="#fff" opacity="0.18" class="star-bg" style="animation-duration:8.789s;animation-delay:5.723s"/><circle cx="774.9" cy="59.0" r="0.71" fill="#a78bfa" opacity="0.30" class="star-bg" style="animation-duration:8.289s;animation-delay:3.201s"/><circle cx="590.8" cy="100.7" r="0.21" fill="#a78bfa" opacity="0.14" class="star-bg" style="animation-duration:7.518s;animation-delay:2.756s"/><circle cx="712.2" cy="105.9" r="0.90" fill="#00d4ff" opacity="0.11" class="star-bg" style="animation-duration:7.363s;animation-delay:3.062s"/><circle cx="577.6" cy="158.3" r="0.55" fill="#fff" opacity="0.13" class="star-bg" style="animation-duration:6.239s;animation-delay:3.569s"/><circle cx="351.1" cy="117.0" r="0.44" fill="#fff" opacity="0.07" class="star-bg" style="animation-duration:7.393s;animation-delay:1.684s"/><circle cx="313.5" cy="84.1" r="0.87" fill="#a78bfa" opacity="0.27" class="star-bg" style="animation-duration:7.594s;animation-delay:6.102s"/><circle cx="98.7" cy="58.7" r="0.83" fill="#fff" opacity="0.28" class="star-bg" style="animation-duration:8.934s;animation-delay:6.064s"/><circle cx="435.2" cy="20.0" r="0.52" fill="#ffb020" opacity="0.08" class="star-bg" style="animation-duration:6.256s;animation-delay:5.564s"/><circle cx="110.1" cy="65.8" r="0.52" fill="#00d4ff" opacity="0.28" class="star-bg" style="animation-duration:8.353s;animation-delay:5.336s"/><circle cx="49.6" cy="26.1" r="0.72" fill="#a78bfa" opacity="0.26" class="star-bg" style="animation-duration:6.318s;animation-delay:0.505s"/><circle cx="162.8" cy="57.0" r="0.38" fill="#a78bfa" opacity="0.09" class="star-bg" style="animation-duration:5.206s;animation-delay:1.347s"/><circle cx="594.8" cy="12.5" r="0.53" fill="#a78bfa" opacity="0.24" class="star-bg" style="animation-duration:5.377s;animation-delay:2.084s"/><circle cx="578.6" cy="77.1" r="0.56" fill="#00d4ff" opacity="0.18" class="star-bg" style="animation-duration:5.840s;animation-delay:2.093s"/><circle cx="420.1" cy="56.4" r="0.25" fill="#00d4ff" opacity="0.26" class="star-bg" style="animation-duration:8.762s;animation-delay:4.412s"/><circle cx="577.2" cy="126.7" r="0.83" fill="#00d4ff" opacity="0.12" class="star-bg" style="animation-duration:8.885s;animation-delay:0.075s"/><circle cx="700.7" cy="10.1" r="0.26" fill="#fff" opacity="0.18" class="star-bg" style="animation-duration:8.192s;animation-delay:3.156s"/><circle cx="315.2" cy="128.9" r="0.85" fill="#fff" opacity="0.11" class="star-bg" style="animation-duration:5.746s;animation-delay:3.057s"/><circle cx="138.5" cy="83.2" r="0.71" fill="#00d4ff" opacity="0.24" class="star-bg" style="animation-duration:7.043s;animation-delay:5.584s"/><circle cx="281.1" cy="84.4" r="0.73" fill="#00d4ff" opacity="0.29" class="star-bg" style="animation-duration:6.216s;animation-delay:4.274s"/><circle cx="699.9" cy="102.3" r="0.30" fill="#00d4ff" opacity="0.10" class="star-bg" style="animation-duration:5.890s;animation-delay:2.691s"/><circle cx="639.7" cy="162.3" r="0.83" fill="#ffb020" opacity="0.17" class="star-bg" style="animation-duration:8.527s;animation-delay:2.639s"/><circle cx="470.0" cy="25.9" r="0.70" fill="#00d4ff" opacity="0.14" class="star-bg" style="animation-duration:8.011s;animation-delay:5.710s"/><circle cx="30.4" cy="22.0" r="0.89" fill="#fff" opacity="0.11" class="star-bg" style="animation-duration:8.437s;animation-delay:0.849s"/><circle cx="346.6" cy="11.4" r="0.70" fill="#a78bfa" opacity="0.29" class="star-bg" style="animation-duration:6.738s;animation-delay:0.355s"/><circle cx="666.7" cy="142.5" r="0.83" fill="#fff" opacity="0.12" class="star-bg" style="animation-duration:7.718s;animation-delay:2.343s"/><circle cx="371.8" cy="65.1" r="0.66" fill="#fff" opacity="0.11" class="star-bg" style="animation-duration:5.472s;animation-delay:1.835s"/><circle cx="350.9" cy="68.1" r="0.65" fill="#fff" opacity="0.10" class="star-bg" style="animation-duration:7.198s;animation-delay:1.742s"/><circle cx="837.5" cy="162.0" r="0.83" fill="#fff" opacity="0.10" class="star-bg" style="animation-duration:5.685s;animation-delay:1.982s"/><circle cx="480.9" cy="53.4" r="0.39" fill="#a78bfa" opacity="0.17" class="star-bg" style="animation-duration:8.669s;animation-delay:2.336s"/><circle cx="126.7" cy="77.2" r="0.25" fill="#fff" opacity="0.08" class="star-bg" style="animation-duration:7.632s;animation-delay:7.064s"/><circle cx="732.8" cy="121.4" r="0.65" fill="#fff" opacity="0.16" class="star-bg" style="animation-duration:7.348s;animation-delay:2.916s"/><circle cx="319.7" cy="167.6" r="0.40" fill="#fff" opacity="0.26" class="star-bg" style="animation-duration:7.782s;animation-delay:5.627s"/><circle cx="31.9" cy="75.2" r="0.29" fill="#fff" opacity="0.14" class="star-bg" style="animation-duration:5.206s;animation-delay:1.640s"/><circle cx="826.9" cy="143.7" r="0.73" fill="#fff" opacity="0.23" class="star-bg" style="animation-duration:8.757s;animation-delay:4.061s"/><circle cx="159.3" cy="166.5" r="0.35" fill="#a78bfa" opacity="0.10" class="star-bg" style="animation-duration:7.993s;animation-delay:6.072s"/><circle cx="601.1" cy="64.1" r="0.20" fill="#a78bfa" opacity="0.13" class="star-bg" style="animation-duration:7.256s;animation-delay:5.660s"/><circle cx="527.6" cy="15.5" r="0.50" fill="#a78bfa" opacity="0.29" class="star-bg" style="animation-duration:6.033s;animation-delay:1.076s"/><circle cx="333.0" cy="103.7" r="0.82" fill="#ffb020" opacity="0.12" class="star-bg" style="animation-duration:7.360s;animation-delay:0.971s"/><circle cx="393.8" cy="102.3" r="0.45" fill="#fff" opacity="0.41" class="star-mid" style="animation-duration:4.820s;animation-delay:0.442s"/><circle cx="601.3" cy="88.3" r="0.61" fill="#00d4ff" opacity="0.23" class="star-mid" style="animation-duration:6.820s;animation-delay:2.920s"/><circle cx="512.3" cy="14.5" r="1.12" fill="#fff" opacity="0.39" class="star-mid" style="animation-duration:4.541s;animation-delay:3.441s"/><circle cx="749.7" cy="25.7" r="0.43" fill="#fff" opacity="0.43" class="star-mid" style="animation-duration:6.861s;animation-delay:5.103s"/><circle cx="837.3" cy="53.3" r="0.45" fill="#00d4ff" opacity="0.26" class="star-mid" style="animation-duration:4.150s;animation-delay:1.118s"/><circle cx="524.6" cy="87.7" r="0.92" fill="#fff" opacity="0.33" class="star-mid" style="animation-duration:5.902s;animation-delay:4.457s"/><circle cx="653.1" cy="64.8" r="0.57" fill="#fff" opacity="0.41" class="star-mid" style="animation-duration:3.622s;animation-delay:2.288s"/><circle cx="127.3" cy="130.2" r="1.02" fill="#fff" opacity="0.18" class="star-mid" style="animation-duration:6.400s;animation-delay:5.610s"/><circle cx="689.3" cy="109.9" r="0.48" fill="#00d4ff" opacity="0.39" class="star-mid" style="animation-duration:4.978s;animation-delay:2.206s"/><circle cx="701.7" cy="37.0" r="0.41" fill="#fff" opacity="0.31" class="star-mid" style="animation-duration:6.347s;animation-delay:6.257s"/><circle cx="802.3" cy="52.2" r="0.50" fill="#ffb020" opacity="0.40" class="star-mid" style="animation-duration:4.777s;animation-delay:0.939s"/><circle cx="268.1" cy="34.0" r="0.40" fill="#00d4ff" opacity="0.15" class="star-mid" style="animation-duration:5.376s;animation-delay:3.035s"/><circle cx="719.8" cy="147.2" r="0.50" fill="#00d4ff" opacity="0.25" class="star-mid" style="animation-duration:3.900s;animation-delay:0.583s"/><circle cx="573.4" cy="144.9" r="0.51" fill="#fff" opacity="0.38" class="star-mid" style="animation-duration:5.631s;animation-delay:5.086s"/><circle cx="798.0" cy="75.1" r="0.55" fill="#00d4ff" opacity="0.40" class="star-mid" style="animation-duration:5.639s;animation-delay:1.863s"/><circle cx="498.0" cy="42.5" r="0.74" fill="#fff" opacity="0.19" class="star-mid" style="animation-duration:3.528s;animation-delay:1.736s"/><circle cx="296.9" cy="18.6" r="1.06" fill="#fff" opacity="0.44" class="star-mid" style="animation-duration:6.742s;animation-delay:1.017s"/><circle cx="724.4" cy="53.5" r="1.04" fill="#fff" opacity="0.35" class="star-mid" style="animation-duration:5.083s;animation-delay:3.267s"/><circle cx="189.1" cy="152.3" r="1.00" fill="#a78bfa" opacity="0.37" class="star-mid" style="animation-duration:6.041s;animation-delay:4.066s"/><circle cx="700.9" cy="110.8" r="1.00" fill="#fff" opacity="0.20" class="star-mid" style="animation-duration:5.091s;animation-delay:4.115s"/><circle cx="16.6" cy="103.2" r="0.48" fill="#fff" opacity="0.14" class="star-mid" style="animation-duration:4.057s;animation-delay:2.366s"/><circle cx="168.0" cy="49.9" r="0.45" fill="#fff" opacity="0.31" class="star-mid" style="animation-duration:5.471s;animation-delay:3.616s"/><circle cx="309.4" cy="77.3" r="1.17" fill="#00d4ff" opacity="0.23" class="star-mid" style="animation-duration:5.076s;animation-delay:2.207s"/><circle cx="339.3" cy="62.6" r="0.87" fill="#fff" opacity="0.25" class="star-mid" style="animation-duration:5.480s;animation-delay:1.893s"/><circle cx="131.5" cy="36.6" r="0.42" fill="#a78bfa" opacity="0.21" class="star-mid" style="animation-duration:3.507s;animation-delay:2.346s"/><circle cx="394.0" cy="153.2" r="1.12" fill="#fff" opacity="0.55" class="star-fg" style="animation-duration:2.514s;animation-delay:2.225s"/><circle cx="467.5" cy="61.5" r="0.86" fill="#ffb020" opacity="0.30" class="star-fg" style="animation-duration:3.490s;animation-delay:2.524s"/><circle cx="148.3" cy="22.2" r="0.71" fill="#fff" opacity="0.60" class="star-fg" style="animation-duration:3.588s;animation-delay:0.154s"/><circle cx="345.6" cy="97.4" r="0.73" fill="#a78bfa" opacity="0.42" class="star-fg" style="animation-duration:2.924s;animation-delay:1.030s"/><circle cx="751.8" cy="29.2" r="1.30" fill="#ffb020" opacity="0.41" class="star-fg" style="animation-duration:2.629s;animation-delay:0.615s"/><circle cx="298.6" cy="73.4" r="1.44" fill="#ffb020" opacity="0.33" class="star-fg" style="animation-duration:2.508s;animation-delay:1.425s"/><circle cx="622.2" cy="149.1" r="1.07" fill="#fff" opacity="0.53" class="star-fg" style="animation-duration:3.563s;animation-delay:1.978s"/><circle cx="738.8" cy="26.3" r="1.49" fill="#a78bfa" opacity="0.57" class="star-fg" style="animation-duration:3.679s;animation-delay:1.897s"/><circle cx="559.1" cy="98.9" r="1.24" fill="#a78bfa" opacity="0.40" class="star-fg" style="animation-duration:3.039s;animation-delay:2.402s"/><circle cx="325.4" cy="84.2" r="1.31" fill="#fff" opacity="0.36" class="star-fg" style="animation-duration:4.336s;animation-delay:2.628s"/><line x1="668" y1="16" x2="686" y2="21" stroke="url(#x743a279)" stroke-width="1.1" stroke-linecap="round" class="shooting-star" style="animation-delay:5.59s;--shoot-tx:105px;--shoot-ty:54px;animation-duration:2.97s"/><line x1="589" y1="40" x2="607" y2="45" stroke="url(#x743a279)" stroke-width="1.1" stroke-linecap="round" class="shooting-star" style="animation-delay:26.83s;--shoot-tx:88px;--shoot-ty:31px;animation-duration:2.41s"/><line x1="427" y1="58" x2="445" y2="63" stroke="url(#x743a279)" stroke-width="1.1" stroke-linecap="round" class="shooting-star" style="animation-delay:48.72s;--shoot-tx:104px;--shoot-ty:32px;animation-duration:2.44s"/><line x1="170.0" y1="55" x2="170.0" y2="155" stroke="#1a2332" stroke-width="1" opacity="0.5"/><line x1="340.0" y1="55" x2="340.0" y2="155" stroke="#1a2332" stroke-width="1" opacity="0.5"/><line x1="510.0" y1="55" x2="510.0" y2="155" stroke="#1a2332" stroke-width="1" opacity="0.5"/><line x1="680.0" y1="55" x2="680.0" y2="155" stroke="#1a2332" stroke-width="1" opacity="0.5"/><g class="metric-cell" transform="translate(85.0,95)"><g transform="translate(-8,-30)"><svg viewBox="0 0 16 16" width="16" height="16" fill="#00d4ff" class="metric-icon" style="animation-delay:0.0s"><path d="M8 1a7 7 0 1 0 0 14A7 7 0 0 0 8 1zm0 2.5a4.5 4.5 0 0 1 4.473 4H14.5a.5.5 0 0 1 0 1h-2.027A4.5 4.5 0 0 1 8 12.5a4.5 4.5 0 0 1-4.473-4H1.5a.5.5 0 0 1 0-1h2.027A4.5 4.5 0 0 1 8 3.5zm0 1.5a3 3 0 1 0 0 6 3 3 0 0 0 0-6z"/></svg></g><text x="0" y="2" text-anchor="middle" fill="#00d4ff" font-size="28" font-weight="bold" font-family="sans-serif" opacity="0.35" filter="url(#xdf01081)">614</text><text x="0" y="2" text-anchor="middle" fill="#f1f5f9" font-size="28" font-weight="bold" font-family="sans-serif">614</text><text x="0" y="20" text-anchor="middle" fill="#64748b" font-size="11" font-family="monospace" letter-spacing="1">Commits</text></g><g class="metric-cell" transform="translate(255.0,95)"><g transform="translate(-8,-30)"><svg viewBox="0 0 16 16" width="16" height="16" fill="#ffb020" class="metric-icon" style="animation-delay:0.3s"><path d="M8 .25a.75.75 0 0 1 .673.418l1.882 3.815 4.21.612a.75.75 0 0 1 .416 1.279l-3.046 2.97.719 4.192a.75.75 0 0 1-1.088.791L8 12.347l-3.766 1.98a.75.75 0 0 1-1.088-.79l.72-4.194L.818 6.374a.75.75 0 0 1 .416-1.28l4.21-.611L7.327.668A.75.75 0 0 1 8 .25z"/></svg></g><text x="0" y="2" text-anchor="middle" fill="#ffb020" font-size="28" font-weight="bold" font-family="sans-serif" opacity="0.35" filter="url(#xdf01081)">195</text><text x="0" y="2" text-anchor="middle" fill="#f1f5f9" font-size="28" font-weight="bold" font-family="sans-serif">195</text><text x="0" y="20" text-anchor="middle" fill="#64748b" font-size="11" font-family="monospace" letter-spacing="1">Stars</text></g><g class="metric-cell" transform="translate(425.0,95)"><g transform="translate(-8,-30)"><svg viewBox="0 0 16 16" width="16" height="16" fill="#a78bfa" class="metric-icon" style="animation-delay:0.6s"><path d="M5 3.254V3.25v.005a.75.75 0 1 1 0-.005zm6.5 8a.75.75 0 1 1 0 1.5.75.75 0 0 1 0-1.5zM5 12.75a.75.75 0 1 1 0 1.5.75.75 0 0 1 0-1.5zm-1.5.75a1.5 1.5 0 1 0 1.5 1.5v-8.5a1.5 1.5 0 1 0-1.5-1.5v8.5a1.5 1.5 0 0 0 0 0zm8.5-2.5a1.5 1.5 0 0 0-1.5 1.5 1.5 1.5 0 1 0 3 0v-3.133l.025-.05A3.252 3.252 0 0 0 11 5.25V3.5h1.25a.75.75 0 0 0 .53-1.28l-2-2a.75.75 0 0 0-1.06 0l-2 2A.75.75 0 0 0 8.25 3.5H9.5v1.75a1.75 1.75 0 0 0 1.75 1.75h.244a1.75 1.75 0 0 1 1.006.319V11a1.5 1.5 0 0 0-1.5-1.5z"/></svg></g><text x="0" y="2" text-anchor="middle" fill="#a78bfa" font-size="28" font-weight="bold" font-family="sans-serif" opacity="0.35" filter="url(#xdf01081)">1</text><text x="0" y="2" text-anchor="middle" fill="#f1f5f9" font-size="28" font-weight="bold" font-family="sans-serif">1</text><text x="0" y="20" text-anchor="middle" fill="#64748b" font-size="11" font-family="monospace" letter-spacing="1">PRs</text></g><g class="metric-cell" transform="translate(595.0,95)"><g transform="translate(-8,-30)"><svg viewBox="0 0 16 16" width="16" height="16" fill="#00d4ff" class="metric-icon" style="animation-delay:0.8999999999999999s"><path d="M8 9.5a1.5 1.5 0 1 0 0-3 1.5 1.5 0 0 0 0 3z"/><path d="M8 0a8 8 0 1 1 0 16A8 8 0 0 1 8 0zm0 1.5a6.5 6.5 0 1 0 0 13 6.5 6.5 0 0 0 0-13z"/></svg></g><text x="0" y="2" text-anchor="middle" fill="#00d4ff" font-size="28" font-weight="bold" font-family="sans-serif" opacity="0.35" filter="url(#xdf01081)">5</text><text x="0" y="2" text-anchor="middle" fill="#f1f5f9" font-size="28" font-weight="bold" font-family="sans-serif">5</text><text x="0" y="20" text-anchor="middle" fill="#64748b" font-size="11" font-family="monospace" letter-spacing="1">Issues</text></g><g class="metric-cell" transform="translate(765.0,95)"><g transform="translate(-8,-30)"><svg viewBox="0 0 16 16" width="16" height="16" fill="#a78bfa" class="metric-icon" style="animation-delay:1.2s"><path d="M2 2.5A2.5 2.5 0 0 1 4.5 0h8.75a.75.75 0 0 1 .75.75v12.5a.75.75 0 0 1-.75.75h-2.5a.75.75 0 0 1 0-1.5h1.75v-2h-8a1 1 0 0 0-.714 1.7.75.75 0 0 1-1.072 1.05A2.495 2.495 0 0 1 2 11.5zm10.5-1h-8a1 1 0 0 0-1 1v6.708A2.486 2.486 0 0 1 4.5 9h8zM5 12.25a.25.25 0 0 1 .25-.25h3.5a.25.25 0 0 1 .25.25v3.25a.25.25 0 0 1-.4.2l-1.45-1.087a.25.25 0 0 0-.3 0L5.4 15.7a.25.25 0 0 1-.4-.2z"/></svg></g><text x="0" y="2" text-anchor="middle" fill="#a78bfa" font-size="28" font-weight="bold" font-family="sans-serif" opacity="0.35" filter="url(#xdf01081)">25</text><text x="0" y="2" text-anchor="middle" fill="#f1f5f9" font-size="28" font-weight="bold" font-family="sans-serif">25</text><text x="0" y="20" text-anchor="middle" fill="#64748b" font-size="11" font-family="monospace" letter-spacing="1">Repos</text></g></svg>