<svg xmlns="http://www.w3.org/2000/svg" width="850" height="180" viewBox="0 0 850 180">
<defs>
<style>
.metric-icon{animation:count-glow 4s ease-in-out infinite}@keyframes count-glow{0%,100%{fill-opacity:0.7}50%{fill-opacity:1}}
.star-bg{animation:twinkle-slow 7s ease-in-out infinite}.star-mid{animation:twinkle-mid 5s ease-in-out infinite}.star-fg{animation:twinkle-fast 3s ease-in-out infinite}
@keyframes twinkle-slow{0%,100%{opacity:0.07}50%{opacity:0.30}}@keyframes twinkle-mid{0%,100%{opacity:0.12}50%{opacity:0.45}}@keyframes twinkle-fast{0%,100%{opacity:0.25}50%{opacity:0.65}}
.shooting-star{opacity:0;animation:shoot linear infinite}
@keyframes shoot{0%{opacity:0;transform:translate(0,0)}5%{opacity:0.9}15%{opacity:0.6;transform:translate(var(--shoot-tx),var(--shoot-ty))}20%{opacity:0;transform:translate(var(--shoot-tx),var(--shoot-ty))}100%{opacity:0}}
</style>
<filter id="num-glow" x="-30%" y="-30%" width="160%" height="160%"><feGaussianBlur stdDeviation="3"/></filter>
<radialGradient id="bg-glow" cx="50%" cy="50%" r="80%"><stop offset="0%" stop-color="#0f1623" stop-opacity="0.85"/><stop offset="100%" stop-color="#080c14" stop-opacity="0"/></radialGradient>
<linearGradient id="shoot-grad" x1="0" y1="0" x2="1" y2="0"><stop offset="0%" stop-color="#fff" stop-opacity="0.85"/><stop offset="100%" stop-color="#fff" stop-opacity="0"/></linearGradient>
</defs>
<rect x="0" y="0" width="850" height="180" rx="14" ry="14" fill="#080c14"/>
<rect x="0" y="0" width="850" height="180" rx="14" ry="14" fill="url(#bg-glow)"/>
<circle cx="111.6" cy="89.1" r="0.37" fill="#ffb020" opacity="0.17" class="star-bg" style="animation-duration:5.550s;animation-delay:3.042s"/>
<circle cx="649.2" cy="53.4" r="0.85" fill="#a78bfa" opacity="0.24" class="star-bg" style="animation-duration:7.494s;animation-delay:2.200s"/>
<circle cx="645.1" cy="60.4" r="0.70" fill="#fff" opacity="0.09" class="star-bg" style="animation-duration:8.226s;animation-delay:3.748s"/>
<circle cx="534.8" cy="115.3" r="0.51" fill="#fff" opacity="0.26" class="star-bg" style="animation-duration:7.861s;animation-delay:0.684s"/>
<circle cx="492.9" cy="150.0" r="0.50" fill="#fff" opacity="0.11" class="star-bg" style="animation-duration:8.834s;animation-delay:3.692s"/>
<circle cx="367.6" cy="71.3" r="0.50" fill="#00d4ff" opacity="0.12" class="star-bg" style="animation-duration:6.674s;animation-delay:0.089s"/>
<circle cx="680.8" cy="159.6" r="0.44" fill="#fff" opacity="0.15" class="star-bg" style="animation-duration:7.376s;animation-delay:3.402s"/>
<circle cx="482.2" cy="146.9" r="0.57" fill="#a78bfa" opacity="0.17" class="star-bg" style="animation-duration:5.884s;animation-delay:1.328s"/>
<circle cx="44.8" cy="32.7" r="0.87" fill="#a78bfa" opacity="0.15" class="star-bg" style="animation-duration:6.413s;animation-delay:3.563s"/>
<circle cx="269.6" cy="49.2" r="0.59" fill="#00d4ff" opacity="0.19" class="star-bg" style="animation-duration:6.154s;animation-delay:1.431s"/>
<circle cx="762.2" cy="72.1" r="0.27" fill="#a78bfa" opacity="0.16" class="star-bg" style="animation-duration:8.565s;animation-delay:3.873s"/>
<circle cx="138.6" cy="38.8" r="0.50" fill="#fff" opacity="0.21" class="star-bg" style="animation-duration:8.549s;animation-delay:2.517s"/>
<circle cx="811.3" cy="85.0" r="0.45" fill="#a78bfa" opacity="0.16" class="star-bg" style="animation-duration:8.115s;animation-delay:5.832s"/>
<circle cx="539.2" cy="44.9" r="0.68" fill="#ffb020" opacity="0.15" class="star-bg" style="animation-duration:5.462s;animation-delay:3.192s"/>
<circle cx="802.7" cy="157.4" r="0.20" fill="#fff" opacity="0.16" class="star-bg" style="animation-duration:8.174s;animation-delay:0.126s"/>
<circle cx="375.6" cy="108.7" r="0.56" fill="#fff" opacity="0.30" class="star-bg" style="animation-duration:5.568s;animation-delay:0.706s"/>
<circle cx="255.3" cy="65.0" r="0.68" fill="#00d4ff" opacity="0.17" class="star-bg" style="animation-duration:6.017s;animation-delay:1.921s"/>
<circle cx="94.3" cy="131.0" r="0.89" fill="#00d4ff" opacity="0.18" class="star-bg" style="animation-duration:8.211s;animation-delay:6.319s"/>
<circle cx="495.7" cy="135.6" r="0.69" fill="#fff" opacity="0.10" class="star-bg" style="animation-duration:5.030s;animation-delay:3.475s"/>
<circle cx="219.4" cy="117.8" r="0.55" fill="#a78bfa" opacity="0.27" class="star-bg" style="animation-duration:7.168s;animation-delay:3.334s"/>
<circle cx="583.8" cy="88.3" r="0.23" fill="#fff" opacity="0.20" class="star-bg" style="animation-duration:6.325s;animation-delay:5.698s"/>
<circle cx="634.7" cy="89.3" r="0.63" fill="#ffb020" opacity="0.22" class="star-bg" style="animation-duration:8.920s;animation-delay:3.271s"/>
<circle cx="652.9" cy="67.8" r="0.43" fill="#00d4ff" opacity="0.20" class="star-bg" style="animation-duration:7.207s;animation-delay:3.734s"/>
<circle cx="14.6" cy="126.5" r="0.85" fill="#00d4ff" opacity="0.13" class="star-bg" style="animation-duration:6.068s;animation-delay:1.500s"/>
<circle cx="427.2" cy="31.7" r="0.53" fill="#ffb020" opacity="0.23" class="star-bg" style="animation-duration:6.315s;animation-delay:6.251s"/>
<circle cx="471.4" cy="148.1" r="0.54" fill="#fff" opacity="0.27" class="star-bg" style="animation-duration:8.657s;animation-delay:7.346s"/>
<circle cx="376.3" cy="123.4" r="0.26" fill="#fff" opacity="0.22" class="star-bg" style="animation-duration:8.281s;animation-delay:2.275s"/>
<circle cx="239.0" cy="123.9" r="0.33" fill="#a78bfa" opacity="0.27" class="star-bg" style="animation-duration:5.539s;animation-delay:3.474s"/>
<circle cx="687.1" cy="33.0" r="0.41" fill="#fff" opacity="0.07" class="star-bg" style="animation-duration:7.581s;animation-delay:2.772s"/>
<circle cx="789.5" cy="102.5" r="0.55" fill="#fff" opacity="0.16" class="star-bg" style="animation-duration:5.846s;animation-delay:0.851s"/>
<circle cx="71.1" cy="25.4" r="0.46" fill="#fff" opacity="0.23" class="star-bg" style="animation-duration:5.425s;animation-delay:3.646s"/>
<circle cx="82.3" cy="145.1" r="0.47" fill="#fff" opacity="0.08" class="star-bg" style="animation-duration:7.836s;animation-delay:2.412s"/>
<circle cx="303.9" cy="92.6" r="0.18" fill="#fff" opacity="0.12" class="star-bg" style="animation-duration:6.718s;animation-delay:6.136s"/>
<circle cx="234.1" cy="40.5" r="0.25" fill="#fff" opacity="0.10" class="star-bg" style="animation-duration:7.132s;animation-delay:5.193s"/>
<circle cx="324.0" cy="101.0" r="0.46" fill="#a78bfa" opacity="0.17" class="star-bg" style="animation-duration:8.810s;animation-delay:6.071s"/>
<circle cx="188.5" cy="141.9" r="0.88" fill="#00d4ff" opacity="0.09" class="star-bg" style="animation-duration:6.982s;animation-delay:4.764s"/>
<circle cx="697.0" cy="51.3" r="0.53" fill="#fff" opacity="0.30" class="star-bg" style="animation-duration:5.731s;animation-delay:5.371s"/>
<circle cx="633.6" cy="75.9" r="0.88" fill="#a78bfa" opacity="0.18" class="star-bg" style="animation-duration:7.904s;animation-delay:4.157s"/>
<circle cx="310.6" cy="162.9" r="0.37" fill="#ffb020" opacity="0.22" class="star-bg" style="animation-duration:8.673s;animation-delay:8.105s"/>
<circle cx="488.7" cy="128.6" r="0.77" fill="#ffb020" opacity="0.16" class="star-bg" style="animation-duration:7.596s;animation-delay:7.188s"/>
<circle cx="480.6" cy="148.9" r="1.16" fill="#a78bfa" opacity="0.36" class="star-mid" style="animation-duration:6.034s;animation-delay:2.111s"/>
<circle cx="174.9" cy="21.0" r="0.56" fill="#fff" opacity="0.45" class="star-mid" style="animation-duration:6.322s;animation-delay:1.036s"/>
<circle cx="645.3" cy="59.7" r="0.53" fill="#00d4ff" opacity="0.29" class="star-mid" style="animation-duration:5.240s;animation-delay:4.343s"/>
<circle cx="217.4" cy="126.6" r="0.51" fill="#fff" opacity="0.34" class="star-mid" style="animation-duration:6.848s;animation-delay:3.857s"/>
<circle cx="528.5" cy="99.9" r="1.07" fill="#fff" opacity="0.13" class="star-mid" style="animation-duration:5.937s;animation-delay:2.129s"/>
<circle cx="824.9" cy="19.9" r="1.05" fill="#fff" opacity="0.26" class="star-mid" style="animation-duration:5.448s;animation-delay:1.192s"/>
<circle cx="712.6" cy="167.6" r="1.20" fill="#a78bfa" opacity="0.39" class="star-mid" style="animation-duration:4.971s;animation-delay:0.015s"/>
<circle cx="490.4" cy="106.5" r="1.13" fill="#00d4ff" opacity="0.27" class="star-mid" style="animation-duration:5.846s;animation-delay:5.004s"/>
<circle cx="552.1" cy="150.0" r="0.70" fill="#fff" opacity="0.41" class="star-mid" style="animation-duration:4.949s;animation-delay:3.490s"/>
<circle cx="324.9" cy="151.0" r="0.70" fill="#a78bfa" opacity="0.26" class="star-mid" style="animation-duration:6.843s;animation-delay:3.181s"/>
<circle cx="298.3" cy="158.7" r="0.71" fill="#fff" opacity="0.21" class="star-mid" style="animation-duration:4.316s;animation-delay:2.094s"/>
<circle cx="747.6" cy="37.1" r="1.16" fill="#fff" opacity="0.19" class="star-mid" style="animation-duration:6.620s;animation-delay:2.887s"/>
<circle cx="480.8" cy="50.6" r="1.15" fill="#fff" opacity="0.41" class="star-mid" style="animation-duration:6.462s;animation-delay:1.730s"/>
<circle cx="716.2" cy="160.0" r="0.48" fill="#ffb020" opacity="0.20" class="star-mid" style="animation-duration:5.973s;animation-delay:2.407s"/>
<circle cx="58.7" cy="133.2" r="0.55" fill="#00d4ff" opacity="0.20" class="star-mid" style="animation-duration:5.564s;animation-delay:2.313s"/>
<circle cx="211.2" cy="23.8" r="0.55" fill="#a78bfa" opacity="0.15" class="star-mid" style="animation-duration:5.374s;animation-delay:0.959s"/>
<circle cx="396.9" cy="105.0" r="1.12" fill="#a78bfa" opacity="0.41" class="star-mid" style="animation-duration:3.558s;animation-delay:1.895s"/>
<circle cx="70.6" cy="66.3" r="0.99" fill="#00d4ff" opacity="0.18" class="star-mid" style="animation-duration:3.575s;animation-delay:0.064s"/>
<circle cx="618.8" cy="142.1" r="0.47" fill="#fff" opacity="0.37" class="star-mid" style="animation-duration:5.287s;animation-delay:2.652s"/>
<circle cx="340.8" cy="84.7" r="1.03" fill="#00d4ff" opacity="0.41" class="star-mid" style="animation-duration:5.947s;animation-delay:3.243s"/>
<circle cx="46.1" cy="122.9" r="0.55" fill="#fff" opacity="0.41" class="star-mid" style="animation-duration:6.330s;animation-delay:3.820s"/>
<circle cx="438.4" cy="118.4" r="1.14" fill="#fff" opacity="0.45" class="star-mid" style="animation-duration:4.217s;animation-delay:1.532s"/>
<circle cx="354.7" cy="21.6" r="1.00" fill="#fff" opacity="0.28" class="star-mid" style="animation-duration:5.216s;animation-delay:1.442s"/>
<circle cx="147.7" cy="47.8" r="0.67" fill="#fff" opacity="0.20" class="star-mid" style="animation-duration:5.706s;animation-delay:2.896s"/>
<circle cx="483.1" cy="78.4" r="0.72" fill="#00d4ff" opacity="0.21" class="star-mid" style="animation-duration:3.921s;animation-delay:3.215s"/>
<circle cx="746.7" cy="125.9" r="1.27" fill="#fff" opacity="0.53" class="star-fg" style="animation-duration:4.218s;animation-delay:3.275s"/>
<circle cx="499.1" cy="154.0" r="1.17" fill="#00d4ff" opacity="0.44" class="star-fg" style="animation-duration:4.383s;animation-delay:1.776s"/>
<circle cx="529.8" cy="28.6" r="1.31" fill="#fff" opacity="0.40" class="star-fg" style="animation-duration:3.884s;animation-delay:3.062s"/>
<circle cx="295.4" cy="159.8" r="0.73" fill="#a78bfa" opacity="0.36" class="star-fg" style="animation-duration:2.361s;animation-delay:1.421s"/>
<circle cx="534.5" cy="150.4" r="1.26" fill="#fff" opacity="0.51" class="star-fg" style="animation-duration:2.711s;animation-delay:0.848s"/>
<circle cx="504.7" cy="150.8" r="0.87" fill="#00d4ff" opacity="0.62" class="star-fg" style="animation-duration:3.852s;animation-delay:1.033s"/>
<circle cx="816.0" cy="40.4" r="1.18" fill="#fff" opacity="0.52" class="star-fg" style="animation-duration:3.407s;animation-delay:3.081s"/>
<circle cx="115.7" cy="34.9" r="0.95" fill="#fff" opacity="0.36" class="star-fg" style="animation-duration:3.411s;animation-delay:3.036s"/>
<circle cx="194.4" cy="56.2" r="0.82" fill="#fff" opacity="0.41" class="star-fg" style="animation-duration:3.792s;animation-delay:0.215s"/>
<circle cx="745.9" cy="112.1" r="1.14" fill="#00d4ff" opacity="0.52" class="star-fg" style="animation-duration:4.261s;animation-delay:3.599s"/>
<line x1="365" y1="22" x2="383" y2="27" stroke="url(#shoot-grad)" stroke-width="1.1" stroke-linecap="round" class="shooting-star" style="animation-delay:29.9s;--shoot-tx:94px;--shoot-ty:26px;animation-duration:4.47s"/>
<line x1="302" y1="37" x2="320" y2="42" stroke="url(#shoot-grad)" stroke-width="1.1" stroke-linecap="round" class="shooting-star" style="animation-delay:28.77s;--shoot-tx:100px;--shoot-ty:39px;animation-duration:4.29s"/>
<line x1="435" y1="60" x2="453" y2="65" stroke="url(#shoot-grad)" stroke-width="1.1" stroke-linecap="round" class="shooting-star" style="animation-delay:17.86s;--shoot-tx:114px;--shoot-ty:41px;animation-duration:5.19s"/>
<line x1="170.0" y1="55" x2="170.0" y2="155" stroke="#1a2332" stroke-width="1" opacity="0.5"/>
<line x1="340.0" y1="55" x2="340.0" y2="155" stroke="#1a2332" stroke-width="1" opacity="0.5"/>
<line x1="510.0" y1="55" x2="510.0" y2="155" stroke="#1a2332" stroke-width="1" opacity="0.5"/>
<line x1="680.0" y1="55" x2="680.0" y2="155" stroke="#1a2332" stroke-width="1" opacity="0.5"/>
<g class="metric-cell" transform="translate(85.0,95)"><g transform="translate(-8,-30)"><svg viewBox="0 0 16 16" width="16" height="16" fill="#00d4ff" class="metric-icon" style="animation-delay:0.0s"><path d="M8 1a7 7 0 1 0 0 14A7 7 0 0 0 8 1zm0 2.5a4.5 4.5 0 0 1 4.473 4H14.5a.5.5 0 0 1 0 1h-2.027A4.5 4.5 0 0 1 8 12.5a4.5 4.5 0 0 1-4.473-4H1.5a.5.5 0 0 1 0-1h2.027A4.5 4.5 0 0 1 8 3.5zm0 1.5a3 3 0 1 0 0 6 3 3 0 0 0 0-6z"/></svg></g><text x="0" y="2" text-anchor="middle" fill="#00d4ff" font-size="28" font-weight="bold" font-family="sans-serif" opacity="0.35" filter="url(#num-glow)">603</text><text x="0" y="2" text-anchor="middle" fill="#f1f5f9" font-size="28" font-weight="bold" font-family="sans-serif">603</text><text x="0" y="20" text-anchor="middle" fill="#64748b" font-size="11" font-family="monospace" letter-spacing="1">Commits</text></g>
<g class="metric-cell" transform="translate(255.0,95)"><g transform="translate(-8,-30)"><svg viewBox="0 0 16 16" width="16" height="16" fill="#ffb020" class="metric-icon" style="animation-delay:0.3s"><path d="M8 .25a.75.75 0 0 1 .673.418l1.882 3.815 4.21.612a.75.75 0 0 1 .416 1.279l-3.046 2.97.719 4.192a.75.75 0 0 1-1.088.791L8 12.347l-3.766 1.98a.75.75 0 0 1-1.088-.79l.72-4.194L.818 6.374a.75.75 0 0 1 .416-1.28l4.21-.611L7.327.668A.75.75 0 0 1 8 .25z"/></svg></g><text x="0" y="2" text-anchor="middle" fill="#ffb020" font-size="28" font-weight="bold" font-family="sans-serif" opacity="0.35" filter="url(#num-glow)">194</text><text x="0" y="2" text-anchor="middle" fill="#f1f5f9" font-size="28" font-weight="bold" font-family="sans-serif">194</text><text x="0" y="20" text-anchor="middle" fill="#64748b" font-size="11" font-family="monospace" letter-spacing="1">Stars</text></g>
<g class="metric-cell" transform="translate(425.0,95)"><g transform="translate(-8,-30)"><svg viewBox="0 0 16 16" width="16" height="16" fill="#a78bfa" class="metric-icon" style="animation-delay:0.6s"><path d="M5 3.254V3.25v.005a.75.75 0 1 1 0-.005zm6.5 8a.75.75 0 1 1 0 1.5.75.75 0 0 1 0-1.5zM5 12.75a.75.75 0 1 1 0 1.5.75.75 0 0 1 0-1.5zm-1.5.75a1.5 1.5 0 1 0 1.5 1.5v-8.5a1.5 1.5 0 1 0-1.5-1.5v8.5a1.5 1.5 0 0 0 0 0zm8.5-2.5a1.5 1.5 0 0 0-1.5 1.5 1.5 1.5 0 1 0 3 0v-3.133l.025-.05A3.252 3.252 0 0 0 11 5.25V3.5h1.25a.75.75 0 0 0 .53-1.28l-2-2a.75.75 0 0 0-1.06 0l-2 2A.75.75 0 0 0 8.25 3.5H9.5v1.75a1.75 1.75 0 0 0 1.75 1.75h.244a1.75 1.75 0 0 1 1.006.319V11a1.5 1.5 0 0 0-1.5-1.5z"/></svg></g><text x="0" y="2" text-anchor="middle" fill="#a78bfa" font-size="28" font-weight="bold" font-family="sans-serif" opacity="0.35" filter="url(#num-glow)">1</text><text x="0" y="2" text-anchor="middle" fill="#f1f5f9" font-size="28" font-weight="bold" font-family="sans-serif">1</text><text x="0" y="20" text-anchor="middle" fill="#64748b" font-size="11" font-family="monospace" letter-spacing="1">PRs</text></g>
<g class="metric-cell" transform="translate(595.0,95)"><g transform="translate(-8,-30)"><svg viewBox="0 0 16 16" width="16" height="16" fill="#00d4ff" class="metric-icon" style="animation-delay:0.8999999999999999s"><path d="M8 9.5a1.5 1.5 0 1 0 0-3 1.5 1.5 0 0 0 0 3z"/><path d="M8 0a8 8 0 1 1 0 16A8 8 0 0 1 8 0zm0 1.5a6.5 6.5 0 1 0 0 13 6.5 6.5 0 0 0 0-13z"/></svg></g><text x="0" y="2" text-anchor="middle" fill="#00d4ff" font-size="28" font-weight="bold" font-family="sans-serif" opacity="0.35" filter="url(#num-glow)">4</text><text x="0" y="2" text-anchor="middle" fill="#f1f5f9" font-size="28" font-weight="bold" font-family="sans-serif">4</text><text x="0" y="20" text-anchor="middle" fill="#64748b" font-size="11" font-family="monospace" letter-spacing="1">Issues</text></g>
<g class="metric-cell" transform="translate(765.0,95)"><g transform="translate(-8,-30)"><svg viewBox="0 0 16 16" width="16" height="16" fill="#a78bfa" class="metric-icon" style="animation-delay:1.2s"><path d="M2 2.5A2.5 2.5 0 0 1 4.5 0h8.75a.75.75 0 0 1 .75.75v12.5a.75.75 0 0 1-.75.75h-2.5a.75.75 0 0 1 0-1.5h1.75v-2h-8a1 1 0 0 0-.714 1.7.75.75 0 0 1-1.072 1.05A2.495 2.495 0 0 1 2 11.5zm10.5-1h-8a1 1 0 0 0-1 1v6.708A2.486 2.486 0 0 1 4.5 9h8zM5 12.25a.25.25 0 0 1 .25-.25h3.5a.25.25 0 0 1 .25.25v3.25a.25.25 0 0 1-.4.2l-1.45-1.087a.25.25 0 0 0-.3 0L5.4 15.7a.25.25 0 0 1-.4-.2z"/></svg></g><text x="0" y="2" text-anchor="middle" fill="#a78bfa" font-size="28" font-weight="bold" font-family="sans-serif" opacity="0.35" filter="url(#num-glow)">24</text><text x="0" y="2" text-anchor="middle" fill="#f1f5f9" font-size="28" font-weight="bold" font-family="sans-serif">24</text><text x="0" y="20" text-anchor="middle" fill="#64748b" font-size="11" font-family="monospace" letter-spacing="1">Repos</text></g>
</svg>