<svg xmlns="http://www.w3.org/2000/svg" width="850" height="180" viewBox="0 0 850 180"><defs><style>.metric-icon{animation:count-glow 4s ease-in-out infinite}@keyframes count-glow{0%,100%{fill-opacity:0.7}50%{fill-opacity:1}}.star-bg{animation:twinkle-slow 7s ease-in-out infinite}.star-mid{animation:twinkle-mid 5s ease-in-out infinite}.star-fg{animation:twinkle-fast 3s ease-in-out infinite}@keyframes twinkle-slow{0%,100%{opacity:0.07}50%{opacity:0.30}}@keyframes twinkle-mid{0%,100%{opacity:0.12}50%{opacity:0.45}}@keyframes twinkle-fast{0%,100%{opacity:0.25}50%{opacity:0.65}}.shooting-star{opacity:0;animation:shoot linear infinite}@keyframes shoot{0%{opacity:0;transform:translate(0,0)}5%{opacity:0.9}15%{opacity:0.6;transform:translate(var(--shoot-tx),var(--shoot-ty))}20%{opacity:0;transform:translate(var(--shoot-tx),var(--shoot-ty))}100%{opacity:0}}</style><filter id="xdf01081" x="-30%" y="-30%" width="160%" height="160%"><feGaussianBlur stdDeviation="3"/></filter><radialGradient id="xe7d3b8d" cx="50%" cy="50%" r="80%"><stop offset="0%" stop-color="#0f1623" stop-opacity="0.85"/><stop offset="100%" stop-color="#080c14" stop-opacity="0"/></radialGradient><linearGradient id="x743a279" x1="0" y1="0" x2="1" y2="0"><stop offset="0%" stop-color="#fff" stop-opacity="0.85"/><stop offset="100%" stop-color="#fff" stop-opacity="0"/></linearGradient></defs><rect x="0" y="0" width="850" height="180" rx="14" ry="14" fill="#080c14"/><rect x="0" y="0" width="850" height="180" rx="14" ry="14" fill="url(#xe7d3b8d)"/><circle cx="310.9" cy="144.5" r="0.70" fill="#a78bfa" opacity="0.15" class="star-bg" style="animation-duration:8.651s;animation-delay:8.648s"/><circle cx="695.2" cy="157.0" r="0.86" fill="#fff" opacity="0.15" class="star-bg" style="animation-duration:7.097s;animation-delay:4.966s"/><circle cx="451.5" cy="140.7" r="0.38" fill="#00d4ff" opacity="0.24" class="star-bg" style="animation-duration:6.004s;animation-delay:5.153s"/><circle cx="606.8" cy="28.9" r="0.57" fill="#fff" opacity="0.07" class="star-bg" style="animation-duration:6.017s;animation-delay:4.367s"/><circle cx="336.3" cy="27.4" r="0.89" fill="#fff" opacity="0.24" class="star-bg" style="animation-duration:7.056s;animation-delay:6.661s"/><circle cx="212.6" cy="101.2" r="0.38" fill="#fff" opacity="0.30" class="star-bg" style="animation-duration:6.341s;animation-delay:1.505s"/><circle cx="448.7" cy="99.5" r="0.86" fill="#fff" opacity="0.16" class="star-bg" style="animation-duration:5.613s;animation-delay:3.997s"/><circle cx="262.8" cy="18.3" r="0.22" fill="#a78bfa" opacity="0.14" class="star-bg" style="animation-duration:7.549s;animation-delay:1.782s"/><circle cx="493.7" cy="40.6" r="0.65" fill="#fff" opacity="0.14" class="star-bg" style="animation-duration:6.334s;animation-delay:4.366s"/><circle cx="164.2" cy="72.9" r="0.57" fill="#fff" opacity="0.11" class="star-bg" style="animation-duration:8.642s;animation-delay:5.319s"/><circle cx="336.9" cy="93.1" r="0.25" fill="#fff" opacity="0.14" class="star-bg" style="animation-duration:5.218s;animation-delay:0.889s"/><circle cx="434.9" cy="112.8" r="0.25" fill="#fff" opacity="0.24" class="star-bg" style="animation-duration:7.090s;animation-delay:2.580s"/><circle cx="396.7" cy="76.2" r="0.43" fill="#ffb020" opacity="0.20" class="star-bg" style="animation-duration:6.256s;animation-delay:3.562s"/><circle cx="438.9" cy="117.8" r="0.29" fill="#fff" opacity="0.20" class="star-bg" style="animation-duration:8.841s;animation-delay:3.404s"/><circle cx="428.0" cy="17.2" r="0.36" fill="#a78bfa" opacity="0.19" class="star-bg" style="animation-duration:6.431s;animation-delay:4.117s"/><circle cx="144.1" cy="125.1" r="0.73" fill="#fff" opacity="0.09" class="star-bg" style="animation-duration:5.623s;animation-delay:1.256s"/><circle cx="103.6" cy="132.8" r="0.71" fill="#fff" opacity="0.29" class="star-bg" style="animation-duration:8.472s;animation-delay:5.167s"/><circle cx="294.0" cy="44.8" r="0.44" fill="#a78bfa" opacity="0.18" class="star-bg" style="animation-duration:6.594s;animation-delay:0.444s"/><circle cx="36.3" cy="79.7" r="0.76" fill="#00d4ff" opacity="0.26" class="star-bg" style="animation-duration:8.670s;animation-delay:3.449s"/><circle cx="200.5" cy="143.9" r="0.79" fill="#fff" opacity="0.20" class="star-bg" style="animation-duration:6.965s;animation-delay:3.017s"/><circle cx="795.6" cy="129.3" r="0.64" fill="#a78bfa" opacity="0.16" class="star-bg" style="animation-duration:6.864s;animation-delay:2.941s"/><circle cx="461.9" cy="29.2" r="0.47" fill="#fff" opacity="0.22" class="star-bg" style="animation-duration:7.773s;animation-delay:1.143s"/><circle cx="88.7" cy="43.5" r="0.28" fill="#00d4ff" opacity="0.15" class="star-bg" style="animation-duration:7.927s;animation-delay:3.344s"/><circle cx="707.8" cy="167.7" r="0.77" fill="#a78bfa" opacity="0.10" class="star-bg" style="animation-duration:8.312s;animation-delay:6.632s"/><circle cx="575.9" cy="124.5" r="0.34" fill="#fff" opacity="0.23" class="star-bg" style="animation-duration:6.410s;animation-delay:5.138s"/><circle cx="147.9" cy="89.6" r="0.36" fill="#ffb020" opacity="0.29" class="star-bg" style="animation-duration:6.309s;animation-delay:3.641s"/><circle cx="192.0" cy="122.6" r="0.33" fill="#a78bfa" opacity="0.15" class="star-bg" style="animation-duration:8.817s;animation-delay:0.239s"/><circle cx="160.6" cy="108.1" r="0.29" fill="#a78bfa" opacity="0.30" class="star-bg" style="animation-duration:6.756s;animation-delay:6.494s"/><circle cx="788.3" cy="105.5" r="0.59" fill="#ffb020" opacity="0.27" class="star-bg" style="animation-duration:6.854s;animation-delay:2.769s"/><circle cx="45.1" cy="66.5" r="0.46" fill="#a78bfa" opacity="0.29" class="star-bg" style="animation-duration:8.473s;animation-delay:3.109s"/><circle cx="681.1" cy="107.5" r="0.88" fill="#fff" opacity="0.29" class="star-bg" style="animation-duration:7.460s;animation-delay:4.960s"/><circle cx="534.2" cy="27.4" r="0.18" fill="#00d4ff" opacity="0.11" class="star-bg" style="animation-duration:6.454s;animation-delay:4.648s"/><circle cx="54.0" cy="160.0" r="0.74" fill="#fff" opacity="0.27" class="star-bg" style="animation-duration:6.310s;animation-delay:0.376s"/><circle cx="797.3" cy="144.2" r="0.70" fill="#fff" opacity="0.29" class="star-bg" style="animation-duration:6.950s;animation-delay:1.958s"/><circle cx="80.9" cy="90.0" r="0.53" fill="#fff" opacity="0.13" class="star-bg" style="animation-duration:8.943s;animation-delay:8.430s"/><circle cx="378.0" cy="127.2" r="0.47" fill="#00d4ff" opacity="0.08" class="star-bg" style="animation-duration:8.870s;animation-delay:6.015s"/><circle cx="796.7" cy="26.6" r="0.54" fill="#ffb020" opacity="0.22" class="star-bg" style="animation-duration:8.845s;animation-delay:3.653s"/><circle cx="631.3" cy="12.9" r="0.39" fill="#fff" opacity="0.28" class="star-bg" style="animation-duration:8.494s;animation-delay:4.525s"/><circle cx="492.3" cy="111.5" r="0.87" fill="#fff" opacity="0.24" class="star-bg" style="animation-duration:5.076s;animation-delay:0.372s"/><circle cx="834.2" cy="42.9" r="0.82" fill="#fff" opacity="0.16" class="star-bg" style="animation-duration:8.249s;animation-delay:5.000s"/><circle cx="769.9" cy="34.1" r="0.50" fill="#00d4ff" opacity="0.24" class="star-mid" style="animation-duration:6.019s;animation-delay:3.673s"/><circle cx="556.1" cy="11.0" r="0.71" fill="#fff" opacity="0.34" class="star-mid" style="animation-duration:6.229s;animation-delay:4.579s"/><circle cx="727.6" cy="139.3" r="0.93" fill="#fff" opacity="0.13" class="star-mid" style="animation-duration:6.713s;animation-delay:1.501s"/><circle cx="150.3" cy="70.4" r="0.96" fill="#a78bfa" opacity="0.22" class="star-mid" style="animation-duration:6.526s;animation-delay:2.702s"/><circle cx="357.1" cy="14.6" r="1.10" fill="#ffb020" opacity="0.13" class="star-mid" style="animation-duration:4.966s;animation-delay:3.698s"/><circle cx="495.5" cy="118.0" r="1.07" fill="#ffb020" opacity="0.20" class="star-mid" style="animation-duration:5.017s;animation-delay:4.095s"/><circle cx="425.6" cy="112.3" r="0.67" fill="#fff" opacity="0.39" class="star-mid" style="animation-duration:6.018s;animation-delay:5.840s"/><circle cx="799.1" cy="97.0" r="1.10" fill="#fff" opacity="0.30" class="star-mid" style="animation-duration:4.391s;animation-delay:3.326s"/><circle cx="205.5" cy="119.2" r="0.53" fill="#fff" opacity="0.44" class="star-mid" style="animation-duration:6.371s;animation-delay:1.775s"/><circle cx="777.3" cy="146.7" r="0.99" fill="#fff" opacity="0.39" class="star-mid" style="animation-duration:3.917s;animation-delay:0.126s"/><circle cx="708.6" cy="142.0" r="0.73" fill="#a78bfa" opacity="0.25" class="star-mid" style="animation-duration:3.685s;animation-delay:0.006s"/><circle cx="816.8" cy="87.3" r="0.93" fill="#ffb020" opacity="0.31" class="star-mid" style="animation-duration:6.826s;animation-delay:2.592s"/><circle cx="809.2" cy="26.1" r="0.91" fill="#a78bfa" opacity="0.21" class="star-mid" style="animation-duration:6.237s;animation-delay:3.697s"/><circle cx="10.1" cy="45.6" r="0.47" fill="#00d4ff" opacity="0.28" class="star-mid" style="animation-duration:6.346s;animation-delay:5.214s"/><circle cx="519.9" cy="151.6" r="0.55" fill="#a78bfa" opacity="0.24" class="star-mid" style="animation-duration:4.254s;animation-delay:2.127s"/><circle cx="27.0" cy="109.9" r="0.59" fill="#00d4ff" opacity="0.44" class="star-mid" style="animation-duration:6.127s;animation-delay:4.884s"/><circle cx="340.1" cy="92.4" r="0.81" fill="#fff" opacity="0.35" class="star-mid" style="animation-duration:5.952s;animation-delay:5.435s"/><circle cx="830.2" cy="113.1" r="0.66" fill="#00d4ff" opacity="0.45" class="star-mid" style="animation-duration:4.247s;animation-delay:0.603s"/><circle cx="469.8" cy="34.6" r="1.05" fill="#fff" opacity="0.37" class="star-mid" style="animation-duration:4.546s;animation-delay:3.427s"/><circle cx="192.4" cy="98.4" r="0.54" fill="#fff" opacity="0.36" class="star-mid" style="animation-duration:4.973s;animation-delay:1.824s"/><circle cx="56.1" cy="142.5" r="0.98" fill="#fff" opacity="0.17" class="star-mid" style="animation-duration:4.809s;animation-delay:1.513s"/><circle cx="601.0" cy="125.7" r="0.63" fill="#fff" opacity="0.40" class="star-mid" style="animation-duration:6.927s;animation-delay:6.186s"/><circle cx="837.1" cy="153.6" r="0.68" fill="#fff" opacity="0.37" class="star-mid" style="animation-duration:4.090s;animation-delay:2.522s"/><circle cx="312.7" cy="143.0" r="0.98" fill="#fff" opacity="0.36" class="star-mid" style="animation-duration:6.594s;animation-delay:0.505s"/><circle cx="629.0" cy="127.6" r="0.59" fill="#fff" opacity="0.45" class="star-mid" style="animation-duration:3.759s;animation-delay:2.156s"/><circle cx="765.8" cy="110.5" r="1.06" fill="#a78bfa" opacity="0.61" class="star-fg" style="animation-duration:2.748s;animation-delay:1.457s"/><circle cx="67.4" cy="109.6" r="0.77" fill="#fff" opacity="0.34" class="star-fg" style="animation-duration:3.096s;animation-delay:2.037s"/><circle cx="96.6" cy="84.6" r="1.19" fill="#fff" opacity="0.52" class="star-fg" style="animation-duration:2.896s;animation-delay:1.586s"/><circle cx="440.4" cy="24.5" r="0.92" fill="#fff" opacity="0.35" class="star-fg" style="animation-duration:3.059s;animation-delay:2.526s"/><circle cx="781.8" cy="46.9" r="1.08" fill="#ffb020" opacity="0.42" class="star-fg" style="animation-duration:3.810s;animation-delay:2.631s"/><circle cx="287.3" cy="30.7" r="1.03" fill="#a78bfa" opacity="0.37" class="star-fg" style="animation-duration:4.112s;animation-delay:0.542s"/><circle cx="478.9" cy="128.2" r="1.26" fill="#ffb020" opacity="0.40" class="star-fg" style="animation-duration:2.983s;animation-delay:0.020s"/><circle cx="674.4" cy="167.9" r="1.09" fill="#fff" opacity="0.60" class="star-fg" style="animation-duration:2.076s;animation-delay:1.561s"/><circle cx="546.3" cy="17.4" r="1.21" fill="#a78bfa" opacity="0.48" class="star-fg" style="animation-duration:3.448s;animation-delay:1.109s"/><circle cx="267.9" cy="125.8" r="1.08" fill="#ffb020" opacity="0.37" class="star-fg" style="animation-duration:2.576s;animation-delay:0.967s"/><line x1="371" y1="70" x2="389" y2="75" stroke="url(#x743a279)" stroke-width="1.1" stroke-linecap="round" class="shooting-star" style="animation-delay:35.01s;--shoot-tx:98px;--shoot-ty:36px;animation-duration:2.47s"/><line x1="563" y1="34" x2="581" y2="39" stroke="url(#x743a279)" stroke-width="1.1" stroke-linecap="round" class="shooting-star" style="animation-delay:28.43s;--shoot-tx:119px;--shoot-ty:42px;animation-duration:2.41s"/><line x1="596" y1="66" x2="614" y2="71" stroke="url(#x743a279)" stroke-width="1.1" stroke-linecap="round" class="shooting-star" style="animation-delay:28.51s;--shoot-tx:98px;--shoot-ty:55px;animation-duration:2.63s"/><line x1="170.0" y1="55" x2="170.0" y2="155" stroke="#1a2332" stroke-width="1" opacity="0.5"/><line x1="340.0" y1="55" x2="340.0" y2="155" stroke="#1a2332" stroke-width="1" opacity="0.5"/><line x1="510.0" y1="55" x2="510.0" y2="155" stroke="#1a2332" stroke-width="1" opacity="0.5"/><line x1="680.0" y1="55" x2="680.0" y2="155" stroke="#1a2332" stroke-width="1" opacity="0.5"/><g class="metric-cell" transform="translate(85.0,95)"><g transform="translate(-8,-30)"><svg viewBox="0 0 16 16" width="16" height="16" fill="#00d4ff" class="metric-icon" style="animation-delay:0.0s"><path d="M8 1a7 7 0 1 0 0 14A7 7 0 0 0 8 1zm0 2.5a4.5 4.5 0 0 1 4.473 4H14.5a.5.5 0 0 1 0 1h-2.027A4.5 4.5 0 0 1 8 12.5a4.5 4.5 0 0 1-4.473-4H1.5a.5.5 0 0 1 0-1h2.027A4.5 4.5 0 0 1 8 3.5zm0 1.5a3 3 0 1 0 0 6 3 3 0 0 0 0-6z"/></svg></g><text x="0" y="2" text-anchor="middle" fill="#00d4ff" font-size="28" font-weight="bold" font-family="sans-serif" opacity="0.35" filter="url(#xdf01081)">622</text><text x="0" y="2" text-anchor="middle" fill="#f1f5f9" font-size="28" font-weight="bold" font-family="sans-serif">622</text><text x="0" y="20" text-anchor="middle" fill="#64748b" font-size="11" font-family="monospace" letter-spacing="1">Commits</text></g><g class="metric-cell" transform="translate(255.0,95)"><g transform="translate(-8,-30)"><svg viewBox="0 0 16 16" width="16" height="16" fill="#ffb020" class="metric-icon" style="animation-delay:0.3s"><path d="M8 .25a.75.75 0 0 1 .673.418l1.882 3.815 4.21.612a.75.75 0 0 1 .416 1.279l-3.046 2.97.719 4.192a.75.75 0 0 1-1.088.791L8 12.347l-3.766 1.98a.75.75 0 0 1-1.088-.79l.72-4.194L.818 6.374a.75.75 0 0 1 .416-1.28l4.21-.611L7.327.668A.75.75 0 0 1 8 .25z"/></svg></g><text x="0" y="2" text-anchor="middle" fill="#ffb020" font-size="28" font-weight="bold" font-family="sans-serif" opacity="0.35" filter="url(#xdf01081)">197</text><text x="0" y="2" text-anchor="middle" fill="#f1f5f9" font-size="28" font-weight="bold" font-family="sans-serif">197</text><text x="0" y="20" text-anchor="middle" fill="#64748b" font-size="11" font-family="monospace" letter-spacing="1">Stars</text></g><g class="metric-cell" transform="translate(425.0,95)"><g transform="translate(-8,-30)"><svg viewBox="0 0 16 16" width="16" height="16" fill="#a78bfa" class="metric-icon" style="animation-delay:0.6s"><path d="M5 3.254V3.25v.005a.75.75 0 1 1 0-.005zm6.5 8a.75.75 0 1 1 0 1.5.75.75 0 0 1 0-1.5zM5 12.75a.75.75 0 1 1 0 1.5.75.75 0 0 1 0-1.5zm-1.5.75a1.5 1.5 0 1 0 1.5 1.5v-8.5a1.5 1.5 0 1 0-1.5-1.5v8.5a1.5 1.5 0 0 0 0 0zm8.5-2.5a1.5 1.5 0 0 0-1.5 1.5 1.5 1.5 0 1 0 3 0v-3.133l.025-.05A3.252 3.252 0 0 0 11 5.25V3.5h1.25a.75.75 0 0 0 .53-1.28l-2-2a.75.75 0 0 0-1.06 0l-2 2A.75.75 0 0 0 8.25 3.5H9.5v1.75a1.75 1.75 0 0 0 1.75 1.75h.244a1.75 1.75 0 0 1 1.006.319V11a1.5 1.5 0 0 0-1.5-1.5z"/></svg></g><text x="0" y="2" text-anchor="middle" fill="#a78bfa" font-size="28" font-weight="bold" font-family="sans-serif" opacity="0.35" filter="url(#xdf01081)">1</text><text x="0" y="2" text-anchor="middle" fill="#f1f5f9" font-size="28" font-weight="bold" font-family="sans-serif">1</text><text x="0" y="20" text-anchor="middle" fill="#64748b" font-size="11" font-family="monospace" letter-spacing="1">PRs</text></g><g class="metric-cell" transform="translate(595.0,95)"><g transform="translate(-8,-30)"><svg viewBox="0 0 16 16" width="16" height="16" fill="#00d4ff" class="metric-icon" style="animation-delay:0.8999999999999999s"><path d="M8 9.5a1.5 1.5 0 1 0 0-3 1.5 1.5 0 0 0 0 3z"/><path d="M8 0a8 8 0 1 1 0 16A8 8 0 0 1 8 0zm0 1.5a6.5 6.5 0 1 0 0 13 6.5 6.5 0 0 0 0-13z"/></svg></g><text x="0" y="2" text-anchor="middle" fill="#00d4ff" font-size="28" font-weight="bold" font-family="sans-serif" opacity="0.35" filter="url(#xdf01081)">5</text><text x="0" y="2" text-anchor="middle" fill="#f1f5f9" font-size="28" font-weight="bold" font-family="sans-serif">5</text><text x="0" y="20" text-anchor="middle" fill="#64748b" font-size="11" font-family="monospace" letter-spacing="1">Issues</text></g><g class="metric-cell" transform="translate(765.0,95)"><g transform="translate(-8,-30)"><svg viewBox="0 0 16 16" width="16" height="16" fill="#a78bfa" class="metric-icon" style="animation-delay:1.2s"><path d="M2 2.5A2.5 2.5 0 0 1 4.5 0h8.75a.75.75 0 0 1 .75.75v12.5a.75.75 0 0 1-.75.75h-2.5a.75.75 0 0 1 0-1.5h1.75v-2h-8a1 1 0 0 0-.714 1.7.75.75 0 0 1-1.072 1.05A2.495 2.495 0 0 1 2 11.5zm10.5-1h-8a1 1 0 0 0-1 1v6.708A2.486 2.486 0 0 1 4.5 9h8zM5 12.25a.25.25 0 0 1 .25-.25h3.5a.25.25 0 0 1 .25.25v3.25a.25.25 0 0 1-.4.2l-1.45-1.087a.25.25 0 0 0-.3 0L5.4 15.7a.25.25 0 0 1-.4-.2z"/></svg></g><text x="0" y="2" text-anchor="middle" fill="#a78bfa" font-size="28" font-weight="bold" font-family="sans-serif" opacity="0.35" filter="url(#xdf01081)">25</text><text x="0" y="2" text-anchor="middle" fill="#f1f5f9" font-size="28" font-weight="bold" font-family="sans-serif">25</text><text x="0" y="20" text-anchor="middle" fill="#64748b" font-size="11" font-family="monospace" letter-spacing="1">Repos</text></g></svg>