<svg xmlns="http://www.w3.org/2000/svg" width="850" height="180" viewBox="0 0 850 180"><defs><style>.metric-icon{animation:count-glow 4s ease-in-out infinite}@keyframes count-glow{0%,100%{fill-opacity:0.7}50%{fill-opacity:1}}.star-bg{animation:twinkle-slow 7s ease-in-out infinite}.star-mid{animation:twinkle-mid 5s ease-in-out infinite}.star-fg{animation:twinkle-fast 3s ease-in-out infinite}@keyframes twinkle-slow{0%,100%{opacity:0.07}50%{opacity:0.30}}@keyframes twinkle-mid{0%,100%{opacity:0.12}50%{opacity:0.45}}@keyframes twinkle-fast{0%,100%{opacity:0.25}50%{opacity:0.65}}.shooting-star{opacity:0;animation:shoot linear infinite}@keyframes shoot{0%{opacity:0;transform:translate(0,0)}5%{opacity:0.9}15%{opacity:0.6;transform:translate(var(--shoot-tx),var(--shoot-ty))}20%{opacity:0;transform:translate(var(--shoot-tx),var(--shoot-ty))}100%{opacity:0}}</style><filter id="xdf01081" x="-30%" y="-30%" width="160%" height="160%"><feGaussianBlur stdDeviation="3"/></filter><radialGradient id="xe7d3b8d" cx="50%" cy="50%" r="80%"><stop offset="0%" stop-color="#0f1623" stop-opacity="0.85"/><stop offset="100%" stop-color="#080c14" stop-opacity="0"/></radialGradient><linearGradient id="x743a279" x1="0" y1="0" x2="1" y2="0"><stop offset="0%" stop-color="#fff" stop-opacity="0.85"/><stop offset="100%" stop-color="#fff" stop-opacity="0"/></linearGradient></defs><rect x="0" y="0" width="850" height="180" rx="14" ry="14" fill="#080c14"/><rect x="0" y="0" width="850" height="180" rx="14" ry="14" fill="url(#xe7d3b8d)"/><circle cx="490.7" cy="39.1" r="0.59" fill="#fff" opacity="0.09" class="star-bg" style="animation-duration:6.899s;animation-delay:2.912s"/><circle cx="588.6" cy="92.8" r="0.46" fill="#00d4ff" opacity="0.08" class="star-bg" style="animation-duration:6.786s;animation-delay:0.494s"/><circle cx="600.4" cy="62.7" r="0.60" fill="#a78bfa" opacity="0.25" class="star-bg" style="animation-duration:6.333s;animation-delay:4.483s"/><circle cx="676.1" cy="151.7" r="0.46" fill="#00d4ff" opacity="0.12" class="star-bg" style="animation-duration:6.897s;animation-delay:2.132s"/><circle cx="259.0" cy="14.5" r="0.51" fill="#a78bfa" opacity="0.10" class="star-bg" style="animation-duration:8.334s;animation-delay:6.132s"/><circle cx="278.7" cy="124.3" r="0.56" fill="#00d4ff" opacity="0.14" class="star-bg" style="animation-duration:8.046s;animation-delay:1.395s"/><circle cx="804.6" cy="40.2" r="0.76" fill="#ffb020" opacity="0.12" class="star-bg" style="animation-duration:5.036s;animation-delay:3.860s"/><circle cx="308.0" cy="135.0" r="0.21" fill="#a78bfa" opacity="0.13" class="star-bg" style="animation-duration:6.222s;animation-delay:3.183s"/><circle cx="778.2" cy="108.0" r="0.54" fill="#a78bfa" opacity="0.10" class="star-bg" style="animation-duration:5.615s;animation-delay:4.660s"/><circle cx="183.9" cy="98.3" r="0.21" fill="#fff" opacity="0.08" class="star-bg" style="animation-duration:6.837s;animation-delay:6.059s"/><circle cx="118.3" cy="117.5" r="0.60" fill="#a78bfa" opacity="0.07" class="star-bg" style="animation-duration:8.829s;animation-delay:0.167s"/><circle cx="362.1" cy="150.1" r="0.90" fill="#fff" opacity="0.25" class="star-bg" style="animation-duration:7.767s;animation-delay:6.789s"/><circle cx="769.3" cy="160.9" r="0.64" fill="#ffb020" opacity="0.30" class="star-bg" style="animation-duration:6.071s;animation-delay:0.320s"/><circle cx="529.1" cy="23.9" r="0.57" fill="#fff" opacity="0.12" class="star-bg" style="animation-duration:7.551s;animation-delay:3.881s"/><circle cx="325.2" cy="149.9" r="0.38" fill="#00d4ff" opacity="0.25" class="star-bg" style="animation-duration:8.290s;animation-delay:3.506s"/><circle cx="534.5" cy="46.1" r="0.31" fill="#a78bfa" opacity="0.16" class="star-bg" style="animation-duration:8.121s;animation-delay:3.908s"/><circle cx="503.0" cy="28.5" r="0.55" fill="#fff" opacity="0.23" class="star-bg" style="animation-duration:5.804s;animation-delay:0.378s"/><circle cx="518.0" cy="102.6" r="0.32" fill="#fff" opacity="0.28" class="star-bg" style="animation-duration:8.385s;animation-delay:6.717s"/><circle cx="28.8" cy="152.0" r="0.47" fill="#fff" opacity="0.30" class="star-bg" style="animation-duration:7.395s;animation-delay:4.478s"/><circle cx="786.2" cy="29.4" r="0.52" fill="#fff" opacity="0.24" class="star-bg" style="animation-duration:7.500s;animation-delay:5.785s"/><circle cx="751.7" cy="81.7" r="0.49" fill="#00d4ff" opacity="0.14" class="star-bg" style="animation-duration:6.447s;animation-delay:5.030s"/><circle cx="584.2" cy="150.7" r="0.89" fill="#fff" opacity="0.14" class="star-bg" style="animation-duration:7.050s;animation-delay:7.035s"/><circle cx="600.3" cy="85.0" r="0.51" fill="#fff" opacity="0.16" class="star-bg" style="animation-duration:6.340s;animation-delay:1.640s"/><circle cx="504.7" cy="41.9" r="0.60" fill="#00d4ff" opacity="0.07" class="star-bg" style="animation-duration:5.661s;animation-delay:1.625s"/><circle cx="303.8" cy="147.5" r="0.85" fill="#fff" opacity="0.22" class="star-bg" style="animation-duration:6.372s;animation-delay:4.128s"/><circle cx="107.6" cy="117.6" r="0.21" fill="#ffb020" opacity="0.25" class="star-bg" style="animation-duration:5.887s;animation-delay:3.570s"/><circle cx="575.7" cy="124.1" r="0.24" fill="#ffb020" opacity="0.19" class="star-bg" style="animation-duration:7.521s;animation-delay:5.872s"/><circle cx="811.0" cy="81.9" r="0.49" fill="#fff" opacity="0.25" class="star-bg" style="animation-duration:8.675s;animation-delay:3.758s"/><circle cx="39.7" cy="32.9" r="0.71" fill="#fff" opacity="0.15" class="star-bg" style="animation-duration:8.360s;animation-delay:3.362s"/><circle cx="229.0" cy="143.0" r="0.62" fill="#ffb020" opacity="0.27" class="star-bg" style="animation-duration:6.239s;animation-delay:5.929s"/><circle cx="650.2" cy="91.1" r="0.73" fill="#00d4ff" opacity="0.13" class="star-bg" style="animation-duration:8.254s;animation-delay:4.633s"/><circle cx="691.9" cy="87.7" r="0.72" fill="#ffb020" opacity="0.27" class="star-bg" style="animation-duration:7.708s;animation-delay:5.779s"/><circle cx="234.3" cy="53.0" r="0.72" fill="#fff" opacity="0.29" class="star-bg" style="animation-duration:7.239s;animation-delay:1.222s"/><circle cx="76.5" cy="80.9" r="0.55" fill="#fff" opacity="0.25" class="star-bg" style="animation-duration:5.671s;animation-delay:3.775s"/><circle cx="533.0" cy="43.3" r="0.89" fill="#fff" opacity="0.13" class="star-bg" style="animation-duration:6.939s;animation-delay:1.668s"/><circle cx="389.9" cy="125.3" r="0.26" fill="#fff" opacity="0.10" class="star-bg" style="animation-duration:8.167s;animation-delay:1.280s"/><circle cx="565.4" cy="142.1" r="0.37" fill="#fff" opacity="0.17" class="star-bg" style="animation-duration:5.724s;animation-delay:3.355s"/><circle cx="89.1" cy="72.2" r="0.53" fill="#fff" opacity="0.16" class="star-bg" style="animation-duration:7.721s;animation-delay:2.121s"/><circle cx="809.4" cy="59.8" r="0.82" fill="#00d4ff" opacity="0.27" class="star-bg" style="animation-duration:6.102s;animation-delay:3.265s"/><circle cx="532.4" cy="65.2" r="0.20" fill="#fff" opacity="0.21" class="star-bg" style="animation-duration:5.511s;animation-delay:3.269s"/><circle cx="639.3" cy="43.2" r="1.03" fill="#fff" opacity="0.33" class="star-mid" style="animation-duration:6.167s;animation-delay:1.476s"/><circle cx="471.3" cy="138.6" r="0.51" fill="#a78bfa" opacity="0.26" class="star-mid" style="animation-duration:6.616s;animation-delay:5.377s"/><circle cx="477.7" cy="100.2" r="0.66" fill="#a78bfa" opacity="0.42" class="star-mid" style="animation-duration:5.761s;animation-delay:4.285s"/><circle cx="618.3" cy="29.2" r="0.86" fill="#fff" opacity="0.24" class="star-mid" style="animation-duration:3.835s;animation-delay:3.042s"/><circle cx="516.7" cy="92.0" r="0.59" fill="#fff" opacity="0.23" class="star-mid" style="animation-duration:4.198s;animation-delay:3.415s"/><circle cx="117.6" cy="145.4" r="0.42" fill="#fff" opacity="0.41" class="star-mid" style="animation-duration:4.176s;animation-delay:0.604s"/><circle cx="117.2" cy="67.5" r="0.92" fill="#a78bfa" opacity="0.19" class="star-mid" style="animation-duration:3.780s;animation-delay:3.673s"/><circle cx="585.0" cy="37.4" r="1.00" fill="#fff" opacity="0.16" class="star-mid" style="animation-duration:4.080s;animation-delay:2.876s"/><circle cx="352.2" cy="140.2" r="0.94" fill="#00d4ff" opacity="0.35" class="star-mid" style="animation-duration:5.181s;animation-delay:4.885s"/><circle cx="832.7" cy="28.9" r="0.54" fill="#00d4ff" opacity="0.31" class="star-mid" style="animation-duration:4.679s;animation-delay:4.123s"/><circle cx="332.9" cy="94.5" r="0.51" fill="#fff" opacity="0.33" class="star-mid" style="animation-duration:3.513s;animation-delay:2.785s"/><circle cx="739.1" cy="74.4" r="0.93" fill="#fff" opacity="0.15" class="star-mid" style="animation-duration:5.672s;animation-delay:4.742s"/><circle cx="449.2" cy="78.9" r="1.01" fill="#ffb020" opacity="0.24" class="star-mid" style="animation-duration:4.829s;animation-delay:4.177s"/><circle cx="760.0" cy="112.0" r="0.56" fill="#00d4ff" opacity="0.23" class="star-mid" style="animation-duration:4.940s;animation-delay:4.438s"/><circle cx="606.5" cy="122.9" r="0.41" fill="#a78bfa" opacity="0.29" class="star-mid" style="animation-duration:3.561s;animation-delay:2.224s"/><circle cx="92.2" cy="121.4" r="0.45" fill="#a78bfa" opacity="0.15" class="star-mid" style="animation-duration:6.109s;animation-delay:5.565s"/><circle cx="77.3" cy="55.5" r="1.17" fill="#fff" opacity="0.25" class="star-mid" style="animation-duration:5.347s;animation-delay:4.764s"/><circle cx="753.7" cy="81.2" r="0.67" fill="#a78bfa" opacity="0.43" class="star-mid" style="animation-duration:6.243s;animation-delay:5.011s"/><circle cx="95.6" cy="56.4" r="0.78" fill="#ffb020" opacity="0.16" class="star-mid" style="animation-duration:6.095s;animation-delay:2.692s"/><circle cx="553.7" cy="168.5" r="1.16" fill="#00d4ff" opacity="0.34" class="star-mid" style="animation-duration:5.525s;animation-delay:2.722s"/><circle cx="827.6" cy="18.0" r="0.57" fill="#ffb020" opacity="0.25" class="star-mid" style="animation-duration:6.455s;animation-delay:4.078s"/><circle cx="266.9" cy="110.8" r="0.77" fill="#fff" opacity="0.16" class="star-mid" style="animation-duration:5.891s;animation-delay:3.445s"/><circle cx="469.6" cy="148.5" r="1.19" fill="#fff" opacity="0.39" class="star-mid" style="animation-duration:6.592s;animation-delay:1.221s"/><circle cx="184.5" cy="14.6" r="0.89" fill="#fff" opacity="0.36" class="star-mid" style="animation-duration:4.332s;animation-delay:4.325s"/><circle cx="199.1" cy="98.1" r="0.69" fill="#fff" opacity="0.14" class="star-mid" style="animation-duration:6.833s;animation-delay:5.176s"/><circle cx="669.9" cy="38.9" r="0.95" fill="#ffb020" opacity="0.63" class="star-fg" style="animation-duration:3.242s;animation-delay:1.630s"/><circle cx="358.3" cy="150.5" r="0.75" fill="#ffb020" opacity="0.32" class="star-fg" style="animation-duration:3.413s;animation-delay:1.110s"/><circle cx="288.7" cy="159.8" r="0.76" fill="#ffb020" opacity="0.39" class="star-fg" style="animation-duration:3.401s;animation-delay:1.821s"/><circle cx="264.7" cy="26.9" r="1.30" fill="#fff" opacity="0.47" class="star-fg" style="animation-duration:2.721s;animation-delay:0.244s"/><circle cx="478.2" cy="146.5" r="0.71" fill="#a78bfa" opacity="0.56" class="star-fg" style="animation-duration:3.253s;animation-delay:1.638s"/><circle cx="21.9" cy="125.3" r="1.08" fill="#fff" opacity="0.36" class="star-fg" style="animation-duration:3.631s;animation-delay:1.555s"/><circle cx="60.6" cy="29.4" r="0.71" fill="#fff" opacity="0.48" class="star-fg" style="animation-duration:3.090s;animation-delay:2.197s"/><circle cx="38.9" cy="93.5" r="1.29" fill="#00d4ff" opacity="0.60" class="star-fg" style="animation-duration:3.557s;animation-delay:0.638s"/><circle cx="675.3" cy="165.0" r="0.71" fill="#a78bfa" opacity="0.53" class="star-fg" style="animation-duration:3.410s;animation-delay:0.866s"/><circle cx="305.5" cy="123.0" r="0.83" fill="#fff" opacity="0.51" class="star-fg" style="animation-duration:2.962s;animation-delay:2.284s"/><line x1="315" y1="14" x2="333" y2="19" stroke="url(#x743a279)" stroke-width="1.1" stroke-linecap="round" class="shooting-star" style="animation-delay:31.39s;--shoot-tx:81px;--shoot-ty:43px;animation-duration:2.26s"/><line x1="150" y1="82" x2="168" y2="87" stroke="url(#x743a279)" stroke-width="1.1" stroke-linecap="round" class="shooting-star" style="animation-delay:34.45s;--shoot-tx:118px;--shoot-ty:29px;animation-duration:2.41s"/><line x1="456" y1="88" x2="474" y2="93" stroke="url(#x743a279)" stroke-width="1.1" stroke-linecap="round" class="shooting-star" style="animation-delay:45.37s;--shoot-tx:118px;--shoot-ty:44px;animation-duration:2.19s"/><line x1="170.0" y1="55" x2="170.0" y2="155" stroke="#1a2332" stroke-width="1" opacity="0.5"/><line x1="340.0" y1="55" x2="340.0" y2="155" stroke="#1a2332" stroke-width="1" opacity="0.5"/><line x1="510.0" y1="55" x2="510.0" y2="155" stroke="#1a2332" stroke-width="1" opacity="0.5"/><line x1="680.0" y1="55" x2="680.0" y2="155" stroke="#1a2332" stroke-width="1" opacity="0.5"/><g class="metric-cell" transform="translate(85.0,95)"><g transform="translate(-8,-30)"><svg viewBox="0 0 16 16" width="16" height="16" fill="#00d4ff" class="metric-icon" style="animation-delay:0.0s"><path d="M8 1a7 7 0 1 0 0 14A7 7 0 0 0 8 1zm0 2.5a4.5 4.5 0 0 1 4.473 4H14.5a.5.5 0 0 1 0 1h-2.027A4.5 4.5 0 0 1 8 12.5a4.5 4.5 0 0 1-4.473-4H1.5a.5.5 0 0 1 0-1h2.027A4.5 4.5 0 0 1 8 3.5zm0 1.5a3 3 0 1 0 0 6 3 3 0 0 0 0-6z"/></svg></g><text x="0" y="2" text-anchor="middle" fill="#00d4ff" font-size="28" font-weight="bold" font-family="sans-serif" opacity="0.35" filter="url(#xdf01081)">609</text><text x="0" y="2" text-anchor="middle" fill="#f1f5f9" font-size="28" font-weight="bold" font-family="sans-serif">609</text><text x="0" y="20" text-anchor="middle" fill="#64748b" font-size="11" font-family="monospace" letter-spacing="1">Commits</text></g><g class="metric-cell" transform="translate(255.0,95)"><g transform="translate(-8,-30)"><svg viewBox="0 0 16 16" width="16" height="16" fill="#ffb020" class="metric-icon" style="animation-delay:0.3s"><path d="M8 .25a.75.75 0 0 1 .673.418l1.882 3.815 4.21.612a.75.75 0 0 1 .416 1.279l-3.046 2.97.719 4.192a.75.75 0 0 1-1.088.791L8 12.347l-3.766 1.98a.75.75 0 0 1-1.088-.79l.72-4.194L.818 6.374a.75.75 0 0 1 .416-1.28l4.21-.611L7.327.668A.75.75 0 0 1 8 .25z"/></svg></g><text x="0" y="2" text-anchor="middle" fill="#ffb020" font-size="28" font-weight="bold" font-family="sans-serif" opacity="0.35" filter="url(#xdf01081)">196</text><text x="0" y="2" text-anchor="middle" fill="#f1f5f9" font-size="28" font-weight="bold" font-family="sans-serif">196</text><text x="0" y="20" text-anchor="middle" fill="#64748b" font-size="11" font-family="monospace" letter-spacing="1">Stars</text></g><g class="metric-cell" transform="translate(425.0,95)"><g transform="translate(-8,-30)"><svg viewBox="0 0 16 16" width="16" height="16" fill="#a78bfa" class="metric-icon" style="animation-delay:0.6s"><path d="M5 3.254V3.25v.005a.75.75 0 1 1 0-.005zm6.5 8a.75.75 0 1 1 0 1.5.75.75 0 0 1 0-1.5zM5 12.75a.75.75 0 1 1 0 1.5.75.75 0 0 1 0-1.5zm-1.5.75a1.5 1.5 0 1 0 1.5 1.5v-8.5a1.5 1.5 0 1 0-1.5-1.5v8.5a1.5 1.5 0 0 0 0 0zm8.5-2.5a1.5 1.5 0 0 0-1.5 1.5 1.5 1.5 0 1 0 3 0v-3.133l.025-.05A3.252 3.252 0 0 0 11 5.25V3.5h1.25a.75.75 0 0 0 .53-1.28l-2-2a.75.75 0 0 0-1.06 0l-2 2A.75.75 0 0 0 8.25 3.5H9.5v1.75a1.75 1.75 0 0 0 1.75 1.75h.244a1.75 1.75 0 0 1 1.006.319V11a1.5 1.5 0 0 0-1.5-1.5z"/></svg></g><text x="0" y="2" text-anchor="middle" fill="#a78bfa" font-size="28" font-weight="bold" font-family="sans-serif" opacity="0.35" filter="url(#xdf01081)">1</text><text x="0" y="2" text-anchor="middle" fill="#f1f5f9" font-size="28" font-weight="bold" font-family="sans-serif">1</text><text x="0" y="20" text-anchor="middle" fill="#64748b" font-size="11" font-family="monospace" letter-spacing="1">PRs</text></g><g class="metric-cell" transform="translate(595.0,95)"><g transform="translate(-8,-30)"><svg viewBox="0 0 16 16" width="16" height="16" fill="#00d4ff" class="metric-icon" style="animation-delay:0.8999999999999999s"><path d="M8 9.5a1.5 1.5 0 1 0 0-3 1.5 1.5 0 0 0 0 3z"/><path d="M8 0a8 8 0 1 1 0 16A8 8 0 0 1 8 0zm0 1.5a6.5 6.5 0 1 0 0 13 6.5 6.5 0 0 0 0-13z"/></svg></g><text x="0" y="2" text-anchor="middle" fill="#00d4ff" font-size="28" font-weight="bold" font-family="sans-serif" opacity="0.35" filter="url(#xdf01081)">5</text><text x="0" y="2" text-anchor="middle" fill="#f1f5f9" font-size="28" font-weight="bold" font-family="sans-serif">5</text><text x="0" y="20" text-anchor="middle" fill="#64748b" font-size="11" font-family="monospace" letter-spacing="1">Issues</text></g><g class="metric-cell" transform="translate(765.0,95)"><g transform="translate(-8,-30)"><svg viewBox="0 0 16 16" width="16" height="16" fill="#a78bfa" class="metric-icon" style="animation-delay:1.2s"><path d="M2 2.5A2.5 2.5 0 0 1 4.5 0h8.75a.75.75 0 0 1 .75.75v12.5a.75.75 0 0 1-.75.75h-2.5a.75.75 0 0 1 0-1.5h1.75v-2h-8a1 1 0 0 0-.714 1.7.75.75 0 0 1-1.072 1.05A2.495 2.495 0 0 1 2 11.5zm10.5-1h-8a1 1 0 0 0-1 1v6.708A2.486 2.486 0 0 1 4.5 9h8zM5 12.25a.25.25 0 0 1 .25-.25h3.5a.25.25 0 0 1 .25.25v3.25a.25.25 0 0 1-.4.2l-1.45-1.087a.25.25 0 0 0-.3 0L5.4 15.7a.25.25 0 0 1-.4-.2z"/></svg></g><text x="0" y="2" text-anchor="middle" fill="#a78bfa" font-size="28" font-weight="bold" font-family="sans-serif" opacity="0.35" filter="url(#xdf01081)">25</text><text x="0" y="2" text-anchor="middle" fill="#f1f5f9" font-size="28" font-weight="bold" font-family="sans-serif">25</text><text x="0" y="20" text-anchor="middle" fill="#64748b" font-size="11" font-family="monospace" letter-spacing="1">Repos</text></g></svg>