<svg xmlns="http://www.w3.org/2000/svg" width="850" height="180" viewBox="0 0 850 180"><defs><style>.metric-icon{animation:count-glow 4s ease-in-out infinite}@keyframes count-glow{0%,100%{fill-opacity:0.7}50%{fill-opacity:1}}.star-bg{animation:twinkle-slow 7s ease-in-out infinite}.star-mid{animation:twinkle-mid 5s ease-in-out infinite}.star-fg{animation:twinkle-fast 3s ease-in-out infinite}@keyframes twinkle-slow{0%,100%{opacity:0.07}50%{opacity:0.30}}@keyframes twinkle-mid{0%,100%{opacity:0.12}50%{opacity:0.45}}@keyframes twinkle-fast{0%,100%{opacity:0.25}50%{opacity:0.65}}.shooting-star{opacity:0;animation:shoot linear infinite}@keyframes shoot{0%{opacity:0;transform:translate(0,0)}5%{opacity:0.9}15%{opacity:0.6;transform:translate(var(--shoot-tx),var(--shoot-ty))}20%{opacity:0;transform:translate(var(--shoot-tx),var(--shoot-ty))}100%{opacity:0}}</style><filter id="xdf01081" x="-30%" y="-30%" width="160%" height="160%"><feGaussianBlur stdDeviation="3"/></filter><radialGradient id="xe7d3b8d" cx="50%" cy="50%" r="80%"><stop offset="0%" stop-color="#0f1623" stop-opacity="0.85"/><stop offset="100%" stop-color="#080c14" stop-opacity="0"/></radialGradient><linearGradient id="x743a279" x1="0" y1="0" x2="1" y2="0"><stop offset="0%" stop-color="#fff" stop-opacity="0.85"/><stop offset="100%" stop-color="#fff" stop-opacity="0"/></linearGradient></defs><rect x="0" y="0" width="850" height="180" rx="14" ry="14" fill="#080c14"/><rect x="0" y="0" width="850" height="180" rx="14" ry="14" fill="url(#xe7d3b8d)"/><circle cx="423.3" cy="76.0" r="0.60" fill="#ffb020" opacity="0.20" class="star-bg" style="animation-duration:8.887s;animation-delay:8.497s"/><circle cx="437.8" cy="46.9" r="0.51" fill="#fff" opacity="0.22" class="star-bg" style="animation-duration:8.235s;animation-delay:6.586s"/><circle cx="437.5" cy="40.5" r="0.54" fill="#00d4ff" opacity="0.26" class="star-bg" style="animation-duration:5.041s;animation-delay:2.018s"/><circle cx="667.6" cy="164.8" r="0.43" fill="#fff" opacity="0.28" class="star-bg" style="animation-duration:6.950s;animation-delay:2.169s"/><circle cx="529.9" cy="50.2" r="0.46" fill="#fff" opacity="0.14" class="star-bg" style="animation-duration:6.776s;animation-delay:2.908s"/><circle cx="309.4" cy="19.2" r="0.39" fill="#fff" opacity="0.23" class="star-bg" style="animation-duration:7.636s;animation-delay:3.036s"/><circle cx="577.2" cy="161.8" r="0.29" fill="#fff" opacity="0.16" class="star-bg" style="animation-duration:6.484s;animation-delay:3.732s"/><circle cx="74.7" cy="101.0" r="0.29" fill="#fff" opacity="0.21" class="star-bg" style="animation-duration:7.962s;animation-delay:3.202s"/><circle cx="454.0" cy="127.8" r="0.88" fill="#fff" opacity="0.10" class="star-bg" style="animation-duration:6.746s;animation-delay:0.084s"/><circle cx="724.2" cy="104.1" r="0.79" fill="#00d4ff" opacity="0.23" class="star-bg" style="animation-duration:6.982s;animation-delay:1.636s"/><circle cx="133.9" cy="135.8" r="0.22" fill="#a78bfa" opacity="0.14" class="star-bg" style="animation-duration:8.049s;animation-delay:3.180s"/><circle cx="562.6" cy="27.2" r="0.35" fill="#00d4ff" opacity="0.22" class="star-bg" style="animation-duration:7.049s;animation-delay:6.183s"/><circle cx="721.6" cy="32.2" r="0.21" fill="#ffb020" opacity="0.19" class="star-bg" style="animation-duration:5.039s;animation-delay:1.747s"/><circle cx="590.7" cy="70.2" r="0.50" fill="#ffb020" opacity="0.23" class="star-bg" style="animation-duration:5.565s;animation-delay:3.762s"/><circle cx="467.8" cy="105.1" r="0.19" fill="#ffb020" opacity="0.30" class="star-bg" style="animation-duration:7.755s;animation-delay:0.961s"/><circle cx="164.3" cy="146.6" r="0.41" fill="#fff" opacity="0.28" class="star-bg" style="animation-duration:6.269s;animation-delay:5.205s"/><circle cx="298.7" cy="17.8" r="0.69" fill="#fff" opacity="0.07" class="star-bg" style="animation-duration:8.757s;animation-delay:7.875s"/><circle cx="492.4" cy="145.1" r="0.24" fill="#00d4ff" opacity="0.11" class="star-bg" style="animation-duration:5.411s;animation-delay:3.141s"/><circle cx="175.0" cy="151.3" r="0.20" fill="#00d4ff" opacity="0.09" class="star-bg" style="animation-duration:8.030s;animation-delay:5.849s"/><circle cx="651.4" cy="109.7" r="0.29" fill="#fff" opacity="0.15" class="star-bg" style="animation-duration:5.634s;animation-delay:0.963s"/><circle cx="410.0" cy="154.3" r="0.87" fill="#fff" opacity="0.17" class="star-bg" style="animation-duration:7.622s;animation-delay:3.011s"/><circle cx="178.4" cy="108.8" r="0.80" fill="#fff" opacity="0.18" class="star-bg" style="animation-duration:6.754s;animation-delay:1.932s"/><circle cx="231.6" cy="105.2" r="0.84" fill="#fff" opacity="0.13" class="star-bg" style="animation-duration:5.607s;animation-delay:4.691s"/><circle cx="238.9" cy="62.8" r="0.69" fill="#a78bfa" opacity="0.27" class="star-bg" style="animation-duration:5.794s;animation-delay:3.816s"/><circle cx="494.6" cy="163.2" r="0.64" fill="#a78bfa" opacity="0.08" class="star-bg" style="animation-duration:7.954s;animation-delay:6.407s"/><circle cx="40.5" cy="119.2" r="0.56" fill="#fff" opacity="0.20" class="star-bg" style="animation-duration:7.837s;animation-delay:3.149s"/><circle cx="627.3" cy="30.4" r="0.32" fill="#fff" opacity="0.09" class="star-bg" style="animation-duration:6.716s;animation-delay:0.715s"/><circle cx="736.1" cy="57.1" r="0.44" fill="#fff" opacity="0.19" class="star-bg" style="animation-duration:6.117s;animation-delay:6.004s"/><circle cx="144.4" cy="80.6" r="0.58" fill="#fff" opacity="0.09" class="star-bg" style="animation-duration:7.414s;animation-delay:3.335s"/><circle cx="48.2" cy="11.3" r="0.51" fill="#ffb020" opacity="0.26" class="star-bg" style="animation-duration:6.282s;animation-delay:4.565s"/><circle cx="395.1" cy="168.6" r="0.30" fill="#fff" opacity="0.22" class="star-bg" style="animation-duration:8.401s;animation-delay:0.682s"/><circle cx="402.3" cy="95.5" r="0.38" fill="#a78bfa" opacity="0.29" class="star-bg" style="animation-duration:6.789s;animation-delay:2.340s"/><circle cx="619.2" cy="66.5" r="0.39" fill="#ffb020" opacity="0.10" class="star-bg" style="animation-duration:6.517s;animation-delay:2.250s"/><circle cx="536.6" cy="70.2" r="0.52" fill="#fff" opacity="0.13" class="star-bg" style="animation-duration:6.119s;animation-delay:4.693s"/><circle cx="665.2" cy="47.9" r="0.29" fill="#fff" opacity="0.26" class="star-bg" style="animation-duration:7.172s;animation-delay:1.109s"/><circle cx="760.0" cy="66.0" r="0.32" fill="#fff" opacity="0.24" class="star-bg" style="animation-duration:6.812s;animation-delay:6.325s"/><circle cx="714.1" cy="93.9" r="0.34" fill="#00d4ff" opacity="0.16" class="star-bg" style="animation-duration:6.136s;animation-delay:0.610s"/><circle cx="327.1" cy="120.4" r="0.27" fill="#a78bfa" opacity="0.18" class="star-bg" style="animation-duration:5.789s;animation-delay:4.953s"/><circle cx="801.7" cy="109.5" r="0.47" fill="#fff" opacity="0.25" class="star-bg" style="animation-duration:7.652s;animation-delay:3.880s"/><circle cx="351.9" cy="91.9" r="0.27" fill="#a78bfa" opacity="0.25" class="star-bg" style="animation-duration:5.521s;animation-delay:1.125s"/><circle cx="176.2" cy="132.9" r="0.91" fill="#a78bfa" opacity="0.41" class="star-mid" style="animation-duration:4.478s;animation-delay:1.090s"/><circle cx="204.2" cy="159.9" r="1.09" fill="#00d4ff" opacity="0.31" class="star-mid" style="animation-duration:4.523s;animation-delay:3.260s"/><circle cx="374.5" cy="51.9" r="0.83" fill="#fff" opacity="0.26" class="star-mid" style="animation-duration:5.373s;animation-delay:5.240s"/><circle cx="676.2" cy="154.1" r="0.46" fill="#fff" opacity="0.21" class="star-mid" style="animation-duration:3.866s;animation-delay:0.254s"/><circle cx="273.7" cy="41.1" r="0.64" fill="#fff" opacity="0.14" class="star-mid" style="animation-duration:6.106s;animation-delay:5.312s"/><circle cx="809.1" cy="88.9" r="0.54" fill="#fff" opacity="0.18" class="star-mid" style="animation-duration:6.235s;animation-delay:2.704s"/><circle cx="778.9" cy="16.2" r="0.72" fill="#fff" opacity="0.31" class="star-mid" style="animation-duration:5.351s;animation-delay:1.717s"/><circle cx="375.4" cy="56.0" r="0.66" fill="#fff" opacity="0.13" class="star-mid" style="animation-duration:4.631s;animation-delay:0.333s"/><circle cx="283.7" cy="82.2" r="0.65" fill="#fff" opacity="0.22" class="star-mid" style="animation-duration:5.852s;animation-delay:0.232s"/><circle cx="534.2" cy="96.4" r="0.69" fill="#fff" opacity="0.45" class="star-mid" style="animation-duration:5.610s;animation-delay:1.279s"/><circle cx="32.7" cy="141.0" r="1.09" fill="#fff" opacity="0.18" class="star-mid" style="animation-duration:6.517s;animation-delay:0.795s"/><circle cx="147.9" cy="165.0" r="0.48" fill="#fff" opacity="0.33" class="star-mid" style="animation-duration:6.854s;animation-delay:1.881s"/><circle cx="251.2" cy="146.0" r="1.04" fill="#fff" opacity="0.37" class="star-mid" style="animation-duration:6.413s;animation-delay:3.437s"/><circle cx="793.2" cy="91.8" r="0.52" fill="#00d4ff" opacity="0.27" class="star-mid" style="animation-duration:5.439s;animation-delay:3.009s"/><circle cx="328.9" cy="88.3" r="0.63" fill="#fff" opacity="0.31" class="star-mid" style="animation-duration:5.691s;animation-delay:1.004s"/><circle cx="121.6" cy="47.8" r="0.69" fill="#ffb020" opacity="0.41" class="star-mid" style="animation-duration:3.882s;animation-delay:0.117s"/><circle cx="366.3" cy="157.5" r="0.84" fill="#00d4ff" opacity="0.24" class="star-mid" style="animation-duration:5.446s;animation-delay:3.531s"/><circle cx="554.2" cy="158.7" r="1.17" fill="#00d4ff" opacity="0.29" class="star-mid" style="animation-duration:6.265s;animation-delay:5.701s"/><circle cx="209.5" cy="95.5" r="0.93" fill="#fff" opacity="0.23" class="star-mid" style="animation-duration:3.839s;animation-delay:0.623s"/><circle cx="492.1" cy="124.7" r="0.85" fill="#a78bfa" opacity="0.16" class="star-mid" style="animation-duration:5.909s;animation-delay:2.907s"/><circle cx="438.6" cy="58.9" r="0.91" fill="#ffb020" opacity="0.25" class="star-mid" style="animation-duration:6.558s;animation-delay:2.302s"/><circle cx="248.2" cy="152.2" r="0.49" fill="#ffb020" opacity="0.26" class="star-mid" style="animation-duration:3.836s;animation-delay:2.043s"/><circle cx="610.9" cy="132.6" r="0.99" fill="#a78bfa" opacity="0.33" class="star-mid" style="animation-duration:4.117s;animation-delay:1.451s"/><circle cx="503.0" cy="131.6" r="0.90" fill="#fff" opacity="0.23" class="star-mid" style="animation-duration:6.994s;animation-delay:2.357s"/><circle cx="15.2" cy="166.1" r="0.73" fill="#a78bfa" opacity="0.42" class="star-mid" style="animation-duration:5.775s;animation-delay:5.771s"/><circle cx="347.8" cy="147.8" r="1.40" fill="#fff" opacity="0.39" class="star-fg" style="animation-duration:3.702s;animation-delay:2.444s"/><circle cx="320.7" cy="66.2" r="1.11" fill="#a78bfa" opacity="0.47" class="star-fg" style="animation-duration:2.263s;animation-delay:1.407s"/><circle cx="450.6" cy="29.6" r="1.31" fill="#fff" opacity="0.39" class="star-fg" style="animation-duration:2.434s;animation-delay:1.075s"/><circle cx="224.9" cy="118.0" r="1.48" fill="#00d4ff" opacity="0.54" class="star-fg" style="animation-duration:2.768s;animation-delay:2.398s"/><circle cx="748.5" cy="142.7" r="0.93" fill="#00d4ff" opacity="0.54" class="star-fg" style="animation-duration:4.366s;animation-delay:4.144s"/><circle cx="120.9" cy="13.1" r="1.10" fill="#a78bfa" opacity="0.52" class="star-fg" style="animation-duration:2.428s;animation-delay:2.120s"/><circle cx="323.3" cy="49.2" r="0.73" fill="#fff" opacity="0.51" class="star-fg" style="animation-duration:4.341s;animation-delay:1.598s"/><circle cx="432.0" cy="136.8" r="1.45" fill="#00d4ff" opacity="0.62" class="star-fg" style="animation-duration:3.441s;animation-delay:1.805s"/><circle cx="340.7" cy="101.3" r="1.23" fill="#00d4ff" opacity="0.35" class="star-fg" style="animation-duration:2.374s;animation-delay:1.200s"/><circle cx="218.5" cy="106.8" r="0.83" fill="#fff" opacity="0.57" class="star-fg" style="animation-duration:2.031s;animation-delay:0.193s"/><line x1="476" y1="33" x2="494" y2="38" stroke="url(#x743a279)" stroke-width="1.1" stroke-linecap="round" class="shooting-star" style="animation-delay:8.95s;--shoot-tx:118px;--shoot-ty:43px;animation-duration:5.01s"/><line x1="93" y1="23" x2="111" y2="28" stroke="url(#x743a279)" stroke-width="1.1" stroke-linecap="round" class="shooting-star" style="animation-delay:33.25s;--shoot-tx:87px;--shoot-ty:53px;animation-duration:5.19s"/><line x1="580" y1="65" x2="598" y2="70" stroke="url(#x743a279)" stroke-width="1.1" stroke-linecap="round" class="shooting-star" style="animation-delay:23.89s;--shoot-tx:84px;--shoot-ty:43px;animation-duration:5.78s"/><line x1="170.0" y1="55" x2="170.0" y2="155" stroke="#1a2332" stroke-width="1" opacity="0.5"/><line x1="340.0" y1="55" x2="340.0" y2="155" stroke="#1a2332" stroke-width="1" opacity="0.5"/><line x1="510.0" y1="55" x2="510.0" y2="155" stroke="#1a2332" stroke-width="1" opacity="0.5"/><line x1="680.0" y1="55" x2="680.0" y2="155" stroke="#1a2332" stroke-width="1" opacity="0.5"/><g class="metric-cell" transform="translate(85.0,95)"><g transform="translate(-8,-30)"><svg viewBox="0 0 16 16" width="16" height="16" fill="#00d4ff" class="metric-icon" style="animation-delay:0.0s"><path d="M8 1a7 7 0 1 0 0 14A7 7 0 0 0 8 1zm0 2.5a4.5 4.5 0 0 1 4.473 4H14.5a.5.5 0 0 1 0 1h-2.027A4.5 4.5 0 0 1 8 12.5a4.5 4.5 0 0 1-4.473-4H1.5a.5.5 0 0 1 0-1h2.027A4.5 4.5 0 0 1 8 3.5zm0 1.5a3 3 0 1 0 0 6 3 3 0 0 0 0-6z"/></svg></g><text x="0" y="2" text-anchor="middle" fill="#00d4ff" font-size="28" font-weight="bold" font-family="sans-serif" opacity="0.35" filter="url(#xdf01081)">621</text><text x="0" y="2" text-anchor="middle" fill="#f1f5f9" font-size="28" font-weight="bold" font-family="sans-serif">621</text><text x="0" y="20" text-anchor="middle" fill="#64748b" font-size="11" font-family="monospace" letter-spacing="1">Commits</text></g><g class="metric-cell" transform="translate(255.0,95)"><g transform="translate(-8,-30)"><svg viewBox="0 0 16 16" width="16" height="16" fill="#ffb020" class="metric-icon" style="animation-delay:0.3s"><path d="M8 .25a.75.75 0 0 1 .673.418l1.882 3.815 4.21.612a.75.75 0 0 1 .416 1.279l-3.046 2.97.719 4.192a.75.75 0 0 1-1.088.791L8 12.347l-3.766 1.98a.75.75 0 0 1-1.088-.79l.72-4.194L.818 6.374a.75.75 0 0 1 .416-1.28l4.21-.611L7.327.668A.75.75 0 0 1 8 .25z"/></svg></g><text x="0" y="2" text-anchor="middle" fill="#ffb020" font-size="28" font-weight="bold" font-family="sans-serif" opacity="0.35" filter="url(#xdf01081)">193</text><text x="0" y="2" text-anchor="middle" fill="#f1f5f9" font-size="28" font-weight="bold" font-family="sans-serif">193</text><text x="0" y="20" text-anchor="middle" fill="#64748b" font-size="11" font-family="monospace" letter-spacing="1">Stars</text></g><g class="metric-cell" transform="translate(425.0,95)"><g transform="translate(-8,-30)"><svg viewBox="0 0 16 16" width="16" height="16" fill="#a78bfa" class="metric-icon" style="animation-delay:0.6s"><path d="M5 3.254V3.25v.005a.75.75 0 1 1 0-.005zm6.5 8a.75.75 0 1 1 0 1.5.75.75 0 0 1 0-1.5zM5 12.75a.75.75 0 1 1 0 1.5.75.75 0 0 1 0-1.5zm-1.5.75a1.5 1.5 0 1 0 1.5 1.5v-8.5a1.5 1.5 0 1 0-1.5-1.5v8.5a1.5 1.5 0 0 0 0 0zm8.5-2.5a1.5 1.5 0 0 0-1.5 1.5 1.5 1.5 0 1 0 3 0v-3.133l.025-.05A3.252 3.252 0 0 0 11 5.25V3.5h1.25a.75.75 0 0 0 .53-1.28l-2-2a.75.75 0 0 0-1.06 0l-2 2A.75.75 0 0 0 8.25 3.5H9.5v1.75a1.75 1.75 0 0 0 1.75 1.75h.244a1.75 1.75 0 0 1 1.006.319V11a1.5 1.5 0 0 0-1.5-1.5z"/></svg></g><text x="0" y="2" text-anchor="middle" fill="#a78bfa" font-size="28" font-weight="bold" font-family="sans-serif" opacity="0.35" filter="url(#xdf01081)">1</text><text x="0" y="2" text-anchor="middle" fill="#f1f5f9" font-size="28" font-weight="bold" font-family="sans-serif">1</text><text x="0" y="20" text-anchor="middle" fill="#64748b" font-size="11" font-family="monospace" letter-spacing="1">PRs</text></g><g class="metric-cell" transform="translate(595.0,95)"><g transform="translate(-8,-30)"><svg viewBox="0 0 16 16" width="16" height="16" fill="#00d4ff" class="metric-icon" style="animation-delay:0.8999999999999999s"><path d="M8 9.5a1.5 1.5 0 1 0 0-3 1.5 1.5 0 0 0 0 3z"/><path d="M8 0a8 8 0 1 1 0 16A8 8 0 0 1 8 0zm0 1.5a6.5 6.5 0 1 0 0 13 6.5 6.5 0 0 0 0-13z"/></svg></g><text x="0" y="2" text-anchor="middle" fill="#00d4ff" font-size="28" font-weight="bold" font-family="sans-serif" opacity="0.35" filter="url(#xdf01081)">4</text><text x="0" y="2" text-anchor="middle" fill="#f1f5f9" font-size="28" font-weight="bold" font-family="sans-serif">4</text><text x="0" y="20" text-anchor="middle" fill="#64748b" font-size="11" font-family="monospace" letter-spacing="1">Issues</text></g><g class="metric-cell" transform="translate(765.0,95)"><g transform="translate(-8,-30)"><svg viewBox="0 0 16 16" width="16" height="16" fill="#a78bfa" class="metric-icon" style="animation-delay:1.2s"><path d="M2 2.5A2.5 2.5 0 0 1 4.5 0h8.75a.75.75 0 0 1 .75.75v12.5a.75.75 0 0 1-.75.75h-2.5a.75.75 0 0 1 0-1.5h1.75v-2h-8a1 1 0 0 0-.714 1.7.75.75 0 0 1-1.072 1.05A2.495 2.495 0 0 1 2 11.5zm10.5-1h-8a1 1 0 0 0-1 1v6.708A2.486 2.486 0 0 1 4.5 9h8zM5 12.25a.25.25 0 0 1 .25-.25h3.5a.25.25 0 0 1 .25.25v3.25a.25.25 0 0 1-.4.2l-1.45-1.087a.25.25 0 0 0-.3 0L5.4 15.7a.25.25 0 0 1-.4-.2z"/></svg></g><text x="0" y="2" text-anchor="middle" fill="#a78bfa" font-size="28" font-weight="bold" font-family="sans-serif" opacity="0.35" filter="url(#xdf01081)">24</text><text x="0" y="2" text-anchor="middle" fill="#f1f5f9" font-size="28" font-weight="bold" font-family="sans-serif">24</text><text x="0" y="20" text-anchor="middle" fill="#64748b" font-size="11" font-family="monospace" letter-spacing="1">Repos</text></g></svg>