<svg xmlns="http://www.w3.org/2000/svg" width="850" height="180" viewBox="0 0 850 180"><defs><style>.metric-icon{animation:count-glow 4s ease-in-out infinite}@keyframes count-glow{0%,100%{fill-opacity:0.7}50%{fill-opacity:1}}.star-bg{animation:twinkle-slow 7s ease-in-out infinite}.star-mid{animation:twinkle-mid 5s ease-in-out infinite}.star-fg{animation:twinkle-fast 3s ease-in-out infinite}@keyframes twinkle-slow{0%,100%{opacity:0.07}50%{opacity:0.30}}@keyframes twinkle-mid{0%,100%{opacity:0.12}50%{opacity:0.45}}@keyframes twinkle-fast{0%,100%{opacity:0.25}50%{opacity:0.65}}.shooting-star{opacity:0;animation:shoot linear infinite}@keyframes shoot{0%{opacity:0;transform:translate(0,0)}5%{opacity:0.9}15%{opacity:0.6;transform:translate(var(--shoot-tx),var(--shoot-ty))}20%{opacity:0;transform:translate(var(--shoot-tx),var(--shoot-ty))}100%{opacity:0}}</style><filter id="xdf01081" x="-30%" y="-30%" width="160%" height="160%"><feGaussianBlur stdDeviation="3"/></filter><radialGradient id="xe7d3b8d" cx="50%" cy="50%" r="80%"><stop offset="0%" stop-color="#0f1623" stop-opacity="0.85"/><stop offset="100%" stop-color="#080c14" stop-opacity="0"/></radialGradient><linearGradient id="x743a279" x1="0" y1="0" x2="1" y2="0"><stop offset="0%" stop-color="#fff" stop-opacity="0.85"/><stop offset="100%" stop-color="#fff" stop-opacity="0"/></linearGradient></defs><rect x="0" y="0" width="850" height="180" rx="14" ry="14" fill="#080c14"/><rect x="0" y="0" width="850" height="180" rx="14" ry="14" fill="url(#xe7d3b8d)"/><circle cx="652.0" cy="59.7" r="0.52" fill="#fff" opacity="0.24" class="star-bg" style="animation-duration:8.108s;animation-delay:3.059s"/><circle cx="702.9" cy="73.9" r="0.19" fill="#ffb020" opacity="0.19" class="star-bg" style="animation-duration:7.130s;animation-delay:5.770s"/><circle cx="372.4" cy="48.3" r="0.45" fill="#a78bfa" opacity="0.29" class="star-bg" style="animation-duration:5.964s;animation-delay:5.317s"/><circle cx="182.0" cy="147.3" r="0.20" fill="#a78bfa" opacity="0.27" class="star-bg" style="animation-duration:6.036s;animation-delay:5.569s"/><circle cx="717.0" cy="37.1" r="0.48" fill="#00d4ff" opacity="0.30" class="star-bg" style="animation-duration:6.041s;animation-delay:3.106s"/><circle cx="254.2" cy="33.1" r="0.80" fill="#a78bfa" opacity="0.11" class="star-bg" style="animation-duration:6.575s;animation-delay:4.895s"/><circle cx="819.2" cy="159.8" r="0.42" fill="#fff" opacity="0.19" class="star-bg" style="animation-duration:8.563s;animation-delay:0.409s"/><circle cx="193.4" cy="164.3" r="0.48" fill="#fff" opacity="0.24" class="star-bg" style="animation-duration:7.934s;animation-delay:1.055s"/><circle cx="475.6" cy="106.7" r="0.75" fill="#a78bfa" opacity="0.08" class="star-bg" style="animation-duration:6.688s;animation-delay:3.330s"/><circle cx="736.1" cy="139.3" r="0.19" fill="#a78bfa" opacity="0.20" class="star-bg" style="animation-duration:5.252s;animation-delay:3.395s"/><circle cx="192.6" cy="110.8" r="0.79" fill="#ffb020" opacity="0.07" class="star-bg" style="animation-duration:5.508s;animation-delay:1.025s"/><circle cx="419.8" cy="56.7" r="0.42" fill="#a78bfa" opacity="0.25" class="star-bg" style="animation-duration:6.368s;animation-delay:2.618s"/><circle cx="576.3" cy="139.7" r="0.48" fill="#ffb020" opacity="0.12" class="star-bg" style="animation-duration:6.092s;animation-delay:0.690s"/><circle cx="692.2" cy="157.4" r="0.26" fill="#fff" opacity="0.26" class="star-bg" style="animation-duration:6.390s;animation-delay:4.433s"/><circle cx="718.3" cy="112.8" r="0.42" fill="#fff" opacity="0.10" class="star-bg" style="animation-duration:7.351s;animation-delay:1.922s"/><circle cx="158.2" cy="130.9" r="0.79" fill="#fff" opacity="0.11" class="star-bg" style="animation-duration:6.620s;animation-delay:0.909s"/><circle cx="403.9" cy="141.4" r="0.67" fill="#a78bfa" opacity="0.21" class="star-bg" style="animation-duration:7.352s;animation-delay:5.777s"/><circle cx="292.5" cy="84.4" r="0.89" fill="#a78bfa" opacity="0.16" class="star-bg" style="animation-duration:7.770s;animation-delay:2.414s"/><circle cx="253.7" cy="12.4" r="0.25" fill="#fff" opacity="0.14" class="star-bg" style="animation-duration:6.006s;animation-delay:5.739s"/><circle cx="498.4" cy="29.5" r="0.26" fill="#fff" opacity="0.21" class="star-bg" style="animation-duration:6.725s;animation-delay:1.487s"/><circle cx="586.0" cy="14.7" r="0.29" fill="#a78bfa" opacity="0.16" class="star-bg" style="animation-duration:8.590s;animation-delay:1.901s"/><circle cx="451.4" cy="161.4" r="0.62" fill="#fff" opacity="0.13" class="star-bg" style="animation-duration:8.847s;animation-delay:7.324s"/><circle cx="382.4" cy="105.4" r="0.19" fill="#ffb020" opacity="0.26" class="star-bg" style="animation-duration:7.912s;animation-delay:6.673s"/><circle cx="728.0" cy="40.3" r="0.90" fill="#00d4ff" opacity="0.21" class="star-bg" style="animation-duration:6.487s;animation-delay:0.910s"/><circle cx="813.1" cy="52.0" r="0.54" fill="#00d4ff" opacity="0.29" class="star-bg" style="animation-duration:5.506s;animation-delay:2.208s"/><circle cx="476.1" cy="168.4" r="0.60" fill="#a78bfa" opacity="0.23" class="star-bg" style="animation-duration:8.376s;animation-delay:7.215s"/><circle cx="176.5" cy="90.4" r="0.30" fill="#00d4ff" opacity="0.16" class="star-bg" style="animation-duration:8.648s;animation-delay:0.321s"/><circle cx="413.1" cy="75.5" r="0.18" fill="#ffb020" opacity="0.24" class="star-bg" style="animation-duration:6.435s;animation-delay:2.228s"/><circle cx="749.9" cy="168.0" r="0.39" fill="#00d4ff" opacity="0.10" class="star-bg" style="animation-duration:5.506s;animation-delay:1.982s"/><circle cx="21.1" cy="19.1" r="0.67" fill="#fff" opacity="0.13" class="star-bg" style="animation-duration:5.911s;animation-delay:1.995s"/><circle cx="772.4" cy="79.8" r="0.22" fill="#00d4ff" opacity="0.27" class="star-bg" style="animation-duration:5.150s;animation-delay:0.013s"/><circle cx="633.6" cy="18.1" r="0.62" fill="#fff" opacity="0.27" class="star-bg" style="animation-duration:8.813s;animation-delay:6.483s"/><circle cx="223.3" cy="129.4" r="0.84" fill="#ffb020" opacity="0.12" class="star-bg" style="animation-duration:6.343s;animation-delay:5.052s"/><circle cx="317.5" cy="112.2" r="0.20" fill="#fff" opacity="0.21" class="star-bg" style="animation-duration:8.792s;animation-delay:4.260s"/><circle cx="144.5" cy="153.2" r="0.88" fill="#fff" opacity="0.25" class="star-bg" style="animation-duration:7.103s;animation-delay:4.802s"/><circle cx="557.3" cy="125.2" r="0.84" fill="#fff" opacity="0.23" class="star-bg" style="animation-duration:8.960s;animation-delay:7.956s"/><circle cx="110.1" cy="128.8" r="0.72" fill="#ffb020" opacity="0.13" class="star-bg" style="animation-duration:7.846s;animation-delay:1.039s"/><circle cx="707.9" cy="110.3" r="0.59" fill="#fff" opacity="0.22" class="star-bg" style="animation-duration:6.766s;animation-delay:6.484s"/><circle cx="826.4" cy="154.9" r="0.66" fill="#fff" opacity="0.08" class="star-bg" style="animation-duration:7.280s;animation-delay:0.218s"/><circle cx="463.3" cy="106.4" r="0.51" fill="#ffb020" opacity="0.11" class="star-bg" style="animation-duration:7.910s;animation-delay:0.511s"/><circle cx="128.4" cy="141.4" r="0.80" fill="#a78bfa" opacity="0.27" class="star-mid" style="animation-duration:3.631s;animation-delay:3.160s"/><circle cx="551.6" cy="108.7" r="1.03" fill="#ffb020" opacity="0.25" class="star-mid" style="animation-duration:6.357s;animation-delay:4.643s"/><circle cx="709.4" cy="92.1" r="0.74" fill="#a78bfa" opacity="0.16" class="star-mid" style="animation-duration:6.043s;animation-delay:2.028s"/><circle cx="714.4" cy="146.8" r="0.93" fill="#fff" opacity="0.31" class="star-mid" style="animation-duration:4.390s;animation-delay:2.032s"/><circle cx="131.6" cy="70.7" r="1.07" fill="#fff" opacity="0.24" class="star-mid" style="animation-duration:3.663s;animation-delay:0.131s"/><circle cx="26.8" cy="65.9" r="1.01" fill="#a78bfa" opacity="0.15" class="star-mid" style="animation-duration:6.449s;animation-delay:4.191s"/><circle cx="701.7" cy="52.6" r="0.65" fill="#fff" opacity="0.25" class="star-mid" style="animation-duration:5.312s;animation-delay:2.576s"/><circle cx="59.6" cy="95.3" r="0.99" fill="#ffb020" opacity="0.16" class="star-mid" style="animation-duration:6.127s;animation-delay:4.485s"/><circle cx="701.7" cy="123.5" r="0.50" fill="#fff" opacity="0.18" class="star-mid" style="animation-duration:5.597s;animation-delay:2.834s"/><circle cx="169.9" cy="145.1" r="0.62" fill="#00d4ff" opacity="0.44" class="star-mid" style="animation-duration:4.308s;animation-delay:3.758s"/><circle cx="516.5" cy="86.3" r="0.66" fill="#00d4ff" opacity="0.17" class="star-mid" style="animation-duration:5.694s;animation-delay:2.268s"/><circle cx="679.6" cy="66.9" r="0.65" fill="#00d4ff" opacity="0.42" class="star-mid" style="animation-duration:6.741s;animation-delay:6.438s"/><circle cx="707.7" cy="121.4" r="0.65" fill="#fff" opacity="0.39" class="star-mid" style="animation-duration:4.145s;animation-delay:1.915s"/><circle cx="421.8" cy="76.8" r="1.09" fill="#a78bfa" opacity="0.35" class="star-mid" style="animation-duration:6.784s;animation-delay:2.987s"/><circle cx="344.2" cy="61.7" r="1.11" fill="#ffb020" opacity="0.35" class="star-mid" style="animation-duration:6.268s;animation-delay:3.664s"/><circle cx="315.5" cy="29.5" r="0.60" fill="#fff" opacity="0.35" class="star-mid" style="animation-duration:6.082s;animation-delay:2.456s"/><circle cx="481.8" cy="137.3" r="0.55" fill="#00d4ff" opacity="0.34" class="star-mid" style="animation-duration:4.611s;animation-delay:0.699s"/><circle cx="607.6" cy="32.8" r="0.64" fill="#fff" opacity="0.30" class="star-mid" style="animation-duration:5.800s;animation-delay:1.471s"/><circle cx="321.0" cy="41.9" r="1.03" fill="#fff" opacity="0.25" class="star-mid" style="animation-duration:6.650s;animation-delay:4.255s"/><circle cx="349.7" cy="151.0" r="0.61" fill="#00d4ff" opacity="0.44" class="star-mid" style="animation-duration:4.282s;animation-delay:1.943s"/><circle cx="365.0" cy="45.4" r="0.53" fill="#a78bfa" opacity="0.26" class="star-mid" style="animation-duration:4.198s;animation-delay:3.406s"/><circle cx="11.2" cy="49.8" r="0.78" fill="#a78bfa" opacity="0.25" class="star-mid" style="animation-duration:5.563s;animation-delay:1.199s"/><circle cx="839.2" cy="64.5" r="1.11" fill="#ffb020" opacity="0.26" class="star-mid" style="animation-duration:4.773s;animation-delay:1.060s"/><circle cx="117.2" cy="151.9" r="0.69" fill="#00d4ff" opacity="0.23" class="star-mid" style="animation-duration:4.132s;animation-delay:1.186s"/><circle cx="272.9" cy="123.3" r="1.19" fill="#fff" opacity="0.43" class="star-mid" style="animation-duration:6.244s;animation-delay:0.919s"/><circle cx="17.4" cy="22.6" r="0.81" fill="#fff" opacity="0.54" class="star-fg" style="animation-duration:3.255s;animation-delay:1.698s"/><circle cx="399.4" cy="158.2" r="1.11" fill="#a78bfa" opacity="0.38" class="star-fg" style="animation-duration:3.935s;animation-delay:1.840s"/><circle cx="176.2" cy="60.1" r="0.90" fill="#fff" opacity="0.44" class="star-fg" style="animation-duration:4.354s;animation-delay:2.433s"/><circle cx="167.4" cy="63.4" r="1.03" fill="#fff" opacity="0.64" class="star-fg" style="animation-duration:2.644s;animation-delay:2.491s"/><circle cx="370.9" cy="135.4" r="1.40" fill="#ffb020" opacity="0.36" class="star-fg" style="animation-duration:3.232s;animation-delay:2.136s"/><circle cx="218.5" cy="159.3" r="0.73" fill="#fff" opacity="0.35" class="star-fg" style="animation-duration:3.567s;animation-delay:1.897s"/><circle cx="251.8" cy="125.9" r="1.42" fill="#00d4ff" opacity="0.42" class="star-fg" style="animation-duration:4.414s;animation-delay:0.345s"/><circle cx="578.8" cy="137.9" r="0.78" fill="#fff" opacity="0.39" class="star-fg" style="animation-duration:2.390s;animation-delay:0.796s"/><circle cx="375.2" cy="168.5" r="1.09" fill="#fff" opacity="0.44" class="star-fg" style="animation-duration:4.324s;animation-delay:3.070s"/><circle cx="660.0" cy="85.2" r="1.21" fill="#fff" opacity="0.44" class="star-fg" style="animation-duration:4.085s;animation-delay:0.541s"/><line x1="48" y1="51" x2="66" y2="56" stroke="url(#x743a279)" stroke-width="1.1" stroke-linecap="round" class="shooting-star" style="animation-delay:30.49s;--shoot-tx:118px;--shoot-ty:38px;animation-duration:2.54s"/><line x1="363" y1="75" x2="381" y2="80" stroke="url(#x743a279)" stroke-width="1.1" stroke-linecap="round" class="shooting-star" style="animation-delay:51.32s;--shoot-tx:112px;--shoot-ty:40px;animation-duration:2.93s"/><line x1="533" y1="9" x2="551" y2="14" stroke="url(#x743a279)" stroke-width="1.1" stroke-linecap="round" class="shooting-star" style="animation-delay:12.01s;--shoot-tx:104px;--shoot-ty:25px;animation-duration:2.06s"/><line x1="170.0" y1="55" x2="170.0" y2="155" stroke="#1a2332" stroke-width="1" opacity="0.5"/><line x1="340.0" y1="55" x2="340.0" y2="155" stroke="#1a2332" stroke-width="1" opacity="0.5"/><line x1="510.0" y1="55" x2="510.0" y2="155" stroke="#1a2332" stroke-width="1" opacity="0.5"/><line x1="680.0" y1="55" x2="680.0" y2="155" stroke="#1a2332" stroke-width="1" opacity="0.5"/><g class="metric-cell" transform="translate(85.0,95)"><g transform="translate(-8,-30)"><svg viewBox="0 0 16 16" width="16" height="16" fill="#00d4ff" class="metric-icon" style="animation-delay:0.0s"><path d="M8 1a7 7 0 1 0 0 14A7 7 0 0 0 8 1zm0 2.5a4.5 4.5 0 0 1 4.473 4H14.5a.5.5 0 0 1 0 1h-2.027A4.5 4.5 0 0 1 8 12.5a4.5 4.5 0 0 1-4.473-4H1.5a.5.5 0 0 1 0-1h2.027A4.5 4.5 0 0 1 8 3.5zm0 1.5a3 3 0 1 0 0 6 3 3 0 0 0 0-6z"/></svg></g><text x="0" y="2" text-anchor="middle" fill="#00d4ff" font-size="28" font-weight="bold" font-family="sans-serif" opacity="0.35" filter="url(#xdf01081)">553</text><text x="0" y="2" text-anchor="middle" fill="#f1f5f9" font-size="28" font-weight="bold" font-family="sans-serif">553</text><text x="0" y="20" text-anchor="middle" fill="#64748b" font-size="11" font-family="monospace" letter-spacing="1">Commits</text></g><g class="metric-cell" transform="translate(255.0,95)"><g transform="translate(-8,-30)"><svg viewBox="0 0 16 16" width="16" height="16" fill="#ffb020" class="metric-icon" style="animation-delay:0.3s"><path d="M8 .25a.75.75 0 0 1 .673.418l1.882 3.815 4.21.612a.75.75 0 0 1 .416 1.279l-3.046 2.97.719 4.192a.75.75 0 0 1-1.088.791L8 12.347l-3.766 1.98a.75.75 0 0 1-1.088-.79l.72-4.194L.818 6.374a.75.75 0 0 1 .416-1.28l4.21-.611L7.327.668A.75.75 0 0 1 8 .25z"/></svg></g><text x="0" y="2" text-anchor="middle" fill="#ffb020" font-size="28" font-weight="bold" font-family="sans-serif" opacity="0.35" filter="url(#xdf01081)">210</text><text x="0" y="2" text-anchor="middle" fill="#f1f5f9" font-size="28" font-weight="bold" font-family="sans-serif">210</text><text x="0" y="20" text-anchor="middle" fill="#64748b" font-size="11" font-family="monospace" letter-spacing="1">Stars</text></g><g class="metric-cell" transform="translate(425.0,95)"><g transform="translate(-8,-30)"><svg viewBox="0 0 16 16" width="16" height="16" fill="#a78bfa" class="metric-icon" style="animation-delay:0.6s"><path d="M5 3.254V3.25v.005a.75.75 0 1 1 0-.005zm6.5 8a.75.75 0 1 1 0 1.5.75.75 0 0 1 0-1.5zM5 12.75a.75.75 0 1 1 0 1.5.75.75 0 0 1 0-1.5zm-1.5.75a1.5 1.5 0 1 0 1.5 1.5v-8.5a1.5 1.5 0 1 0-1.5-1.5v8.5a1.5 1.5 0 0 0 0 0zm8.5-2.5a1.5 1.5 0 0 0-1.5 1.5 1.5 1.5 0 1 0 3 0v-3.133l.025-.05A3.252 3.252 0 0 0 11 5.25V3.5h1.25a.75.75 0 0 0 .53-1.28l-2-2a.75.75 0 0 0-1.06 0l-2 2A.75.75 0 0 0 8.25 3.5H9.5v1.75a1.75 1.75 0 0 0 1.75 1.75h.244a1.75 1.75 0 0 1 1.006.319V11a1.5 1.5 0 0 0-1.5-1.5z"/></svg></g><text x="0" y="2" text-anchor="middle" fill="#a78bfa" font-size="28" font-weight="bold" font-family="sans-serif" opacity="0.35" filter="url(#xdf01081)">3</text><text x="0" y="2" text-anchor="middle" fill="#f1f5f9" font-size="28" font-weight="bold" font-family="sans-serif">3</text><text x="0" y="20" text-anchor="middle" fill="#64748b" font-size="11" font-family="monospace" letter-spacing="1">PRs</text></g><g class="metric-cell" transform="translate(595.0,95)"><g transform="translate(-8,-30)"><svg viewBox="0 0 16 16" width="16" height="16" fill="#00d4ff" class="metric-icon" style="animation-delay:0.8999999999999999s"><path d="M8 9.5a1.5 1.5 0 1 0 0-3 1.5 1.5 0 0 0 0 3z"/><path d="M8 0a8 8 0 1 1 0 16A8 8 0 0 1 8 0zm0 1.5a6.5 6.5 0 1 0 0 13 6.5 6.5 0 0 0 0-13z"/></svg></g><text x="0" y="2" text-anchor="middle" fill="#00d4ff" font-size="28" font-weight="bold" font-family="sans-serif" opacity="0.35" filter="url(#xdf01081)">5</text><text x="0" y="2" text-anchor="middle" fill="#f1f5f9" font-size="28" font-weight="bold" font-family="sans-serif">5</text><text x="0" y="20" text-anchor="middle" fill="#64748b" font-size="11" font-family="monospace" letter-spacing="1">Issues</text></g><g class="metric-cell" transform="translate(765.0,95)"><g transform="translate(-8,-30)"><svg viewBox="0 0 16 16" width="16" height="16" fill="#a78bfa" class="metric-icon" style="animation-delay:1.2s"><path d="M2 2.5A2.5 2.5 0 0 1 4.5 0h8.75a.75.75 0 0 1 .75.75v12.5a.75.75 0 0 1-.75.75h-2.5a.75.75 0 0 1 0-1.5h1.75v-2h-8a1 1 0 0 0-.714 1.7.75.75 0 0 1-1.072 1.05A2.495 2.495 0 0 1 2 11.5zm10.5-1h-8a1 1 0 0 0-1 1v6.708A2.486 2.486 0 0 1 4.5 9h8zM5 12.25a.25.25 0 0 1 .25-.25h3.5a.25.25 0 0 1 .25.25v3.25a.25.25 0 0 1-.4.2l-1.45-1.087a.25.25 0 0 0-.3 0L5.4 15.7a.25.25 0 0 1-.4-.2z"/></svg></g><text x="0" y="2" text-anchor="middle" fill="#a78bfa" font-size="28" font-weight="bold" font-family="sans-serif" opacity="0.35" filter="url(#xdf01081)">29</text><text x="0" y="2" text-anchor="middle" fill="#f1f5f9" font-size="28" font-weight="bold" font-family="sans-serif">29</text><text x="0" y="20" text-anchor="middle" fill="#64748b" font-size="11" font-family="monospace" letter-spacing="1">Repos</text></g></svg>