<svg xmlns="http://www.w3.org/2000/svg" width="850" height="180" viewBox="0 0 850 180"><defs><style>.metric-icon{animation:count-glow 4s ease-in-out infinite}@keyframes count-glow{0%,100%{fill-opacity:0.7}50%{fill-opacity:1}}.star-bg{animation:twinkle-slow 7s ease-in-out infinite}.star-mid{animation:twinkle-mid 5s ease-in-out infinite}.star-fg{animation:twinkle-fast 3s ease-in-out infinite}@keyframes twinkle-slow{0%,100%{opacity:0.07}50%{opacity:0.30}}@keyframes twinkle-mid{0%,100%{opacity:0.12}50%{opacity:0.45}}@keyframes twinkle-fast{0%,100%{opacity:0.25}50%{opacity:0.65}}.shooting-star{opacity:0;animation:shoot linear infinite}@keyframes shoot{0%{opacity:0;transform:translate(0,0)}5%{opacity:0.9}15%{opacity:0.6;transform:translate(var(--shoot-tx),var(--shoot-ty))}20%{opacity:0;transform:translate(var(--shoot-tx),var(--shoot-ty))}100%{opacity:0}}</style><filter id="xdf01081" x="-30%" y="-30%" width="160%" height="160%"><feGaussianBlur stdDeviation="3"/></filter><radialGradient id="xe7d3b8d" cx="50%" cy="50%" r="80%"><stop offset="0%" stop-color="#0f1623" stop-opacity="0.85"/><stop offset="100%" stop-color="#080c14" stop-opacity="0"/></radialGradient><linearGradient id="x743a279" x1="0" y1="0" x2="1" y2="0"><stop offset="0%" stop-color="#fff" stop-opacity="0.85"/><stop offset="100%" stop-color="#fff" stop-opacity="0"/></linearGradient></defs><rect x="0" y="0" width="850" height="180" rx="14" ry="14" fill="#080c14"/><rect x="0" y="0" width="850" height="180" rx="14" ry="14" fill="url(#xe7d3b8d)"/><circle cx="502.8" cy="33.2" r="0.35" fill="#a78bfa" opacity="0.20" class="star-bg" style="animation-duration:6.472s;animation-delay:5.736s"/><circle cx="833.5" cy="42.2" r="0.43" fill="#fff" opacity="0.12" class="star-bg" style="animation-duration:8.854s;animation-delay:8.378s"/><circle cx="490.0" cy="27.7" r="0.40" fill="#fff" opacity="0.24" class="star-bg" style="animation-duration:6.780s;animation-delay:4.238s"/><circle cx="688.8" cy="119.4" r="0.48" fill="#ffb020" opacity="0.08" class="star-bg" style="animation-duration:7.796s;animation-delay:3.794s"/><circle cx="545.6" cy="79.5" r="0.25" fill="#fff" opacity="0.09" class="star-bg" style="animation-duration:6.926s;animation-delay:4.298s"/><circle cx="591.7" cy="48.8" r="0.36" fill="#a78bfa" opacity="0.20" class="star-bg" style="animation-duration:5.670s;animation-delay:5.193s"/><circle cx="652.4" cy="129.1" r="0.22" fill="#a78bfa" opacity="0.22" class="star-bg" style="animation-duration:8.630s;animation-delay:8.219s"/><circle cx="104.8" cy="120.6" r="0.46" fill="#a78bfa" opacity="0.14" class="star-bg" style="animation-duration:7.498s;animation-delay:1.760s"/><circle cx="649.8" cy="71.0" r="0.59" fill="#00d4ff" opacity="0.09" class="star-bg" style="animation-duration:5.315s;animation-delay:0.686s"/><circle cx="452.2" cy="121.2" r="0.34" fill="#ffb020" opacity="0.28" class="star-bg" style="animation-duration:6.634s;animation-delay:2.815s"/><circle cx="76.0" cy="115.5" r="0.79" fill="#fff" opacity="0.21" class="star-bg" style="animation-duration:8.487s;animation-delay:3.904s"/><circle cx="185.4" cy="91.2" r="0.45" fill="#ffb020" opacity="0.28" class="star-bg" style="animation-duration:7.799s;animation-delay:2.824s"/><circle cx="657.0" cy="48.6" r="0.53" fill="#fff" opacity="0.25" class="star-bg" style="animation-duration:8.901s;animation-delay:0.708s"/><circle cx="726.3" cy="20.4" r="0.79" fill="#ffb020" opacity="0.21" class="star-bg" style="animation-duration:8.423s;animation-delay:4.032s"/><circle cx="119.5" cy="119.7" r="0.64" fill="#ffb020" opacity="0.08" class="star-bg" style="animation-duration:7.714s;animation-delay:2.737s"/><circle cx="223.6" cy="164.2" r="0.20" fill="#fff" opacity="0.12" class="star-bg" style="animation-duration:8.985s;animation-delay:1.990s"/><circle cx="660.1" cy="96.7" r="0.69" fill="#fff" opacity="0.10" class="star-bg" style="animation-duration:8.704s;animation-delay:0.962s"/><circle cx="211.4" cy="134.4" r="0.48" fill="#a78bfa" opacity="0.28" class="star-bg" style="animation-duration:5.810s;animation-delay:0.252s"/><circle cx="525.7" cy="78.0" r="0.37" fill="#fff" opacity="0.25" class="star-bg" style="animation-duration:6.362s;animation-delay:3.232s"/><circle cx="535.5" cy="102.0" r="0.78" fill="#ffb020" opacity="0.19" class="star-bg" style="animation-duration:7.566s;animation-delay:4.786s"/><circle cx="133.0" cy="144.1" r="0.30" fill="#fff" opacity="0.10" class="star-bg" style="animation-duration:6.449s;animation-delay:4.095s"/><circle cx="32.5" cy="102.7" r="0.18" fill="#fff" opacity="0.11" class="star-bg" style="animation-duration:7.545s;animation-delay:6.006s"/><circle cx="527.1" cy="69.7" r="0.86" fill="#fff" opacity="0.26" class="star-bg" style="animation-duration:5.664s;animation-delay:3.707s"/><circle cx="277.2" cy="22.9" r="0.47" fill="#fff" opacity="0.28" class="star-bg" style="animation-duration:7.233s;animation-delay:7.001s"/><circle cx="294.4" cy="125.9" r="0.27" fill="#a78bfa" opacity="0.11" class="star-bg" style="animation-duration:5.647s;animation-delay:4.192s"/><circle cx="80.9" cy="66.8" r="0.42" fill="#fff" opacity="0.20" class="star-bg" style="animation-duration:7.526s;animation-delay:4.719s"/><circle cx="185.6" cy="110.7" r="0.19" fill="#fff" opacity="0.20" class="star-bg" style="animation-duration:7.156s;animation-delay:0.124s"/><circle cx="699.2" cy="101.9" r="0.61" fill="#ffb020" opacity="0.19" class="star-bg" style="animation-duration:7.076s;animation-delay:4.228s"/><circle cx="733.3" cy="106.5" r="0.52" fill="#fff" opacity="0.27" class="star-bg" style="animation-duration:7.812s;animation-delay:4.992s"/><circle cx="66.5" cy="86.1" r="0.69" fill="#fff" opacity="0.19" class="star-bg" style="animation-duration:8.473s;animation-delay:0.684s"/><circle cx="350.7" cy="60.6" r="0.63" fill="#ffb020" opacity="0.23" class="star-bg" style="animation-duration:8.773s;animation-delay:7.196s"/><circle cx="112.4" cy="22.7" r="0.87" fill="#00d4ff" opacity="0.13" class="star-bg" style="animation-duration:6.426s;animation-delay:2.845s"/><circle cx="86.6" cy="61.2" r="0.26" fill="#fff" opacity="0.17" class="star-bg" style="animation-duration:7.867s;animation-delay:7.169s"/><circle cx="26.6" cy="99.1" r="0.70" fill="#fff" opacity="0.29" class="star-bg" style="animation-duration:6.543s;animation-delay:5.636s"/><circle cx="617.8" cy="148.3" r="0.39" fill="#ffb020" opacity="0.17" class="star-bg" style="animation-duration:5.365s;animation-delay:3.315s"/><circle cx="446.8" cy="60.8" r="0.37" fill="#fff" opacity="0.12" class="star-bg" style="animation-duration:7.552s;animation-delay:5.350s"/><circle cx="305.2" cy="46.7" r="0.52" fill="#00d4ff" opacity="0.28" class="star-bg" style="animation-duration:6.453s;animation-delay:0.420s"/><circle cx="269.5" cy="84.5" r="0.24" fill="#00d4ff" opacity="0.26" class="star-bg" style="animation-duration:8.808s;animation-delay:4.771s"/><circle cx="263.9" cy="99.6" r="0.59" fill="#ffb020" opacity="0.24" class="star-bg" style="animation-duration:5.806s;animation-delay:3.813s"/><circle cx="834.3" cy="169.5" r="0.52" fill="#fff" opacity="0.15" class="star-bg" style="animation-duration:7.475s;animation-delay:1.250s"/><circle cx="169.1" cy="104.1" r="0.93" fill="#fff" opacity="0.20" class="star-mid" style="animation-duration:6.484s;animation-delay:5.476s"/><circle cx="236.0" cy="22.0" r="0.55" fill="#fff" opacity="0.38" class="star-mid" style="animation-duration:6.313s;animation-delay:2.228s"/><circle cx="25.9" cy="107.7" r="0.44" fill="#fff" opacity="0.42" class="star-mid" style="animation-duration:4.380s;animation-delay:1.937s"/><circle cx="50.6" cy="108.3" r="0.84" fill="#fff" opacity="0.15" class="star-mid" style="animation-duration:5.117s;animation-delay:0.637s"/><circle cx="286.4" cy="63.3" r="0.44" fill="#00d4ff" opacity="0.32" class="star-mid" style="animation-duration:6.938s;animation-delay:1.440s"/><circle cx="440.6" cy="93.4" r="1.01" fill="#fff" opacity="0.28" class="star-mid" style="animation-duration:5.894s;animation-delay:5.068s"/><circle cx="726.1" cy="107.3" r="1.08" fill="#fff" opacity="0.36" class="star-mid" style="animation-duration:3.796s;animation-delay:0.619s"/><circle cx="813.6" cy="142.8" r="0.94" fill="#fff" opacity="0.35" class="star-mid" style="animation-duration:6.145s;animation-delay:0.750s"/><circle cx="25.9" cy="146.7" r="0.57" fill="#a78bfa" opacity="0.29" class="star-mid" style="animation-duration:4.204s;animation-delay:0.504s"/><circle cx="14.9" cy="56.4" r="0.98" fill="#a78bfa" opacity="0.37" class="star-mid" style="animation-duration:6.402s;animation-delay:2.222s"/><circle cx="805.9" cy="137.2" r="1.17" fill="#fff" opacity="0.14" class="star-mid" style="animation-duration:5.989s;animation-delay:4.538s"/><circle cx="571.6" cy="97.3" r="0.77" fill="#fff" opacity="0.28" class="star-mid" style="animation-duration:6.758s;animation-delay:0.023s"/><circle cx="407.8" cy="110.9" r="0.41" fill="#fff" opacity="0.44" class="star-mid" style="animation-duration:4.289s;animation-delay:3.369s"/><circle cx="498.7" cy="53.7" r="1.08" fill="#fff" opacity="0.42" class="star-mid" style="animation-duration:6.338s;animation-delay:5.988s"/><circle cx="445.8" cy="144.0" r="0.45" fill="#fff" opacity="0.29" class="star-mid" style="animation-duration:6.391s;animation-delay:1.517s"/><circle cx="110.5" cy="25.1" r="1.07" fill="#fff" opacity="0.32" class="star-mid" style="animation-duration:5.752s;animation-delay:4.366s"/><circle cx="667.1" cy="64.6" r="0.92" fill="#fff" opacity="0.42" class="star-mid" style="animation-duration:5.374s;animation-delay:4.318s"/><circle cx="741.7" cy="164.3" r="0.57" fill="#ffb020" opacity="0.30" class="star-mid" style="animation-duration:4.861s;animation-delay:1.839s"/><circle cx="166.9" cy="39.7" r="0.99" fill="#a78bfa" opacity="0.15" class="star-mid" style="animation-duration:4.061s;animation-delay:3.051s"/><circle cx="762.3" cy="49.4" r="0.80" fill="#00d4ff" opacity="0.16" class="star-mid" style="animation-duration:3.558s;animation-delay:0.814s"/><circle cx="578.0" cy="70.8" r="0.55" fill="#a78bfa" opacity="0.39" class="star-mid" style="animation-duration:6.601s;animation-delay:1.657s"/><circle cx="696.1" cy="85.1" r="0.98" fill="#a78bfa" opacity="0.20" class="star-mid" style="animation-duration:4.063s;animation-delay:1.200s"/><circle cx="471.5" cy="18.3" r="0.73" fill="#ffb020" opacity="0.17" class="star-mid" style="animation-duration:5.316s;animation-delay:1.566s"/><circle cx="347.6" cy="122.9" r="0.65" fill="#ffb020" opacity="0.25" class="star-mid" style="animation-duration:5.049s;animation-delay:3.802s"/><circle cx="428.5" cy="69.8" r="0.53" fill="#ffb020" opacity="0.33" class="star-mid" style="animation-duration:4.267s;animation-delay:2.531s"/><circle cx="163.9" cy="36.5" r="1.14" fill="#00d4ff" opacity="0.26" class="star-fg" style="animation-duration:4.159s;animation-delay:2.487s"/><circle cx="729.0" cy="83.7" r="1.39" fill="#fff" opacity="0.29" class="star-fg" style="animation-duration:2.129s;animation-delay:0.622s"/><circle cx="724.6" cy="134.0" r="1.32" fill="#fff" opacity="0.58" class="star-fg" style="animation-duration:3.748s;animation-delay:3.326s"/><circle cx="376.0" cy="146.4" r="1.18" fill="#fff" opacity="0.36" class="star-fg" style="animation-duration:2.977s;animation-delay:2.126s"/><circle cx="127.6" cy="36.5" r="0.71" fill="#a78bfa" opacity="0.56" class="star-fg" style="animation-duration:3.844s;animation-delay:0.269s"/><circle cx="108.0" cy="93.2" r="0.82" fill="#a78bfa" opacity="0.47" class="star-fg" style="animation-duration:4.309s;animation-delay:2.118s"/><circle cx="234.1" cy="160.4" r="1.44" fill="#fff" opacity="0.63" class="star-fg" style="animation-duration:4.254s;animation-delay:4.027s"/><circle cx="190.4" cy="67.2" r="0.74" fill="#00d4ff" opacity="0.49" class="star-fg" style="animation-duration:4.370s;animation-delay:4.076s"/><circle cx="227.5" cy="164.4" r="1.03" fill="#fff" opacity="0.45" class="star-fg" style="animation-duration:4.301s;animation-delay:0.163s"/><circle cx="232.3" cy="157.8" r="0.98" fill="#ffb020" opacity="0.47" class="star-fg" style="animation-duration:4.487s;animation-delay:2.173s"/><line x1="307" y1="36" x2="325" y2="41" stroke="url(#x743a279)" stroke-width="1.1" stroke-linecap="round" class="shooting-star" style="animation-delay:12.83s;--shoot-tx:113px;--shoot-ty:52px;animation-duration:3.84s"/><line x1="216" y1="5" x2="234" y2="10" stroke="url(#x743a279)" stroke-width="1.1" stroke-linecap="round" class="shooting-star" style="animation-delay:45.98s;--shoot-tx:95px;--shoot-ty:40px;animation-duration:3.05s"/><line x1="568" y1="57" x2="586" y2="62" stroke="url(#x743a279)" stroke-width="1.1" stroke-linecap="round" class="shooting-star" style="animation-delay:33.91s;--shoot-tx:87px;--shoot-ty:39px;animation-duration:5.03s"/><line x1="170.0" y1="55" x2="170.0" y2="155" stroke="#1a2332" stroke-width="1" opacity="0.5"/><line x1="340.0" y1="55" x2="340.0" y2="155" stroke="#1a2332" stroke-width="1" opacity="0.5"/><line x1="510.0" y1="55" x2="510.0" y2="155" stroke="#1a2332" stroke-width="1" opacity="0.5"/><line x1="680.0" y1="55" x2="680.0" y2="155" stroke="#1a2332" stroke-width="1" opacity="0.5"/><g class="metric-cell" transform="translate(85.0,95)"><g transform="translate(-8,-30)"><svg viewBox="0 0 16 16" width="16" height="16" fill="#00d4ff" class="metric-icon" style="animation-delay:0.0s"><path d="M8 1a7 7 0 1 0 0 14A7 7 0 0 0 8 1zm0 2.5a4.5 4.5 0 0 1 4.473 4H14.5a.5.5 0 0 1 0 1h-2.027A4.5 4.5 0 0 1 8 12.5a4.5 4.5 0 0 1-4.473-4H1.5a.5.5 0 0 1 0-1h2.027A4.5 4.5 0 0 1 8 3.5zm0 1.5a3 3 0 1 0 0 6 3 3 0 0 0 0-6z"/></svg></g><text x="0" y="2" text-anchor="middle" fill="#00d4ff" font-size="28" font-weight="bold" font-family="sans-serif" opacity="0.35" filter="url(#xdf01081)">607</text><text x="0" y="2" text-anchor="middle" fill="#f1f5f9" font-size="28" font-weight="bold" font-family="sans-serif">607</text><text x="0" y="20" text-anchor="middle" fill="#64748b" font-size="11" font-family="monospace" letter-spacing="1">Commits</text></g><g class="metric-cell" transform="translate(255.0,95)"><g transform="translate(-8,-30)"><svg viewBox="0 0 16 16" width="16" height="16" fill="#ffb020" class="metric-icon" style="animation-delay:0.3s"><path d="M8 .25a.75.75 0 0 1 .673.418l1.882 3.815 4.21.612a.75.75 0 0 1 .416 1.279l-3.046 2.97.719 4.192a.75.75 0 0 1-1.088.791L8 12.347l-3.766 1.98a.75.75 0 0 1-1.088-.79l.72-4.194L.818 6.374a.75.75 0 0 1 .416-1.28l4.21-.611L7.327.668A.75.75 0 0 1 8 .25z"/></svg></g><text x="0" y="2" text-anchor="middle" fill="#ffb020" font-size="28" font-weight="bold" font-family="sans-serif" opacity="0.35" filter="url(#xdf01081)">194</text><text x="0" y="2" text-anchor="middle" fill="#f1f5f9" font-size="28" font-weight="bold" font-family="sans-serif">194</text><text x="0" y="20" text-anchor="middle" fill="#64748b" font-size="11" font-family="monospace" letter-spacing="1">Stars</text></g><g class="metric-cell" transform="translate(425.0,95)"><g transform="translate(-8,-30)"><svg viewBox="0 0 16 16" width="16" height="16" fill="#a78bfa" class="metric-icon" style="animation-delay:0.6s"><path d="M5 3.254V3.25v.005a.75.75 0 1 1 0-.005zm6.5 8a.75.75 0 1 1 0 1.5.75.75 0 0 1 0-1.5zM5 12.75a.75.75 0 1 1 0 1.5.75.75 0 0 1 0-1.5zm-1.5.75a1.5 1.5 0 1 0 1.5 1.5v-8.5a1.5 1.5 0 1 0-1.5-1.5v8.5a1.5 1.5 0 0 0 0 0zm8.5-2.5a1.5 1.5 0 0 0-1.5 1.5 1.5 1.5 0 1 0 3 0v-3.133l.025-.05A3.252 3.252 0 0 0 11 5.25V3.5h1.25a.75.75 0 0 0 .53-1.28l-2-2a.75.75 0 0 0-1.06 0l-2 2A.75.75 0 0 0 8.25 3.5H9.5v1.75a1.75 1.75 0 0 0 1.75 1.75h.244a1.75 1.75 0 0 1 1.006.319V11a1.5 1.5 0 0 0-1.5-1.5z"/></svg></g><text x="0" y="2" text-anchor="middle" fill="#a78bfa" font-size="28" font-weight="bold" font-family="sans-serif" opacity="0.35" filter="url(#xdf01081)">1</text><text x="0" y="2" text-anchor="middle" fill="#f1f5f9" font-size="28" font-weight="bold" font-family="sans-serif">1</text><text x="0" y="20" text-anchor="middle" fill="#64748b" font-size="11" font-family="monospace" letter-spacing="1">PRs</text></g><g class="metric-cell" transform="translate(595.0,95)"><g transform="translate(-8,-30)"><svg viewBox="0 0 16 16" width="16" height="16" fill="#00d4ff" class="metric-icon" style="animation-delay:0.8999999999999999s"><path d="M8 9.5a1.5 1.5 0 1 0 0-3 1.5 1.5 0 0 0 0 3z"/><path d="M8 0a8 8 0 1 1 0 16A8 8 0 0 1 8 0zm0 1.5a6.5 6.5 0 1 0 0 13 6.5 6.5 0 0 0 0-13z"/></svg></g><text x="0" y="2" text-anchor="middle" fill="#00d4ff" font-size="28" font-weight="bold" font-family="sans-serif" opacity="0.35" filter="url(#xdf01081)">4</text><text x="0" y="2" text-anchor="middle" fill="#f1f5f9" font-size="28" font-weight="bold" font-family="sans-serif">4</text><text x="0" y="20" text-anchor="middle" fill="#64748b" font-size="11" font-family="monospace" letter-spacing="1">Issues</text></g><g class="metric-cell" transform="translate(765.0,95)"><g transform="translate(-8,-30)"><svg viewBox="0 0 16 16" width="16" height="16" fill="#a78bfa" class="metric-icon" style="animation-delay:1.2s"><path d="M2 2.5A2.5 2.5 0 0 1 4.5 0h8.75a.75.75 0 0 1 .75.75v12.5a.75.75 0 0 1-.75.75h-2.5a.75.75 0 0 1 0-1.5h1.75v-2h-8a1 1 0 0 0-.714 1.7.75.75 0 0 1-1.072 1.05A2.495 2.495 0 0 1 2 11.5zm10.5-1h-8a1 1 0 0 0-1 1v6.708A2.486 2.486 0 0 1 4.5 9h8zM5 12.25a.25.25 0 0 1 .25-.25h3.5a.25.25 0 0 1 .25.25v3.25a.25.25 0 0 1-.4.2l-1.45-1.087a.25.25 0 0 0-.3 0L5.4 15.7a.25.25 0 0 1-.4-.2z"/></svg></g><text x="0" y="2" text-anchor="middle" fill="#a78bfa" font-size="28" font-weight="bold" font-family="sans-serif" opacity="0.35" filter="url(#xdf01081)">24</text><text x="0" y="2" text-anchor="middle" fill="#f1f5f9" font-size="28" font-weight="bold" font-family="sans-serif">24</text><text x="0" y="20" text-anchor="middle" fill="#64748b" font-size="11" font-family="monospace" letter-spacing="1">Repos</text></g></svg>