<svg xmlns="http://www.w3.org/2000/svg" width="850" height="180" viewBox="0 0 850 180"><defs><style>.metric-icon{animation:count-glow 4s ease-in-out infinite}@keyframes count-glow{0%,100%{fill-opacity:0.7}50%{fill-opacity:1}}.star-bg{animation:twinkle-slow 7s ease-in-out infinite}.star-mid{animation:twinkle-mid 5s ease-in-out infinite}.star-fg{animation:twinkle-fast 3s ease-in-out infinite}@keyframes twinkle-slow{0%,100%{opacity:0.07}50%{opacity:0.30}}@keyframes twinkle-mid{0%,100%{opacity:0.12}50%{opacity:0.45}}@keyframes twinkle-fast{0%,100%{opacity:0.25}50%{opacity:0.65}}.shooting-star{opacity:0;animation:shoot linear infinite}@keyframes shoot{0%{opacity:0;transform:translate(0,0)}5%{opacity:0.9}15%{opacity:0.6;transform:translate(var(--shoot-tx),var(--shoot-ty))}20%{opacity:0;transform:translate(var(--shoot-tx),var(--shoot-ty))}100%{opacity:0}}</style><filter id="xdf01081" x="-30%" y="-30%" width="160%" height="160%"><feGaussianBlur stdDeviation="3"/></filter><radialGradient id="xe7d3b8d" cx="50%" cy="50%" r="80%"><stop offset="0%" stop-color="#0f1623" stop-opacity="0.85"/><stop offset="100%" stop-color="#080c14" stop-opacity="0"/></radialGradient><linearGradient id="x743a279" x1="0" y1="0" x2="1" y2="0"><stop offset="0%" stop-color="#fff" stop-opacity="0.85"/><stop offset="100%" stop-color="#fff" stop-opacity="0"/></linearGradient></defs><rect x="0" y="0" width="850" height="180" rx="14" ry="14" fill="#080c14"/><rect x="0" y="0" width="850" height="180" rx="14" ry="14" fill="url(#xe7d3b8d)"/><circle cx="327.4" cy="87.4" r="0.22" fill="#ffb020" opacity="0.22" class="star-bg" style="animation-duration:5.979s;animation-delay:0.303s"/><circle cx="421.5" cy="20.2" r="0.35" fill="#fff" opacity="0.21" class="star-bg" style="animation-duration:5.055s;animation-delay:1.724s"/><circle cx="435.8" cy="142.9" r="0.35" fill="#fff" opacity="0.23" class="star-bg" style="animation-duration:7.744s;animation-delay:2.872s"/><circle cx="117.1" cy="31.2" r="0.76" fill="#00d4ff" opacity="0.10" class="star-bg" style="animation-duration:5.269s;animation-delay:1.885s"/><circle cx="312.8" cy="39.0" r="0.23" fill="#fff" opacity="0.16" class="star-bg" style="animation-duration:6.605s;animation-delay:5.307s"/><circle cx="341.4" cy="38.1" r="0.47" fill="#a78bfa" opacity="0.19" class="star-bg" style="animation-duration:6.503s;animation-delay:3.614s"/><circle cx="692.0" cy="65.9" r="0.40" fill="#a78bfa" opacity="0.25" class="star-bg" style="animation-duration:8.155s;animation-delay:6.279s"/><circle cx="132.4" cy="111.1" r="0.69" fill="#a78bfa" opacity="0.23" class="star-bg" style="animation-duration:7.565s;animation-delay:6.791s"/><circle cx="605.5" cy="139.2" r="0.55" fill="#fff" opacity="0.07" class="star-bg" style="animation-duration:7.964s;animation-delay:4.925s"/><circle cx="328.9" cy="73.1" r="0.23" fill="#fff" opacity="0.21" class="star-bg" style="animation-duration:7.838s;animation-delay:7.803s"/><circle cx="164.5" cy="78.7" r="0.19" fill="#fff" opacity="0.09" class="star-bg" style="animation-duration:6.944s;animation-delay:6.649s"/><circle cx="833.4" cy="60.8" r="0.46" fill="#fff" opacity="0.16" class="star-bg" style="animation-duration:5.128s;animation-delay:2.535s"/><circle cx="766.3" cy="68.3" r="0.28" fill="#00d4ff" opacity="0.20" class="star-bg" style="animation-duration:6.948s;animation-delay:0.674s"/><circle cx="111.1" cy="170.0" r="0.21" fill="#ffb020" opacity="0.20" class="star-bg" style="animation-duration:8.196s;animation-delay:1.557s"/><circle cx="444.2" cy="44.7" r="0.77" fill="#ffb020" opacity="0.20" class="star-bg" style="animation-duration:5.880s;animation-delay:2.458s"/><circle cx="562.9" cy="118.2" r="0.61" fill="#fff" opacity="0.29" class="star-bg" style="animation-duration:5.267s;animation-delay:3.874s"/><circle cx="767.1" cy="41.1" r="0.59" fill="#fff" opacity="0.07" class="star-bg" style="animation-duration:6.322s;animation-delay:0.044s"/><circle cx="454.9" cy="29.9" r="0.83" fill="#a78bfa" opacity="0.08" class="star-bg" style="animation-duration:7.556s;animation-delay:3.384s"/><circle cx="591.5" cy="27.0" r="0.83" fill="#00d4ff" opacity="0.29" class="star-bg" style="animation-duration:7.683s;animation-delay:7.216s"/><circle cx="445.0" cy="83.0" r="0.83" fill="#ffb020" opacity="0.16" class="star-bg" style="animation-duration:5.702s;animation-delay:2.973s"/><circle cx="294.7" cy="54.1" r="0.55" fill="#00d4ff" opacity="0.18" class="star-bg" style="animation-duration:7.895s;animation-delay:4.549s"/><circle cx="714.0" cy="144.5" r="0.88" fill="#fff" opacity="0.23" class="star-bg" style="animation-duration:8.843s;animation-delay:5.487s"/><circle cx="519.1" cy="80.2" r="0.39" fill="#a78bfa" opacity="0.23" class="star-bg" style="animation-duration:7.408s;animation-delay:2.251s"/><circle cx="357.5" cy="140.1" r="0.47" fill="#a78bfa" opacity="0.12" class="star-bg" style="animation-duration:5.561s;animation-delay:4.999s"/><circle cx="99.5" cy="151.9" r="0.21" fill="#fff" opacity="0.21" class="star-bg" style="animation-duration:8.384s;animation-delay:7.752s"/><circle cx="18.6" cy="35.1" r="0.62" fill="#a78bfa" opacity="0.17" class="star-bg" style="animation-duration:6.790s;animation-delay:4.992s"/><circle cx="361.7" cy="42.6" r="0.46" fill="#a78bfa" opacity="0.29" class="star-bg" style="animation-duration:8.951s;animation-delay:7.726s"/><circle cx="91.0" cy="128.5" r="0.89" fill="#00d4ff" opacity="0.09" class="star-bg" style="animation-duration:8.501s;animation-delay:1.447s"/><circle cx="29.7" cy="28.1" r="0.56" fill="#ffb020" opacity="0.27" class="star-bg" style="animation-duration:8.788s;animation-delay:6.613s"/><circle cx="88.1" cy="162.4" r="0.83" fill="#fff" opacity="0.18" class="star-bg" style="animation-duration:8.910s;animation-delay:5.280s"/><circle cx="119.1" cy="21.4" r="0.69" fill="#00d4ff" opacity="0.16" class="star-bg" style="animation-duration:7.844s;animation-delay:0.825s"/><circle cx="568.4" cy="102.4" r="0.33" fill="#a78bfa" opacity="0.26" class="star-bg" style="animation-duration:7.130s;animation-delay:1.458s"/><circle cx="435.8" cy="162.7" r="0.29" fill="#fff" opacity="0.28" class="star-bg" style="animation-duration:6.309s;animation-delay:5.932s"/><circle cx="700.5" cy="114.1" r="0.48" fill="#00d4ff" opacity="0.24" class="star-bg" style="animation-duration:5.077s;animation-delay:4.412s"/><circle cx="370.7" cy="28.8" r="0.39" fill="#fff" opacity="0.29" class="star-bg" style="animation-duration:7.401s;animation-delay:1.743s"/><circle cx="440.0" cy="76.2" r="0.33" fill="#00d4ff" opacity="0.16" class="star-bg" style="animation-duration:5.221s;animation-delay:2.664s"/><circle cx="692.2" cy="142.7" r="0.81" fill="#00d4ff" opacity="0.22" class="star-bg" style="animation-duration:7.106s;animation-delay:6.855s"/><circle cx="184.0" cy="59.3" r="0.81" fill="#a78bfa" opacity="0.11" class="star-bg" style="animation-duration:7.046s;animation-delay:2.600s"/><circle cx="236.1" cy="147.7" r="0.47" fill="#ffb020" opacity="0.24" class="star-bg" style="animation-duration:8.012s;animation-delay:6.371s"/><circle cx="564.3" cy="161.6" r="0.45" fill="#fff" opacity="0.21" class="star-bg" style="animation-duration:8.870s;animation-delay:5.104s"/><circle cx="649.7" cy="159.0" r="0.41" fill="#00d4ff" opacity="0.35" class="star-mid" style="animation-duration:5.746s;animation-delay:2.927s"/><circle cx="400.8" cy="112.0" r="0.68" fill="#fff" opacity="0.16" class="star-mid" style="animation-duration:4.919s;animation-delay:1.168s"/><circle cx="289.8" cy="46.5" r="0.64" fill="#00d4ff" opacity="0.38" class="star-mid" style="animation-duration:6.006s;animation-delay:0.359s"/><circle cx="99.4" cy="58.0" r="0.72" fill="#fff" opacity="0.15" class="star-mid" style="animation-duration:4.938s;animation-delay:3.934s"/><circle cx="161.1" cy="56.1" r="0.62" fill="#00d4ff" opacity="0.38" class="star-mid" style="animation-duration:5.453s;animation-delay:5.256s"/><circle cx="417.1" cy="99.2" r="1.16" fill="#fff" opacity="0.42" class="star-mid" style="animation-duration:4.829s;animation-delay:2.884s"/><circle cx="404.6" cy="98.5" r="1.00" fill="#ffb020" opacity="0.16" class="star-mid" style="animation-duration:5.499s;animation-delay:2.535s"/><circle cx="762.0" cy="58.0" r="0.92" fill="#fff" opacity="0.37" class="star-mid" style="animation-duration:3.988s;animation-delay:2.946s"/><circle cx="592.7" cy="160.0" r="1.17" fill="#fff" opacity="0.21" class="star-mid" style="animation-duration:4.254s;animation-delay:3.163s"/><circle cx="761.6" cy="115.6" r="0.86" fill="#fff" opacity="0.34" class="star-mid" style="animation-duration:5.673s;animation-delay:5.463s"/><circle cx="302.9" cy="23.9" r="1.12" fill="#ffb020" opacity="0.38" class="star-mid" style="animation-duration:4.780s;animation-delay:3.544s"/><circle cx="771.9" cy="99.0" r="0.80" fill="#ffb020" opacity="0.36" class="star-mid" style="animation-duration:5.138s;animation-delay:0.906s"/><circle cx="759.6" cy="125.2" r="0.60" fill="#fff" opacity="0.15" class="star-mid" style="animation-duration:4.657s;animation-delay:0.186s"/><circle cx="189.6" cy="56.2" r="1.08" fill="#a78bfa" opacity="0.19" class="star-mid" style="animation-duration:6.085s;animation-delay:5.907s"/><circle cx="708.0" cy="52.7" r="0.47" fill="#fff" opacity="0.20" class="star-mid" style="animation-duration:3.505s;animation-delay:1.490s"/><circle cx="133.1" cy="53.8" r="1.04" fill="#00d4ff" opacity="0.37" class="star-mid" style="animation-duration:3.946s;animation-delay:0.622s"/><circle cx="47.7" cy="78.0" r="0.68" fill="#ffb020" opacity="0.37" class="star-mid" style="animation-duration:6.359s;animation-delay:5.385s"/><circle cx="276.7" cy="130.2" r="0.60" fill="#fff" opacity="0.28" class="star-mid" style="animation-duration:5.151s;animation-delay:1.472s"/><circle cx="254.8" cy="147.8" r="0.48" fill="#fff" opacity="0.19" class="star-mid" style="animation-duration:6.927s;animation-delay:0.381s"/><circle cx="640.5" cy="98.2" r="0.42" fill="#a78bfa" opacity="0.16" class="star-mid" style="animation-duration:4.429s;animation-delay:4.367s"/><circle cx="462.3" cy="37.2" r="0.49" fill="#ffb020" opacity="0.44" class="star-mid" style="animation-duration:5.200s;animation-delay:3.837s"/><circle cx="435.4" cy="92.6" r="0.48" fill="#00d4ff" opacity="0.32" class="star-mid" style="animation-duration:6.870s;animation-delay:2.285s"/><circle cx="408.3" cy="42.9" r="1.10" fill="#fff" opacity="0.31" class="star-mid" style="animation-duration:5.520s;animation-delay:4.736s"/><circle cx="438.0" cy="106.4" r="1.09" fill="#ffb020" opacity="0.33" class="star-mid" style="animation-duration:6.191s;animation-delay:0.817s"/><circle cx="548.3" cy="122.7" r="1.12" fill="#a78bfa" opacity="0.32" class="star-mid" style="animation-duration:6.351s;animation-delay:5.429s"/><circle cx="558.9" cy="82.3" r="0.96" fill="#fff" opacity="0.41" class="star-fg" style="animation-duration:2.114s;animation-delay:0.016s"/><circle cx="735.1" cy="48.7" r="1.47" fill="#fff" opacity="0.27" class="star-fg" style="animation-duration:4.033s;animation-delay:2.108s"/><circle cx="504.7" cy="139.1" r="0.80" fill="#a78bfa" opacity="0.52" class="star-fg" style="animation-duration:4.434s;animation-delay:3.563s"/><circle cx="218.7" cy="124.7" r="1.41" fill="#00d4ff" opacity="0.34" class="star-fg" style="animation-duration:4.133s;animation-delay:3.712s"/><circle cx="601.8" cy="37.7" r="0.83" fill="#00d4ff" opacity="0.58" class="star-fg" style="animation-duration:2.176s;animation-delay:1.940s"/><circle cx="261.4" cy="116.5" r="1.26" fill="#fff" opacity="0.41" class="star-fg" style="animation-duration:3.914s;animation-delay:2.023s"/><circle cx="286.0" cy="77.9" r="1.05" fill="#fff" opacity="0.36" class="star-fg" style="animation-duration:2.202s;animation-delay:1.286s"/><circle cx="256.9" cy="61.6" r="1.31" fill="#00d4ff" opacity="0.49" class="star-fg" style="animation-duration:3.185s;animation-delay:0.773s"/><circle cx="534.7" cy="100.1" r="1.48" fill="#a78bfa" opacity="0.35" class="star-fg" style="animation-duration:2.619s;animation-delay:0.126s"/><circle cx="455.5" cy="72.1" r="1.08" fill="#fff" opacity="0.26" class="star-fg" style="animation-duration:3.844s;animation-delay:3.808s"/><line x1="88" y1="70" x2="106" y2="75" stroke="url(#x743a279)" stroke-width="1.1" stroke-linecap="round" class="shooting-star" style="animation-delay:26.19s;--shoot-tx:85px;--shoot-ty:43px;animation-duration:2.64s"/><line x1="377" y1="23" x2="395" y2="28" stroke="url(#x743a279)" stroke-width="1.1" stroke-linecap="round" class="shooting-star" style="animation-delay:9.15s;--shoot-tx:105px;--shoot-ty:29px;animation-duration:2.67s"/><line x1="535" y1="24" x2="553" y2="29" stroke="url(#x743a279)" stroke-width="1.1" stroke-linecap="round" class="shooting-star" style="animation-delay:40.58s;--shoot-tx:84px;--shoot-ty:31px;animation-duration:2.9s"/><line x1="170.0" y1="55" x2="170.0" y2="155" stroke="#1a2332" stroke-width="1" opacity="0.5"/><line x1="340.0" y1="55" x2="340.0" y2="155" stroke="#1a2332" stroke-width="1" opacity="0.5"/><line x1="510.0" y1="55" x2="510.0" y2="155" stroke="#1a2332" stroke-width="1" opacity="0.5"/><line x1="680.0" y1="55" x2="680.0" y2="155" stroke="#1a2332" stroke-width="1" opacity="0.5"/><g class="metric-cell" transform="translate(85.0,95)"><g transform="translate(-8,-30)"><svg viewBox="0 0 16 16" width="16" height="16" fill="#00d4ff" class="metric-icon" style="animation-delay:0.0s"><path d="M8 1a7 7 0 1 0 0 14A7 7 0 0 0 8 1zm0 2.5a4.5 4.5 0 0 1 4.473 4H14.5a.5.5 0 0 1 0 1h-2.027A4.5 4.5 0 0 1 8 12.5a4.5 4.5 0 0 1-4.473-4H1.5a.5.5 0 0 1 0-1h2.027A4.5 4.5 0 0 1 8 3.5zm0 1.5a3 3 0 1 0 0 6 3 3 0 0 0 0-6z"/></svg></g><text x="0" y="2" text-anchor="middle" fill="#00d4ff" font-size="28" font-weight="bold" font-family="sans-serif" opacity="0.35" filter="url(#xdf01081)">596</text><text x="0" y="2" text-anchor="middle" fill="#f1f5f9" font-size="28" font-weight="bold" font-family="sans-serif">596</text><text x="0" y="20" text-anchor="middle" fill="#64748b" font-size="11" font-family="monospace" letter-spacing="1">Commits</text></g><g class="metric-cell" transform="translate(255.0,95)"><g transform="translate(-8,-30)"><svg viewBox="0 0 16 16" width="16" height="16" fill="#ffb020" class="metric-icon" style="animation-delay:0.3s"><path d="M8 .25a.75.75 0 0 1 .673.418l1.882 3.815 4.21.612a.75.75 0 0 1 .416 1.279l-3.046 2.97.719 4.192a.75.75 0 0 1-1.088.791L8 12.347l-3.766 1.98a.75.75 0 0 1-1.088-.79l.72-4.194L.818 6.374a.75.75 0 0 1 .416-1.28l4.21-.611L7.327.668A.75.75 0 0 1 8 .25z"/></svg></g><text x="0" y="2" text-anchor="middle" fill="#ffb020" font-size="28" font-weight="bold" font-family="sans-serif" opacity="0.35" filter="url(#xdf01081)">209</text><text x="0" y="2" text-anchor="middle" fill="#f1f5f9" font-size="28" font-weight="bold" font-family="sans-serif">209</text><text x="0" y="20" text-anchor="middle" fill="#64748b" font-size="11" font-family="monospace" letter-spacing="1">Stars</text></g><g class="metric-cell" transform="translate(425.0,95)"><g transform="translate(-8,-30)"><svg viewBox="0 0 16 16" width="16" height="16" fill="#a78bfa" class="metric-icon" style="animation-delay:0.6s"><path d="M5 3.254V3.25v.005a.75.75 0 1 1 0-.005zm6.5 8a.75.75 0 1 1 0 1.5.75.75 0 0 1 0-1.5zM5 12.75a.75.75 0 1 1 0 1.5.75.75 0 0 1 0-1.5zm-1.5.75a1.5 1.5 0 1 0 1.5 1.5v-8.5a1.5 1.5 0 1 0-1.5-1.5v8.5a1.5 1.5 0 0 0 0 0zm8.5-2.5a1.5 1.5 0 0 0-1.5 1.5 1.5 1.5 0 1 0 3 0v-3.133l.025-.05A3.252 3.252 0 0 0 11 5.25V3.5h1.25a.75.75 0 0 0 .53-1.28l-2-2a.75.75 0 0 0-1.06 0l-2 2A.75.75 0 0 0 8.25 3.5H9.5v1.75a1.75 1.75 0 0 0 1.75 1.75h.244a1.75 1.75 0 0 1 1.006.319V11a1.5 1.5 0 0 0-1.5-1.5z"/></svg></g><text x="0" y="2" text-anchor="middle" fill="#a78bfa" font-size="28" font-weight="bold" font-family="sans-serif" opacity="0.35" filter="url(#xdf01081)">2</text><text x="0" y="2" text-anchor="middle" fill="#f1f5f9" font-size="28" font-weight="bold" font-family="sans-serif">2</text><text x="0" y="20" text-anchor="middle" fill="#64748b" font-size="11" font-family="monospace" letter-spacing="1">PRs</text></g><g class="metric-cell" transform="translate(595.0,95)"><g transform="translate(-8,-30)"><svg viewBox="0 0 16 16" width="16" height="16" fill="#00d4ff" class="metric-icon" style="animation-delay:0.8999999999999999s"><path d="M8 9.5a1.5 1.5 0 1 0 0-3 1.5 1.5 0 0 0 0 3z"/><path d="M8 0a8 8 0 1 1 0 16A8 8 0 0 1 8 0zm0 1.5a6.5 6.5 0 1 0 0 13 6.5 6.5 0 0 0 0-13z"/></svg></g><text x="0" y="2" text-anchor="middle" fill="#00d4ff" font-size="28" font-weight="bold" font-family="sans-serif" opacity="0.35" filter="url(#xdf01081)">5</text><text x="0" y="2" text-anchor="middle" fill="#f1f5f9" font-size="28" font-weight="bold" font-family="sans-serif">5</text><text x="0" y="20" text-anchor="middle" fill="#64748b" font-size="11" font-family="monospace" letter-spacing="1">Issues</text></g><g class="metric-cell" transform="translate(765.0,95)"><g transform="translate(-8,-30)"><svg viewBox="0 0 16 16" width="16" height="16" fill="#a78bfa" class="metric-icon" style="animation-delay:1.2s"><path d="M2 2.5A2.5 2.5 0 0 1 4.5 0h8.75a.75.75 0 0 1 .75.75v12.5a.75.75 0 0 1-.75.75h-2.5a.75.75 0 0 1 0-1.5h1.75v-2h-8a1 1 0 0 0-.714 1.7.75.75 0 0 1-1.072 1.05A2.495 2.495 0 0 1 2 11.5zm10.5-1h-8a1 1 0 0 0-1 1v6.708A2.486 2.486 0 0 1 4.5 9h8zM5 12.25a.25.25 0 0 1 .25-.25h3.5a.25.25 0 0 1 .25.25v3.25a.25.25 0 0 1-.4.2l-1.45-1.087a.25.25 0 0 0-.3 0L5.4 15.7a.25.25 0 0 1-.4-.2z"/></svg></g><text x="0" y="2" text-anchor="middle" fill="#a78bfa" font-size="28" font-weight="bold" font-family="sans-serif" opacity="0.35" filter="url(#xdf01081)">26</text><text x="0" y="2" text-anchor="middle" fill="#f1f5f9" font-size="28" font-weight="bold" font-family="sans-serif">26</text><text x="0" y="20" text-anchor="middle" fill="#64748b" font-size="11" font-family="monospace" letter-spacing="1">Repos</text></g></svg>