<svg xmlns="http://www.w3.org/2000/svg" width="850" height="180" viewBox="0 0 850 180"><defs><style>.metric-icon{animation:count-glow 4s ease-in-out infinite}@keyframes count-glow{0%,100%{fill-opacity:0.7}50%{fill-opacity:1}}.star-bg{animation:twinkle-slow 7s ease-in-out infinite}.star-mid{animation:twinkle-mid 5s ease-in-out infinite}.star-fg{animation:twinkle-fast 3s ease-in-out infinite}@keyframes twinkle-slow{0%,100%{opacity:0.07}50%{opacity:0.30}}@keyframes twinkle-mid{0%,100%{opacity:0.12}50%{opacity:0.45}}@keyframes twinkle-fast{0%,100%{opacity:0.25}50%{opacity:0.65}}.shooting-star{opacity:0;animation:shoot linear infinite}@keyframes shoot{0%{opacity:0;transform:translate(0,0)}5%{opacity:0.9}15%{opacity:0.6;transform:translate(var(--shoot-tx),var(--shoot-ty))}20%{opacity:0;transform:translate(var(--shoot-tx),var(--shoot-ty))}100%{opacity:0}}</style><filter id="xdf01081" x="-30%" y="-30%" width="160%" height="160%"><feGaussianBlur stdDeviation="3"/></filter><radialGradient id="xe7d3b8d" cx="50%" cy="50%" r="80%"><stop offset="0%" stop-color="#0f1623" stop-opacity="0.85"/><stop offset="100%" stop-color="#080c14" stop-opacity="0"/></radialGradient><linearGradient id="x743a279" x1="0" y1="0" x2="1" y2="0"><stop offset="0%" stop-color="#fff" stop-opacity="0.85"/><stop offset="100%" stop-color="#fff" stop-opacity="0"/></linearGradient></defs><rect x="0" y="0" width="850" height="180" rx="14" ry="14" fill="#080c14"/><rect x="0" y="0" width="850" height="180" rx="14" ry="14" fill="url(#xe7d3b8d)"/><circle cx="501.9" cy="86.4" r="0.84" fill="#fff" opacity="0.29" class="star-bg" style="animation-duration:6.687s;animation-delay:0.018s"/><circle cx="587.5" cy="113.8" r="0.56" fill="#fff" opacity="0.27" class="star-bg" style="animation-duration:6.470s;animation-delay:3.065s"/><circle cx="150.4" cy="45.8" r="0.67" fill="#fff" opacity="0.14" class="star-bg" style="animation-duration:5.607s;animation-delay:2.767s"/><circle cx="57.7" cy="156.5" r="0.18" fill="#fff" opacity="0.20" class="star-bg" style="animation-duration:8.315s;animation-delay:1.199s"/><circle cx="697.5" cy="106.2" r="0.41" fill="#fff" opacity="0.29" class="star-bg" style="animation-duration:5.267s;animation-delay:4.630s"/><circle cx="367.6" cy="52.6" r="0.71" fill="#a78bfa" opacity="0.08" class="star-bg" style="animation-duration:5.572s;animation-delay:3.724s"/><circle cx="662.4" cy="105.9" r="0.78" fill="#fff" opacity="0.27" class="star-bg" style="animation-duration:6.291s;animation-delay:3.833s"/><circle cx="534.2" cy="123.4" r="0.57" fill="#fff" opacity="0.14" class="star-bg" style="animation-duration:6.754s;animation-delay:2.976s"/><circle cx="419.2" cy="59.4" r="0.19" fill="#fff" opacity="0.18" class="star-bg" style="animation-duration:8.646s;animation-delay:4.697s"/><circle cx="29.6" cy="108.1" r="0.90" fill="#a78bfa" opacity="0.19" class="star-bg" style="animation-duration:8.425s;animation-delay:5.770s"/><circle cx="580.6" cy="107.7" r="0.23" fill="#ffb020" opacity="0.22" class="star-bg" style="animation-duration:6.536s;animation-delay:2.652s"/><circle cx="660.7" cy="152.0" r="0.19" fill="#00d4ff" opacity="0.28" class="star-bg" style="animation-duration:5.001s;animation-delay:1.894s"/><circle cx="163.5" cy="62.5" r="0.40" fill="#fff" opacity="0.20" class="star-bg" style="animation-duration:5.800s;animation-delay:4.758s"/><circle cx="556.2" cy="22.6" r="0.76" fill="#fff" opacity="0.23" class="star-bg" style="animation-duration:8.589s;animation-delay:4.143s"/><circle cx="766.8" cy="167.8" r="0.23" fill="#a78bfa" opacity="0.29" class="star-bg" style="animation-duration:7.313s;animation-delay:0.726s"/><circle cx="822.7" cy="28.4" r="0.20" fill="#00d4ff" opacity="0.28" class="star-bg" style="animation-duration:5.094s;animation-delay:1.667s"/><circle cx="627.6" cy="164.1" r="0.58" fill="#fff" opacity="0.23" class="star-bg" style="animation-duration:7.357s;animation-delay:5.797s"/><circle cx="146.6" cy="123.0" r="0.20" fill="#a78bfa" opacity="0.27" class="star-bg" style="animation-duration:7.454s;animation-delay:2.013s"/><circle cx="341.1" cy="153.9" r="0.28" fill="#a78bfa" opacity="0.11" class="star-bg" style="animation-duration:8.755s;animation-delay:3.245s"/><circle cx="156.1" cy="140.4" r="0.51" fill="#fff" opacity="0.22" class="star-bg" style="animation-duration:6.691s;animation-delay:5.920s"/><circle cx="187.9" cy="36.6" r="0.36" fill="#ffb020" opacity="0.18" class="star-bg" style="animation-duration:7.338s;animation-delay:3.687s"/><circle cx="700.4" cy="137.9" r="0.69" fill="#a78bfa" opacity="0.26" class="star-bg" style="animation-duration:8.908s;animation-delay:7.122s"/><circle cx="374.8" cy="98.9" r="0.81" fill="#a78bfa" opacity="0.09" class="star-bg" style="animation-duration:8.966s;animation-delay:8.060s"/><circle cx="265.5" cy="159.1" r="0.33" fill="#fff" opacity="0.13" class="star-bg" style="animation-duration:5.430s;animation-delay:2.456s"/><circle cx="484.5" cy="38.3" r="0.66" fill="#00d4ff" opacity="0.18" class="star-bg" style="animation-duration:8.672s;animation-delay:3.309s"/><circle cx="619.5" cy="76.4" r="0.20" fill="#fff" opacity="0.15" class="star-bg" style="animation-duration:8.038s;animation-delay:4.767s"/><circle cx="425.4" cy="164.5" r="0.29" fill="#a78bfa" opacity="0.29" class="star-bg" style="animation-duration:6.897s;animation-delay:1.027s"/><circle cx="542.1" cy="28.5" r="0.67" fill="#00d4ff" opacity="0.28" class="star-bg" style="animation-duration:6.783s;animation-delay:2.920s"/><circle cx="584.3" cy="33.6" r="0.21" fill="#fff" opacity="0.25" class="star-bg" style="animation-duration:8.040s;animation-delay:6.879s"/><circle cx="191.0" cy="147.6" r="0.69" fill="#00d4ff" opacity="0.27" class="star-bg" style="animation-duration:8.708s;animation-delay:6.916s"/><circle cx="98.7" cy="148.4" r="0.47" fill="#fff" opacity="0.10" class="star-bg" style="animation-duration:8.357s;animation-delay:8.276s"/><circle cx="561.9" cy="146.7" r="0.52" fill="#fff" opacity="0.28" class="star-bg" style="animation-duration:8.332s;animation-delay:3.712s"/><circle cx="784.8" cy="119.4" r="0.62" fill="#ffb020" opacity="0.17" class="star-bg" style="animation-duration:6.163s;animation-delay:3.644s"/><circle cx="304.8" cy="161.6" r="0.70" fill="#ffb020" opacity="0.29" class="star-bg" style="animation-duration:6.033s;animation-delay:4.764s"/><circle cx="209.5" cy="43.9" r="0.76" fill="#ffb020" opacity="0.15" class="star-bg" style="animation-duration:7.672s;animation-delay:5.461s"/><circle cx="253.5" cy="75.8" r="0.68" fill="#fff" opacity="0.11" class="star-bg" style="animation-duration:7.344s;animation-delay:0.468s"/><circle cx="646.3" cy="144.4" r="0.88" fill="#a78bfa" opacity="0.16" class="star-bg" style="animation-duration:5.360s;animation-delay:1.360s"/><circle cx="757.2" cy="81.7" r="0.36" fill="#00d4ff" opacity="0.13" class="star-bg" style="animation-duration:6.152s;animation-delay:0.731s"/><circle cx="693.3" cy="84.0" r="0.79" fill="#ffb020" opacity="0.18" class="star-bg" style="animation-duration:6.359s;animation-delay:4.570s"/><circle cx="640.4" cy="57.0" r="0.86" fill="#ffb020" opacity="0.13" class="star-bg" style="animation-duration:8.188s;animation-delay:1.934s"/><circle cx="541.0" cy="113.1" r="0.95" fill="#fff" opacity="0.21" class="star-mid" style="animation-duration:6.212s;animation-delay:4.327s"/><circle cx="247.7" cy="73.5" r="1.03" fill="#ffb020" opacity="0.40" class="star-mid" style="animation-duration:6.236s;animation-delay:2.943s"/><circle cx="395.3" cy="117.2" r="0.95" fill="#00d4ff" opacity="0.22" class="star-mid" style="animation-duration:4.703s;animation-delay:2.857s"/><circle cx="98.3" cy="77.3" r="0.70" fill="#fff" opacity="0.44" class="star-mid" style="animation-duration:6.593s;animation-delay:6.274s"/><circle cx="448.3" cy="67.8" r="0.97" fill="#ffb020" opacity="0.44" class="star-mid" style="animation-duration:4.293s;animation-delay:1.086s"/><circle cx="351.1" cy="93.2" r="0.78" fill="#fff" opacity="0.37" class="star-mid" style="animation-duration:6.914s;animation-delay:3.097s"/><circle cx="742.2" cy="118.7" r="0.97" fill="#fff" opacity="0.27" class="star-mid" style="animation-duration:4.316s;animation-delay:1.032s"/><circle cx="427.2" cy="24.4" r="0.56" fill="#fff" opacity="0.39" class="star-mid" style="animation-duration:5.954s;animation-delay:0.744s"/><circle cx="797.0" cy="82.8" r="0.73" fill="#fff" opacity="0.35" class="star-mid" style="animation-duration:5.178s;animation-delay:4.414s"/><circle cx="716.8" cy="50.2" r="0.89" fill="#fff" opacity="0.32" class="star-mid" style="animation-duration:4.883s;animation-delay:2.107s"/><circle cx="473.6" cy="162.0" r="0.44" fill="#fff" opacity="0.31" class="star-mid" style="animation-duration:4.422s;animation-delay:2.425s"/><circle cx="85.5" cy="135.2" r="0.60" fill="#a78bfa" opacity="0.31" class="star-mid" style="animation-duration:4.269s;animation-delay:3.950s"/><circle cx="27.7" cy="121.4" r="1.00" fill="#a78bfa" opacity="0.42" class="star-mid" style="animation-duration:5.787s;animation-delay:3.333s"/><circle cx="779.2" cy="57.6" r="0.98" fill="#ffb020" opacity="0.27" class="star-mid" style="animation-duration:6.961s;animation-delay:1.844s"/><circle cx="798.8" cy="52.9" r="0.67" fill="#ffb020" opacity="0.20" class="star-mid" style="animation-duration:6.049s;animation-delay:3.434s"/><circle cx="80.4" cy="112.3" r="0.65" fill="#fff" opacity="0.44" class="star-mid" style="animation-duration:3.678s;animation-delay:2.730s"/><circle cx="549.0" cy="102.4" r="0.44" fill="#00d4ff" opacity="0.18" class="star-mid" style="animation-duration:3.716s;animation-delay:1.725s"/><circle cx="798.1" cy="30.7" r="0.88" fill="#ffb020" opacity="0.43" class="star-mid" style="animation-duration:4.607s;animation-delay:0.713s"/><circle cx="412.3" cy="53.9" r="0.58" fill="#fff" opacity="0.19" class="star-mid" style="animation-duration:4.088s;animation-delay:2.603s"/><circle cx="305.5" cy="154.9" r="1.20" fill="#00d4ff" opacity="0.24" class="star-mid" style="animation-duration:4.102s;animation-delay:0.828s"/><circle cx="370.7" cy="85.1" r="0.93" fill="#00d4ff" opacity="0.41" class="star-mid" style="animation-duration:3.991s;animation-delay:3.179s"/><circle cx="393.3" cy="107.8" r="0.84" fill="#a78bfa" opacity="0.40" class="star-mid" style="animation-duration:4.226s;animation-delay:1.378s"/><circle cx="441.4" cy="159.2" r="0.72" fill="#fff" opacity="0.29" class="star-mid" style="animation-duration:3.692s;animation-delay:0.988s"/><circle cx="422.4" cy="144.0" r="0.56" fill="#ffb020" opacity="0.13" class="star-mid" style="animation-duration:6.854s;animation-delay:4.353s"/><circle cx="211.3" cy="69.2" r="0.59" fill="#a78bfa" opacity="0.20" class="star-mid" style="animation-duration:6.599s;animation-delay:6.123s"/><circle cx="677.7" cy="95.6" r="1.31" fill="#00d4ff" opacity="0.46" class="star-fg" style="animation-duration:2.640s;animation-delay:1.708s"/><circle cx="451.6" cy="115.0" r="1.14" fill="#a78bfa" opacity="0.59" class="star-fg" style="animation-duration:2.264s;animation-delay:0.253s"/><circle cx="656.7" cy="15.8" r="1.31" fill="#ffb020" opacity="0.52" class="star-fg" style="animation-duration:3.526s;animation-delay:2.360s"/><circle cx="582.1" cy="50.5" r="0.84" fill="#a78bfa" opacity="0.54" class="star-fg" style="animation-duration:2.652s;animation-delay:1.772s"/><circle cx="315.7" cy="18.6" r="1.31" fill="#fff" opacity="0.40" class="star-fg" style="animation-duration:4.451s;animation-delay:0.460s"/><circle cx="237.4" cy="117.3" r="0.83" fill="#ffb020" opacity="0.28" class="star-fg" style="animation-duration:3.447s;animation-delay:1.689s"/><circle cx="44.6" cy="117.3" r="1.50" fill="#fff" opacity="0.44" class="star-fg" style="animation-duration:2.478s;animation-delay:0.361s"/><circle cx="327.2" cy="50.1" r="1.00" fill="#fff" opacity="0.37" class="star-fg" style="animation-duration:4.466s;animation-delay:3.403s"/><circle cx="836.1" cy="165.1" r="1.13" fill="#a78bfa" opacity="0.59" class="star-fg" style="animation-duration:2.843s;animation-delay:0.225s"/><circle cx="306.0" cy="15.0" r="0.79" fill="#00d4ff" opacity="0.56" class="star-fg" style="animation-duration:4.095s;animation-delay:1.724s"/><line x1="461" y1="43" x2="479" y2="48" stroke="url(#x743a279)" stroke-width="1.1" stroke-linecap="round" class="shooting-star" style="animation-delay:48.94s;--shoot-tx:105px;--shoot-ty:32px;animation-duration:2.13s"/><line x1="184" y1="79" x2="202" y2="84" stroke="url(#x743a279)" stroke-width="1.1" stroke-linecap="round" class="shooting-star" style="animation-delay:57.03s;--shoot-tx:103px;--shoot-ty:48px;animation-duration:2.06s"/><line x1="323" y1="41" x2="341" y2="46" stroke="url(#x743a279)" stroke-width="1.1" stroke-linecap="round" class="shooting-star" style="animation-delay:55.95s;--shoot-tx:104px;--shoot-ty:50px;animation-duration:2.55s"/><line x1="170.0" y1="55" x2="170.0" y2="155" stroke="#1a2332" stroke-width="1" opacity="0.5"/><line x1="340.0" y1="55" x2="340.0" y2="155" stroke="#1a2332" stroke-width="1" opacity="0.5"/><line x1="510.0" y1="55" x2="510.0" y2="155" stroke="#1a2332" stroke-width="1" opacity="0.5"/><line x1="680.0" y1="55" x2="680.0" y2="155" stroke="#1a2332" stroke-width="1" opacity="0.5"/><g class="metric-cell" transform="translate(85.0,95)"><g transform="translate(-8,-30)"><svg viewBox="0 0 16 16" width="16" height="16" fill="#00d4ff" class="metric-icon" style="animation-delay:0.0s"><path d="M8 1a7 7 0 1 0 0 14A7 7 0 0 0 8 1zm0 2.5a4.5 4.5 0 0 1 4.473 4H14.5a.5.5 0 0 1 0 1h-2.027A4.5 4.5 0 0 1 8 12.5a4.5 4.5 0 0 1-4.473-4H1.5a.5.5 0 0 1 0-1h2.027A4.5 4.5 0 0 1 8 3.5zm0 1.5a3 3 0 1 0 0 6 3 3 0 0 0 0-6z"/></svg></g><text x="0" y="2" text-anchor="middle" fill="#00d4ff" font-size="28" font-weight="bold" font-family="sans-serif" opacity="0.35" filter="url(#xdf01081)">578</text><text x="0" y="2" text-anchor="middle" fill="#f1f5f9" font-size="28" font-weight="bold" font-family="sans-serif">578</text><text x="0" y="20" text-anchor="middle" fill="#64748b" font-size="11" font-family="monospace" letter-spacing="1">Commits</text></g><g class="metric-cell" transform="translate(255.0,95)"><g transform="translate(-8,-30)"><svg viewBox="0 0 16 16" width="16" height="16" fill="#ffb020" class="metric-icon" style="animation-delay:0.3s"><path d="M8 .25a.75.75 0 0 1 .673.418l1.882 3.815 4.21.612a.75.75 0 0 1 .416 1.279l-3.046 2.97.719 4.192a.75.75 0 0 1-1.088.791L8 12.347l-3.766 1.98a.75.75 0 0 1-1.088-.79l.72-4.194L.818 6.374a.75.75 0 0 1 .416-1.28l4.21-.611L7.327.668A.75.75 0 0 1 8 .25z"/></svg></g><text x="0" y="2" text-anchor="middle" fill="#ffb020" font-size="28" font-weight="bold" font-family="sans-serif" opacity="0.35" filter="url(#xdf01081)">209</text><text x="0" y="2" text-anchor="middle" fill="#f1f5f9" font-size="28" font-weight="bold" font-family="sans-serif">209</text><text x="0" y="20" text-anchor="middle" fill="#64748b" font-size="11" font-family="monospace" letter-spacing="1">Stars</text></g><g class="metric-cell" transform="translate(425.0,95)"><g transform="translate(-8,-30)"><svg viewBox="0 0 16 16" width="16" height="16" fill="#a78bfa" class="metric-icon" style="animation-delay:0.6s"><path d="M5 3.254V3.25v.005a.75.75 0 1 1 0-.005zm6.5 8a.75.75 0 1 1 0 1.5.75.75 0 0 1 0-1.5zM5 12.75a.75.75 0 1 1 0 1.5.75.75 0 0 1 0-1.5zm-1.5.75a1.5 1.5 0 1 0 1.5 1.5v-8.5a1.5 1.5 0 1 0-1.5-1.5v8.5a1.5 1.5 0 0 0 0 0zm8.5-2.5a1.5 1.5 0 0 0-1.5 1.5 1.5 1.5 0 1 0 3 0v-3.133l.025-.05A3.252 3.252 0 0 0 11 5.25V3.5h1.25a.75.75 0 0 0 .53-1.28l-2-2a.75.75 0 0 0-1.06 0l-2 2A.75.75 0 0 0 8.25 3.5H9.5v1.75a1.75 1.75 0 0 0 1.75 1.75h.244a1.75 1.75 0 0 1 1.006.319V11a1.5 1.5 0 0 0-1.5-1.5z"/></svg></g><text x="0" y="2" text-anchor="middle" fill="#a78bfa" font-size="28" font-weight="bold" font-family="sans-serif" opacity="0.35" filter="url(#xdf01081)">3</text><text x="0" y="2" text-anchor="middle" fill="#f1f5f9" font-size="28" font-weight="bold" font-family="sans-serif">3</text><text x="0" y="20" text-anchor="middle" fill="#64748b" font-size="11" font-family="monospace" letter-spacing="1">PRs</text></g><g class="metric-cell" transform="translate(595.0,95)"><g transform="translate(-8,-30)"><svg viewBox="0 0 16 16" width="16" height="16" fill="#00d4ff" class="metric-icon" style="animation-delay:0.8999999999999999s"><path d="M8 9.5a1.5 1.5 0 1 0 0-3 1.5 1.5 0 0 0 0 3z"/><path d="M8 0a8 8 0 1 1 0 16A8 8 0 0 1 8 0zm0 1.5a6.5 6.5 0 1 0 0 13 6.5 6.5 0 0 0 0-13z"/></svg></g><text x="0" y="2" text-anchor="middle" fill="#00d4ff" font-size="28" font-weight="bold" font-family="sans-serif" opacity="0.35" filter="url(#xdf01081)">5</text><text x="0" y="2" text-anchor="middle" fill="#f1f5f9" font-size="28" font-weight="bold" font-family="sans-serif">5</text><text x="0" y="20" text-anchor="middle" fill="#64748b" font-size="11" font-family="monospace" letter-spacing="1">Issues</text></g><g class="metric-cell" transform="translate(765.0,95)"><g transform="translate(-8,-30)"><svg viewBox="0 0 16 16" width="16" height="16" fill="#a78bfa" class="metric-icon" style="animation-delay:1.2s"><path d="M2 2.5A2.5 2.5 0 0 1 4.5 0h8.75a.75.75 0 0 1 .75.75v12.5a.75.75 0 0 1-.75.75h-2.5a.75.75 0 0 1 0-1.5h1.75v-2h-8a1 1 0 0 0-.714 1.7.75.75 0 0 1-1.072 1.05A2.495 2.495 0 0 1 2 11.5zm10.5-1h-8a1 1 0 0 0-1 1v6.708A2.486 2.486 0 0 1 4.5 9h8zM5 12.25a.25.25 0 0 1 .25-.25h3.5a.25.25 0 0 1 .25.25v3.25a.25.25 0 0 1-.4.2l-1.45-1.087a.25.25 0 0 0-.3 0L5.4 15.7a.25.25 0 0 1-.4-.2z"/></svg></g><text x="0" y="2" text-anchor="middle" fill="#a78bfa" font-size="28" font-weight="bold" font-family="sans-serif" opacity="0.35" filter="url(#xdf01081)">29</text><text x="0" y="2" text-anchor="middle" fill="#f1f5f9" font-size="28" font-weight="bold" font-family="sans-serif">29</text><text x="0" y="20" text-anchor="middle" fill="#64748b" font-size="11" font-family="monospace" letter-spacing="1">Repos</text></g></svg>