<svg xmlns="http://www.w3.org/2000/svg" width="850" height="180" viewBox="0 0 850 180"><defs><style>.metric-icon{animation:count-glow 4s ease-in-out infinite}@keyframes count-glow{0%,100%{fill-opacity:0.7}50%{fill-opacity:1}}.star-bg{animation:twinkle-slow 7s ease-in-out infinite}.star-mid{animation:twinkle-mid 5s ease-in-out infinite}.star-fg{animation:twinkle-fast 3s ease-in-out infinite}@keyframes twinkle-slow{0%,100%{opacity:0.07}50%{opacity:0.30}}@keyframes twinkle-mid{0%,100%{opacity:0.12}50%{opacity:0.45}}@keyframes twinkle-fast{0%,100%{opacity:0.25}50%{opacity:0.65}}.shooting-star{opacity:0;animation:shoot linear infinite}@keyframes shoot{0%{opacity:0;transform:translate(0,0)}5%{opacity:0.9}15%{opacity:0.6;transform:translate(var(--shoot-tx),var(--shoot-ty))}20%{opacity:0;transform:translate(var(--shoot-tx),var(--shoot-ty))}100%{opacity:0}}</style><filter id="xdf01081" x="-30%" y="-30%" width="160%" height="160%"><feGaussianBlur stdDeviation="3"/></filter><radialGradient id="xe7d3b8d" cx="50%" cy="50%" r="80%"><stop offset="0%" stop-color="#0f1623" stop-opacity="0.85"/><stop offset="100%" stop-color="#080c14" stop-opacity="0"/></radialGradient><linearGradient id="x743a279" x1="0" y1="0" x2="1" y2="0"><stop offset="0%" stop-color="#fff" stop-opacity="0.85"/><stop offset="100%" stop-color="#fff" stop-opacity="0"/></linearGradient></defs><rect x="0" y="0" width="850" height="180" rx="14" ry="14" fill="#080c14"/><rect x="0" y="0" width="850" height="180" rx="14" ry="14" fill="url(#xe7d3b8d)"/><circle cx="134.5" cy="44.2" r="0.37" fill="#a78bfa" opacity="0.24" class="star-bg" style="animation-duration:6.048s;animation-delay:4.738s"/><circle cx="227.9" cy="50.6" r="0.48" fill="#fff" opacity="0.16" class="star-bg" style="animation-duration:5.987s;animation-delay:0.743s"/><circle cx="444.6" cy="54.9" r="0.58" fill="#fff" opacity="0.09" class="star-bg" style="animation-duration:8.508s;animation-delay:0.333s"/><circle cx="702.5" cy="167.1" r="0.83" fill="#00d4ff" opacity="0.24" class="star-bg" style="animation-duration:8.684s;animation-delay:4.609s"/><circle cx="815.2" cy="146.2" r="0.27" fill="#fff" opacity="0.21" class="star-bg" style="animation-duration:8.624s;animation-delay:0.544s"/><circle cx="612.3" cy="130.9" r="0.83" fill="#ffb020" opacity="0.20" class="star-bg" style="animation-duration:7.860s;animation-delay:4.729s"/><circle cx="734.4" cy="52.3" r="0.85" fill="#fff" opacity="0.25" class="star-bg" style="animation-duration:6.072s;animation-delay:4.906s"/><circle cx="300.2" cy="40.3" r="0.53" fill="#fff" opacity="0.11" class="star-bg" style="animation-duration:6.436s;animation-delay:2.835s"/><circle cx="456.5" cy="121.3" r="0.45" fill="#fff" opacity="0.25" class="star-bg" style="animation-duration:6.666s;animation-delay:6.554s"/><circle cx="280.3" cy="130.0" r="0.77" fill="#00d4ff" opacity="0.08" class="star-bg" style="animation-duration:8.140s;animation-delay:7.346s"/><circle cx="523.7" cy="60.2" r="0.40" fill="#fff" opacity="0.26" class="star-bg" style="animation-duration:6.853s;animation-delay:6.030s"/><circle cx="559.0" cy="94.7" r="0.27" fill="#a78bfa" opacity="0.28" class="star-bg" style="animation-duration:7.768s;animation-delay:4.618s"/><circle cx="326.1" cy="166.6" r="0.67" fill="#ffb020" opacity="0.16" class="star-bg" style="animation-duration:5.525s;animation-delay:3.571s"/><circle cx="368.9" cy="77.3" r="0.24" fill="#a78bfa" opacity="0.26" class="star-bg" style="animation-duration:5.705s;animation-delay:2.755s"/><circle cx="839.5" cy="124.0" r="0.39" fill="#fff" opacity="0.12" class="star-bg" style="animation-duration:5.422s;animation-delay:1.438s"/><circle cx="483.2" cy="96.1" r="0.72" fill="#fff" opacity="0.15" class="star-bg" style="animation-duration:8.891s;animation-delay:1.735s"/><circle cx="494.5" cy="97.3" r="0.23" fill="#a78bfa" opacity="0.18" class="star-bg" style="animation-duration:5.723s;animation-delay:0.445s"/><circle cx="26.0" cy="142.0" r="0.19" fill="#fff" opacity="0.10" class="star-bg" style="animation-duration:6.925s;animation-delay:2.677s"/><circle cx="49.8" cy="113.3" r="0.82" fill="#ffb020" opacity="0.29" class="star-bg" style="animation-duration:5.269s;animation-delay:1.493s"/><circle cx="519.7" cy="61.8" r="0.81" fill="#00d4ff" opacity="0.08" class="star-bg" style="animation-duration:6.276s;animation-delay:4.696s"/><circle cx="246.5" cy="129.9" r="0.24" fill="#fff" opacity="0.09" class="star-bg" style="animation-duration:7.524s;animation-delay:7.351s"/><circle cx="768.7" cy="156.8" r="0.21" fill="#fff" opacity="0.12" class="star-bg" style="animation-duration:5.015s;animation-delay:4.341s"/><circle cx="732.6" cy="153.6" r="0.90" fill="#a78bfa" opacity="0.25" class="star-bg" style="animation-duration:8.665s;animation-delay:7.681s"/><circle cx="481.7" cy="98.9" r="0.88" fill="#fff" opacity="0.18" class="star-bg" style="animation-duration:7.580s;animation-delay:5.975s"/><circle cx="529.4" cy="90.7" r="0.33" fill="#fff" opacity="0.17" class="star-bg" style="animation-duration:6.020s;animation-delay:1.085s"/><circle cx="819.5" cy="147.5" r="0.34" fill="#00d4ff" opacity="0.22" class="star-bg" style="animation-duration:8.842s;animation-delay:5.256s"/><circle cx="779.3" cy="163.7" r="0.82" fill="#fff" opacity="0.12" class="star-bg" style="animation-duration:8.242s;animation-delay:2.879s"/><circle cx="76.3" cy="129.6" r="0.26" fill="#a78bfa" opacity="0.28" class="star-bg" style="animation-duration:8.680s;animation-delay:2.873s"/><circle cx="836.8" cy="56.4" r="0.46" fill="#00d4ff" opacity="0.14" class="star-bg" style="animation-duration:5.364s;animation-delay:1.095s"/><circle cx="512.5" cy="138.7" r="0.81" fill="#ffb020" opacity="0.08" class="star-bg" style="animation-duration:7.475s;animation-delay:1.830s"/><circle cx="224.8" cy="45.1" r="0.20" fill="#a78bfa" opacity="0.23" class="star-bg" style="animation-duration:8.573s;animation-delay:4.531s"/><circle cx="759.6" cy="168.0" r="0.22" fill="#fff" opacity="0.09" class="star-bg" style="animation-duration:8.235s;animation-delay:4.800s"/><circle cx="533.5" cy="26.3" r="0.55" fill="#fff" opacity="0.17" class="star-bg" style="animation-duration:7.382s;animation-delay:5.088s"/><circle cx="447.9" cy="102.0" r="0.77" fill="#fff" opacity="0.27" class="star-bg" style="animation-duration:6.525s;animation-delay:0.431s"/><circle cx="140.0" cy="40.5" r="0.89" fill="#ffb020" opacity="0.28" class="star-bg" style="animation-duration:5.448s;animation-delay:3.065s"/><circle cx="302.6" cy="142.4" r="0.42" fill="#fff" opacity="0.20" class="star-bg" style="animation-duration:7.437s;animation-delay:3.677s"/><circle cx="362.7" cy="59.7" r="0.65" fill="#fff" opacity="0.20" class="star-bg" style="animation-duration:6.361s;animation-delay:4.831s"/><circle cx="678.9" cy="128.8" r="0.29" fill="#a78bfa" opacity="0.14" class="star-bg" style="animation-duration:8.620s;animation-delay:2.297s"/><circle cx="418.9" cy="47.7" r="0.52" fill="#00d4ff" opacity="0.15" class="star-bg" style="animation-duration:8.986s;animation-delay:6.006s"/><circle cx="247.6" cy="113.5" r="0.74" fill="#a78bfa" opacity="0.12" class="star-bg" style="animation-duration:8.046s;animation-delay:1.378s"/><circle cx="200.7" cy="89.9" r="0.78" fill="#ffb020" opacity="0.44" class="star-mid" style="animation-duration:4.251s;animation-delay:0.458s"/><circle cx="731.9" cy="94.7" r="0.61" fill="#fff" opacity="0.32" class="star-mid" style="animation-duration:6.927s;animation-delay:6.453s"/><circle cx="730.6" cy="87.8" r="0.62" fill="#00d4ff" opacity="0.34" class="star-mid" style="animation-duration:4.485s;animation-delay:1.783s"/><circle cx="600.2" cy="147.8" r="0.69" fill="#fff" opacity="0.30" class="star-mid" style="animation-duration:6.763s;animation-delay:2.589s"/><circle cx="795.1" cy="98.5" r="0.56" fill="#00d4ff" opacity="0.33" class="star-mid" style="animation-duration:3.956s;animation-delay:0.370s"/><circle cx="27.4" cy="91.1" r="0.94" fill="#ffb020" opacity="0.28" class="star-mid" style="animation-duration:6.886s;animation-delay:0.546s"/><circle cx="267.0" cy="152.2" r="0.57" fill="#fff" opacity="0.33" class="star-mid" style="animation-duration:4.139s;animation-delay:1.424s"/><circle cx="233.1" cy="16.0" r="1.08" fill="#fff" opacity="0.33" class="star-mid" style="animation-duration:6.663s;animation-delay:3.755s"/><circle cx="736.3" cy="149.9" r="0.50" fill="#ffb020" opacity="0.34" class="star-mid" style="animation-duration:5.764s;animation-delay:2.472s"/><circle cx="413.2" cy="36.9" r="0.83" fill="#fff" opacity="0.39" class="star-mid" style="animation-duration:3.778s;animation-delay:0.941s"/><circle cx="823.5" cy="111.6" r="0.54" fill="#fff" opacity="0.19" class="star-mid" style="animation-duration:4.410s;animation-delay:0.439s"/><circle cx="431.9" cy="123.3" r="0.86" fill="#fff" opacity="0.23" class="star-mid" style="animation-duration:3.893s;animation-delay:3.249s"/><circle cx="656.9" cy="90.5" r="0.87" fill="#fff" opacity="0.19" class="star-mid" style="animation-duration:3.619s;animation-delay:2.551s"/><circle cx="126.0" cy="145.7" r="1.07" fill="#a78bfa" opacity="0.15" class="star-mid" style="animation-duration:4.298s;animation-delay:1.118s"/><circle cx="783.4" cy="39.9" r="0.62" fill="#fff" opacity="0.19" class="star-mid" style="animation-duration:5.701s;animation-delay:3.319s"/><circle cx="224.6" cy="124.4" r="0.62" fill="#ffb020" opacity="0.41" class="star-mid" style="animation-duration:5.924s;animation-delay:5.017s"/><circle cx="167.0" cy="166.5" r="0.83" fill="#ffb020" opacity="0.16" class="star-mid" style="animation-duration:4.211s;animation-delay:3.422s"/><circle cx="433.9" cy="167.3" r="0.49" fill="#fff" opacity="0.13" class="star-mid" style="animation-duration:6.817s;animation-delay:2.020s"/><circle cx="554.7" cy="96.0" r="0.69" fill="#a78bfa" opacity="0.41" class="star-mid" style="animation-duration:6.524s;animation-delay:4.567s"/><circle cx="656.6" cy="56.3" r="0.95" fill="#fff" opacity="0.19" class="star-mid" style="animation-duration:6.557s;animation-delay:1.206s"/><circle cx="47.8" cy="167.6" r="0.99" fill="#a78bfa" opacity="0.17" class="star-mid" style="animation-duration:3.502s;animation-delay:1.477s"/><circle cx="303.5" cy="154.7" r="0.46" fill="#fff" opacity="0.34" class="star-mid" style="animation-duration:4.998s;animation-delay:4.642s"/><circle cx="829.8" cy="155.6" r="1.01" fill="#00d4ff" opacity="0.25" class="star-mid" style="animation-duration:5.628s;animation-delay:0.278s"/><circle cx="252.5" cy="91.2" r="0.69" fill="#fff" opacity="0.39" class="star-mid" style="animation-duration:4.379s;animation-delay:2.445s"/><circle cx="660.7" cy="19.9" r="1.19" fill="#00d4ff" opacity="0.22" class="star-mid" style="animation-duration:6.437s;animation-delay:5.321s"/><circle cx="95.6" cy="132.0" r="0.71" fill="#fff" opacity="0.45" class="star-fg" style="animation-duration:3.891s;animation-delay:2.035s"/><circle cx="125.6" cy="167.6" r="1.25" fill="#fff" opacity="0.36" class="star-fg" style="animation-duration:2.825s;animation-delay:0.008s"/><circle cx="690.6" cy="135.6" r="1.27" fill="#ffb020" opacity="0.38" class="star-fg" style="animation-duration:3.455s;animation-delay:3.418s"/><circle cx="361.9" cy="98.4" r="1.01" fill="#ffb020" opacity="0.64" class="star-fg" style="animation-duration:2.704s;animation-delay:0.414s"/><circle cx="819.3" cy="53.5" r="1.06" fill="#fff" opacity="0.52" class="star-fg" style="animation-duration:3.349s;animation-delay:2.045s"/><circle cx="720.1" cy="145.2" r="1.08" fill="#fff" opacity="0.60" class="star-fg" style="animation-duration:2.036s;animation-delay:1.477s"/><circle cx="773.6" cy="49.2" r="1.18" fill="#ffb020" opacity="0.41" class="star-fg" style="animation-duration:2.683s;animation-delay:2.144s"/><circle cx="538.7" cy="112.5" r="0.82" fill="#ffb020" opacity="0.61" class="star-fg" style="animation-duration:4.175s;animation-delay:0.957s"/><circle cx="220.5" cy="117.8" r="1.37" fill="#00d4ff" opacity="0.52" class="star-fg" style="animation-duration:2.729s;animation-delay:2.201s"/><circle cx="726.9" cy="101.0" r="1.47" fill="#fff" opacity="0.40" class="star-fg" style="animation-duration:2.657s;animation-delay:2.352s"/><line x1="260" y1="42" x2="278" y2="47" stroke="url(#x743a279)" stroke-width="1.1" stroke-linecap="round" class="shooting-star" style="animation-delay:49.48s;--shoot-tx:115px;--shoot-ty:50px;animation-duration:4.59s"/><line x1="669" y1="56" x2="687" y2="61" stroke="url(#x743a279)" stroke-width="1.1" stroke-linecap="round" class="shooting-star" style="animation-delay:24.85s;--shoot-tx:100px;--shoot-ty:46px;animation-duration:3.27s"/><line x1="601" y1="35" x2="619" y2="40" stroke="url(#x743a279)" stroke-width="1.1" stroke-linecap="round" class="shooting-star" style="animation-delay:0.2s;--shoot-tx:88px;--shoot-ty:41px;animation-duration:3.48s"/><line x1="170.0" y1="55" x2="170.0" y2="155" stroke="#1a2332" stroke-width="1" opacity="0.5"/><line x1="340.0" y1="55" x2="340.0" y2="155" stroke="#1a2332" stroke-width="1" opacity="0.5"/><line x1="510.0" y1="55" x2="510.0" y2="155" stroke="#1a2332" stroke-width="1" opacity="0.5"/><line x1="680.0" y1="55" x2="680.0" y2="155" stroke="#1a2332" stroke-width="1" opacity="0.5"/><g class="metric-cell" transform="translate(85.0,95)"><g transform="translate(-8,-30)"><svg viewBox="0 0 16 16" width="16" height="16" fill="#00d4ff" class="metric-icon" style="animation-delay:0.0s"><path d="M8 1a7 7 0 1 0 0 14A7 7 0 0 0 8 1zm0 2.5a4.5 4.5 0 0 1 4.473 4H14.5a.5.5 0 0 1 0 1h-2.027A4.5 4.5 0 0 1 8 12.5a4.5 4.5 0 0 1-4.473-4H1.5a.5.5 0 0 1 0-1h2.027A4.5 4.5 0 0 1 8 3.5zm0 1.5a3 3 0 1 0 0 6 3 3 0 0 0 0-6z"/></svg></g><text x="0" y="2" text-anchor="middle" fill="#00d4ff" font-size="28" font-weight="bold" font-family="sans-serif" opacity="0.35" filter="url(#xdf01081)">608</text><text x="0" y="2" text-anchor="middle" fill="#f1f5f9" font-size="28" font-weight="bold" font-family="sans-serif">608</text><text x="0" y="20" text-anchor="middle" fill="#64748b" font-size="11" font-family="monospace" letter-spacing="1">Commits</text></g><g class="metric-cell" transform="translate(255.0,95)"><g transform="translate(-8,-30)"><svg viewBox="0 0 16 16" width="16" height="16" fill="#ffb020" class="metric-icon" style="animation-delay:0.3s"><path d="M8 .25a.75.75 0 0 1 .673.418l1.882 3.815 4.21.612a.75.75 0 0 1 .416 1.279l-3.046 2.97.719 4.192a.75.75 0 0 1-1.088.791L8 12.347l-3.766 1.98a.75.75 0 0 1-1.088-.79l.72-4.194L.818 6.374a.75.75 0 0 1 .416-1.28l4.21-.611L7.327.668A.75.75 0 0 1 8 .25z"/></svg></g><text x="0" y="2" text-anchor="middle" fill="#ffb020" font-size="28" font-weight="bold" font-family="sans-serif" opacity="0.35" filter="url(#xdf01081)">194</text><text x="0" y="2" text-anchor="middle" fill="#f1f5f9" font-size="28" font-weight="bold" font-family="sans-serif">194</text><text x="0" y="20" text-anchor="middle" fill="#64748b" font-size="11" font-family="monospace" letter-spacing="1">Stars</text></g><g class="metric-cell" transform="translate(425.0,95)"><g transform="translate(-8,-30)"><svg viewBox="0 0 16 16" width="16" height="16" fill="#a78bfa" class="metric-icon" style="animation-delay:0.6s"><path d="M5 3.254V3.25v.005a.75.75 0 1 1 0-.005zm6.5 8a.75.75 0 1 1 0 1.5.75.75 0 0 1 0-1.5zM5 12.75a.75.75 0 1 1 0 1.5.75.75 0 0 1 0-1.5zm-1.5.75a1.5 1.5 0 1 0 1.5 1.5v-8.5a1.5 1.5 0 1 0-1.5-1.5v8.5a1.5 1.5 0 0 0 0 0zm8.5-2.5a1.5 1.5 0 0 0-1.5 1.5 1.5 1.5 0 1 0 3 0v-3.133l.025-.05A3.252 3.252 0 0 0 11 5.25V3.5h1.25a.75.75 0 0 0 .53-1.28l-2-2a.75.75 0 0 0-1.06 0l-2 2A.75.75 0 0 0 8.25 3.5H9.5v1.75a1.75 1.75 0 0 0 1.75 1.75h.244a1.75 1.75 0 0 1 1.006.319V11a1.5 1.5 0 0 0-1.5-1.5z"/></svg></g><text x="0" y="2" text-anchor="middle" fill="#a78bfa" font-size="28" font-weight="bold" font-family="sans-serif" opacity="0.35" filter="url(#xdf01081)">1</text><text x="0" y="2" text-anchor="middle" fill="#f1f5f9" font-size="28" font-weight="bold" font-family="sans-serif">1</text><text x="0" y="20" text-anchor="middle" fill="#64748b" font-size="11" font-family="monospace" letter-spacing="1">PRs</text></g><g class="metric-cell" transform="translate(595.0,95)"><g transform="translate(-8,-30)"><svg viewBox="0 0 16 16" width="16" height="16" fill="#00d4ff" class="metric-icon" style="animation-delay:0.8999999999999999s"><path d="M8 9.5a1.5 1.5 0 1 0 0-3 1.5 1.5 0 0 0 0 3z"/><path d="M8 0a8 8 0 1 1 0 16A8 8 0 0 1 8 0zm0 1.5a6.5 6.5 0 1 0 0 13 6.5 6.5 0 0 0 0-13z"/></svg></g><text x="0" y="2" text-anchor="middle" fill="#00d4ff" font-size="28" font-weight="bold" font-family="sans-serif" opacity="0.35" filter="url(#xdf01081)">4</text><text x="0" y="2" text-anchor="middle" fill="#f1f5f9" font-size="28" font-weight="bold" font-family="sans-serif">4</text><text x="0" y="20" text-anchor="middle" fill="#64748b" font-size="11" font-family="monospace" letter-spacing="1">Issues</text></g><g class="metric-cell" transform="translate(765.0,95)"><g transform="translate(-8,-30)"><svg viewBox="0 0 16 16" width="16" height="16" fill="#a78bfa" class="metric-icon" style="animation-delay:1.2s"><path d="M2 2.5A2.5 2.5 0 0 1 4.5 0h8.75a.75.75 0 0 1 .75.75v12.5a.75.75 0 0 1-.75.75h-2.5a.75.75 0 0 1 0-1.5h1.75v-2h-8a1 1 0 0 0-.714 1.7.75.75 0 0 1-1.072 1.05A2.495 2.495 0 0 1 2 11.5zm10.5-1h-8a1 1 0 0 0-1 1v6.708A2.486 2.486 0 0 1 4.5 9h8zM5 12.25a.25.25 0 0 1 .25-.25h3.5a.25.25 0 0 1 .25.25v3.25a.25.25 0 0 1-.4.2l-1.45-1.087a.25.25 0 0 0-.3 0L5.4 15.7a.25.25 0 0 1-.4-.2z"/></svg></g><text x="0" y="2" text-anchor="middle" fill="#a78bfa" font-size="28" font-weight="bold" font-family="sans-serif" opacity="0.35" filter="url(#xdf01081)">24</text><text x="0" y="2" text-anchor="middle" fill="#f1f5f9" font-size="28" font-weight="bold" font-family="sans-serif">24</text><text x="0" y="20" text-anchor="middle" fill="#64748b" font-size="11" font-family="monospace" letter-spacing="1">Repos</text></g></svg>