<svg xmlns="http://www.w3.org/2000/svg" width="850" height="180" viewBox="0 0 850 180"><defs><style>.metric-icon{animation:count-glow 4s ease-in-out infinite}@keyframes count-glow{0%,100%{fill-opacity:0.7}50%{fill-opacity:1}}.star-bg{animation:twinkle-slow 7s ease-in-out infinite}.star-mid{animation:twinkle-mid 5s ease-in-out infinite}.star-fg{animation:twinkle-fast 3s ease-in-out infinite}@keyframes twinkle-slow{0%,100%{opacity:0.07}50%{opacity:0.30}}@keyframes twinkle-mid{0%,100%{opacity:0.12}50%{opacity:0.45}}@keyframes twinkle-fast{0%,100%{opacity:0.25}50%{opacity:0.65}}.shooting-star{opacity:0;animation:shoot linear infinite}@keyframes shoot{0%{opacity:0;transform:translate(0,0)}5%{opacity:0.9}15%{opacity:0.6;transform:translate(var(--shoot-tx),var(--shoot-ty))}20%{opacity:0;transform:translate(var(--shoot-tx),var(--shoot-ty))}100%{opacity:0}}</style><filter id="xdf01081" x="-30%" y="-30%" width="160%" height="160%"><feGaussianBlur stdDeviation="3"/></filter><radialGradient id="xe7d3b8d" cx="50%" cy="50%" r="80%"><stop offset="0%" stop-color="#0f1623" stop-opacity="0.85"/><stop offset="100%" stop-color="#080c14" stop-opacity="0"/></radialGradient><linearGradient id="x743a279" x1="0" y1="0" x2="1" y2="0"><stop offset="0%" stop-color="#fff" stop-opacity="0.85"/><stop offset="100%" stop-color="#fff" stop-opacity="0"/></linearGradient></defs><rect x="0" y="0" width="850" height="180" rx="14" ry="14" fill="#080c14"/><rect x="0" y="0" width="850" height="180" rx="14" ry="14" fill="url(#xe7d3b8d)"/><circle cx="88.8" cy="107.7" r="0.60" fill="#fff" opacity="0.30" class="star-bg" style="animation-duration:5.771s;animation-delay:2.933s"/><circle cx="612.5" cy="25.2" r="0.46" fill="#fff" opacity="0.27" class="star-bg" style="animation-duration:5.177s;animation-delay:0.014s"/><circle cx="423.4" cy="123.9" r="0.90" fill="#00d4ff" opacity="0.11" class="star-bg" style="animation-duration:5.365s;animation-delay:0.876s"/><circle cx="732.5" cy="98.2" r="0.72" fill="#00d4ff" opacity="0.16" class="star-bg" style="animation-duration:8.611s;animation-delay:3.845s"/><circle cx="90.6" cy="68.6" r="0.56" fill="#fff" opacity="0.10" class="star-bg" style="animation-duration:7.356s;animation-delay:6.015s"/><circle cx="445.3" cy="39.9" r="0.79" fill="#fff" opacity="0.28" class="star-bg" style="animation-duration:5.283s;animation-delay:5.002s"/><circle cx="21.6" cy="31.5" r="0.75" fill="#fff" opacity="0.22" class="star-bg" style="animation-duration:7.576s;animation-delay:0.601s"/><circle cx="201.4" cy="66.2" r="0.78" fill="#ffb020" opacity="0.08" class="star-bg" style="animation-duration:5.515s;animation-delay:0.199s"/><circle cx="119.9" cy="112.4" r="0.76" fill="#a78bfa" opacity="0.12" class="star-bg" style="animation-duration:5.570s;animation-delay:2.824s"/><circle cx="447.4" cy="84.8" r="0.21" fill="#fff" opacity="0.17" class="star-bg" style="animation-duration:5.837s;animation-delay:4.259s"/><circle cx="591.6" cy="87.7" r="0.87" fill="#fff" opacity="0.29" class="star-bg" style="animation-duration:5.914s;animation-delay:5.338s"/><circle cx="465.8" cy="10.1" r="0.39" fill="#fff" opacity="0.15" class="star-bg" style="animation-duration:8.052s;animation-delay:3.977s"/><circle cx="264.2" cy="52.0" r="0.64" fill="#00d4ff" opacity="0.11" class="star-bg" style="animation-duration:8.459s;animation-delay:4.034s"/><circle cx="225.0" cy="32.3" r="0.59" fill="#ffb020" opacity="0.10" class="star-bg" style="animation-duration:5.166s;animation-delay:1.953s"/><circle cx="708.5" cy="105.6" r="0.89" fill="#a78bfa" opacity="0.18" class="star-bg" style="animation-duration:8.480s;animation-delay:5.540s"/><circle cx="122.5" cy="168.2" r="0.44" fill="#fff" opacity="0.12" class="star-bg" style="animation-duration:6.800s;animation-delay:5.310s"/><circle cx="516.7" cy="86.6" r="0.77" fill="#fff" opacity="0.10" class="star-bg" style="animation-duration:8.020s;animation-delay:5.783s"/><circle cx="467.1" cy="46.0" r="0.63" fill="#fff" opacity="0.27" class="star-bg" style="animation-duration:8.096s;animation-delay:2.392s"/><circle cx="226.8" cy="106.7" r="0.83" fill="#00d4ff" opacity="0.20" class="star-bg" style="animation-duration:7.121s;animation-delay:0.656s"/><circle cx="640.4" cy="143.8" r="0.46" fill="#fff" opacity="0.13" class="star-bg" style="animation-duration:5.102s;animation-delay:4.692s"/><circle cx="782.7" cy="162.2" r="0.63" fill="#fff" opacity="0.15" class="star-bg" style="animation-duration:5.705s;animation-delay:1.004s"/><circle cx="342.1" cy="63.7" r="0.78" fill="#ffb020" opacity="0.20" class="star-bg" style="animation-duration:7.086s;animation-delay:2.830s"/><circle cx="542.4" cy="35.0" r="0.59" fill="#a78bfa" opacity="0.20" class="star-bg" style="animation-duration:5.840s;animation-delay:4.137s"/><circle cx="193.1" cy="75.6" r="0.69" fill="#a78bfa" opacity="0.25" class="star-bg" style="animation-duration:5.478s;animation-delay:0.317s"/><circle cx="762.1" cy="143.5" r="0.39" fill="#a78bfa" opacity="0.17" class="star-bg" style="animation-duration:8.790s;animation-delay:5.205s"/><circle cx="37.7" cy="16.0" r="0.76" fill="#ffb020" opacity="0.17" class="star-bg" style="animation-duration:6.676s;animation-delay:2.273s"/><circle cx="416.5" cy="40.4" r="0.31" fill="#fff" opacity="0.22" class="star-bg" style="animation-duration:7.266s;animation-delay:1.834s"/><circle cx="134.4" cy="153.4" r="0.61" fill="#fff" opacity="0.26" class="star-bg" style="animation-duration:8.949s;animation-delay:6.595s"/><circle cx="441.0" cy="132.7" r="0.21" fill="#ffb020" opacity="0.28" class="star-bg" style="animation-duration:5.830s;animation-delay:2.493s"/><circle cx="141.6" cy="160.2" r="0.59" fill="#fff" opacity="0.29" class="star-bg" style="animation-duration:7.840s;animation-delay:3.494s"/><circle cx="168.1" cy="28.7" r="0.56" fill="#fff" opacity="0.23" class="star-bg" style="animation-duration:5.778s;animation-delay:1.998s"/><circle cx="825.9" cy="25.8" r="0.31" fill="#00d4ff" opacity="0.19" class="star-bg" style="animation-duration:6.676s;animation-delay:3.512s"/><circle cx="802.0" cy="138.1" r="0.20" fill="#a78bfa" opacity="0.19" class="star-bg" style="animation-duration:8.285s;animation-delay:3.323s"/><circle cx="385.3" cy="129.6" r="0.76" fill="#a78bfa" opacity="0.09" class="star-bg" style="animation-duration:8.132s;animation-delay:4.168s"/><circle cx="120.6" cy="131.5" r="0.38" fill="#fff" opacity="0.21" class="star-bg" style="animation-duration:8.261s;animation-delay:5.884s"/><circle cx="46.5" cy="94.0" r="0.53" fill="#fff" opacity="0.17" class="star-bg" style="animation-duration:8.399s;animation-delay:5.519s"/><circle cx="22.6" cy="149.4" r="0.47" fill="#fff" opacity="0.13" class="star-bg" style="animation-duration:8.167s;animation-delay:3.112s"/><circle cx="440.7" cy="126.4" r="0.78" fill="#fff" opacity="0.29" class="star-bg" style="animation-duration:6.080s;animation-delay:1.469s"/><circle cx="426.1" cy="120.3" r="0.56" fill="#fff" opacity="0.17" class="star-bg" style="animation-duration:8.861s;animation-delay:0.176s"/><circle cx="30.1" cy="47.6" r="0.67" fill="#ffb020" opacity="0.24" class="star-bg" style="animation-duration:7.569s;animation-delay:1.665s"/><circle cx="555.9" cy="95.8" r="0.72" fill="#ffb020" opacity="0.18" class="star-mid" style="animation-duration:3.835s;animation-delay:0.375s"/><circle cx="274.6" cy="94.2" r="1.10" fill="#fff" opacity="0.35" class="star-mid" style="animation-duration:5.475s;animation-delay:3.143s"/><circle cx="726.8" cy="86.1" r="0.66" fill="#ffb020" opacity="0.29" class="star-mid" style="animation-duration:6.015s;animation-delay:2.280s"/><circle cx="333.2" cy="51.9" r="1.15" fill="#fff" opacity="0.20" class="star-mid" style="animation-duration:4.905s;animation-delay:4.603s"/><circle cx="644.8" cy="27.7" r="0.87" fill="#a78bfa" opacity="0.35" class="star-mid" style="animation-duration:6.437s;animation-delay:5.227s"/><circle cx="644.2" cy="144.4" r="0.74" fill="#fff" opacity="0.40" class="star-mid" style="animation-duration:4.091s;animation-delay:3.496s"/><circle cx="723.6" cy="144.5" r="0.63" fill="#fff" opacity="0.25" class="star-mid" style="animation-duration:5.160s;animation-delay:2.437s"/><circle cx="271.9" cy="163.6" r="1.13" fill="#fff" opacity="0.36" class="star-mid" style="animation-duration:3.514s;animation-delay:1.596s"/><circle cx="503.6" cy="21.6" r="0.85" fill="#fff" opacity="0.28" class="star-mid" style="animation-duration:4.025s;animation-delay:2.435s"/><circle cx="122.0" cy="118.5" r="0.70" fill="#00d4ff" opacity="0.28" class="star-mid" style="animation-duration:3.598s;animation-delay:0.263s"/><circle cx="675.2" cy="40.5" r="0.62" fill="#fff" opacity="0.17" class="star-mid" style="animation-duration:4.149s;animation-delay:1.058s"/><circle cx="188.8" cy="144.9" r="0.87" fill="#00d4ff" opacity="0.36" class="star-mid" style="animation-duration:5.186s;animation-delay:2.748s"/><circle cx="605.6" cy="79.8" r="0.60" fill="#fff" opacity="0.26" class="star-mid" style="animation-duration:3.574s;animation-delay:1.687s"/><circle cx="197.5" cy="98.2" r="0.86" fill="#ffb020" opacity="0.20" class="star-mid" style="animation-duration:6.918s;animation-delay:6.480s"/><circle cx="277.1" cy="80.1" r="0.93" fill="#fff" opacity="0.37" class="star-mid" style="animation-duration:6.833s;animation-delay:6.037s"/><circle cx="539.4" cy="51.4" r="0.71" fill="#fff" opacity="0.14" class="star-mid" style="animation-duration:4.941s;animation-delay:4.743s"/><circle cx="764.1" cy="19.2" r="0.49" fill="#00d4ff" opacity="0.26" class="star-mid" style="animation-duration:4.502s;animation-delay:0.933s"/><circle cx="196.3" cy="29.2" r="0.44" fill="#ffb020" opacity="0.15" class="star-mid" style="animation-duration:6.420s;animation-delay:6.008s"/><circle cx="750.1" cy="118.4" r="1.11" fill="#a78bfa" opacity="0.23" class="star-mid" style="animation-duration:5.263s;animation-delay:0.913s"/><circle cx="832.0" cy="43.3" r="1.18" fill="#fff" opacity="0.42" class="star-mid" style="animation-duration:5.085s;animation-delay:1.250s"/><circle cx="356.1" cy="65.8" r="0.85" fill="#fff" opacity="0.36" class="star-mid" style="animation-duration:6.571s;animation-delay:4.928s"/><circle cx="727.6" cy="79.6" r="1.15" fill="#fff" opacity="0.33" class="star-mid" style="animation-duration:5.391s;animation-delay:1.092s"/><circle cx="323.8" cy="134.1" r="0.53" fill="#ffb020" opacity="0.28" class="star-mid" style="animation-duration:5.777s;animation-delay:2.706s"/><circle cx="471.4" cy="30.4" r="0.69" fill="#a78bfa" opacity="0.12" class="star-mid" style="animation-duration:5.817s;animation-delay:2.662s"/><circle cx="217.3" cy="148.2" r="0.74" fill="#fff" opacity="0.12" class="star-mid" style="animation-duration:5.909s;animation-delay:5.186s"/><circle cx="810.0" cy="161.1" r="0.72" fill="#fff" opacity="0.53" class="star-fg" style="animation-duration:3.179s;animation-delay:0.091s"/><circle cx="40.6" cy="52.6" r="0.82" fill="#fff" opacity="0.40" class="star-fg" style="animation-duration:2.349s;animation-delay:2.054s"/><circle cx="330.4" cy="113.9" r="0.97" fill="#fff" opacity="0.29" class="star-fg" style="animation-duration:2.895s;animation-delay:0.734s"/><circle cx="792.2" cy="49.4" r="1.33" fill="#a78bfa" opacity="0.48" class="star-fg" style="animation-duration:4.032s;animation-delay:2.954s"/><circle cx="218.1" cy="68.5" r="1.40" fill="#fff" opacity="0.57" class="star-fg" style="animation-duration:3.676s;animation-delay:1.517s"/><circle cx="138.1" cy="58.0" r="0.74" fill="#00d4ff" opacity="0.56" class="star-fg" style="animation-duration:2.313s;animation-delay:0.520s"/><circle cx="291.2" cy="27.0" r="1.15" fill="#ffb020" opacity="0.49" class="star-fg" style="animation-duration:4.108s;animation-delay:2.146s"/><circle cx="181.4" cy="14.6" r="0.96" fill="#fff" opacity="0.40" class="star-fg" style="animation-duration:2.626s;animation-delay:0.339s"/><circle cx="272.1" cy="57.2" r="1.45" fill="#fff" opacity="0.37" class="star-fg" style="animation-duration:2.884s;animation-delay:0.804s"/><circle cx="378.9" cy="157.4" r="1.31" fill="#a78bfa" opacity="0.27" class="star-fg" style="animation-duration:3.346s;animation-delay:2.680s"/><line x1="483" y1="19" x2="501" y2="24" stroke="url(#x743a279)" stroke-width="1.1" stroke-linecap="round" class="shooting-star" style="animation-delay:34.12s;--shoot-tx:112px;--shoot-ty:40px;animation-duration:2.32s"/><line x1="670" y1="22" x2="688" y2="27" stroke="url(#x743a279)" stroke-width="1.1" stroke-linecap="round" class="shooting-star" style="animation-delay:52.65s;--shoot-tx:116px;--shoot-ty:30px;animation-duration:2.91s"/><line x1="487" y1="44" x2="505" y2="49" stroke="url(#x743a279)" stroke-width="1.1" stroke-linecap="round" class="shooting-star" style="animation-delay:52.76s;--shoot-tx:101px;--shoot-ty:35px;animation-duration:2.03s"/><line x1="170.0" y1="55" x2="170.0" y2="155" stroke="#1a2332" stroke-width="1" opacity="0.5"/><line x1="340.0" y1="55" x2="340.0" y2="155" stroke="#1a2332" stroke-width="1" opacity="0.5"/><line x1="510.0" y1="55" x2="510.0" y2="155" stroke="#1a2332" stroke-width="1" opacity="0.5"/><line x1="680.0" y1="55" x2="680.0" y2="155" stroke="#1a2332" stroke-width="1" opacity="0.5"/><g class="metric-cell" transform="translate(85.0,95)"><g transform="translate(-8,-30)"><svg viewBox="0 0 16 16" width="16" height="16" fill="#00d4ff" class="metric-icon" style="animation-delay:0.0s"><path d="M8 1a7 7 0 1 0 0 14A7 7 0 0 0 8 1zm0 2.5a4.5 4.5 0 0 1 4.473 4H14.5a.5.5 0 0 1 0 1h-2.027A4.5 4.5 0 0 1 8 12.5a4.5 4.5 0 0 1-4.473-4H1.5a.5.5 0 0 1 0-1h2.027A4.5 4.5 0 0 1 8 3.5zm0 1.5a3 3 0 1 0 0 6 3 3 0 0 0 0-6z"/></svg></g><text x="0" y="2" text-anchor="middle" fill="#00d4ff" font-size="28" font-weight="bold" font-family="sans-serif" opacity="0.35" filter="url(#xdf01081)">572</text><text x="0" y="2" text-anchor="middle" fill="#f1f5f9" font-size="28" font-weight="bold" font-family="sans-serif">572</text><text x="0" y="20" text-anchor="middle" fill="#64748b" font-size="11" font-family="monospace" letter-spacing="1">Commits</text></g><g class="metric-cell" transform="translate(255.0,95)"><g transform="translate(-8,-30)"><svg viewBox="0 0 16 16" width="16" height="16" fill="#ffb020" class="metric-icon" style="animation-delay:0.3s"><path d="M8 .25a.75.75 0 0 1 .673.418l1.882 3.815 4.21.612a.75.75 0 0 1 .416 1.279l-3.046 2.97.719 4.192a.75.75 0 0 1-1.088.791L8 12.347l-3.766 1.98a.75.75 0 0 1-1.088-.79l.72-4.194L.818 6.374a.75.75 0 0 1 .416-1.28l4.21-.611L7.327.668A.75.75 0 0 1 8 .25z"/></svg></g><text x="0" y="2" text-anchor="middle" fill="#ffb020" font-size="28" font-weight="bold" font-family="sans-serif" opacity="0.35" filter="url(#xdf01081)">209</text><text x="0" y="2" text-anchor="middle" fill="#f1f5f9" font-size="28" font-weight="bold" font-family="sans-serif">209</text><text x="0" y="20" text-anchor="middle" fill="#64748b" font-size="11" font-family="monospace" letter-spacing="1">Stars</text></g><g class="metric-cell" transform="translate(425.0,95)"><g transform="translate(-8,-30)"><svg viewBox="0 0 16 16" width="16" height="16" fill="#a78bfa" class="metric-icon" style="animation-delay:0.6s"><path d="M5 3.254V3.25v.005a.75.75 0 1 1 0-.005zm6.5 8a.75.75 0 1 1 0 1.5.75.75 0 0 1 0-1.5zM5 12.75a.75.75 0 1 1 0 1.5.75.75 0 0 1 0-1.5zm-1.5.75a1.5 1.5 0 1 0 1.5 1.5v-8.5a1.5 1.5 0 1 0-1.5-1.5v8.5a1.5 1.5 0 0 0 0 0zm8.5-2.5a1.5 1.5 0 0 0-1.5 1.5 1.5 1.5 0 1 0 3 0v-3.133l.025-.05A3.252 3.252 0 0 0 11 5.25V3.5h1.25a.75.75 0 0 0 .53-1.28l-2-2a.75.75 0 0 0-1.06 0l-2 2A.75.75 0 0 0 8.25 3.5H9.5v1.75a1.75 1.75 0 0 0 1.75 1.75h.244a1.75 1.75 0 0 1 1.006.319V11a1.5 1.5 0 0 0-1.5-1.5z"/></svg></g><text x="0" y="2" text-anchor="middle" fill="#a78bfa" font-size="28" font-weight="bold" font-family="sans-serif" opacity="0.35" filter="url(#xdf01081)">3</text><text x="0" y="2" text-anchor="middle" fill="#f1f5f9" font-size="28" font-weight="bold" font-family="sans-serif">3</text><text x="0" y="20" text-anchor="middle" fill="#64748b" font-size="11" font-family="monospace" letter-spacing="1">PRs</text></g><g class="metric-cell" transform="translate(595.0,95)"><g transform="translate(-8,-30)"><svg viewBox="0 0 16 16" width="16" height="16" fill="#00d4ff" class="metric-icon" style="animation-delay:0.8999999999999999s"><path d="M8 9.5a1.5 1.5 0 1 0 0-3 1.5 1.5 0 0 0 0 3z"/><path d="M8 0a8 8 0 1 1 0 16A8 8 0 0 1 8 0zm0 1.5a6.5 6.5 0 1 0 0 13 6.5 6.5 0 0 0 0-13z"/></svg></g><text x="0" y="2" text-anchor="middle" fill="#00d4ff" font-size="28" font-weight="bold" font-family="sans-serif" opacity="0.35" filter="url(#xdf01081)">5</text><text x="0" y="2" text-anchor="middle" fill="#f1f5f9" font-size="28" font-weight="bold" font-family="sans-serif">5</text><text x="0" y="20" text-anchor="middle" fill="#64748b" font-size="11" font-family="monospace" letter-spacing="1">Issues</text></g><g class="metric-cell" transform="translate(765.0,95)"><g transform="translate(-8,-30)"><svg viewBox="0 0 16 16" width="16" height="16" fill="#a78bfa" class="metric-icon" style="animation-delay:1.2s"><path d="M2 2.5A2.5 2.5 0 0 1 4.5 0h8.75a.75.75 0 0 1 .75.75v12.5a.75.75 0 0 1-.75.75h-2.5a.75.75 0 0 1 0-1.5h1.75v-2h-8a1 1 0 0 0-.714 1.7.75.75 0 0 1-1.072 1.05A2.495 2.495 0 0 1 2 11.5zm10.5-1h-8a1 1 0 0 0-1 1v6.708A2.486 2.486 0 0 1 4.5 9h8zM5 12.25a.25.25 0 0 1 .25-.25h3.5a.25.25 0 0 1 .25.25v3.25a.25.25 0 0 1-.4.2l-1.45-1.087a.25.25 0 0 0-.3 0L5.4 15.7a.25.25 0 0 1-.4-.2z"/></svg></g><text x="0" y="2" text-anchor="middle" fill="#a78bfa" font-size="28" font-weight="bold" font-family="sans-serif" opacity="0.35" filter="url(#xdf01081)">27</text><text x="0" y="2" text-anchor="middle" fill="#f1f5f9" font-size="28" font-weight="bold" font-family="sans-serif">27</text><text x="0" y="20" text-anchor="middle" fill="#64748b" font-size="11" font-family="monospace" letter-spacing="1">Repos</text></g></svg>