<svg xmlns="http://www.w3.org/2000/svg" width="850" height="180" viewBox="0 0 850 180"><defs><style>.metric-icon{animation:count-glow 4s ease-in-out infinite}@keyframes count-glow{0%,100%{fill-opacity:0.7}50%{fill-opacity:1}}.star-bg{animation:twinkle-slow 7s ease-in-out infinite}.star-mid{animation:twinkle-mid 5s ease-in-out infinite}.star-fg{animation:twinkle-fast 3s ease-in-out infinite}@keyframes twinkle-slow{0%,100%{opacity:0.07}50%{opacity:0.30}}@keyframes twinkle-mid{0%,100%{opacity:0.12}50%{opacity:0.45}}@keyframes twinkle-fast{0%,100%{opacity:0.25}50%{opacity:0.65}}.shooting-star{opacity:0;animation:shoot linear infinite}@keyframes shoot{0%{opacity:0;transform:translate(0,0)}5%{opacity:0.9}15%{opacity:0.6;transform:translate(var(--shoot-tx),var(--shoot-ty))}20%{opacity:0;transform:translate(var(--shoot-tx),var(--shoot-ty))}100%{opacity:0}}</style><filter id="xdf01081" x="-30%" y="-30%" width="160%" height="160%"><feGaussianBlur stdDeviation="3"/></filter><radialGradient id="xe7d3b8d" cx="50%" cy="50%" r="80%"><stop offset="0%" stop-color="#0f1623" stop-opacity="0.85"/><stop offset="100%" stop-color="#080c14" stop-opacity="0"/></radialGradient><linearGradient id="x743a279" x1="0" y1="0" x2="1" y2="0"><stop offset="0%" stop-color="#fff" stop-opacity="0.85"/><stop offset="100%" stop-color="#fff" stop-opacity="0"/></linearGradient></defs><rect x="0" y="0" width="850" height="180" rx="14" ry="14" fill="#080c14"/><rect x="0" y="0" width="850" height="180" rx="14" ry="14" fill="url(#xe7d3b8d)"/><circle cx="181.3" cy="147.3" r="0.32" fill="#fff" opacity="0.29" class="star-bg" style="animation-duration:7.257s;animation-delay:3.197s"/><circle cx="344.3" cy="144.9" r="0.55" fill="#fff" opacity="0.16" class="star-bg" style="animation-duration:8.216s;animation-delay:3.209s"/><circle cx="537.7" cy="128.1" r="0.80" fill="#fff" opacity="0.13" class="star-bg" style="animation-duration:6.364s;animation-delay:3.999s"/><circle cx="466.5" cy="151.5" r="0.44" fill="#fff" opacity="0.16" class="star-bg" style="animation-duration:7.014s;animation-delay:0.382s"/><circle cx="587.7" cy="74.6" r="0.46" fill="#fff" opacity="0.09" class="star-bg" style="animation-duration:8.658s;animation-delay:3.871s"/><circle cx="54.3" cy="52.7" r="0.22" fill="#fff" opacity="0.30" class="star-bg" style="animation-duration:6.744s;animation-delay:4.447s"/><circle cx="791.7" cy="89.7" r="0.29" fill="#a78bfa" opacity="0.18" class="star-bg" style="animation-duration:5.917s;animation-delay:2.082s"/><circle cx="797.2" cy="150.2" r="0.88" fill="#ffb020" opacity="0.09" class="star-bg" style="animation-duration:5.903s;animation-delay:2.295s"/><circle cx="63.7" cy="33.3" r="0.73" fill="#fff" opacity="0.21" class="star-bg" style="animation-duration:7.076s;animation-delay:3.962s"/><circle cx="669.2" cy="96.0" r="0.37" fill="#fff" opacity="0.08" class="star-bg" style="animation-duration:6.425s;animation-delay:6.039s"/><circle cx="472.0" cy="59.8" r="0.72" fill="#ffb020" opacity="0.25" class="star-bg" style="animation-duration:5.986s;animation-delay:3.629s"/><circle cx="526.7" cy="62.8" r="0.53" fill="#a78bfa" opacity="0.12" class="star-bg" style="animation-duration:5.365s;animation-delay:0.863s"/><circle cx="214.3" cy="121.9" r="0.43" fill="#fff" opacity="0.26" class="star-bg" style="animation-duration:6.633s;animation-delay:2.927s"/><circle cx="486.3" cy="63.0" r="0.75" fill="#ffb020" opacity="0.28" class="star-bg" style="animation-duration:5.220s;animation-delay:2.044s"/><circle cx="587.2" cy="23.4" r="0.19" fill="#00d4ff" opacity="0.13" class="star-bg" style="animation-duration:7.701s;animation-delay:2.937s"/><circle cx="629.2" cy="145.5" r="0.31" fill="#00d4ff" opacity="0.26" class="star-bg" style="animation-duration:5.334s;animation-delay:3.720s"/><circle cx="795.0" cy="116.4" r="0.22" fill="#fff" opacity="0.17" class="star-bg" style="animation-duration:5.403s;animation-delay:0.496s"/><circle cx="469.5" cy="45.6" r="0.57" fill="#fff" opacity="0.26" class="star-bg" style="animation-duration:5.051s;animation-delay:3.656s"/><circle cx="621.3" cy="27.0" r="0.45" fill="#a78bfa" opacity="0.23" class="star-bg" style="animation-duration:5.135s;animation-delay:0.053s"/><circle cx="461.1" cy="61.3" r="0.42" fill="#fff" opacity="0.23" class="star-bg" style="animation-duration:6.739s;animation-delay:4.061s"/><circle cx="797.0" cy="109.0" r="0.40" fill="#ffb020" opacity="0.23" class="star-bg" style="animation-duration:7.941s;animation-delay:4.576s"/><circle cx="479.2" cy="157.1" r="0.83" fill="#a78bfa" opacity="0.24" class="star-bg" style="animation-duration:5.761s;animation-delay:1.262s"/><circle cx="506.8" cy="89.4" r="0.35" fill="#fff" opacity="0.28" class="star-bg" style="animation-duration:5.507s;animation-delay:0.577s"/><circle cx="641.5" cy="108.6" r="0.79" fill="#fff" opacity="0.09" class="star-bg" style="animation-duration:6.898s;animation-delay:4.050s"/><circle cx="294.0" cy="63.1" r="0.86" fill="#fff" opacity="0.23" class="star-bg" style="animation-duration:8.530s;animation-delay:2.508s"/><circle cx="122.2" cy="142.1" r="0.49" fill="#ffb020" opacity="0.11" class="star-bg" style="animation-duration:8.722s;animation-delay:5.617s"/><circle cx="562.8" cy="102.3" r="0.45" fill="#fff" opacity="0.19" class="star-bg" style="animation-duration:6.353s;animation-delay:4.625s"/><circle cx="159.9" cy="17.0" r="0.62" fill="#00d4ff" opacity="0.10" class="star-bg" style="animation-duration:8.791s;animation-delay:4.735s"/><circle cx="523.8" cy="142.8" r="0.37" fill="#ffb020" opacity="0.30" class="star-bg" style="animation-duration:7.330s;animation-delay:2.603s"/><circle cx="327.7" cy="95.9" r="0.60" fill="#fff" opacity="0.30" class="star-bg" style="animation-duration:5.635s;animation-delay:5.095s"/><circle cx="302.9" cy="82.3" r="0.26" fill="#fff" opacity="0.12" class="star-bg" style="animation-duration:8.715s;animation-delay:6.438s"/><circle cx="446.0" cy="38.6" r="0.82" fill="#ffb020" opacity="0.18" class="star-bg" style="animation-duration:5.697s;animation-delay:2.867s"/><circle cx="538.4" cy="137.0" r="0.34" fill="#fff" opacity="0.14" class="star-bg" style="animation-duration:5.154s;animation-delay:4.813s"/><circle cx="217.7" cy="112.9" r="0.27" fill="#00d4ff" opacity="0.07" class="star-bg" style="animation-duration:7.712s;animation-delay:0.987s"/><circle cx="245.1" cy="24.1" r="0.27" fill="#fff" opacity="0.11" class="star-bg" style="animation-duration:8.473s;animation-delay:1.786s"/><circle cx="438.2" cy="162.2" r="0.33" fill="#fff" opacity="0.08" class="star-bg" style="animation-duration:7.549s;animation-delay:2.510s"/><circle cx="712.4" cy="44.1" r="0.59" fill="#fff" opacity="0.27" class="star-bg" style="animation-duration:5.652s;animation-delay:4.625s"/><circle cx="400.6" cy="98.3" r="0.75" fill="#fff" opacity="0.08" class="star-bg" style="animation-duration:5.614s;animation-delay:0.909s"/><circle cx="234.7" cy="83.0" r="0.31" fill="#fff" opacity="0.08" class="star-bg" style="animation-duration:5.041s;animation-delay:3.947s"/><circle cx="128.9" cy="75.0" r="0.71" fill="#fff" opacity="0.26" class="star-bg" style="animation-duration:6.763s;animation-delay:2.016s"/><circle cx="621.2" cy="46.4" r="1.18" fill="#fff" opacity="0.19" class="star-mid" style="animation-duration:3.769s;animation-delay:0.932s"/><circle cx="739.9" cy="103.0" r="1.09" fill="#a78bfa" opacity="0.41" class="star-mid" style="animation-duration:4.538s;animation-delay:2.634s"/><circle cx="543.6" cy="41.4" r="1.05" fill="#ffb020" opacity="0.30" class="star-mid" style="animation-duration:6.675s;animation-delay:4.689s"/><circle cx="754.1" cy="53.8" r="1.15" fill="#a78bfa" opacity="0.33" class="star-mid" style="animation-duration:5.182s;animation-delay:4.472s"/><circle cx="782.3" cy="145.1" r="0.69" fill="#fff" opacity="0.33" class="star-mid" style="animation-duration:5.281s;animation-delay:1.339s"/><circle cx="153.9" cy="80.7" r="1.11" fill="#00d4ff" opacity="0.34" class="star-mid" style="animation-duration:3.754s;animation-delay:3.542s"/><circle cx="704.9" cy="55.9" r="0.87" fill="#fff" opacity="0.24" class="star-mid" style="animation-duration:6.136s;animation-delay:5.858s"/><circle cx="729.0" cy="23.1" r="1.08" fill="#fff" opacity="0.37" class="star-mid" style="animation-duration:4.580s;animation-delay:1.480s"/><circle cx="689.6" cy="142.6" r="0.94" fill="#ffb020" opacity="0.31" class="star-mid" style="animation-duration:5.072s;animation-delay:1.612s"/><circle cx="698.9" cy="123.4" r="0.54" fill="#00d4ff" opacity="0.22" class="star-mid" style="animation-duration:5.537s;animation-delay:1.535s"/><circle cx="748.1" cy="167.5" r="0.85" fill="#fff" opacity="0.26" class="star-mid" style="animation-duration:3.710s;animation-delay:0.297s"/><circle cx="280.9" cy="71.3" r="0.72" fill="#fff" opacity="0.24" class="star-mid" style="animation-duration:6.893s;animation-delay:1.064s"/><circle cx="354.8" cy="154.6" r="1.11" fill="#a78bfa" opacity="0.16" class="star-mid" style="animation-duration:4.415s;animation-delay:1.253s"/><circle cx="297.7" cy="98.3" r="0.81" fill="#00d4ff" opacity="0.31" class="star-mid" style="animation-duration:4.300s;animation-delay:0.526s"/><circle cx="816.3" cy="121.7" r="0.99" fill="#fff" opacity="0.30" class="star-mid" style="animation-duration:4.333s;animation-delay:2.197s"/><circle cx="704.8" cy="72.6" r="1.09" fill="#fff" opacity="0.22" class="star-mid" style="animation-duration:5.761s;animation-delay:4.459s"/><circle cx="466.8" cy="135.4" r="1.03" fill="#fff" opacity="0.19" class="star-mid" style="animation-duration:4.919s;animation-delay:3.508s"/><circle cx="176.7" cy="34.7" r="0.50" fill="#fff" opacity="0.26" class="star-mid" style="animation-duration:4.005s;animation-delay:2.380s"/><circle cx="294.3" cy="39.5" r="1.03" fill="#fff" opacity="0.33" class="star-mid" style="animation-duration:4.114s;animation-delay:0.576s"/><circle cx="60.3" cy="73.4" r="0.77" fill="#fff" opacity="0.36" class="star-mid" style="animation-duration:6.392s;animation-delay:0.727s"/><circle cx="816.3" cy="117.0" r="1.12" fill="#fff" opacity="0.16" class="star-mid" style="animation-duration:4.912s;animation-delay:0.688s"/><circle cx="300.7" cy="163.8" r="0.83" fill="#fff" opacity="0.20" class="star-mid" style="animation-duration:5.347s;animation-delay:4.472s"/><circle cx="337.8" cy="170.0" r="1.05" fill="#fff" opacity="0.35" class="star-mid" style="animation-duration:6.840s;animation-delay:6.002s"/><circle cx="663.3" cy="60.7" r="0.75" fill="#fff" opacity="0.29" class="star-mid" style="animation-duration:3.829s;animation-delay:2.929s"/><circle cx="278.2" cy="15.4" r="1.13" fill="#fff" opacity="0.39" class="star-mid" style="animation-duration:6.654s;animation-delay:3.267s"/><circle cx="174.3" cy="96.8" r="0.87" fill="#fff" opacity="0.50" class="star-fg" style="animation-duration:4.242s;animation-delay:0.240s"/><circle cx="721.6" cy="66.1" r="1.47" fill="#fff" opacity="0.44" class="star-fg" style="animation-duration:4.467s;animation-delay:0.939s"/><circle cx="45.7" cy="140.9" r="0.73" fill="#fff" opacity="0.35" class="star-fg" style="animation-duration:2.017s;animation-delay:0.405s"/><circle cx="67.6" cy="22.5" r="1.04" fill="#00d4ff" opacity="0.65" class="star-fg" style="animation-duration:3.504s;animation-delay:1.163s"/><circle cx="696.3" cy="60.0" r="0.76" fill="#00d4ff" opacity="0.51" class="star-fg" style="animation-duration:4.330s;animation-delay:2.378s"/><circle cx="149.6" cy="166.2" r="1.41" fill="#a78bfa" opacity="0.33" class="star-fg" style="animation-duration:2.012s;animation-delay:0.839s"/><circle cx="337.8" cy="21.1" r="1.36" fill="#a78bfa" opacity="0.43" class="star-fg" style="animation-duration:3.310s;animation-delay:1.997s"/><circle cx="130.6" cy="105.5" r="1.05" fill="#fff" opacity="0.31" class="star-fg" style="animation-duration:3.209s;animation-delay:3.100s"/><circle cx="828.4" cy="37.1" r="1.26" fill="#a78bfa" opacity="0.36" class="star-fg" style="animation-duration:3.370s;animation-delay:2.745s"/><circle cx="35.3" cy="19.3" r="1.02" fill="#fff" opacity="0.57" class="star-fg" style="animation-duration:4.209s;animation-delay:3.475s"/><line x1="677" y1="37" x2="695" y2="42" stroke="url(#x743a279)" stroke-width="1.1" stroke-linecap="round" class="shooting-star" style="animation-delay:57.72s;--shoot-tx:83px;--shoot-ty:31px;animation-duration:2.02s"/><line x1="93" y1="10" x2="111" y2="15" stroke="url(#x743a279)" stroke-width="1.1" stroke-linecap="round" class="shooting-star" style="animation-delay:19.66s;--shoot-tx:114px;--shoot-ty:33px;animation-duration:2.11s"/><line x1="44" y1="81" x2="62" y2="86" stroke="url(#x743a279)" stroke-width="1.1" stroke-linecap="round" class="shooting-star" style="animation-delay:15.95s;--shoot-tx:114px;--shoot-ty:51px;animation-duration:2.33s"/><line x1="170.0" y1="55" x2="170.0" y2="155" stroke="#1a2332" stroke-width="1" opacity="0.5"/><line x1="340.0" y1="55" x2="340.0" y2="155" stroke="#1a2332" stroke-width="1" opacity="0.5"/><line x1="510.0" y1="55" x2="510.0" y2="155" stroke="#1a2332" stroke-width="1" opacity="0.5"/><line x1="680.0" y1="55" x2="680.0" y2="155" stroke="#1a2332" stroke-width="1" opacity="0.5"/><g class="metric-cell" transform="translate(85.0,95)"><g transform="translate(-8,-30)"><svg viewBox="0 0 16 16" width="16" height="16" fill="#00d4ff" class="metric-icon" style="animation-delay:0.0s"><path d="M8 1a7 7 0 1 0 0 14A7 7 0 0 0 8 1zm0 2.5a4.5 4.5 0 0 1 4.473 4H14.5a.5.5 0 0 1 0 1h-2.027A4.5 4.5 0 0 1 8 12.5a4.5 4.5 0 0 1-4.473-4H1.5a.5.5 0 0 1 0-1h2.027A4.5 4.5 0 0 1 8 3.5zm0 1.5a3 3 0 1 0 0 6 3 3 0 0 0 0-6z"/></svg></g><text x="0" y="2" text-anchor="middle" fill="#00d4ff" font-size="28" font-weight="bold" font-family="sans-serif" opacity="0.35" filter="url(#xdf01081)">614</text><text x="0" y="2" text-anchor="middle" fill="#f1f5f9" font-size="28" font-weight="bold" font-family="sans-serif">614</text><text x="0" y="20" text-anchor="middle" fill="#64748b" font-size="11" font-family="monospace" letter-spacing="1">Commits</text></g><g class="metric-cell" transform="translate(255.0,95)"><g transform="translate(-8,-30)"><svg viewBox="0 0 16 16" width="16" height="16" fill="#ffb020" class="metric-icon" style="animation-delay:0.3s"><path d="M8 .25a.75.75 0 0 1 .673.418l1.882 3.815 4.21.612a.75.75 0 0 1 .416 1.279l-3.046 2.97.719 4.192a.75.75 0 0 1-1.088.791L8 12.347l-3.766 1.98a.75.75 0 0 1-1.088-.79l.72-4.194L.818 6.374a.75.75 0 0 1 .416-1.28l4.21-.611L7.327.668A.75.75 0 0 1 8 .25z"/></svg></g><text x="0" y="2" text-anchor="middle" fill="#ffb020" font-size="28" font-weight="bold" font-family="sans-serif" opacity="0.35" filter="url(#xdf01081)">195</text><text x="0" y="2" text-anchor="middle" fill="#f1f5f9" font-size="28" font-weight="bold" font-family="sans-serif">195</text><text x="0" y="20" text-anchor="middle" fill="#64748b" font-size="11" font-family="monospace" letter-spacing="1">Stars</text></g><g class="metric-cell" transform="translate(425.0,95)"><g transform="translate(-8,-30)"><svg viewBox="0 0 16 16" width="16" height="16" fill="#a78bfa" class="metric-icon" style="animation-delay:0.6s"><path d="M5 3.254V3.25v.005a.75.75 0 1 1 0-.005zm6.5 8a.75.75 0 1 1 0 1.5.75.75 0 0 1 0-1.5zM5 12.75a.75.75 0 1 1 0 1.5.75.75 0 0 1 0-1.5zm-1.5.75a1.5 1.5 0 1 0 1.5 1.5v-8.5a1.5 1.5 0 1 0-1.5-1.5v8.5a1.5 1.5 0 0 0 0 0zm8.5-2.5a1.5 1.5 0 0 0-1.5 1.5 1.5 1.5 0 1 0 3 0v-3.133l.025-.05A3.252 3.252 0 0 0 11 5.25V3.5h1.25a.75.75 0 0 0 .53-1.28l-2-2a.75.75 0 0 0-1.06 0l-2 2A.75.75 0 0 0 8.25 3.5H9.5v1.75a1.75 1.75 0 0 0 1.75 1.75h.244a1.75 1.75 0 0 1 1.006.319V11a1.5 1.5 0 0 0-1.5-1.5z"/></svg></g><text x="0" y="2" text-anchor="middle" fill="#a78bfa" font-size="28" font-weight="bold" font-family="sans-serif" opacity="0.35" filter="url(#xdf01081)">1</text><text x="0" y="2" text-anchor="middle" fill="#f1f5f9" font-size="28" font-weight="bold" font-family="sans-serif">1</text><text x="0" y="20" text-anchor="middle" fill="#64748b" font-size="11" font-family="monospace" letter-spacing="1">PRs</text></g><g class="metric-cell" transform="translate(595.0,95)"><g transform="translate(-8,-30)"><svg viewBox="0 0 16 16" width="16" height="16" fill="#00d4ff" class="metric-icon" style="animation-delay:0.8999999999999999s"><path d="M8 9.5a1.5 1.5 0 1 0 0-3 1.5 1.5 0 0 0 0 3z"/><path d="M8 0a8 8 0 1 1 0 16A8 8 0 0 1 8 0zm0 1.5a6.5 6.5 0 1 0 0 13 6.5 6.5 0 0 0 0-13z"/></svg></g><text x="0" y="2" text-anchor="middle" fill="#00d4ff" font-size="28" font-weight="bold" font-family="sans-serif" opacity="0.35" filter="url(#xdf01081)">5</text><text x="0" y="2" text-anchor="middle" fill="#f1f5f9" font-size="28" font-weight="bold" font-family="sans-serif">5</text><text x="0" y="20" text-anchor="middle" fill="#64748b" font-size="11" font-family="monospace" letter-spacing="1">Issues</text></g><g class="metric-cell" transform="translate(765.0,95)"><g transform="translate(-8,-30)"><svg viewBox="0 0 16 16" width="16" height="16" fill="#a78bfa" class="metric-icon" style="animation-delay:1.2s"><path d="M2 2.5A2.5 2.5 0 0 1 4.5 0h8.75a.75.75 0 0 1 .75.75v12.5a.75.75 0 0 1-.75.75h-2.5a.75.75 0 0 1 0-1.5h1.75v-2h-8a1 1 0 0 0-.714 1.7.75.75 0 0 1-1.072 1.05A2.495 2.495 0 0 1 2 11.5zm10.5-1h-8a1 1 0 0 0-1 1v6.708A2.486 2.486 0 0 1 4.5 9h8zM5 12.25a.25.25 0 0 1 .25-.25h3.5a.25.25 0 0 1 .25.25v3.25a.25.25 0 0 1-.4.2l-1.45-1.087a.25.25 0 0 0-.3 0L5.4 15.7a.25.25 0 0 1-.4-.2z"/></svg></g><text x="0" y="2" text-anchor="middle" fill="#a78bfa" font-size="28" font-weight="bold" font-family="sans-serif" opacity="0.35" filter="url(#xdf01081)">25</text><text x="0" y="2" text-anchor="middle" fill="#f1f5f9" font-size="28" font-weight="bold" font-family="sans-serif">25</text><text x="0" y="20" text-anchor="middle" fill="#64748b" font-size="11" font-family="monospace" letter-spacing="1">Repos</text></g></svg>