<svg xmlns="http://www.w3.org/2000/svg" width="850" height="180" viewBox="0 0 850 180"><defs><style>.metric-icon{animation:count-glow 4s ease-in-out infinite}@keyframes count-glow{0%,100%{fill-opacity:0.7}50%{fill-opacity:1}}.star-bg{animation:twinkle-slow 7s ease-in-out infinite}.star-mid{animation:twinkle-mid 5s ease-in-out infinite}.star-fg{animation:twinkle-fast 3s ease-in-out infinite}@keyframes twinkle-slow{0%,100%{opacity:0.07}50%{opacity:0.30}}@keyframes twinkle-mid{0%,100%{opacity:0.12}50%{opacity:0.45}}@keyframes twinkle-fast{0%,100%{opacity:0.25}50%{opacity:0.65}}.shooting-star{opacity:0;animation:shoot linear infinite}@keyframes shoot{0%{opacity:0;transform:translate(0,0)}5%{opacity:0.9}15%{opacity:0.6;transform:translate(var(--shoot-tx),var(--shoot-ty))}20%{opacity:0;transform:translate(var(--shoot-tx),var(--shoot-ty))}100%{opacity:0}}</style><filter id="xdf01081" x="-30%" y="-30%" width="160%" height="160%"><feGaussianBlur stdDeviation="3"/></filter><radialGradient id="xe7d3b8d" cx="50%" cy="50%" r="80%"><stop offset="0%" stop-color="#0f1623" stop-opacity="0.85"/><stop offset="100%" stop-color="#080c14" stop-opacity="0"/></radialGradient><linearGradient id="x743a279" x1="0" y1="0" x2="1" y2="0"><stop offset="0%" stop-color="#fff" stop-opacity="0.85"/><stop offset="100%" stop-color="#fff" stop-opacity="0"/></linearGradient></defs><rect x="0" y="0" width="850" height="180" rx="14" ry="14" fill="#080c14"/><rect x="0" y="0" width="850" height="180" rx="14" ry="14" fill="url(#xe7d3b8d)"/><circle cx="461.8" cy="132.3" r="0.36" fill="#fff" opacity="0.08" class="star-bg" style="animation-duration:7.203s;animation-delay:3.208s"/><circle cx="26.4" cy="73.8" r="0.82" fill="#fff" opacity="0.10" class="star-bg" style="animation-duration:5.563s;animation-delay:3.686s"/><circle cx="527.9" cy="97.3" r="0.19" fill="#fff" opacity="0.12" class="star-bg" style="animation-duration:5.755s;animation-delay:3.870s"/><circle cx="393.3" cy="21.3" r="0.55" fill="#fff" opacity="0.13" class="star-bg" style="animation-duration:7.440s;animation-delay:0.255s"/><circle cx="523.1" cy="159.3" r="0.67" fill="#fff" opacity="0.08" class="star-bg" style="animation-duration:6.950s;animation-delay:1.211s"/><circle cx="123.2" cy="39.4" r="0.35" fill="#00d4ff" opacity="0.16" class="star-bg" style="animation-duration:5.285s;animation-delay:0.658s"/><circle cx="692.4" cy="92.0" r="0.52" fill="#fff" opacity="0.16" class="star-bg" style="animation-duration:7.887s;animation-delay:1.678s"/><circle cx="65.5" cy="91.9" r="0.76" fill="#ffb020" opacity="0.09" class="star-bg" style="animation-duration:6.013s;animation-delay:1.191s"/><circle cx="811.8" cy="152.2" r="0.33" fill="#ffb020" opacity="0.10" class="star-bg" style="animation-duration:8.944s;animation-delay:7.381s"/><circle cx="360.1" cy="73.1" r="0.60" fill="#fff" opacity="0.20" class="star-bg" style="animation-duration:5.277s;animation-delay:4.346s"/><circle cx="768.6" cy="150.5" r="0.59" fill="#00d4ff" opacity="0.28" class="star-bg" style="animation-duration:6.542s;animation-delay:2.667s"/><circle cx="800.1" cy="156.8" r="0.87" fill="#fff" opacity="0.28" class="star-bg" style="animation-duration:6.615s;animation-delay:5.047s"/><circle cx="66.8" cy="134.8" r="0.50" fill="#fff" opacity="0.13" class="star-bg" style="animation-duration:8.840s;animation-delay:2.647s"/><circle cx="720.7" cy="145.8" r="0.63" fill="#fff" opacity="0.12" class="star-bg" style="animation-duration:8.105s;animation-delay:1.006s"/><circle cx="25.4" cy="152.9" r="0.27" fill="#fff" opacity="0.26" class="star-bg" style="animation-duration:7.933s;animation-delay:2.458s"/><circle cx="838.6" cy="36.1" r="0.39" fill="#00d4ff" opacity="0.23" class="star-bg" style="animation-duration:5.593s;animation-delay:0.538s"/><circle cx="415.6" cy="32.2" r="0.53" fill="#fff" opacity="0.15" class="star-bg" style="animation-duration:8.891s;animation-delay:3.455s"/><circle cx="556.6" cy="125.5" r="0.81" fill="#fff" opacity="0.28" class="star-bg" style="animation-duration:6.834s;animation-delay:6.011s"/><circle cx="295.5" cy="98.5" r="0.47" fill="#fff" opacity="0.19" class="star-bg" style="animation-duration:5.121s;animation-delay:3.499s"/><circle cx="161.0" cy="66.5" r="0.59" fill="#ffb020" opacity="0.23" class="star-bg" style="animation-duration:6.884s;animation-delay:2.508s"/><circle cx="550.7" cy="84.4" r="0.20" fill="#a78bfa" opacity="0.29" class="star-bg" style="animation-duration:7.598s;animation-delay:5.428s"/><circle cx="527.9" cy="40.2" r="0.49" fill="#a78bfa" opacity="0.08" class="star-bg" style="animation-duration:8.446s;animation-delay:2.611s"/><circle cx="338.5" cy="25.0" r="0.34" fill="#fff" opacity="0.23" class="star-bg" style="animation-duration:5.834s;animation-delay:4.641s"/><circle cx="234.4" cy="164.8" r="0.28" fill="#fff" opacity="0.24" class="star-bg" style="animation-duration:6.466s;animation-delay:2.637s"/><circle cx="789.9" cy="157.2" r="0.22" fill="#a78bfa" opacity="0.17" class="star-bg" style="animation-duration:8.899s;animation-delay:4.630s"/><circle cx="54.3" cy="138.8" r="0.68" fill="#fff" opacity="0.12" class="star-bg" style="animation-duration:6.176s;animation-delay:0.365s"/><circle cx="280.5" cy="37.9" r="0.27" fill="#a78bfa" opacity="0.20" class="star-bg" style="animation-duration:6.913s;animation-delay:2.080s"/><circle cx="321.8" cy="76.5" r="0.54" fill="#fff" opacity="0.19" class="star-bg" style="animation-duration:6.781s;animation-delay:2.219s"/><circle cx="768.1" cy="138.7" r="0.69" fill="#fff" opacity="0.19" class="star-bg" style="animation-duration:7.848s;animation-delay:6.860s"/><circle cx="148.3" cy="80.9" r="0.51" fill="#fff" opacity="0.17" class="star-bg" style="animation-duration:6.887s;animation-delay:3.742s"/><circle cx="400.4" cy="21.9" r="0.55" fill="#fff" opacity="0.24" class="star-bg" style="animation-duration:5.193s;animation-delay:3.318s"/><circle cx="104.5" cy="84.4" r="0.38" fill="#a78bfa" opacity="0.25" class="star-bg" style="animation-duration:5.697s;animation-delay:5.446s"/><circle cx="491.5" cy="35.4" r="0.82" fill="#fff" opacity="0.16" class="star-bg" style="animation-duration:8.414s;animation-delay:1.821s"/><circle cx="93.0" cy="58.5" r="0.21" fill="#00d4ff" opacity="0.15" class="star-bg" style="animation-duration:8.132s;animation-delay:7.165s"/><circle cx="491.2" cy="102.1" r="0.21" fill="#fff" opacity="0.10" class="star-bg" style="animation-duration:5.386s;animation-delay:3.730s"/><circle cx="458.1" cy="80.6" r="0.76" fill="#fff" opacity="0.16" class="star-bg" style="animation-duration:6.288s;animation-delay:3.454s"/><circle cx="401.2" cy="58.9" r="0.84" fill="#fff" opacity="0.25" class="star-bg" style="animation-duration:7.329s;animation-delay:3.756s"/><circle cx="135.3" cy="55.7" r="0.65" fill="#fff" opacity="0.30" class="star-bg" style="animation-duration:7.255s;animation-delay:2.567s"/><circle cx="683.1" cy="49.2" r="0.53" fill="#fff" opacity="0.20" class="star-bg" style="animation-duration:7.289s;animation-delay:0.919s"/><circle cx="64.2" cy="152.3" r="0.61" fill="#a78bfa" opacity="0.30" class="star-bg" style="animation-duration:7.511s;animation-delay:3.704s"/><circle cx="767.7" cy="32.9" r="1.13" fill="#fff" opacity="0.44" class="star-mid" style="animation-duration:4.988s;animation-delay:0.857s"/><circle cx="497.9" cy="57.5" r="0.96" fill="#a78bfa" opacity="0.19" class="star-mid" style="animation-duration:5.899s;animation-delay:2.658s"/><circle cx="729.9" cy="43.0" r="0.88" fill="#00d4ff" opacity="0.44" class="star-mid" style="animation-duration:6.442s;animation-delay:1.456s"/><circle cx="486.5" cy="48.2" r="1.10" fill="#fff" opacity="0.27" class="star-mid" style="animation-duration:6.560s;animation-delay:2.385s"/><circle cx="361.2" cy="45.6" r="0.44" fill="#fff" opacity="0.44" class="star-mid" style="animation-duration:4.304s;animation-delay:1.676s"/><circle cx="652.4" cy="19.3" r="0.63" fill="#fff" opacity="0.40" class="star-mid" style="animation-duration:5.906s;animation-delay:0.107s"/><circle cx="247.8" cy="116.2" r="1.18" fill="#fff" opacity="0.30" class="star-mid" style="animation-duration:6.301s;animation-delay:5.942s"/><circle cx="481.1" cy="40.6" r="0.94" fill="#a78bfa" opacity="0.29" class="star-mid" style="animation-duration:3.501s;animation-delay:1.349s"/><circle cx="324.1" cy="130.7" r="1.15" fill="#fff" opacity="0.36" class="star-mid" style="animation-duration:6.295s;animation-delay:5.406s"/><circle cx="269.1" cy="54.3" r="1.16" fill="#fff" opacity="0.43" class="star-mid" style="animation-duration:6.553s;animation-delay:2.710s"/><circle cx="581.0" cy="20.3" r="1.06" fill="#fff" opacity="0.40" class="star-mid" style="animation-duration:5.337s;animation-delay:0.293s"/><circle cx="57.4" cy="127.1" r="0.95" fill="#fff" opacity="0.18" class="star-mid" style="animation-duration:6.532s;animation-delay:6.370s"/><circle cx="710.3" cy="103.7" r="1.02" fill="#fff" opacity="0.44" class="star-mid" style="animation-duration:5.496s;animation-delay:2.810s"/><circle cx="723.9" cy="157.3" r="0.46" fill="#fff" opacity="0.17" class="star-mid" style="animation-duration:6.807s;animation-delay:1.656s"/><circle cx="13.5" cy="117.0" r="1.05" fill="#00d4ff" opacity="0.23" class="star-mid" style="animation-duration:4.938s;animation-delay:3.724s"/><circle cx="30.1" cy="83.7" r="0.84" fill="#a78bfa" opacity="0.12" class="star-mid" style="animation-duration:4.438s;animation-delay:4.267s"/><circle cx="451.4" cy="100.5" r="0.48" fill="#fff" opacity="0.43" class="star-mid" style="animation-duration:6.248s;animation-delay:2.378s"/><circle cx="579.8" cy="156.3" r="0.97" fill="#a78bfa" opacity="0.30" class="star-mid" style="animation-duration:6.221s;animation-delay:3.136s"/><circle cx="264.6" cy="51.1" r="0.78" fill="#fff" opacity="0.35" class="star-mid" style="animation-duration:3.533s;animation-delay:2.318s"/><circle cx="202.5" cy="139.1" r="0.80" fill="#fff" opacity="0.39" class="star-mid" style="animation-duration:5.022s;animation-delay:1.134s"/><circle cx="321.6" cy="82.7" r="0.88" fill="#fff" opacity="0.15" class="star-mid" style="animation-duration:3.649s;animation-delay:1.379s"/><circle cx="91.4" cy="150.6" r="0.66" fill="#fff" opacity="0.14" class="star-mid" style="animation-duration:3.676s;animation-delay:3.563s"/><circle cx="476.9" cy="153.5" r="0.46" fill="#ffb020" opacity="0.33" class="star-mid" style="animation-duration:4.385s;animation-delay:2.540s"/><circle cx="206.2" cy="19.7" r="0.71" fill="#00d4ff" opacity="0.25" class="star-mid" style="animation-duration:5.263s;animation-delay:3.141s"/><circle cx="102.4" cy="15.5" r="0.67" fill="#a78bfa" opacity="0.30" class="star-mid" style="animation-duration:3.631s;animation-delay:1.449s"/><circle cx="127.2" cy="42.7" r="1.31" fill="#fff" opacity="0.49" class="star-fg" style="animation-duration:4.382s;animation-delay:3.142s"/><circle cx="497.5" cy="159.3" r="0.88" fill="#ffb020" opacity="0.32" class="star-fg" style="animation-duration:2.651s;animation-delay:1.766s"/><circle cx="555.1" cy="91.2" r="1.36" fill="#a78bfa" opacity="0.26" class="star-fg" style="animation-duration:2.516s;animation-delay:0.238s"/><circle cx="644.3" cy="47.0" r="1.21" fill="#a78bfa" opacity="0.58" class="star-fg" style="animation-duration:4.207s;animation-delay:2.969s"/><circle cx="584.0" cy="165.6" r="0.75" fill="#fff" opacity="0.46" class="star-fg" style="animation-duration:3.529s;animation-delay:2.858s"/><circle cx="785.4" cy="125.4" r="1.02" fill="#a78bfa" opacity="0.47" class="star-fg" style="animation-duration:2.102s;animation-delay:0.736s"/><circle cx="816.8" cy="25.7" r="1.47" fill="#fff" opacity="0.57" class="star-fg" style="animation-duration:4.418s;animation-delay:4.372s"/><circle cx="431.2" cy="136.8" r="1.05" fill="#fff" opacity="0.51" class="star-fg" style="animation-duration:4.498s;animation-delay:2.101s"/><circle cx="684.1" cy="80.0" r="0.77" fill="#ffb020" opacity="0.46" class="star-fg" style="animation-duration:4.264s;animation-delay:3.988s"/><circle cx="193.3" cy="113.6" r="0.87" fill="#a78bfa" opacity="0.52" class="star-fg" style="animation-duration:2.760s;animation-delay:0.203s"/><line x1="593" y1="47" x2="611" y2="52" stroke="url(#x743a279)" stroke-width="1.1" stroke-linecap="round" class="shooting-star" style="animation-delay:24.7s;--shoot-tx:101px;--shoot-ty:44px;animation-duration:2.3s"/><line x1="253" y1="63" x2="271" y2="68" stroke="url(#x743a279)" stroke-width="1.1" stroke-linecap="round" class="shooting-star" style="animation-delay:58.05s;--shoot-tx:113px;--shoot-ty:37px;animation-duration:2.41s"/><line x1="550" y1="68" x2="568" y2="73" stroke="url(#x743a279)" stroke-width="1.1" stroke-linecap="round" class="shooting-star" style="animation-delay:51.19s;--shoot-tx:91px;--shoot-ty:49px;animation-duration:2.14s"/><line x1="170.0" y1="55" x2="170.0" y2="155" stroke="#1a2332" stroke-width="1" opacity="0.5"/><line x1="340.0" y1="55" x2="340.0" y2="155" stroke="#1a2332" stroke-width="1" opacity="0.5"/><line x1="510.0" y1="55" x2="510.0" y2="155" stroke="#1a2332" stroke-width="1" opacity="0.5"/><line x1="680.0" y1="55" x2="680.0" y2="155" stroke="#1a2332" stroke-width="1" opacity="0.5"/><g class="metric-cell" transform="translate(85.0,95)"><g transform="translate(-8,-30)"><svg viewBox="0 0 16 16" width="16" height="16" fill="#00d4ff" class="metric-icon" style="animation-delay:0.0s"><path d="M8 1a7 7 0 1 0 0 14A7 7 0 0 0 8 1zm0 2.5a4.5 4.5 0 0 1 4.473 4H14.5a.5.5 0 0 1 0 1h-2.027A4.5 4.5 0 0 1 8 12.5a4.5 4.5 0 0 1-4.473-4H1.5a.5.5 0 0 1 0-1h2.027A4.5 4.5 0 0 1 8 3.5zm0 1.5a3 3 0 1 0 0 6 3 3 0 0 0 0-6z"/></svg></g><text x="0" y="2" text-anchor="middle" fill="#00d4ff" font-size="28" font-weight="bold" font-family="sans-serif" opacity="0.35" filter="url(#xdf01081)">586</text><text x="0" y="2" text-anchor="middle" fill="#f1f5f9" font-size="28" font-weight="bold" font-family="sans-serif">586</text><text x="0" y="20" text-anchor="middle" fill="#64748b" font-size="11" font-family="monospace" letter-spacing="1">Commits</text></g><g class="metric-cell" transform="translate(255.0,95)"><g transform="translate(-8,-30)"><svg viewBox="0 0 16 16" width="16" height="16" fill="#ffb020" class="metric-icon" style="animation-delay:0.3s"><path d="M8 .25a.75.75 0 0 1 .673.418l1.882 3.815 4.21.612a.75.75 0 0 1 .416 1.279l-3.046 2.97.719 4.192a.75.75 0 0 1-1.088.791L8 12.347l-3.766 1.98a.75.75 0 0 1-1.088-.79l.72-4.194L.818 6.374a.75.75 0 0 1 .416-1.28l4.21-.611L7.327.668A.75.75 0 0 1 8 .25z"/></svg></g><text x="0" y="2" text-anchor="middle" fill="#ffb020" font-size="28" font-weight="bold" font-family="sans-serif" opacity="0.35" filter="url(#xdf01081)">210</text><text x="0" y="2" text-anchor="middle" fill="#f1f5f9" font-size="28" font-weight="bold" font-family="sans-serif">210</text><text x="0" y="20" text-anchor="middle" fill="#64748b" font-size="11" font-family="monospace" letter-spacing="1">Stars</text></g><g class="metric-cell" transform="translate(425.0,95)"><g transform="translate(-8,-30)"><svg viewBox="0 0 16 16" width="16" height="16" fill="#a78bfa" class="metric-icon" style="animation-delay:0.6s"><path d="M5 3.254V3.25v.005a.75.75 0 1 1 0-.005zm6.5 8a.75.75 0 1 1 0 1.5.75.75 0 0 1 0-1.5zM5 12.75a.75.75 0 1 1 0 1.5.75.75 0 0 1 0-1.5zm-1.5.75a1.5 1.5 0 1 0 1.5 1.5v-8.5a1.5 1.5 0 1 0-1.5-1.5v8.5a1.5 1.5 0 0 0 0 0zm8.5-2.5a1.5 1.5 0 0 0-1.5 1.5 1.5 1.5 0 1 0 3 0v-3.133l.025-.05A3.252 3.252 0 0 0 11 5.25V3.5h1.25a.75.75 0 0 0 .53-1.28l-2-2a.75.75 0 0 0-1.06 0l-2 2A.75.75 0 0 0 8.25 3.5H9.5v1.75a1.75 1.75 0 0 0 1.75 1.75h.244a1.75 1.75 0 0 1 1.006.319V11a1.5 1.5 0 0 0-1.5-1.5z"/></svg></g><text x="0" y="2" text-anchor="middle" fill="#a78bfa" font-size="28" font-weight="bold" font-family="sans-serif" opacity="0.35" filter="url(#xdf01081)">3</text><text x="0" y="2" text-anchor="middle" fill="#f1f5f9" font-size="28" font-weight="bold" font-family="sans-serif">3</text><text x="0" y="20" text-anchor="middle" fill="#64748b" font-size="11" font-family="monospace" letter-spacing="1">PRs</text></g><g class="metric-cell" transform="translate(595.0,95)"><g transform="translate(-8,-30)"><svg viewBox="0 0 16 16" width="16" height="16" fill="#00d4ff" class="metric-icon" style="animation-delay:0.8999999999999999s"><path d="M8 9.5a1.5 1.5 0 1 0 0-3 1.5 1.5 0 0 0 0 3z"/><path d="M8 0a8 8 0 1 1 0 16A8 8 0 0 1 8 0zm0 1.5a6.5 6.5 0 1 0 0 13 6.5 6.5 0 0 0 0-13z"/></svg></g><text x="0" y="2" text-anchor="middle" fill="#00d4ff" font-size="28" font-weight="bold" font-family="sans-serif" opacity="0.35" filter="url(#xdf01081)">5</text><text x="0" y="2" text-anchor="middle" fill="#f1f5f9" font-size="28" font-weight="bold" font-family="sans-serif">5</text><text x="0" y="20" text-anchor="middle" fill="#64748b" font-size="11" font-family="monospace" letter-spacing="1">Issues</text></g><g class="metric-cell" transform="translate(765.0,95)"><g transform="translate(-8,-30)"><svg viewBox="0 0 16 16" width="16" height="16" fill="#a78bfa" class="metric-icon" style="animation-delay:1.2s"><path d="M2 2.5A2.5 2.5 0 0 1 4.5 0h8.75a.75.75 0 0 1 .75.75v12.5a.75.75 0 0 1-.75.75h-2.5a.75.75 0 0 1 0-1.5h1.75v-2h-8a1 1 0 0 0-.714 1.7.75.75 0 0 1-1.072 1.05A2.495 2.495 0 0 1 2 11.5zm10.5-1h-8a1 1 0 0 0-1 1v6.708A2.486 2.486 0 0 1 4.5 9h8zM5 12.25a.25.25 0 0 1 .25-.25h3.5a.25.25 0 0 1 .25.25v3.25a.25.25 0 0 1-.4.2l-1.45-1.087a.25.25 0 0 0-.3 0L5.4 15.7a.25.25 0 0 1-.4-.2z"/></svg></g><text x="0" y="2" text-anchor="middle" fill="#a78bfa" font-size="28" font-weight="bold" font-family="sans-serif" opacity="0.35" filter="url(#xdf01081)">29</text><text x="0" y="2" text-anchor="middle" fill="#f1f5f9" font-size="28" font-weight="bold" font-family="sans-serif">29</text><text x="0" y="20" text-anchor="middle" fill="#64748b" font-size="11" font-family="monospace" letter-spacing="1">Repos</text></g></svg>