<svg xmlns="http://www.w3.org/2000/svg" width="850" height="180" viewBox="0 0 850 180"><defs><style>.metric-icon{animation:count-glow 4s ease-in-out infinite}@keyframes count-glow{0%,100%{fill-opacity:0.7}50%{fill-opacity:1}}.star-bg{animation:twinkle-slow 7s ease-in-out infinite}.star-mid{animation:twinkle-mid 5s ease-in-out infinite}.star-fg{animation:twinkle-fast 3s ease-in-out infinite}@keyframes twinkle-slow{0%,100%{opacity:0.07}50%{opacity:0.30}}@keyframes twinkle-mid{0%,100%{opacity:0.12}50%{opacity:0.45}}@keyframes twinkle-fast{0%,100%{opacity:0.25}50%{opacity:0.65}}.shooting-star{opacity:0;animation:shoot linear infinite}@keyframes shoot{0%{opacity:0;transform:translate(0,0)}5%{opacity:0.9}15%{opacity:0.6;transform:translate(var(--shoot-tx),var(--shoot-ty))}20%{opacity:0;transform:translate(var(--shoot-tx),var(--shoot-ty))}100%{opacity:0}}</style><filter id="xdf01081" x="-30%" y="-30%" width="160%" height="160%"><feGaussianBlur stdDeviation="3"/></filter><radialGradient id="xe7d3b8d" cx="50%" cy="50%" r="80%"><stop offset="0%" stop-color="#0f1623" stop-opacity="0.85"/><stop offset="100%" stop-color="#080c14" stop-opacity="0"/></radialGradient><linearGradient id="x743a279" x1="0" y1="0" x2="1" y2="0"><stop offset="0%" stop-color="#fff" stop-opacity="0.85"/><stop offset="100%" stop-color="#fff" stop-opacity="0"/></linearGradient></defs><rect x="0" y="0" width="850" height="180" rx="14" ry="14" fill="#080c14"/><rect x="0" y="0" width="850" height="180" rx="14" ry="14" fill="url(#xe7d3b8d)"/><circle cx="210.7" cy="63.9" r="0.88" fill="#fff" opacity="0.27" class="star-bg" style="animation-duration:5.165s;animation-delay:0.712s"/><circle cx="119.5" cy="56.8" r="0.51" fill="#fff" opacity="0.07" class="star-bg" style="animation-duration:8.509s;animation-delay:8.484s"/><circle cx="614.0" cy="64.9" r="0.27" fill="#fff" opacity="0.10" class="star-bg" style="animation-duration:6.861s;animation-delay:2.347s"/><circle cx="618.8" cy="75.3" r="0.24" fill="#fff" opacity="0.13" class="star-bg" style="animation-duration:6.969s;animation-delay:0.029s"/><circle cx="177.9" cy="136.4" r="0.50" fill="#fff" opacity="0.20" class="star-bg" style="animation-duration:5.939s;animation-delay:4.215s"/><circle cx="493.5" cy="27.0" r="0.22" fill="#fff" opacity="0.14" class="star-bg" style="animation-duration:8.099s;animation-delay:6.825s"/><circle cx="704.2" cy="106.3" r="0.82" fill="#ffb020" opacity="0.09" class="star-bg" style="animation-duration:8.387s;animation-delay:4.385s"/><circle cx="193.9" cy="154.6" r="0.42" fill="#00d4ff" opacity="0.24" class="star-bg" style="animation-duration:8.545s;animation-delay:1.933s"/><circle cx="650.2" cy="62.5" r="0.23" fill="#fff" opacity="0.22" class="star-bg" style="animation-duration:6.463s;animation-delay:6.092s"/><circle cx="397.9" cy="153.3" r="0.56" fill="#fff" opacity="0.29" class="star-bg" style="animation-duration:5.111s;animation-delay:2.263s"/><circle cx="382.5" cy="33.9" r="0.35" fill="#fff" opacity="0.21" class="star-bg" style="animation-duration:8.124s;animation-delay:0.603s"/><circle cx="601.1" cy="147.3" r="0.74" fill="#00d4ff" opacity="0.08" class="star-bg" style="animation-duration:7.921s;animation-delay:1.871s"/><circle cx="39.9" cy="101.9" r="0.24" fill="#fff" opacity="0.21" class="star-bg" style="animation-duration:7.324s;animation-delay:1.734s"/><circle cx="264.4" cy="73.3" r="0.78" fill="#ffb020" opacity="0.15" class="star-bg" style="animation-duration:5.160s;animation-delay:4.869s"/><circle cx="761.4" cy="163.6" r="0.34" fill="#fff" opacity="0.29" class="star-bg" style="animation-duration:7.507s;animation-delay:6.602s"/><circle cx="57.2" cy="91.8" r="0.82" fill="#00d4ff" opacity="0.19" class="star-bg" style="animation-duration:8.818s;animation-delay:2.284s"/><circle cx="477.3" cy="110.9" r="0.71" fill="#ffb020" opacity="0.22" class="star-bg" style="animation-duration:7.007s;animation-delay:2.741s"/><circle cx="595.0" cy="110.1" r="0.90" fill="#00d4ff" opacity="0.27" class="star-bg" style="animation-duration:7.189s;animation-delay:0.332s"/><circle cx="587.9" cy="71.7" r="0.74" fill="#00d4ff" opacity="0.27" class="star-bg" style="animation-duration:8.537s;animation-delay:1.237s"/><circle cx="213.2" cy="161.6" r="0.28" fill="#fff" opacity="0.27" class="star-bg" style="animation-duration:6.186s;animation-delay:4.600s"/><circle cx="521.6" cy="165.4" r="0.40" fill="#a78bfa" opacity="0.25" class="star-bg" style="animation-duration:7.722s;animation-delay:0.205s"/><circle cx="121.0" cy="74.7" r="0.39" fill="#00d4ff" opacity="0.18" class="star-bg" style="animation-duration:6.774s;animation-delay:6.344s"/><circle cx="794.1" cy="99.0" r="0.83" fill="#a78bfa" opacity="0.15" class="star-bg" style="animation-duration:7.297s;animation-delay:6.681s"/><circle cx="836.3" cy="54.0" r="0.69" fill="#a78bfa" opacity="0.30" class="star-bg" style="animation-duration:8.853s;animation-delay:1.250s"/><circle cx="728.5" cy="168.2" r="0.18" fill="#00d4ff" opacity="0.26" class="star-bg" style="animation-duration:6.821s;animation-delay:6.105s"/><circle cx="200.8" cy="74.5" r="0.20" fill="#ffb020" opacity="0.27" class="star-bg" style="animation-duration:5.414s;animation-delay:0.584s"/><circle cx="225.6" cy="75.8" r="0.83" fill="#a78bfa" opacity="0.12" class="star-bg" style="animation-duration:7.524s;animation-delay:1.499s"/><circle cx="679.5" cy="126.4" r="0.85" fill="#ffb020" opacity="0.30" class="star-bg" style="animation-duration:5.172s;animation-delay:1.931s"/><circle cx="406.7" cy="130.0" r="0.19" fill="#a78bfa" opacity="0.13" class="star-bg" style="animation-duration:8.491s;animation-delay:1.190s"/><circle cx="808.6" cy="114.0" r="0.62" fill="#fff" opacity="0.20" class="star-bg" style="animation-duration:5.921s;animation-delay:1.814s"/><circle cx="459.7" cy="168.0" r="0.53" fill="#ffb020" opacity="0.15" class="star-bg" style="animation-duration:5.176s;animation-delay:0.267s"/><circle cx="360.1" cy="131.9" r="0.77" fill="#fff" opacity="0.09" class="star-bg" style="animation-duration:6.314s;animation-delay:3.493s"/><circle cx="717.4" cy="96.6" r="0.29" fill="#fff" opacity="0.25" class="star-bg" style="animation-duration:8.921s;animation-delay:0.615s"/><circle cx="556.5" cy="119.4" r="0.54" fill="#a78bfa" opacity="0.14" class="star-bg" style="animation-duration:7.173s;animation-delay:1.142s"/><circle cx="299.2" cy="149.9" r="0.86" fill="#ffb020" opacity="0.07" class="star-bg" style="animation-duration:5.438s;animation-delay:3.484s"/><circle cx="317.8" cy="114.5" r="0.81" fill="#fff" opacity="0.28" class="star-bg" style="animation-duration:8.584s;animation-delay:1.141s"/><circle cx="319.5" cy="103.9" r="0.65" fill="#fff" opacity="0.17" class="star-bg" style="animation-duration:6.529s;animation-delay:1.765s"/><circle cx="801.4" cy="58.2" r="0.40" fill="#fff" opacity="0.25" class="star-bg" style="animation-duration:5.614s;animation-delay:0.732s"/><circle cx="211.9" cy="86.7" r="0.76" fill="#ffb020" opacity="0.27" class="star-bg" style="animation-duration:5.220s;animation-delay:4.778s"/><circle cx="302.5" cy="40.3" r="0.82" fill="#ffb020" opacity="0.23" class="star-bg" style="animation-duration:8.297s;animation-delay:1.887s"/><circle cx="538.1" cy="126.9" r="0.86" fill="#ffb020" opacity="0.42" class="star-mid" style="animation-duration:5.488s;animation-delay:4.680s"/><circle cx="738.1" cy="128.5" r="0.74" fill="#a78bfa" opacity="0.43" class="star-mid" style="animation-duration:6.414s;animation-delay:2.789s"/><circle cx="771.0" cy="166.2" r="0.72" fill="#a78bfa" opacity="0.20" class="star-mid" style="animation-duration:5.817s;animation-delay:2.066s"/><circle cx="780.7" cy="23.7" r="0.68" fill="#fff" opacity="0.18" class="star-mid" style="animation-duration:5.648s;animation-delay:2.336s"/><circle cx="262.4" cy="53.1" r="0.89" fill="#a78bfa" opacity="0.38" class="star-mid" style="animation-duration:5.438s;animation-delay:2.551s"/><circle cx="392.9" cy="135.7" r="0.57" fill="#fff" opacity="0.23" class="star-mid" style="animation-duration:4.037s;animation-delay:1.866s"/><circle cx="751.0" cy="122.7" r="0.82" fill="#fff" opacity="0.23" class="star-mid" style="animation-duration:6.360s;animation-delay:2.593s"/><circle cx="99.7" cy="111.3" r="1.11" fill="#00d4ff" opacity="0.35" class="star-mid" style="animation-duration:6.350s;animation-delay:0.592s"/><circle cx="256.0" cy="59.2" r="0.93" fill="#ffb020" opacity="0.37" class="star-mid" style="animation-duration:3.946s;animation-delay:2.874s"/><circle cx="499.3" cy="126.4" r="0.63" fill="#fff" opacity="0.41" class="star-mid" style="animation-duration:4.241s;animation-delay:0.405s"/><circle cx="433.9" cy="143.1" r="0.63" fill="#ffb020" opacity="0.30" class="star-mid" style="animation-duration:3.895s;animation-delay:0.976s"/><circle cx="573.7" cy="25.5" r="0.81" fill="#00d4ff" opacity="0.15" class="star-mid" style="animation-duration:5.058s;animation-delay:4.372s"/><circle cx="54.1" cy="83.2" r="0.72" fill="#fff" opacity="0.29" class="star-mid" style="animation-duration:5.713s;animation-delay:3.166s"/><circle cx="31.5" cy="102.3" r="0.49" fill="#ffb020" opacity="0.29" class="star-mid" style="animation-duration:6.223s;animation-delay:2.019s"/><circle cx="401.9" cy="91.6" r="0.46" fill="#fff" opacity="0.14" class="star-mid" style="animation-duration:4.523s;animation-delay:4.119s"/><circle cx="321.4" cy="66.9" r="0.67" fill="#a78bfa" opacity="0.34" class="star-mid" style="animation-duration:5.013s;animation-delay:1.721s"/><circle cx="683.7" cy="29.6" r="0.72" fill="#fff" opacity="0.22" class="star-mid" style="animation-duration:5.525s;animation-delay:1.590s"/><circle cx="15.0" cy="45.5" r="0.47" fill="#fff" opacity="0.37" class="star-mid" style="animation-duration:4.651s;animation-delay:0.710s"/><circle cx="548.1" cy="34.6" r="0.56" fill="#fff" opacity="0.22" class="star-mid" style="animation-duration:5.608s;animation-delay:1.146s"/><circle cx="381.5" cy="136.0" r="0.58" fill="#00d4ff" opacity="0.28" class="star-mid" style="animation-duration:6.307s;animation-delay:0.649s"/><circle cx="364.6" cy="39.7" r="0.62" fill="#a78bfa" opacity="0.31" class="star-mid" style="animation-duration:5.638s;animation-delay:3.435s"/><circle cx="619.8" cy="92.1" r="1.16" fill="#ffb020" opacity="0.44" class="star-mid" style="animation-duration:5.806s;animation-delay:2.097s"/><circle cx="41.5" cy="69.7" r="1.09" fill="#00d4ff" opacity="0.31" class="star-mid" style="animation-duration:6.141s;animation-delay:4.677s"/><circle cx="760.5" cy="130.5" r="0.64" fill="#a78bfa" opacity="0.29" class="star-mid" style="animation-duration:5.519s;animation-delay:4.965s"/><circle cx="766.2" cy="59.2" r="0.46" fill="#fff" opacity="0.27" class="star-mid" style="animation-duration:5.097s;animation-delay:2.301s"/><circle cx="117.0" cy="73.1" r="0.98" fill="#a78bfa" opacity="0.61" class="star-fg" style="animation-duration:3.927s;animation-delay:3.677s"/><circle cx="754.5" cy="59.3" r="1.31" fill="#a78bfa" opacity="0.48" class="star-fg" style="animation-duration:2.978s;animation-delay:2.665s"/><circle cx="643.5" cy="78.8" r="1.24" fill="#fff" opacity="0.25" class="star-fg" style="animation-duration:4.313s;animation-delay:1.580s"/><circle cx="378.5" cy="106.5" r="0.89" fill="#fff" opacity="0.58" class="star-fg" style="animation-duration:4.397s;animation-delay:4.113s"/><circle cx="762.6" cy="71.0" r="1.41" fill="#fff" opacity="0.25" class="star-fg" style="animation-duration:4.393s;animation-delay:4.265s"/><circle cx="257.6" cy="114.6" r="0.93" fill="#a78bfa" opacity="0.45" class="star-fg" style="animation-duration:4.266s;animation-delay:0.094s"/><circle cx="415.8" cy="132.2" r="1.18" fill="#a78bfa" opacity="0.34" class="star-fg" style="animation-duration:3.967s;animation-delay:3.161s"/><circle cx="447.7" cy="117.8" r="1.42" fill="#a78bfa" opacity="0.31" class="star-fg" style="animation-duration:2.012s;animation-delay:0.078s"/><circle cx="703.8" cy="44.4" r="0.90" fill="#ffb020" opacity="0.42" class="star-fg" style="animation-duration:3.798s;animation-delay:2.852s"/><circle cx="462.3" cy="103.6" r="0.94" fill="#ffb020" opacity="0.52" class="star-fg" style="animation-duration:3.265s;animation-delay:1.881s"/><line x1="82" y1="88" x2="100" y2="93" stroke="url(#x743a279)" stroke-width="1.1" stroke-linecap="round" class="shooting-star" style="animation-delay:35.44s;--shoot-tx:90px;--shoot-ty:39px;animation-duration:2.13s"/><line x1="327" y1="79" x2="345" y2="84" stroke="url(#x743a279)" stroke-width="1.1" stroke-linecap="round" class="shooting-star" style="animation-delay:40.24s;--shoot-tx:84px;--shoot-ty:35px;animation-duration:2.62s"/><line x1="318" y1="41" x2="336" y2="46" stroke="url(#x743a279)" stroke-width="1.1" stroke-linecap="round" class="shooting-star" style="animation-delay:28.55s;--shoot-tx:83px;--shoot-ty:45px;animation-duration:2.68s"/><line x1="170.0" y1="55" x2="170.0" y2="155" stroke="#1a2332" stroke-width="1" opacity="0.5"/><line x1="340.0" y1="55" x2="340.0" y2="155" stroke="#1a2332" stroke-width="1" opacity="0.5"/><line x1="510.0" y1="55" x2="510.0" y2="155" stroke="#1a2332" stroke-width="1" opacity="0.5"/><line x1="680.0" y1="55" x2="680.0" y2="155" stroke="#1a2332" stroke-width="1" opacity="0.5"/><g class="metric-cell" transform="translate(85.0,95)"><g transform="translate(-8,-30)"><svg viewBox="0 0 16 16" width="16" height="16" fill="#00d4ff" class="metric-icon" style="animation-delay:0.0s"><path d="M8 1a7 7 0 1 0 0 14A7 7 0 0 0 8 1zm0 2.5a4.5 4.5 0 0 1 4.473 4H14.5a.5.5 0 0 1 0 1h-2.027A4.5 4.5 0 0 1 8 12.5a4.5 4.5 0 0 1-4.473-4H1.5a.5.5 0 0 1 0-1h2.027A4.5 4.5 0 0 1 8 3.5zm0 1.5a3 3 0 1 0 0 6 3 3 0 0 0 0-6z"/></svg></g><text x="0" y="2" text-anchor="middle" fill="#00d4ff" font-size="28" font-weight="bold" font-family="sans-serif" opacity="0.35" filter="url(#xdf01081)">566</text><text x="0" y="2" text-anchor="middle" fill="#f1f5f9" font-size="28" font-weight="bold" font-family="sans-serif">566</text><text x="0" y="20" text-anchor="middle" fill="#64748b" font-size="11" font-family="monospace" letter-spacing="1">Commits</text></g><g class="metric-cell" transform="translate(255.0,95)"><g transform="translate(-8,-30)"><svg viewBox="0 0 16 16" width="16" height="16" fill="#ffb020" class="metric-icon" style="animation-delay:0.3s"><path d="M8 .25a.75.75 0 0 1 .673.418l1.882 3.815 4.21.612a.75.75 0 0 1 .416 1.279l-3.046 2.97.719 4.192a.75.75 0 0 1-1.088.791L8 12.347l-3.766 1.98a.75.75 0 0 1-1.088-.79l.72-4.194L.818 6.374a.75.75 0 0 1 .416-1.28l4.21-.611L7.327.668A.75.75 0 0 1 8 .25z"/></svg></g><text x="0" y="2" text-anchor="middle" fill="#ffb020" font-size="28" font-weight="bold" font-family="sans-serif" opacity="0.35" filter="url(#xdf01081)">210</text><text x="0" y="2" text-anchor="middle" fill="#f1f5f9" font-size="28" font-weight="bold" font-family="sans-serif">210</text><text x="0" y="20" text-anchor="middle" fill="#64748b" font-size="11" font-family="monospace" letter-spacing="1">Stars</text></g><g class="metric-cell" transform="translate(425.0,95)"><g transform="translate(-8,-30)"><svg viewBox="0 0 16 16" width="16" height="16" fill="#a78bfa" class="metric-icon" style="animation-delay:0.6s"><path d="M5 3.254V3.25v.005a.75.75 0 1 1 0-.005zm6.5 8a.75.75 0 1 1 0 1.5.75.75 0 0 1 0-1.5zM5 12.75a.75.75 0 1 1 0 1.5.75.75 0 0 1 0-1.5zm-1.5.75a1.5 1.5 0 1 0 1.5 1.5v-8.5a1.5 1.5 0 1 0-1.5-1.5v8.5a1.5 1.5 0 0 0 0 0zm8.5-2.5a1.5 1.5 0 0 0-1.5 1.5 1.5 1.5 0 1 0 3 0v-3.133l.025-.05A3.252 3.252 0 0 0 11 5.25V3.5h1.25a.75.75 0 0 0 .53-1.28l-2-2a.75.75 0 0 0-1.06 0l-2 2A.75.75 0 0 0 8.25 3.5H9.5v1.75a1.75 1.75 0 0 0 1.75 1.75h.244a1.75 1.75 0 0 1 1.006.319V11a1.5 1.5 0 0 0-1.5-1.5z"/></svg></g><text x="0" y="2" text-anchor="middle" fill="#a78bfa" font-size="28" font-weight="bold" font-family="sans-serif" opacity="0.35" filter="url(#xdf01081)">3</text><text x="0" y="2" text-anchor="middle" fill="#f1f5f9" font-size="28" font-weight="bold" font-family="sans-serif">3</text><text x="0" y="20" text-anchor="middle" fill="#64748b" font-size="11" font-family="monospace" letter-spacing="1">PRs</text></g><g class="metric-cell" transform="translate(595.0,95)"><g transform="translate(-8,-30)"><svg viewBox="0 0 16 16" width="16" height="16" fill="#00d4ff" class="metric-icon" style="animation-delay:0.8999999999999999s"><path d="M8 9.5a1.5 1.5 0 1 0 0-3 1.5 1.5 0 0 0 0 3z"/><path d="M8 0a8 8 0 1 1 0 16A8 8 0 0 1 8 0zm0 1.5a6.5 6.5 0 1 0 0 13 6.5 6.5 0 0 0 0-13z"/></svg></g><text x="0" y="2" text-anchor="middle" fill="#00d4ff" font-size="28" font-weight="bold" font-family="sans-serif" opacity="0.35" filter="url(#xdf01081)">5</text><text x="0" y="2" text-anchor="middle" fill="#f1f5f9" font-size="28" font-weight="bold" font-family="sans-serif">5</text><text x="0" y="20" text-anchor="middle" fill="#64748b" font-size="11" font-family="monospace" letter-spacing="1">Issues</text></g><g class="metric-cell" transform="translate(765.0,95)"><g transform="translate(-8,-30)"><svg viewBox="0 0 16 16" width="16" height="16" fill="#a78bfa" class="metric-icon" style="animation-delay:1.2s"><path d="M2 2.5A2.5 2.5 0 0 1 4.5 0h8.75a.75.75 0 0 1 .75.75v12.5a.75.75 0 0 1-.75.75h-2.5a.75.75 0 0 1 0-1.5h1.75v-2h-8a1 1 0 0 0-.714 1.7.75.75 0 0 1-1.072 1.05A2.495 2.495 0 0 1 2 11.5zm10.5-1h-8a1 1 0 0 0-1 1v6.708A2.486 2.486 0 0 1 4.5 9h8zM5 12.25a.25.25 0 0 1 .25-.25h3.5a.25.25 0 0 1 .25.25v3.25a.25.25 0 0 1-.4.2l-1.45-1.087a.25.25 0 0 0-.3 0L5.4 15.7a.25.25 0 0 1-.4-.2z"/></svg></g><text x="0" y="2" text-anchor="middle" fill="#a78bfa" font-size="28" font-weight="bold" font-family="sans-serif" opacity="0.35" filter="url(#xdf01081)">29</text><text x="0" y="2" text-anchor="middle" fill="#f1f5f9" font-size="28" font-weight="bold" font-family="sans-serif">29</text><text x="0" y="20" text-anchor="middle" fill="#64748b" font-size="11" font-family="monospace" letter-spacing="1">Repos</text></g></svg>