<svg xmlns="http://www.w3.org/2000/svg" width="850" height="180" viewBox="0 0 850 180"><defs><style>.metric-icon{animation:count-glow 4s ease-in-out infinite}@keyframes count-glow{0%,100%{fill-opacity:0.7}50%{fill-opacity:1}}.star-bg{animation:twinkle-slow 7s ease-in-out infinite}.star-mid{animation:twinkle-mid 5s ease-in-out infinite}.star-fg{animation:twinkle-fast 3s ease-in-out infinite}@keyframes twinkle-slow{0%,100%{opacity:0.07}50%{opacity:0.30}}@keyframes twinkle-mid{0%,100%{opacity:0.12}50%{opacity:0.45}}@keyframes twinkle-fast{0%,100%{opacity:0.25}50%{opacity:0.65}}.shooting-star{opacity:0;animation:shoot linear infinite}@keyframes shoot{0%{opacity:0;transform:translate(0,0)}5%{opacity:0.9}15%{opacity:0.6;transform:translate(var(--shoot-tx),var(--shoot-ty))}20%{opacity:0;transform:translate(var(--shoot-tx),var(--shoot-ty))}100%{opacity:0}}</style><filter id="xdf01081" x="-30%" y="-30%" width="160%" height="160%"><feGaussianBlur stdDeviation="3"/></filter><radialGradient id="xe7d3b8d" cx="50%" cy="50%" r="80%"><stop offset="0%" stop-color="#0f1623" stop-opacity="0.85"/><stop offset="100%" stop-color="#080c14" stop-opacity="0"/></radialGradient><linearGradient id="x743a279" x1="0" y1="0" x2="1" y2="0"><stop offset="0%" stop-color="#fff" stop-opacity="0.85"/><stop offset="100%" stop-color="#fff" stop-opacity="0"/></linearGradient></defs><rect x="0" y="0" width="850" height="180" rx="14" ry="14" fill="#080c14"/><rect x="0" y="0" width="850" height="180" rx="14" ry="14" fill="url(#xe7d3b8d)"/><circle cx="493.8" cy="74.8" r="0.50" fill="#fff" opacity="0.12" class="star-bg" style="animation-duration:8.338s;animation-delay:6.296s"/><circle cx="697.4" cy="121.5" r="0.69" fill="#ffb020" opacity="0.10" class="star-bg" style="animation-duration:7.899s;animation-delay:2.893s"/><circle cx="21.9" cy="45.8" r="0.61" fill="#00d4ff" opacity="0.26" class="star-bg" style="animation-duration:8.024s;animation-delay:5.840s"/><circle cx="176.0" cy="22.1" r="0.22" fill="#fff" opacity="0.09" class="star-bg" style="animation-duration:5.982s;animation-delay:5.789s"/><circle cx="146.8" cy="11.8" r="0.87" fill="#fff" opacity="0.18" class="star-bg" style="animation-duration:8.176s;animation-delay:3.451s"/><circle cx="678.1" cy="52.0" r="0.64" fill="#fff" opacity="0.24" class="star-bg" style="animation-duration:8.191s;animation-delay:0.721s"/><circle cx="281.2" cy="145.0" r="0.29" fill="#fff" opacity="0.21" class="star-bg" style="animation-duration:6.792s;animation-delay:0.620s"/><circle cx="304.0" cy="130.1" r="0.47" fill="#fff" opacity="0.11" class="star-bg" style="animation-duration:6.168s;animation-delay:3.454s"/><circle cx="281.9" cy="54.8" r="0.79" fill="#a78bfa" opacity="0.15" class="star-bg" style="animation-duration:5.358s;animation-delay:1.588s"/><circle cx="213.1" cy="152.4" r="0.59" fill="#00d4ff" opacity="0.14" class="star-bg" style="animation-duration:8.393s;animation-delay:7.920s"/><circle cx="174.1" cy="107.9" r="0.67" fill="#fff" opacity="0.28" class="star-bg" style="animation-duration:5.689s;animation-delay:1.004s"/><circle cx="392.6" cy="88.4" r="0.41" fill="#00d4ff" opacity="0.28" class="star-bg" style="animation-duration:8.038s;animation-delay:4.550s"/><circle cx="801.4" cy="119.6" r="0.30" fill="#00d4ff" opacity="0.15" class="star-bg" style="animation-duration:5.239s;animation-delay:1.549s"/><circle cx="319.5" cy="119.0" r="0.68" fill="#a78bfa" opacity="0.14" class="star-bg" style="animation-duration:8.359s;animation-delay:6.219s"/><circle cx="712.0" cy="81.5" r="0.88" fill="#fff" opacity="0.22" class="star-bg" style="animation-duration:7.867s;animation-delay:6.528s"/><circle cx="449.3" cy="119.3" r="0.83" fill="#a78bfa" opacity="0.14" class="star-bg" style="animation-duration:5.188s;animation-delay:0.865s"/><circle cx="189.6" cy="13.8" r="0.32" fill="#a78bfa" opacity="0.12" class="star-bg" style="animation-duration:8.245s;animation-delay:7.887s"/><circle cx="357.0" cy="79.6" r="0.35" fill="#00d4ff" opacity="0.26" class="star-bg" style="animation-duration:7.786s;animation-delay:5.098s"/><circle cx="100.5" cy="98.7" r="0.42" fill="#a78bfa" opacity="0.11" class="star-bg" style="animation-duration:8.164s;animation-delay:2.247s"/><circle cx="76.4" cy="162.4" r="0.30" fill="#00d4ff" opacity="0.24" class="star-bg" style="animation-duration:6.976s;animation-delay:6.872s"/><circle cx="302.9" cy="70.0" r="0.89" fill="#fff" opacity="0.19" class="star-bg" style="animation-duration:7.462s;animation-delay:2.978s"/><circle cx="340.9" cy="59.4" r="0.39" fill="#00d4ff" opacity="0.13" class="star-bg" style="animation-duration:5.831s;animation-delay:5.433s"/><circle cx="12.9" cy="84.4" r="0.84" fill="#00d4ff" opacity="0.11" class="star-bg" style="animation-duration:7.095s;animation-delay:2.678s"/><circle cx="818.6" cy="37.0" r="0.47" fill="#fff" opacity="0.26" class="star-bg" style="animation-duration:5.914s;animation-delay:1.865s"/><circle cx="624.9" cy="50.2" r="0.20" fill="#fff" opacity="0.08" class="star-bg" style="animation-duration:6.659s;animation-delay:3.234s"/><circle cx="811.0" cy="53.5" r="0.23" fill="#ffb020" opacity="0.13" class="star-bg" style="animation-duration:7.757s;animation-delay:3.406s"/><circle cx="267.8" cy="107.6" r="0.88" fill="#fff" opacity="0.08" class="star-bg" style="animation-duration:5.821s;animation-delay:1.406s"/><circle cx="585.4" cy="50.8" r="0.64" fill="#fff" opacity="0.14" class="star-bg" style="animation-duration:5.162s;animation-delay:0.753s"/><circle cx="228.4" cy="43.7" r="0.86" fill="#fff" opacity="0.12" class="star-bg" style="animation-duration:7.745s;animation-delay:0.386s"/><circle cx="114.2" cy="128.3" r="0.50" fill="#ffb020" opacity="0.27" class="star-bg" style="animation-duration:7.957s;animation-delay:7.221s"/><circle cx="743.4" cy="80.1" r="0.19" fill="#ffb020" opacity="0.16" class="star-bg" style="animation-duration:5.672s;animation-delay:0.341s"/><circle cx="41.7" cy="26.8" r="0.88" fill="#a78bfa" opacity="0.12" class="star-bg" style="animation-duration:8.587s;animation-delay:4.422s"/><circle cx="154.1" cy="137.1" r="0.57" fill="#a78bfa" opacity="0.17" class="star-bg" style="animation-duration:8.044s;animation-delay:2.779s"/><circle cx="292.2" cy="102.9" r="0.31" fill="#fff" opacity="0.07" class="star-bg" style="animation-duration:8.339s;animation-delay:5.601s"/><circle cx="535.7" cy="39.7" r="0.44" fill="#a78bfa" opacity="0.21" class="star-bg" style="animation-duration:8.201s;animation-delay:4.330s"/><circle cx="326.4" cy="146.1" r="0.76" fill="#fff" opacity="0.24" class="star-bg" style="animation-duration:8.110s;animation-delay:1.908s"/><circle cx="839.7" cy="14.8" r="0.61" fill="#00d4ff" opacity="0.24" class="star-bg" style="animation-duration:5.839s;animation-delay:2.148s"/><circle cx="789.3" cy="72.1" r="0.67" fill="#fff" opacity="0.25" class="star-bg" style="animation-duration:5.588s;animation-delay:0.953s"/><circle cx="658.8" cy="40.7" r="0.59" fill="#00d4ff" opacity="0.21" class="star-bg" style="animation-duration:8.642s;animation-delay:8.510s"/><circle cx="588.4" cy="14.6" r="0.26" fill="#a78bfa" opacity="0.07" class="star-bg" style="animation-duration:7.690s;animation-delay:2.549s"/><circle cx="153.6" cy="50.7" r="0.81" fill="#a78bfa" opacity="0.22" class="star-mid" style="animation-duration:4.465s;animation-delay:3.242s"/><circle cx="237.7" cy="122.3" r="0.91" fill="#fff" opacity="0.16" class="star-mid" style="animation-duration:6.930s;animation-delay:1.250s"/><circle cx="91.7" cy="86.2" r="0.58" fill="#00d4ff" opacity="0.29" class="star-mid" style="animation-duration:5.897s;animation-delay:0.131s"/><circle cx="561.8" cy="148.2" r="0.85" fill="#ffb020" opacity="0.28" class="star-mid" style="animation-duration:5.828s;animation-delay:4.065s"/><circle cx="688.1" cy="116.6" r="0.44" fill="#fff" opacity="0.24" class="star-mid" style="animation-duration:4.512s;animation-delay:2.967s"/><circle cx="281.3" cy="151.6" r="0.74" fill="#a78bfa" opacity="0.14" class="star-mid" style="animation-duration:5.374s;animation-delay:2.176s"/><circle cx="252.2" cy="122.1" r="0.70" fill="#a78bfa" opacity="0.32" class="star-mid" style="animation-duration:6.539s;animation-delay:3.613s"/><circle cx="85.8" cy="111.3" r="0.79" fill="#ffb020" opacity="0.22" class="star-mid" style="animation-duration:5.601s;animation-delay:0.758s"/><circle cx="454.1" cy="126.9" r="1.02" fill="#fff" opacity="0.41" class="star-mid" style="animation-duration:6.039s;animation-delay:3.263s"/><circle cx="272.7" cy="85.4" r="0.67" fill="#ffb020" opacity="0.40" class="star-mid" style="animation-duration:3.908s;animation-delay:0.839s"/><circle cx="502.2" cy="110.7" r="0.65" fill="#fff" opacity="0.39" class="star-mid" style="animation-duration:5.494s;animation-delay:5.061s"/><circle cx="678.3" cy="79.8" r="0.70" fill="#a78bfa" opacity="0.21" class="star-mid" style="animation-duration:4.755s;animation-delay:2.998s"/><circle cx="210.2" cy="149.1" r="1.18" fill="#fff" opacity="0.31" class="star-mid" style="animation-duration:5.354s;animation-delay:0.233s"/><circle cx="719.6" cy="101.2" r="0.63" fill="#fff" opacity="0.21" class="star-mid" style="animation-duration:5.498s;animation-delay:1.703s"/><circle cx="287.0" cy="124.2" r="0.52" fill="#fff" opacity="0.17" class="star-mid" style="animation-duration:5.571s;animation-delay:2.401s"/><circle cx="105.7" cy="65.3" r="1.19" fill="#00d4ff" opacity="0.23" class="star-mid" style="animation-duration:5.981s;animation-delay:5.520s"/><circle cx="211.3" cy="118.3" r="0.63" fill="#fff" opacity="0.21" class="star-mid" style="animation-duration:5.752s;animation-delay:1.498s"/><circle cx="148.0" cy="38.4" r="1.08" fill="#00d4ff" opacity="0.32" class="star-mid" style="animation-duration:4.202s;animation-delay:2.291s"/><circle cx="563.4" cy="137.2" r="0.73" fill="#fff" opacity="0.15" class="star-mid" style="animation-duration:5.280s;animation-delay:4.117s"/><circle cx="633.2" cy="120.7" r="0.56" fill="#ffb020" opacity="0.20" class="star-mid" style="animation-duration:5.283s;animation-delay:3.353s"/><circle cx="484.8" cy="50.5" r="0.60" fill="#a78bfa" opacity="0.27" class="star-mid" style="animation-duration:4.211s;animation-delay:1.531s"/><circle cx="171.3" cy="92.3" r="0.65" fill="#fff" opacity="0.17" class="star-mid" style="animation-duration:5.732s;animation-delay:2.902s"/><circle cx="270.1" cy="86.6" r="1.05" fill="#a78bfa" opacity="0.31" class="star-mid" style="animation-duration:5.610s;animation-delay:1.695s"/><circle cx="245.5" cy="111.5" r="1.13" fill="#fff" opacity="0.28" class="star-mid" style="animation-duration:6.106s;animation-delay:0.076s"/><circle cx="465.6" cy="165.2" r="1.02" fill="#fff" opacity="0.37" class="star-mid" style="animation-duration:4.819s;animation-delay:0.560s"/><circle cx="558.7" cy="149.4" r="1.22" fill="#fff" opacity="0.39" class="star-fg" style="animation-duration:3.476s;animation-delay:1.921s"/><circle cx="482.3" cy="151.6" r="0.85" fill="#fff" opacity="0.51" class="star-fg" style="animation-duration:3.548s;animation-delay:3.216s"/><circle cx="404.1" cy="68.1" r="0.98" fill="#a78bfa" opacity="0.42" class="star-fg" style="animation-duration:3.869s;animation-delay:0.287s"/><circle cx="775.7" cy="97.2" r="1.08" fill="#ffb020" opacity="0.51" class="star-fg" style="animation-duration:2.672s;animation-delay:2.516s"/><circle cx="605.9" cy="42.2" r="1.49" fill="#00d4ff" opacity="0.55" class="star-fg" style="animation-duration:4.379s;animation-delay:2.987s"/><circle cx="370.1" cy="123.7" r="1.35" fill="#fff" opacity="0.63" class="star-fg" style="animation-duration:2.451s;animation-delay:0.774s"/><circle cx="254.0" cy="78.8" r="0.79" fill="#fff" opacity="0.34" class="star-fg" style="animation-duration:3.756s;animation-delay:0.218s"/><circle cx="152.2" cy="109.0" r="1.17" fill="#ffb020" opacity="0.42" class="star-fg" style="animation-duration:2.668s;animation-delay:0.990s"/><circle cx="524.7" cy="32.9" r="1.27" fill="#fff" opacity="0.26" class="star-fg" style="animation-duration:2.961s;animation-delay:1.459s"/><circle cx="360.5" cy="133.5" r="0.84" fill="#fff" opacity="0.57" class="star-fg" style="animation-duration:4.011s;animation-delay:1.734s"/><line x1="313" y1="72" x2="331" y2="77" stroke="url(#x743a279)" stroke-width="1.1" stroke-linecap="round" class="shooting-star" style="animation-delay:36.12s;--shoot-tx:93px;--shoot-ty:48px;animation-duration:2.71s"/><line x1="659" y1="56" x2="677" y2="61" stroke="url(#x743a279)" stroke-width="1.1" stroke-linecap="round" class="shooting-star" style="animation-delay:9.22s;--shoot-tx:84px;--shoot-ty:45px;animation-duration:2.6s"/><line x1="286" y1="54" x2="304" y2="59" stroke="url(#x743a279)" stroke-width="1.1" stroke-linecap="round" class="shooting-star" style="animation-delay:22.08s;--shoot-tx:108px;--shoot-ty:27px;animation-duration:2.91s"/><line x1="170.0" y1="55" x2="170.0" y2="155" stroke="#1a2332" stroke-width="1" opacity="0.5"/><line x1="340.0" y1="55" x2="340.0" y2="155" stroke="#1a2332" stroke-width="1" opacity="0.5"/><line x1="510.0" y1="55" x2="510.0" y2="155" stroke="#1a2332" stroke-width="1" opacity="0.5"/><line x1="680.0" y1="55" x2="680.0" y2="155" stroke="#1a2332" stroke-width="1" opacity="0.5"/><g class="metric-cell" transform="translate(85.0,95)"><g transform="translate(-8,-30)"><svg viewBox="0 0 16 16" width="16" height="16" fill="#00d4ff" class="metric-icon" style="animation-delay:0.0s"><path d="M8 1a7 7 0 1 0 0 14A7 7 0 0 0 8 1zm0 2.5a4.5 4.5 0 0 1 4.473 4H14.5a.5.5 0 0 1 0 1h-2.027A4.5 4.5 0 0 1 8 12.5a4.5 4.5 0 0 1-4.473-4H1.5a.5.5 0 0 1 0-1h2.027A4.5 4.5 0 0 1 8 3.5zm0 1.5a3 3 0 1 0 0 6 3 3 0 0 0 0-6z"/></svg></g><text x="0" y="2" text-anchor="middle" fill="#00d4ff" font-size="28" font-weight="bold" font-family="sans-serif" opacity="0.35" filter="url(#xdf01081)">607</text><text x="0" y="2" text-anchor="middle" fill="#f1f5f9" font-size="28" font-weight="bold" font-family="sans-serif">607</text><text x="0" y="20" text-anchor="middle" fill="#64748b" font-size="11" font-family="monospace" letter-spacing="1">Commits</text></g><g class="metric-cell" transform="translate(255.0,95)"><g transform="translate(-8,-30)"><svg viewBox="0 0 16 16" width="16" height="16" fill="#ffb020" class="metric-icon" style="animation-delay:0.3s"><path d="M8 .25a.75.75 0 0 1 .673.418l1.882 3.815 4.21.612a.75.75 0 0 1 .416 1.279l-3.046 2.97.719 4.192a.75.75 0 0 1-1.088.791L8 12.347l-3.766 1.98a.75.75 0 0 1-1.088-.79l.72-4.194L.818 6.374a.75.75 0 0 1 .416-1.28l4.21-.611L7.327.668A.75.75 0 0 1 8 .25z"/></svg></g><text x="0" y="2" text-anchor="middle" fill="#ffb020" font-size="28" font-weight="bold" font-family="sans-serif" opacity="0.35" filter="url(#xdf01081)">206</text><text x="0" y="2" text-anchor="middle" fill="#f1f5f9" font-size="28" font-weight="bold" font-family="sans-serif">206</text><text x="0" y="20" text-anchor="middle" fill="#64748b" font-size="11" font-family="monospace" letter-spacing="1">Stars</text></g><g class="metric-cell" transform="translate(425.0,95)"><g transform="translate(-8,-30)"><svg viewBox="0 0 16 16" width="16" height="16" fill="#a78bfa" class="metric-icon" style="animation-delay:0.6s"><path d="M5 3.254V3.25v.005a.75.75 0 1 1 0-.005zm6.5 8a.75.75 0 1 1 0 1.5.75.75 0 0 1 0-1.5zM5 12.75a.75.75 0 1 1 0 1.5.75.75 0 0 1 0-1.5zm-1.5.75a1.5 1.5 0 1 0 1.5 1.5v-8.5a1.5 1.5 0 1 0-1.5-1.5v8.5a1.5 1.5 0 0 0 0 0zm8.5-2.5a1.5 1.5 0 0 0-1.5 1.5 1.5 1.5 0 1 0 3 0v-3.133l.025-.05A3.252 3.252 0 0 0 11 5.25V3.5h1.25a.75.75 0 0 0 .53-1.28l-2-2a.75.75 0 0 0-1.06 0l-2 2A.75.75 0 0 0 8.25 3.5H9.5v1.75a1.75 1.75 0 0 0 1.75 1.75h.244a1.75 1.75 0 0 1 1.006.319V11a1.5 1.5 0 0 0-1.5-1.5z"/></svg></g><text x="0" y="2" text-anchor="middle" fill="#a78bfa" font-size="28" font-weight="bold" font-family="sans-serif" opacity="0.35" filter="url(#xdf01081)">2</text><text x="0" y="2" text-anchor="middle" fill="#f1f5f9" font-size="28" font-weight="bold" font-family="sans-serif">2</text><text x="0" y="20" text-anchor="middle" fill="#64748b" font-size="11" font-family="monospace" letter-spacing="1">PRs</text></g><g class="metric-cell" transform="translate(595.0,95)"><g transform="translate(-8,-30)"><svg viewBox="0 0 16 16" width="16" height="16" fill="#00d4ff" class="metric-icon" style="animation-delay:0.8999999999999999s"><path d="M8 9.5a1.5 1.5 0 1 0 0-3 1.5 1.5 0 0 0 0 3z"/><path d="M8 0a8 8 0 1 1 0 16A8 8 0 0 1 8 0zm0 1.5a6.5 6.5 0 1 0 0 13 6.5 6.5 0 0 0 0-13z"/></svg></g><text x="0" y="2" text-anchor="middle" fill="#00d4ff" font-size="28" font-weight="bold" font-family="sans-serif" opacity="0.35" filter="url(#xdf01081)">5</text><text x="0" y="2" text-anchor="middle" fill="#f1f5f9" font-size="28" font-weight="bold" font-family="sans-serif">5</text><text x="0" y="20" text-anchor="middle" fill="#64748b" font-size="11" font-family="monospace" letter-spacing="1">Issues</text></g><g class="metric-cell" transform="translate(765.0,95)"><g transform="translate(-8,-30)"><svg viewBox="0 0 16 16" width="16" height="16" fill="#a78bfa" class="metric-icon" style="animation-delay:1.2s"><path d="M2 2.5A2.5 2.5 0 0 1 4.5 0h8.75a.75.75 0 0 1 .75.75v12.5a.75.75 0 0 1-.75.75h-2.5a.75.75 0 0 1 0-1.5h1.75v-2h-8a1 1 0 0 0-.714 1.7.75.75 0 0 1-1.072 1.05A2.495 2.495 0 0 1 2 11.5zm10.5-1h-8a1 1 0 0 0-1 1v6.708A2.486 2.486 0 0 1 4.5 9h8zM5 12.25a.25.25 0 0 1 .25-.25h3.5a.25.25 0 0 1 .25.25v3.25a.25.25 0 0 1-.4.2l-1.45-1.087a.25.25 0 0 0-.3 0L5.4 15.7a.25.25 0 0 1-.4-.2z"/></svg></g><text x="0" y="2" text-anchor="middle" fill="#a78bfa" font-size="28" font-weight="bold" font-family="sans-serif" opacity="0.35" filter="url(#xdf01081)">26</text><text x="0" y="2" text-anchor="middle" fill="#f1f5f9" font-size="28" font-weight="bold" font-family="sans-serif">26</text><text x="0" y="20" text-anchor="middle" fill="#64748b" font-size="11" font-family="monospace" letter-spacing="1">Repos</text></g></svg>