<svg xmlns="http://www.w3.org/2000/svg" width="850" height="180" viewBox="0 0 850 180"><defs><style>.metric-icon{animation:count-glow 4s ease-in-out infinite}@keyframes count-glow{0%,100%{fill-opacity:0.7}50%{fill-opacity:1}}.star-bg{animation:twinkle-slow 7s ease-in-out infinite}.star-mid{animation:twinkle-mid 5s ease-in-out infinite}.star-fg{animation:twinkle-fast 3s ease-in-out infinite}@keyframes twinkle-slow{0%,100%{opacity:0.07}50%{opacity:0.30}}@keyframes twinkle-mid{0%,100%{opacity:0.12}50%{opacity:0.45}}@keyframes twinkle-fast{0%,100%{opacity:0.25}50%{opacity:0.65}}.shooting-star{opacity:0;animation:shoot linear infinite}@keyframes shoot{0%{opacity:0;transform:translate(0,0)}5%{opacity:0.9}15%{opacity:0.6;transform:translate(var(--shoot-tx),var(--shoot-ty))}20%{opacity:0;transform:translate(var(--shoot-tx),var(--shoot-ty))}100%{opacity:0}}</style><filter id="xdf01081" x="-30%" y="-30%" width="160%" height="160%"><feGaussianBlur stdDeviation="3"/></filter><radialGradient id="xe7d3b8d" cx="50%" cy="50%" r="80%"><stop offset="0%" stop-color="#0f1623" stop-opacity="0.85"/><stop offset="100%" stop-color="#080c14" stop-opacity="0"/></radialGradient><linearGradient id="x743a279" x1="0" y1="0" x2="1" y2="0"><stop offset="0%" stop-color="#fff" stop-opacity="0.85"/><stop offset="100%" stop-color="#fff" stop-opacity="0"/></linearGradient></defs><rect x="0" y="0" width="850" height="180" rx="14" ry="14" fill="#080c14"/><rect x="0" y="0" width="850" height="180" rx="14" ry="14" fill="url(#xe7d3b8d)"/><circle cx="144.4" cy="143.3" r="0.79" fill="#a78bfa" opacity="0.12" class="star-bg" style="animation-duration:6.461s;animation-delay:0.308s"/><circle cx="154.1" cy="70.8" r="0.36" fill="#fff" opacity="0.17" class="star-bg" style="animation-duration:7.955s;animation-delay:3.262s"/><circle cx="402.7" cy="27.8" r="0.60" fill="#fff" opacity="0.27" class="star-bg" style="animation-duration:6.660s;animation-delay:0.174s"/><circle cx="111.8" cy="113.4" r="0.82" fill="#fff" opacity="0.23" class="star-bg" style="animation-duration:6.268s;animation-delay:4.993s"/><circle cx="832.7" cy="43.6" r="0.64" fill="#fff" opacity="0.20" class="star-bg" style="animation-duration:8.017s;animation-delay:2.681s"/><circle cx="768.0" cy="110.2" r="0.62" fill="#00d4ff" opacity="0.25" class="star-bg" style="animation-duration:7.819s;animation-delay:3.859s"/><circle cx="824.7" cy="156.0" r="0.26" fill="#fff" opacity="0.10" class="star-bg" style="animation-duration:6.926s;animation-delay:6.859s"/><circle cx="745.9" cy="54.9" r="0.33" fill="#a78bfa" opacity="0.30" class="star-bg" style="animation-duration:8.646s;animation-delay:6.278s"/><circle cx="384.7" cy="23.2" r="0.42" fill="#fff" opacity="0.08" class="star-bg" style="animation-duration:5.624s;animation-delay:3.475s"/><circle cx="381.0" cy="86.3" r="0.83" fill="#fff" opacity="0.16" class="star-bg" style="animation-duration:5.295s;animation-delay:3.901s"/><circle cx="115.0" cy="29.2" r="0.58" fill="#a78bfa" opacity="0.28" class="star-bg" style="animation-duration:5.134s;animation-delay:3.961s"/><circle cx="202.4" cy="51.8" r="0.79" fill="#fff" opacity="0.23" class="star-bg" style="animation-duration:6.694s;animation-delay:5.989s"/><circle cx="123.1" cy="93.1" r="0.68" fill="#00d4ff" opacity="0.16" class="star-bg" style="animation-duration:8.266s;animation-delay:7.667s"/><circle cx="784.6" cy="21.1" r="0.78" fill="#fff" opacity="0.17" class="star-bg" style="animation-duration:6.221s;animation-delay:3.887s"/><circle cx="248.6" cy="145.2" r="0.45" fill="#fff" opacity="0.08" class="star-bg" style="animation-duration:8.340s;animation-delay:2.979s"/><circle cx="159.3" cy="131.4" r="0.19" fill="#00d4ff" opacity="0.25" class="star-bg" style="animation-duration:7.373s;animation-delay:0.395s"/><circle cx="611.6" cy="126.5" r="0.87" fill="#fff" opacity="0.13" class="star-bg" style="animation-duration:8.814s;animation-delay:1.377s"/><circle cx="604.0" cy="145.8" r="0.60" fill="#fff" opacity="0.27" class="star-bg" style="animation-duration:6.411s;animation-delay:2.366s"/><circle cx="200.2" cy="29.2" r="0.61" fill="#fff" opacity="0.16" class="star-bg" style="animation-duration:7.471s;animation-delay:1.412s"/><circle cx="609.8" cy="96.1" r="0.72" fill="#a78bfa" opacity="0.26" class="star-bg" style="animation-duration:6.622s;animation-delay:4.387s"/><circle cx="36.2" cy="151.7" r="0.32" fill="#fff" opacity="0.29" class="star-bg" style="animation-duration:5.336s;animation-delay:1.539s"/><circle cx="375.5" cy="122.3" r="0.52" fill="#ffb020" opacity="0.07" class="star-bg" style="animation-duration:6.781s;animation-delay:4.099s"/><circle cx="348.9" cy="153.4" r="0.43" fill="#ffb020" opacity="0.14" class="star-bg" style="animation-duration:7.851s;animation-delay:4.575s"/><circle cx="275.8" cy="28.9" r="0.89" fill="#fff" opacity="0.11" class="star-bg" style="animation-duration:8.173s;animation-delay:5.527s"/><circle cx="409.9" cy="110.5" r="0.57" fill="#00d4ff" opacity="0.17" class="star-bg" style="animation-duration:5.250s;animation-delay:2.703s"/><circle cx="755.5" cy="110.2" r="0.83" fill="#fff" opacity="0.29" class="star-bg" style="animation-duration:6.862s;animation-delay:5.305s"/><circle cx="33.7" cy="102.1" r="0.33" fill="#fff" opacity="0.09" class="star-bg" style="animation-duration:5.452s;animation-delay:0.752s"/><circle cx="356.2" cy="143.0" r="0.85" fill="#fff" opacity="0.09" class="star-bg" style="animation-duration:5.596s;animation-delay:2.848s"/><circle cx="411.5" cy="69.8" r="0.31" fill="#a78bfa" opacity="0.15" class="star-bg" style="animation-duration:8.892s;animation-delay:5.581s"/><circle cx="180.7" cy="62.1" r="0.47" fill="#ffb020" opacity="0.13" class="star-bg" style="animation-duration:8.982s;animation-delay:2.783s"/><circle cx="674.5" cy="28.2" r="0.58" fill="#ffb020" opacity="0.13" class="star-bg" style="animation-duration:5.588s;animation-delay:4.770s"/><circle cx="565.9" cy="55.5" r="0.87" fill="#fff" opacity="0.22" class="star-bg" style="animation-duration:7.671s;animation-delay:0.388s"/><circle cx="355.3" cy="43.5" r="0.23" fill="#fff" opacity="0.13" class="star-bg" style="animation-duration:7.068s;animation-delay:2.185s"/><circle cx="654.9" cy="133.5" r="0.79" fill="#ffb020" opacity="0.14" class="star-bg" style="animation-duration:8.550s;animation-delay:1.773s"/><circle cx="741.6" cy="153.8" r="0.26" fill="#fff" opacity="0.21" class="star-bg" style="animation-duration:7.353s;animation-delay:0.554s"/><circle cx="394.4" cy="30.4" r="0.26" fill="#fff" opacity="0.23" class="star-bg" style="animation-duration:6.188s;animation-delay:4.015s"/><circle cx="497.0" cy="123.7" r="0.75" fill="#fff" opacity="0.24" class="star-bg" style="animation-duration:7.451s;animation-delay:0.503s"/><circle cx="255.1" cy="116.7" r="0.25" fill="#a78bfa" opacity="0.25" class="star-bg" style="animation-duration:7.236s;animation-delay:4.738s"/><circle cx="572.4" cy="23.2" r="0.78" fill="#fff" opacity="0.19" class="star-bg" style="animation-duration:8.143s;animation-delay:0.249s"/><circle cx="291.2" cy="115.4" r="0.32" fill="#00d4ff" opacity="0.21" class="star-bg" style="animation-duration:8.604s;animation-delay:2.174s"/><circle cx="152.7" cy="36.6" r="0.52" fill="#fff" opacity="0.30" class="star-mid" style="animation-duration:4.975s;animation-delay:4.696s"/><circle cx="754.5" cy="71.8" r="0.65" fill="#fff" opacity="0.35" class="star-mid" style="animation-duration:4.769s;animation-delay:3.555s"/><circle cx="811.4" cy="51.2" r="1.14" fill="#a78bfa" opacity="0.25" class="star-mid" style="animation-duration:6.078s;animation-delay:4.580s"/><circle cx="484.5" cy="138.9" r="0.93" fill="#00d4ff" opacity="0.40" class="star-mid" style="animation-duration:6.046s;animation-delay:5.098s"/><circle cx="367.0" cy="61.6" r="0.63" fill="#a78bfa" opacity="0.15" class="star-mid" style="animation-duration:5.108s;animation-delay:1.991s"/><circle cx="667.2" cy="58.6" r="1.06" fill="#fff" opacity="0.39" class="star-mid" style="animation-duration:5.534s;animation-delay:3.282s"/><circle cx="269.7" cy="148.5" r="0.94" fill="#fff" opacity="0.21" class="star-mid" style="animation-duration:3.793s;animation-delay:2.110s"/><circle cx="460.7" cy="135.4" r="0.92" fill="#fff" opacity="0.31" class="star-mid" style="animation-duration:3.870s;animation-delay:0.811s"/><circle cx="526.9" cy="121.4" r="0.46" fill="#00d4ff" opacity="0.26" class="star-mid" style="animation-duration:3.766s;animation-delay:0.412s"/><circle cx="310.7" cy="16.7" r="0.62" fill="#fff" opacity="0.43" class="star-mid" style="animation-duration:3.716s;animation-delay:3.074s"/><circle cx="114.6" cy="44.8" r="0.59" fill="#00d4ff" opacity="0.26" class="star-mid" style="animation-duration:5.136s;animation-delay:0.949s"/><circle cx="14.8" cy="140.7" r="0.51" fill="#fff" opacity="0.13" class="star-mid" style="animation-duration:3.976s;animation-delay:3.056s"/><circle cx="719.2" cy="93.2" r="0.43" fill="#00d4ff" opacity="0.23" class="star-mid" style="animation-duration:4.128s;animation-delay:0.273s"/><circle cx="565.3" cy="49.2" r="0.69" fill="#fff" opacity="0.43" class="star-mid" style="animation-duration:4.683s;animation-delay:3.558s"/><circle cx="107.4" cy="156.1" r="0.88" fill="#00d4ff" opacity="0.37" class="star-mid" style="animation-duration:5.669s;animation-delay:4.211s"/><circle cx="219.8" cy="91.5" r="0.83" fill="#00d4ff" opacity="0.36" class="star-mid" style="animation-duration:3.725s;animation-delay:1.020s"/><circle cx="670.7" cy="62.9" r="1.01" fill="#a78bfa" opacity="0.24" class="star-mid" style="animation-duration:6.910s;animation-delay:6.388s"/><circle cx="596.4" cy="53.1" r="1.12" fill="#a78bfa" opacity="0.22" class="star-mid" style="animation-duration:3.503s;animation-delay:0.158s"/><circle cx="579.5" cy="108.0" r="0.51" fill="#fff" opacity="0.38" class="star-mid" style="animation-duration:4.311s;animation-delay:4.157s"/><circle cx="224.5" cy="21.0" r="0.73" fill="#fff" opacity="0.30" class="star-mid" style="animation-duration:5.101s;animation-delay:3.530s"/><circle cx="422.7" cy="50.8" r="0.53" fill="#ffb020" opacity="0.20" class="star-mid" style="animation-duration:6.740s;animation-delay:4.478s"/><circle cx="347.3" cy="103.0" r="0.46" fill="#fff" opacity="0.38" class="star-mid" style="animation-duration:6.311s;animation-delay:2.161s"/><circle cx="584.0" cy="130.5" r="1.11" fill="#fff" opacity="0.37" class="star-mid" style="animation-duration:5.514s;animation-delay:3.083s"/><circle cx="36.8" cy="157.2" r="0.74" fill="#fff" opacity="0.40" class="star-mid" style="animation-duration:6.919s;animation-delay:2.610s"/><circle cx="211.8" cy="70.7" r="0.79" fill="#a78bfa" opacity="0.31" class="star-mid" style="animation-duration:4.284s;animation-delay:3.004s"/><circle cx="208.2" cy="117.2" r="1.21" fill="#fff" opacity="0.56" class="star-fg" style="animation-duration:4.158s;animation-delay:1.781s"/><circle cx="661.2" cy="83.8" r="0.95" fill="#fff" opacity="0.56" class="star-fg" style="animation-duration:2.633s;animation-delay:0.009s"/><circle cx="674.5" cy="15.9" r="0.95" fill="#ffb020" opacity="0.43" class="star-fg" style="animation-duration:4.351s;animation-delay:2.682s"/><circle cx="468.8" cy="133.7" r="1.12" fill="#ffb020" opacity="0.57" class="star-fg" style="animation-duration:4.274s;animation-delay:0.602s"/><circle cx="715.3" cy="149.9" r="1.04" fill="#ffb020" opacity="0.51" class="star-fg" style="animation-duration:3.355s;animation-delay:0.925s"/><circle cx="159.0" cy="40.1" r="1.09" fill="#a78bfa" opacity="0.44" class="star-fg" style="animation-duration:2.690s;animation-delay:0.563s"/><circle cx="67.1" cy="156.4" r="1.49" fill="#fff" opacity="0.42" class="star-fg" style="animation-duration:3.954s;animation-delay:1.278s"/><circle cx="396.1" cy="57.9" r="0.92" fill="#ffb020" opacity="0.29" class="star-fg" style="animation-duration:3.359s;animation-delay:0.326s"/><circle cx="650.6" cy="19.6" r="0.77" fill="#00d4ff" opacity="0.49" class="star-fg" style="animation-duration:2.265s;animation-delay:1.441s"/><circle cx="743.3" cy="120.0" r="1.02" fill="#fff" opacity="0.47" class="star-fg" style="animation-duration:2.457s;animation-delay:1.882s"/><line x1="331" y1="31" x2="349" y2="36" stroke="url(#x743a279)" stroke-width="1.1" stroke-linecap="round" class="shooting-star" style="animation-delay:1.6s;--shoot-tx:117px;--shoot-ty:30px;animation-duration:2.01s"/><line x1="666" y1="56" x2="684" y2="61" stroke="url(#x743a279)" stroke-width="1.1" stroke-linecap="round" class="shooting-star" style="animation-delay:16.48s;--shoot-tx:106px;--shoot-ty:45px;animation-duration:2.46s"/><line x1="176" y1="21" x2="194" y2="26" stroke="url(#x743a279)" stroke-width="1.1" stroke-linecap="round" class="shooting-star" style="animation-delay:46.36s;--shoot-tx:98px;--shoot-ty:47px;animation-duration:2.79s"/><line x1="170.0" y1="55" x2="170.0" y2="155" stroke="#1a2332" stroke-width="1" opacity="0.5"/><line x1="340.0" y1="55" x2="340.0" y2="155" stroke="#1a2332" stroke-width="1" opacity="0.5"/><line x1="510.0" y1="55" x2="510.0" y2="155" stroke="#1a2332" stroke-width="1" opacity="0.5"/><line x1="680.0" y1="55" x2="680.0" y2="155" stroke="#1a2332" stroke-width="1" opacity="0.5"/><g class="metric-cell" transform="translate(85.0,95)"><g transform="translate(-8,-30)"><svg viewBox="0 0 16 16" width="16" height="16" fill="#00d4ff" class="metric-icon" style="animation-delay:0.0s"><path d="M8 1a7 7 0 1 0 0 14A7 7 0 0 0 8 1zm0 2.5a4.5 4.5 0 0 1 4.473 4H14.5a.5.5 0 0 1 0 1h-2.027A4.5 4.5 0 0 1 8 12.5a4.5 4.5 0 0 1-4.473-4H1.5a.5.5 0 0 1 0-1h2.027A4.5 4.5 0 0 1 8 3.5zm0 1.5a3 3 0 1 0 0 6 3 3 0 0 0 0-6z"/></svg></g><text x="0" y="2" text-anchor="middle" fill="#00d4ff" font-size="28" font-weight="bold" font-family="sans-serif" opacity="0.35" filter="url(#xdf01081)">552</text><text x="0" y="2" text-anchor="middle" fill="#f1f5f9" font-size="28" font-weight="bold" font-family="sans-serif">552</text><text x="0" y="20" text-anchor="middle" fill="#64748b" font-size="11" font-family="monospace" letter-spacing="1">Commits</text></g><g class="metric-cell" transform="translate(255.0,95)"><g transform="translate(-8,-30)"><svg viewBox="0 0 16 16" width="16" height="16" fill="#ffb020" class="metric-icon" style="animation-delay:0.3s"><path d="M8 .25a.75.75 0 0 1 .673.418l1.882 3.815 4.21.612a.75.75 0 0 1 .416 1.279l-3.046 2.97.719 4.192a.75.75 0 0 1-1.088.791L8 12.347l-3.766 1.98a.75.75 0 0 1-1.088-.79l.72-4.194L.818 6.374a.75.75 0 0 1 .416-1.28l4.21-.611L7.327.668A.75.75 0 0 1 8 .25z"/></svg></g><text x="0" y="2" text-anchor="middle" fill="#ffb020" font-size="28" font-weight="bold" font-family="sans-serif" opacity="0.35" filter="url(#xdf01081)">210</text><text x="0" y="2" text-anchor="middle" fill="#f1f5f9" font-size="28" font-weight="bold" font-family="sans-serif">210</text><text x="0" y="20" text-anchor="middle" fill="#64748b" font-size="11" font-family="monospace" letter-spacing="1">Stars</text></g><g class="metric-cell" transform="translate(425.0,95)"><g transform="translate(-8,-30)"><svg viewBox="0 0 16 16" width="16" height="16" fill="#a78bfa" class="metric-icon" style="animation-delay:0.6s"><path d="M5 3.254V3.25v.005a.75.75 0 1 1 0-.005zm6.5 8a.75.75 0 1 1 0 1.5.75.75 0 0 1 0-1.5zM5 12.75a.75.75 0 1 1 0 1.5.75.75 0 0 1 0-1.5zm-1.5.75a1.5 1.5 0 1 0 1.5 1.5v-8.5a1.5 1.5 0 1 0-1.5-1.5v8.5a1.5 1.5 0 0 0 0 0zm8.5-2.5a1.5 1.5 0 0 0-1.5 1.5 1.5 1.5 0 1 0 3 0v-3.133l.025-.05A3.252 3.252 0 0 0 11 5.25V3.5h1.25a.75.75 0 0 0 .53-1.28l-2-2a.75.75 0 0 0-1.06 0l-2 2A.75.75 0 0 0 8.25 3.5H9.5v1.75a1.75 1.75 0 0 0 1.75 1.75h.244a1.75 1.75 0 0 1 1.006.319V11a1.5 1.5 0 0 0-1.5-1.5z"/></svg></g><text x="0" y="2" text-anchor="middle" fill="#a78bfa" font-size="28" font-weight="bold" font-family="sans-serif" opacity="0.35" filter="url(#xdf01081)">3</text><text x="0" y="2" text-anchor="middle" fill="#f1f5f9" font-size="28" font-weight="bold" font-family="sans-serif">3</text><text x="0" y="20" text-anchor="middle" fill="#64748b" font-size="11" font-family="monospace" letter-spacing="1">PRs</text></g><g class="metric-cell" transform="translate(595.0,95)"><g transform="translate(-8,-30)"><svg viewBox="0 0 16 16" width="16" height="16" fill="#00d4ff" class="metric-icon" style="animation-delay:0.8999999999999999s"><path d="M8 9.5a1.5 1.5 0 1 0 0-3 1.5 1.5 0 0 0 0 3z"/><path d="M8 0a8 8 0 1 1 0 16A8 8 0 0 1 8 0zm0 1.5a6.5 6.5 0 1 0 0 13 6.5 6.5 0 0 0 0-13z"/></svg></g><text x="0" y="2" text-anchor="middle" fill="#00d4ff" font-size="28" font-weight="bold" font-family="sans-serif" opacity="0.35" filter="url(#xdf01081)">5</text><text x="0" y="2" text-anchor="middle" fill="#f1f5f9" font-size="28" font-weight="bold" font-family="sans-serif">5</text><text x="0" y="20" text-anchor="middle" fill="#64748b" font-size="11" font-family="monospace" letter-spacing="1">Issues</text></g><g class="metric-cell" transform="translate(765.0,95)"><g transform="translate(-8,-30)"><svg viewBox="0 0 16 16" width="16" height="16" fill="#a78bfa" class="metric-icon" style="animation-delay:1.2s"><path d="M2 2.5A2.5 2.5 0 0 1 4.5 0h8.75a.75.75 0 0 1 .75.75v12.5a.75.75 0 0 1-.75.75h-2.5a.75.75 0 0 1 0-1.5h1.75v-2h-8a1 1 0 0 0-.714 1.7.75.75 0 0 1-1.072 1.05A2.495 2.495 0 0 1 2 11.5zm10.5-1h-8a1 1 0 0 0-1 1v6.708A2.486 2.486 0 0 1 4.5 9h8zM5 12.25a.25.25 0 0 1 .25-.25h3.5a.25.25 0 0 1 .25.25v3.25a.25.25 0 0 1-.4.2l-1.45-1.087a.25.25 0 0 0-.3 0L5.4 15.7a.25.25 0 0 1-.4-.2z"/></svg></g><text x="0" y="2" text-anchor="middle" fill="#a78bfa" font-size="28" font-weight="bold" font-family="sans-serif" opacity="0.35" filter="url(#xdf01081)">29</text><text x="0" y="2" text-anchor="middle" fill="#f1f5f9" font-size="28" font-weight="bold" font-family="sans-serif">29</text><text x="0" y="20" text-anchor="middle" fill="#64748b" font-size="11" font-family="monospace" letter-spacing="1">Repos</text></g></svg>