<svg xmlns="http://www.w3.org/2000/svg" width="850" height="180" viewBox="0 0 850 180"><defs><style>.metric-icon{animation:count-glow 4s ease-in-out infinite}@keyframes count-glow{0%,100%{fill-opacity:0.7}50%{fill-opacity:1}}.star-bg{animation:twinkle-slow 7s ease-in-out infinite}.star-mid{animation:twinkle-mid 5s ease-in-out infinite}.star-fg{animation:twinkle-fast 3s ease-in-out infinite}@keyframes twinkle-slow{0%,100%{opacity:0.07}50%{opacity:0.30}}@keyframes twinkle-mid{0%,100%{opacity:0.12}50%{opacity:0.45}}@keyframes twinkle-fast{0%,100%{opacity:0.25}50%{opacity:0.65}}.shooting-star{opacity:0;animation:shoot linear infinite}@keyframes shoot{0%{opacity:0;transform:translate(0,0)}5%{opacity:0.9}15%{opacity:0.6;transform:translate(var(--shoot-tx),var(--shoot-ty))}20%{opacity:0;transform:translate(var(--shoot-tx),var(--shoot-ty))}100%{opacity:0}}</style><filter id="xdf01081" x="-30%" y="-30%" width="160%" height="160%"><feGaussianBlur stdDeviation="3"/></filter><radialGradient id="xe7d3b8d" cx="50%" cy="50%" r="80%"><stop offset="0%" stop-color="#0f1623" stop-opacity="0.85"/><stop offset="100%" stop-color="#080c14" stop-opacity="0"/></radialGradient><linearGradient id="x743a279" x1="0" y1="0" x2="1" y2="0"><stop offset="0%" stop-color="#fff" stop-opacity="0.85"/><stop offset="100%" stop-color="#fff" stop-opacity="0"/></linearGradient></defs><rect x="0" y="0" width="850" height="180" rx="14" ry="14" fill="#080c14"/><rect x="0" y="0" width="850" height="180" rx="14" ry="14" fill="url(#xe7d3b8d)"/><circle cx="208.8" cy="43.7" r="0.67" fill="#a78bfa" opacity="0.08" class="star-bg" style="animation-duration:7.295s;animation-delay:3.598s"/><circle cx="804.2" cy="75.7" r="0.41" fill="#ffb020" opacity="0.25" class="star-bg" style="animation-duration:6.719s;animation-delay:0.708s"/><circle cx="337.6" cy="16.5" r="0.34" fill="#fff" opacity="0.21" class="star-bg" style="animation-duration:7.253s;animation-delay:6.070s"/><circle cx="690.8" cy="28.9" r="0.73" fill="#fff" opacity="0.12" class="star-bg" style="animation-duration:7.462s;animation-delay:3.560s"/><circle cx="70.9" cy="146.6" r="0.44" fill="#a78bfa" opacity="0.20" class="star-bg" style="animation-duration:8.778s;animation-delay:4.922s"/><circle cx="381.5" cy="148.0" r="0.56" fill="#fff" opacity="0.18" class="star-bg" style="animation-duration:8.807s;animation-delay:7.391s"/><circle cx="129.8" cy="54.6" r="0.54" fill="#fff" opacity="0.18" class="star-bg" style="animation-duration:5.742s;animation-delay:5.430s"/><circle cx="579.3" cy="109.7" r="0.54" fill="#00d4ff" opacity="0.21" class="star-bg" style="animation-duration:5.751s;animation-delay:2.044s"/><circle cx="565.8" cy="34.7" r="0.45" fill="#ffb020" opacity="0.12" class="star-bg" style="animation-duration:6.995s;animation-delay:5.543s"/><circle cx="187.9" cy="116.4" r="0.38" fill="#ffb020" opacity="0.24" class="star-bg" style="animation-duration:5.994s;animation-delay:2.605s"/><circle cx="806.7" cy="140.5" r="0.80" fill="#fff" opacity="0.29" class="star-bg" style="animation-duration:5.512s;animation-delay:5.277s"/><circle cx="645.2" cy="10.7" r="0.69" fill="#fff" opacity="0.17" class="star-bg" style="animation-duration:6.079s;animation-delay:1.688s"/><circle cx="485.5" cy="86.4" r="0.60" fill="#fff" opacity="0.08" class="star-bg" style="animation-duration:7.056s;animation-delay:5.775s"/><circle cx="436.2" cy="159.4" r="0.30" fill="#fff" opacity="0.29" class="star-bg" style="animation-duration:5.830s;animation-delay:0.168s"/><circle cx="39.1" cy="102.4" r="0.24" fill="#ffb020" opacity="0.29" class="star-bg" style="animation-duration:8.469s;animation-delay:1.138s"/><circle cx="35.7" cy="16.9" r="0.71" fill="#fff" opacity="0.17" class="star-bg" style="animation-duration:6.736s;animation-delay:5.478s"/><circle cx="215.1" cy="169.7" r="0.83" fill="#fff" opacity="0.21" class="star-bg" style="animation-duration:5.005s;animation-delay:4.179s"/><circle cx="219.9" cy="143.9" r="0.54" fill="#ffb020" opacity="0.14" class="star-bg" style="animation-duration:8.612s;animation-delay:1.165s"/><circle cx="646.5" cy="52.2" r="0.86" fill="#ffb020" opacity="0.21" class="star-bg" style="animation-duration:6.186s;animation-delay:2.371s"/><circle cx="675.9" cy="108.1" r="0.86" fill="#00d4ff" opacity="0.27" class="star-bg" style="animation-duration:5.894s;animation-delay:1.903s"/><circle cx="387.2" cy="134.5" r="0.65" fill="#fff" opacity="0.21" class="star-bg" style="animation-duration:8.372s;animation-delay:6.175s"/><circle cx="547.7" cy="83.2" r="0.47" fill="#00d4ff" opacity="0.23" class="star-bg" style="animation-duration:7.484s;animation-delay:2.173s"/><circle cx="398.9" cy="58.4" r="0.63" fill="#ffb020" opacity="0.10" class="star-bg" style="animation-duration:6.163s;animation-delay:0.676s"/><circle cx="218.2" cy="162.1" r="0.20" fill="#fff" opacity="0.08" class="star-bg" style="animation-duration:6.856s;animation-delay:2.543s"/><circle cx="779.1" cy="167.8" r="0.86" fill="#fff" opacity="0.12" class="star-bg" style="animation-duration:5.050s;animation-delay:1.518s"/><circle cx="516.2" cy="132.1" r="0.65" fill="#fff" opacity="0.22" class="star-bg" style="animation-duration:6.461s;animation-delay:2.238s"/><circle cx="753.4" cy="111.4" r="0.25" fill="#ffb020" opacity="0.28" class="star-bg" style="animation-duration:6.795s;animation-delay:0.114s"/><circle cx="246.7" cy="107.6" r="0.87" fill="#fff" opacity="0.24" class="star-bg" style="animation-duration:8.775s;animation-delay:4.188s"/><circle cx="740.4" cy="162.8" r="0.74" fill="#ffb020" opacity="0.11" class="star-bg" style="animation-duration:6.193s;animation-delay:2.380s"/><circle cx="644.3" cy="86.3" r="0.28" fill="#00d4ff" opacity="0.16" class="star-bg" style="animation-duration:5.121s;animation-delay:3.964s"/><circle cx="343.7" cy="139.4" r="0.28" fill="#fff" opacity="0.25" class="star-bg" style="animation-duration:7.033s;animation-delay:4.700s"/><circle cx="241.2" cy="38.1" r="0.71" fill="#fff" opacity="0.12" class="star-bg" style="animation-duration:5.800s;animation-delay:2.178s"/><circle cx="733.1" cy="136.0" r="0.72" fill="#ffb020" opacity="0.20" class="star-bg" style="animation-duration:8.515s;animation-delay:7.872s"/><circle cx="169.2" cy="16.2" r="0.46" fill="#00d4ff" opacity="0.26" class="star-bg" style="animation-duration:6.157s;animation-delay:2.239s"/><circle cx="488.4" cy="15.8" r="0.50" fill="#00d4ff" opacity="0.30" class="star-bg" style="animation-duration:6.119s;animation-delay:2.360s"/><circle cx="412.7" cy="33.1" r="0.52" fill="#fff" opacity="0.28" class="star-bg" style="animation-duration:7.171s;animation-delay:7.095s"/><circle cx="767.6" cy="24.1" r="0.81" fill="#a78bfa" opacity="0.09" class="star-bg" style="animation-duration:8.542s;animation-delay:4.052s"/><circle cx="123.4" cy="141.1" r="0.42" fill="#ffb020" opacity="0.27" class="star-bg" style="animation-duration:6.593s;animation-delay:2.842s"/><circle cx="626.3" cy="79.5" r="0.40" fill="#fff" opacity="0.16" class="star-bg" style="animation-duration:8.155s;animation-delay:5.348s"/><circle cx="600.7" cy="106.4" r="0.75" fill="#fff" opacity="0.22" class="star-bg" style="animation-duration:8.321s;animation-delay:4.430s"/><circle cx="671.1" cy="89.3" r="0.58" fill="#fff" opacity="0.22" class="star-mid" style="animation-duration:6.639s;animation-delay:4.660s"/><circle cx="327.7" cy="48.5" r="0.93" fill="#fff" opacity="0.34" class="star-mid" style="animation-duration:4.960s;animation-delay:4.324s"/><circle cx="188.7" cy="140.0" r="0.47" fill="#ffb020" opacity="0.31" class="star-mid" style="animation-duration:5.035s;animation-delay:4.897s"/><circle cx="565.4" cy="27.3" r="0.99" fill="#fff" opacity="0.20" class="star-mid" style="animation-duration:6.789s;animation-delay:6.786s"/><circle cx="648.7" cy="155.2" r="1.04" fill="#a78bfa" opacity="0.26" class="star-mid" style="animation-duration:6.624s;animation-delay:5.776s"/><circle cx="73.1" cy="86.2" r="0.78" fill="#fff" opacity="0.35" class="star-mid" style="animation-duration:4.036s;animation-delay:2.562s"/><circle cx="453.3" cy="84.8" r="0.41" fill="#fff" opacity="0.16" class="star-mid" style="animation-duration:6.396s;animation-delay:4.448s"/><circle cx="126.2" cy="54.6" r="1.07" fill="#ffb020" opacity="0.15" class="star-mid" style="animation-duration:6.411s;animation-delay:2.380s"/><circle cx="555.8" cy="162.5" r="1.13" fill="#fff" opacity="0.35" class="star-mid" style="animation-duration:3.717s;animation-delay:1.876s"/><circle cx="405.4" cy="166.4" r="0.81" fill="#fff" opacity="0.21" class="star-mid" style="animation-duration:4.769s;animation-delay:1.150s"/><circle cx="171.9" cy="127.0" r="1.13" fill="#fff" opacity="0.33" class="star-mid" style="animation-duration:6.344s;animation-delay:0.376s"/><circle cx="668.5" cy="140.1" r="0.63" fill="#ffb020" opacity="0.42" class="star-mid" style="animation-duration:4.327s;animation-delay:0.774s"/><circle cx="767.8" cy="90.8" r="0.52" fill="#fff" opacity="0.30" class="star-mid" style="animation-duration:4.112s;animation-delay:1.282s"/><circle cx="701.9" cy="98.8" r="0.93" fill="#fff" opacity="0.23" class="star-mid" style="animation-duration:6.296s;animation-delay:3.243s"/><circle cx="804.7" cy="38.5" r="0.82" fill="#a78bfa" opacity="0.17" class="star-mid" style="animation-duration:6.157s;animation-delay:4.010s"/><circle cx="30.9" cy="139.4" r="1.00" fill="#ffb020" opacity="0.15" class="star-mid" style="animation-duration:5.805s;animation-delay:4.489s"/><circle cx="784.6" cy="45.3" r="0.43" fill="#ffb020" opacity="0.14" class="star-mid" style="animation-duration:6.930s;animation-delay:1.618s"/><circle cx="446.7" cy="24.0" r="1.08" fill="#00d4ff" opacity="0.37" class="star-mid" style="animation-duration:5.393s;animation-delay:4.767s"/><circle cx="744.5" cy="63.3" r="0.73" fill="#fff" opacity="0.19" class="star-mid" style="animation-duration:5.937s;animation-delay:2.763s"/><circle cx="122.0" cy="143.2" r="1.11" fill="#fff" opacity="0.27" class="star-mid" style="animation-duration:5.659s;animation-delay:2.232s"/><circle cx="770.6" cy="26.8" r="0.92" fill="#fff" opacity="0.42" class="star-mid" style="animation-duration:6.026s;animation-delay:1.274s"/><circle cx="585.1" cy="57.5" r="1.11" fill="#00d4ff" opacity="0.17" class="star-mid" style="animation-duration:4.979s;animation-delay:4.945s"/><circle cx="725.6" cy="142.8" r="1.00" fill="#ffb020" opacity="0.36" class="star-mid" style="animation-duration:3.910s;animation-delay:1.115s"/><circle cx="597.1" cy="116.0" r="0.48" fill="#fff" opacity="0.19" class="star-mid" style="animation-duration:4.363s;animation-delay:2.178s"/><circle cx="614.3" cy="25.8" r="0.51" fill="#a78bfa" opacity="0.20" class="star-mid" style="animation-duration:5.810s;animation-delay:3.845s"/><circle cx="127.8" cy="69.6" r="1.07" fill="#fff" opacity="0.51" class="star-fg" style="animation-duration:3.710s;animation-delay:1.625s"/><circle cx="803.5" cy="99.1" r="1.45" fill="#fff" opacity="0.38" class="star-fg" style="animation-duration:4.104s;animation-delay:0.247s"/><circle cx="260.2" cy="21.5" r="1.25" fill="#fff" opacity="0.28" class="star-fg" style="animation-duration:3.097s;animation-delay:1.780s"/><circle cx="18.3" cy="59.1" r="1.27" fill="#a78bfa" opacity="0.51" class="star-fg" style="animation-duration:4.306s;animation-delay:2.215s"/><circle cx="355.3" cy="85.5" r="1.17" fill="#a78bfa" opacity="0.26" class="star-fg" style="animation-duration:2.307s;animation-delay:0.216s"/><circle cx="357.8" cy="143.8" r="1.21" fill="#fff" opacity="0.64" class="star-fg" style="animation-duration:3.882s;animation-delay:3.696s"/><circle cx="309.7" cy="31.9" r="0.70" fill="#ffb020" opacity="0.39" class="star-fg" style="animation-duration:4.232s;animation-delay:0.682s"/><circle cx="666.5" cy="127.5" r="1.32" fill="#ffb020" opacity="0.55" class="star-fg" style="animation-duration:4.431s;animation-delay:3.736s"/><circle cx="798.1" cy="114.8" r="1.00" fill="#fff" opacity="0.56" class="star-fg" style="animation-duration:4.013s;animation-delay:0.097s"/><circle cx="115.6" cy="134.5" r="1.00" fill="#00d4ff" opacity="0.61" class="star-fg" style="animation-duration:3.760s;animation-delay:1.194s"/><line x1="601" y1="54" x2="619" y2="59" stroke="url(#x743a279)" stroke-width="1.1" stroke-linecap="round" class="shooting-star" style="animation-delay:4.51s;--shoot-tx:106px;--shoot-ty:30px;animation-duration:2.33s"/><line x1="239" y1="32" x2="257" y2="37" stroke="url(#x743a279)" stroke-width="1.1" stroke-linecap="round" class="shooting-star" style="animation-delay:17.53s;--shoot-tx:89px;--shoot-ty:55px;animation-duration:2.23s"/><line x1="110" y1="57" x2="128" y2="62" stroke="url(#x743a279)" stroke-width="1.1" stroke-linecap="round" class="shooting-star" style="animation-delay:19.11s;--shoot-tx:119px;--shoot-ty:30px;animation-duration:2.25s"/><line x1="170.0" y1="55" x2="170.0" y2="155" stroke="#1a2332" stroke-width="1" opacity="0.5"/><line x1="340.0" y1="55" x2="340.0" y2="155" stroke="#1a2332" stroke-width="1" opacity="0.5"/><line x1="510.0" y1="55" x2="510.0" y2="155" stroke="#1a2332" stroke-width="1" opacity="0.5"/><line x1="680.0" y1="55" x2="680.0" y2="155" stroke="#1a2332" stroke-width="1" opacity="0.5"/><g class="metric-cell" transform="translate(85.0,95)"><g transform="translate(-8,-30)"><svg viewBox="0 0 16 16" width="16" height="16" fill="#00d4ff" class="metric-icon" style="animation-delay:0.0s"><path d="M8 1a7 7 0 1 0 0 14A7 7 0 0 0 8 1zm0 2.5a4.5 4.5 0 0 1 4.473 4H14.5a.5.5 0 0 1 0 1h-2.027A4.5 4.5 0 0 1 8 12.5a4.5 4.5 0 0 1-4.473-4H1.5a.5.5 0 0 1 0-1h2.027A4.5 4.5 0 0 1 8 3.5zm0 1.5a3 3 0 1 0 0 6 3 3 0 0 0 0-6z"/></svg></g><text x="0" y="2" text-anchor="middle" fill="#00d4ff" font-size="28" font-weight="bold" font-family="sans-serif" opacity="0.35" filter="url(#xdf01081)">603</text><text x="0" y="2" text-anchor="middle" fill="#f1f5f9" font-size="28" font-weight="bold" font-family="sans-serif">603</text><text x="0" y="20" text-anchor="middle" fill="#64748b" font-size="11" font-family="monospace" letter-spacing="1">Commits</text></g><g class="metric-cell" transform="translate(255.0,95)"><g transform="translate(-8,-30)"><svg viewBox="0 0 16 16" width="16" height="16" fill="#ffb020" class="metric-icon" style="animation-delay:0.3s"><path d="M8 .25a.75.75 0 0 1 .673.418l1.882 3.815 4.21.612a.75.75 0 0 1 .416 1.279l-3.046 2.97.719 4.192a.75.75 0 0 1-1.088.791L8 12.347l-3.766 1.98a.75.75 0 0 1-1.088-.79l.72-4.194L.818 6.374a.75.75 0 0 1 .416-1.28l4.21-.611L7.327.668A.75.75 0 0 1 8 .25z"/></svg></g><text x="0" y="2" text-anchor="middle" fill="#ffb020" font-size="28" font-weight="bold" font-family="sans-serif" opacity="0.35" filter="url(#xdf01081)">201</text><text x="0" y="2" text-anchor="middle" fill="#f1f5f9" font-size="28" font-weight="bold" font-family="sans-serif">201</text><text x="0" y="20" text-anchor="middle" fill="#64748b" font-size="11" font-family="monospace" letter-spacing="1">Stars</text></g><g class="metric-cell" transform="translate(425.0,95)"><g transform="translate(-8,-30)"><svg viewBox="0 0 16 16" width="16" height="16" fill="#a78bfa" class="metric-icon" style="animation-delay:0.6s"><path d="M5 3.254V3.25v.005a.75.75 0 1 1 0-.005zm6.5 8a.75.75 0 1 1 0 1.5.75.75 0 0 1 0-1.5zM5 12.75a.75.75 0 1 1 0 1.5.75.75 0 0 1 0-1.5zm-1.5.75a1.5 1.5 0 1 0 1.5 1.5v-8.5a1.5 1.5 0 1 0-1.5-1.5v8.5a1.5 1.5 0 0 0 0 0zm8.5-2.5a1.5 1.5 0 0 0-1.5 1.5 1.5 1.5 0 1 0 3 0v-3.133l.025-.05A3.252 3.252 0 0 0 11 5.25V3.5h1.25a.75.75 0 0 0 .53-1.28l-2-2a.75.75 0 0 0-1.06 0l-2 2A.75.75 0 0 0 8.25 3.5H9.5v1.75a1.75 1.75 0 0 0 1.75 1.75h.244a1.75 1.75 0 0 1 1.006.319V11a1.5 1.5 0 0 0-1.5-1.5z"/></svg></g><text x="0" y="2" text-anchor="middle" fill="#a78bfa" font-size="28" font-weight="bold" font-family="sans-serif" opacity="0.35" filter="url(#xdf01081)">1</text><text x="0" y="2" text-anchor="middle" fill="#f1f5f9" font-size="28" font-weight="bold" font-family="sans-serif">1</text><text x="0" y="20" text-anchor="middle" fill="#64748b" font-size="11" font-family="monospace" letter-spacing="1">PRs</text></g><g class="metric-cell" transform="translate(595.0,95)"><g transform="translate(-8,-30)"><svg viewBox="0 0 16 16" width="16" height="16" fill="#00d4ff" class="metric-icon" style="animation-delay:0.8999999999999999s"><path d="M8 9.5a1.5 1.5 0 1 0 0-3 1.5 1.5 0 0 0 0 3z"/><path d="M8 0a8 8 0 1 1 0 16A8 8 0 0 1 8 0zm0 1.5a6.5 6.5 0 1 0 0 13 6.5 6.5 0 0 0 0-13z"/></svg></g><text x="0" y="2" text-anchor="middle" fill="#00d4ff" font-size="28" font-weight="bold" font-family="sans-serif" opacity="0.35" filter="url(#xdf01081)">5</text><text x="0" y="2" text-anchor="middle" fill="#f1f5f9" font-size="28" font-weight="bold" font-family="sans-serif">5</text><text x="0" y="20" text-anchor="middle" fill="#64748b" font-size="11" font-family="monospace" letter-spacing="1">Issues</text></g><g class="metric-cell" transform="translate(765.0,95)"><g transform="translate(-8,-30)"><svg viewBox="0 0 16 16" width="16" height="16" fill="#a78bfa" class="metric-icon" style="animation-delay:1.2s"><path d="M2 2.5A2.5 2.5 0 0 1 4.5 0h8.75a.75.75 0 0 1 .75.75v12.5a.75.75 0 0 1-.75.75h-2.5a.75.75 0 0 1 0-1.5h1.75v-2h-8a1 1 0 0 0-.714 1.7.75.75 0 0 1-1.072 1.05A2.495 2.495 0 0 1 2 11.5zm10.5-1h-8a1 1 0 0 0-1 1v6.708A2.486 2.486 0 0 1 4.5 9h8zM5 12.25a.25.25 0 0 1 .25-.25h3.5a.25.25 0 0 1 .25.25v3.25a.25.25 0 0 1-.4.2l-1.45-1.087a.25.25 0 0 0-.3 0L5.4 15.7a.25.25 0 0 1-.4-.2z"/></svg></g><text x="0" y="2" text-anchor="middle" fill="#a78bfa" font-size="28" font-weight="bold" font-family="sans-serif" opacity="0.35" filter="url(#xdf01081)">25</text><text x="0" y="2" text-anchor="middle" fill="#f1f5f9" font-size="28" font-weight="bold" font-family="sans-serif">25</text><text x="0" y="20" text-anchor="middle" fill="#64748b" font-size="11" font-family="monospace" letter-spacing="1">Repos</text></g></svg>